<svg width="512" height="367" viewBox="0 0 512 367" fill="none" xmlns="http://www.w3.org/2000/svg">
<path d="M0 0H250.182C394.78 0 512 117.22 512 261.818V366.545H232.727C104.196 366.545 0 262.35 0 133.818V0Z" fill="#5D8E57"/>
<path d="M29.0909 23.2727C37.8158 26.4532 46.4909 29.8211 55.0909 33.2415C131.91 64.3216 207.366 100.409 275.165 148.92C275.831 149.404 276.498 149.89 277.165 150.378C344.698 200.423 405.208 258.976 462.614 319.838C468.91 326.575 475.274 333.462 481.455 340.364C474.991 333.727 468.364 327.098 461.821 320.608C402.209 261.977 340.772 204.748 273.727 155.071C273.066 154.587 272.405 154.105 271.744 153.625C204.637 105.56 130.2 68.1694 54.662 34.2613C46.2038 30.522 37.6744 26.8144 29.0909 23.2727Z" fill="#246F1B"/>
<path d="M172.989 269.091L116.364 96H157.905L207.113 249.309H186.342L237.775 96H274.865L324.32 249.309H304.291L354.735 96H393.062L336.436 269.091H293.411L249.644 134.575H261.018L216.015 269.091H172.989Z" fill="#AADD98"/>
</svg>
