<svg width="120" height="120" viewBox="0 0 120 120" fill="none" xmlns="http://www.w3.org/2000/svg">
<path d="M59.9801 10.8094C75.9947 10.8094 77.8993 10.8692 84.2214 11.1584C90.0748 11.4276 93.2458 12.4049 95.3598 13.2225C97.9624 14.1798 100.326 15.7155 102.26 17.7098C104.255 19.6443 105.79 21.9977 106.748 24.6103C107.565 26.7243 108.542 29.9053 108.812 35.7487C109.101 42.0708 109.161 43.9754 109.161 59.99C109.161 76.0046 109.101 77.9092 108.812 84.2313C108.542 90.0848 107.565 93.2558 106.748 95.3698C104.733 100.605 100.595 104.733 95.3598 106.758C93.2458 107.575 90.0648 108.552 84.2214 108.822C77.8993 109.111 75.9947 109.171 59.9801 109.171C43.9654 109.171 42.0608 109.111 35.7387 108.822C29.8853 108.552 26.7143 107.575 24.6003 106.758C21.9977 105.8 19.6344 104.265 17.6998 102.27C15.7055 100.336 14.1699 97.9824 13.2126 95.3698C12.3949 93.2558 11.4177 90.0748 11.1484 84.2313C10.8592 77.9092 10.7994 76.0046 10.7994 59.99C10.7994 43.9754 10.8592 42.0708 11.1484 35.7487C11.4177 29.8953 12.3949 26.7243 13.2126 24.6103C14.1699 22.0076 15.7055 19.6443 17.6998 17.7098C19.6344 15.7155 21.9877 14.1798 24.6003 13.2225C26.7143 12.4049 29.8953 11.4276 35.7387 11.1584C42.0608 10.8692 43.9654 10.8094 59.9801 10.8094ZM59.99 0C43.6962 0 41.652 0.0698021 35.2501 0.358983C28.8682 0.648163 24.5006 1.66528 20.6914 3.15107C16.6927 4.65681 13.063 7.02011 10.0615 10.0715C7.01013 13.073 4.64684 16.6927 3.14111 20.7013C1.65532 24.5205 0.648164 28.8782 0.358983 35.2601C0.0698028 41.662 0 43.7062 0 60C0 76.2938 0.0698028 78.338 0.358983 84.7399C0.648164 91.1218 1.66529 95.4894 3.15108 99.2986C4.65681 103.297 7.02012 106.927 10.0715 109.929C13.073 112.98 16.6927 115.343 20.7013 116.849C24.5205 118.335 28.8782 119.342 35.2601 119.641C41.662 119.93 43.7062 120 60 120C76.2938 120 78.338 119.93 84.7399 119.641C91.1218 119.352 95.4894 118.335 99.2986 116.849C107.356 113.728 113.728 107.366 116.849 99.2986C118.335 95.4795 119.342 91.1218 119.641 84.7399C119.93 78.338 120 76.2938 120 60C120 43.7062 119.93 41.662 119.641 35.2601C119.352 28.8782 118.335 24.5106 116.849 20.7013C115.343 16.7027 112.98 13.073 109.929 10.0715C106.927 7.02011 103.307 4.65681 99.2986 3.15107C95.4795 1.66528 91.1218 0.658135 84.7399 0.368954C78.338 0.0797739 76.2938 0.00997174 60 0.00997174L59.99 0Z" fill="white"/>
<path d="M59.9797 29.1873C42.9679 29.1873 29.167 42.9782 29.167 59.9999C29.167 77.0217 42.9579 90.8126 59.9797 90.8126C77.0015 90.8126 90.7924 77.0217 90.7924 59.9999C90.7924 42.9882 77.0015 29.1873 59.9797 29.1873ZM59.9797 79.9933C48.931 79.9933 39.9863 71.0387 39.9863 59.99C39.9863 48.9413 48.941 39.9966 59.9897 39.9966C71.0384 39.9966 79.983 48.9513 79.983 59.9999C79.983 71.0486 71.0284 80.0033 59.9797 80.0033V79.9933Z" fill="white"/>
<path d="M92.0092 20.7712C95.9879 20.7712 99.2088 23.9921 99.2088 27.9708C99.2088 31.9496 95.9879 35.1704 92.0092 35.1704C88.0304 35.1704 84.8096 31.9496 84.8096 27.9708C84.8096 23.9921 88.0304 20.7712 92.0092 20.7712Z" fill="white"/>
</svg>
