<svg width="512" height="512" viewBox="0 0 512 512" fill="none" xmlns="http://www.w3.org/2000/svg">
<path d="M0 512L2.98339e-06 261.818C4.7077e-06 117.22 163.736 -1.33063e-05 365.714 -1.08977e-05L512 -9.15325e-06L512 279.273C512 407.804 366.457 512 186.921 512L0 512Z" fill="#5D8E57"/>
<path d="M32.5078 482.909C36.9504 474.184 41.6548 465.509 46.4324 456.909C89.8459 380.091 140.254 304.634 208.016 236.835C208.692 236.169 209.37 235.502 210.051 234.835C279.957 167.302 361.744 106.792 446.758 49.3864C456.168 43.09 465.788 36.7264 475.428 30.5455C466.159 37.0095 456.899 43.6357 447.833 50.1791C365.937 109.791 285.997 171.228 216.607 238.273C215.931 238.934 215.258 239.595 214.587 240.256C147.449 307.363 95.2207 381.8 47.857 457.338C42.6338 465.796 37.455 474.326 32.5078 482.909Z" fill="#246F1B"/>
<path d="M166.013 375L95 158H147.097L208.806 350.2H182.758L247.258 158H293.773L355.793 350.2H330.675L393.935 158H442L370.987 375H317.03L262.143 206.36H276.408L219.97 375H166.013Z" fill="#F2FFEE"/>
</svg>
