<svg width="138" height="159" viewBox="0 0 138 159" fill="none" xmlns="http://www.w3.org/2000/svg">
<path d="M136.585 95.6458L134.569 54.0135C134.068 43.6665 126.869 25.9525 126.843 25.9525C126.793 25.9525 126.595 25.9426 126.424 25.9525C126.289 25.9624 126.341 25.0572 126.252 25.1035L100.882 42.7481L76.3589 36.4316C75.9366 36.3226 75.4846 36.4646 75.2009 36.795L59.3253 55.2755C59.068 55.5761 58.6787 55.7215 58.2894 55.6653L42.8163 53.584C41.7276 53.4287 40.332 52.5434 39.6029 51.7208C39.6029 51.7175 39.5963 51.7142 39.593 51.7109L31.4341 46.0947L31.5331 45.8238L30.5797 45.5727C30.1706 45.4703 29.7219 45.6553 29.5272 46.065L20.9428 64.2712L17.5084 64.2151L13.5296 61.7076L13.6252 61.3574C13.6252 61.3574 12.9555 61.2914 12.7576 61.2848C12.5002 61.2782 12.2429 61.3839 12.0383 61.5656L9.16476 64.0763L2.81716 63.0588C2.13753 63.0489 1.8769 64.6379 2.02206 65.3053L2.38167 66.9637L2.2893 66.8778C2.04186 66.673 1.8538 66.4054 1.74493 66.1014L1.59317 65.6786C1.42161 65.1929 1.77462 95.2791 1.77462 95.2791C0.108545 129.663 40.972 146.32 59.1604 154.989L63.5977 155.332L73.4194 154.989H76.4282C110.802 154.989 138.258 130.023 136.595 95.6425L136.585 95.6458Z" fill="#966A2A"/>
<path d="M134.2 87.6543L131.6 52.5103C130.901 43.0421 128.054 34.2016 123.553 26.4315C123.296 25.9855 123.398 25.4338 123.784 25.0968C123.913 24.9845 124.029 24.8557 124.128 24.7169C125.609 22.6423 123.233 18.4037 118.826 15.2487C117.021 13.957 115.157 13.0485 113.481 12.5695C113.092 12.4572 112.834 12.0971 112.854 11.6907C112.953 9.77463 111.719 7.50835 109.519 5.93252C107.397 4.41615 104.963 3.95695 103.194 4.56482C102.785 4.70687 102.333 4.63089 101.964 4.40624C101.245 3.96686 100.512 3.54069 99.7731 3.12774C99.6807 3.07488 99.5784 3.03193 99.4795 2.99559C98.3181 2.59916 98.173 2.70488 97.4736 3.23015C94.699 5.36429 90.8191 5.79046 87.5497 4.0032C87.2989 3.86775 87.0581 3.71909 86.8239 3.56382C85.877 2.92622 84.6233 3.01542 83.7193 3.71248C81.4495 5.4601 79.7075 7.91139 78.8762 10.812C78.6188 11.7073 78.147 12.5365 77.4872 13.1906C76.283 14.3832 75.4813 16.4942 75.4813 18.8992C75.4813 20.888 76.029 22.6753 76.8999 23.9108C77.441 24.6773 77.5697 25.6717 77.1738 26.5207C76.6195 27.7067 76.2962 29.1669 76.2962 30.746C76.2962 33.6334 77.3849 36.1243 78.9619 37.2773L79.0147 39.2198C79.1962 43.7755 75.5572 47.5681 71.0043 47.5681H68.3782C63.8253 47.5681 60.1864 43.7755 60.3678 39.2198V39.1769C60.3843 38.6615 60.0709 38.1858 59.5826 38.0239C58.7017 37.7299 57.1676 36.7289 56.5705 36.2928C56.455 36.2102 56.4583 36.0385 56.5771 35.9625C58.2596 34.8789 59.3649 30.974 59.1504 26.382C59.0349 23.9208 58.5599 21.6941 57.8703 20.0126C57.6823 19.5567 57.7153 19.0314 57.9957 18.625C58.5104 17.8718 59.124 17.2144 59.8103 16.666C60.5724 16.0581 61.031 15.1496 61.0573 14.1718C61.3444 3.85123 50.6221 -3.07977 41.3217 1.37351C36.8876 3.49775 32.7406 6.12082 28.9597 9.17337C28.6166 9.44757 28.4682 9.89356 28.5506 10.323C28.5638 10.3891 28.5737 10.4519 28.5869 10.5179C28.6925 11.1357 28.257 11.7502 27.6533 11.9154C26.1323 12.3316 24.4927 13.696 23.3544 15.6716C21.5993 18.7175 22.4175 21.3109 23.5623 23.1477C23.7701 23.4814 18.6267 26.9667 15.3144 26.676C14.549 26.6099 13.8198 27.0063 13.4503 27.6803C11.8436 30.6073 10.4679 33.6764 9.35277 36.8677C7.62071 41.8198 6.50559 47.066 6.09979 52.5169L3.50005 87.6609C2.68186 98.7379 4.8758 109.306 9.37257 118.622C18.244 136.994 36.0826 150.493 57.4975 153.413C59.863 153.737 61.9679 151.887 61.9679 149.495V147.939C61.9679 145.428 64.0002 143.393 66.5076 143.393H71.1759C73.6833 143.393 75.7155 145.428 75.7155 147.939V149.495C75.7155 151.887 77.8204 153.737 80.1859 153.413C101.604 150.493 119.443 136.994 128.311 118.622C132.808 109.306 135.002 98.7379 134.183 87.6609L134.2 87.6543Z" fill="#E8BE6B"/>
<path d="M105.032 17.406C108.869 15.6815 113.867 16.5471 115.626 20.7361C116.464 22.6456 116.493 24.674 116.454 26.6826C116.454 27.9974 116.365 29.309 116.2 30.6139C116.147 31.1722 115.985 31.7669 115.903 32.3252C115.86 32.4705 115.609 33.3625 115.563 33.531C114.847 35.6519 113.435 37.6771 111.281 38.5096C111.102 38.5789 110.951 38.6351 110.716 38.688V37.4557C113.659 38.014 116.668 39.8376 117.361 42.9496C117.922 46.4085 116.863 50.0128 114.926 52.8539L114.814 52.7845C116.035 49.7915 116.734 46.435 116.074 43.2602C116.035 43.1082 115.876 42.7019 115.827 42.5433C115.606 42.0973 115.339 41.6414 115.002 41.278C114.091 40.2109 112.818 39.4808 111.505 38.9919C110.796 38.6979 108.315 38.199 107.546 38.0041C107.76 37.9513 110.776 37.4326 110.858 37.3467C116.688 35.0044 117.005 26.1474 114.586 21.2184C112.858 17.5084 108.777 16.8576 105.072 17.5249L105.029 17.3994L105.032 17.406Z" fill="#D3A759"/>
<path d="M49.5433 12.6653C46.2573 11.5322 43.5124 13.9471 42.1202 16.7023C41.2591 18.2616 40.6916 19.9729 40.1275 21.6611C39.6095 23.3525 39.0816 25.186 38.7418 26.9237C38.204 29.6624 37.7422 32.5597 38.5241 35.2918C39.2961 38.3708 42.0971 40.4224 45.2379 40.2704L47.7254 40.1052L45.5942 41.4498C43.4497 42.8472 41.4207 44.9384 40.817 47.4921C40.5959 48.3478 40.6751 49.243 40.6718 50.1218C40.7972 52.7911 41.2921 55.6884 43.4266 57.4691C44.1161 58.0505 44.9838 58.4469 45.8812 58.5692V58.7013C43.8852 58.7938 42.0509 57.4592 41.0413 55.8007C40.1407 54.3339 39.6887 52.6226 39.4808 50.9246C39.3455 49.6956 39.2169 48.4303 39.4709 47.208C40.0813 44.172 42.4039 41.8892 44.9706 40.353L45.3236 41.5324C42.6744 41.5984 39.9955 40.2241 38.7781 37.8323C37.2044 34.8062 37.6927 31.3044 38.0226 28.0536C38.4614 23.9637 38.9694 19.8143 41.1403 16.144C42.0047 14.6772 43.1528 13.3194 44.6869 12.5166C46.2276 11.7039 48.1642 11.6841 49.6027 12.5464L49.54 12.662L49.5433 12.6653Z" fill="#D3A759"/>
<path d="M85.8671 69.2101C91.8188 70.2045 95.4545 68.0175 96.5267 61.962C97.2624 57.7598 96.6224 52.5103 92.825 49.9698C92.3632 49.6692 91.8155 49.3983 91.2876 49.2827L88.3415 48.731C89.1267 48.5295 91.5813 48.0405 92.3005 47.7432C94.0853 47.0858 95.8009 45.9493 96.6224 44.1885C97.7507 41.1723 96.8335 36.8776 95.6095 33.9506L95.7217 33.8812C97.6583 36.7223 98.7141 40.3299 98.1565 43.7854C97.4604 46.8975 94.4548 48.7211 91.512 49.2794V48.0471C91.9244 48.1429 92.2147 48.2784 92.5743 48.4502C94.4713 49.3917 95.692 51.2549 96.3585 53.2074C96.4047 53.3792 96.6554 54.2612 96.6983 54.4132C96.7808 54.9715 96.9424 55.5662 96.9952 56.1245C97.1602 57.4294 97.2492 58.741 97.2492 60.0558C97.302 62.3816 97.2261 64.8659 95.9296 66.924C94.3031 69.7222 90.7235 70.6604 87.7179 69.9369C87.0647 69.7982 86.4313 69.6033 85.8275 69.3291L85.8704 69.2035L85.8671 69.2101Z" fill="#D3A759"/>
<path d="M21.4013 89.7587C19.4779 86.0785 16.2579 78.1663 18.0328 74.1854L18.2275 73.8319C19.303 72.1933 20.4346 70.5878 21.4673 68.9227L21.6355 69.2564C21.2165 69.1903 20.8371 69.0747 20.4676 68.8897C17.4291 67.2643 20.3983 63.4486 21.8005 61.6382L22.0512 62.3584C20.8206 62.2098 19.6461 61.9323 18.4881 61.5127C12.4572 59.3587 10.9297 54.5916 14.6347 49.3653C15.3209 48.3544 16.1787 47.36 17.1718 46.6398C19.2667 45.0144 22.1667 45.0838 24.0538 46.9569L23.9647 47.056C21.6487 45.5298 19.2535 45.9229 17.3301 47.8522C15.1263 50.363 12.7146 54.4264 14.9052 57.5847C16.7989 60.0558 20.0453 61.037 22.9684 61.6845C22.2624 62.3783 21.5399 63.1183 20.946 63.9244C20.3027 64.8097 19.6263 65.7777 19.5702 66.8877C19.5109 68.186 20.8965 68.8203 22.0149 68.8567C20.9526 70.743 19.9332 72.6658 18.9698 74.605C18.4881 76.0388 18.6993 77.5848 18.8708 79.0847C19.1249 80.8653 19.5538 82.6394 20.0123 84.4101C20.4808 86.1776 21.0021 87.9417 21.5267 89.7124L21.4046 89.7653L21.4013 89.7587Z" fill="#D3A759"/>
<path d="M136.549 94.7042L134.533 53.0719C134.032 42.725 126.83 25.0209 126.806 25.011C126.793 25.011 126.701 24.9911 126.582 24.9911C126.457 25.0043 126.341 25.001 126.252 25.1035C124.276 28.526 108.074 42.0114 106.757 42.6127C106.032 42.943 105.487 43.0025 105.487 43.0025L76.3226 35.4901C75.9003 35.381 75.4483 35.5231 75.1645 35.8535L59.2889 54.3339C59.0316 54.6346 58.6423 54.7799 58.253 54.7238L42.7799 52.6425C41.6912 52.4872 40.289 51.5985 39.5599 50.7726L31.3945 45.1532L31.4935 44.8823L30.54 44.6312C30.1309 44.5288 29.6822 44.7138 29.4876 45.1234L20.5435 63.6634C20.3852 63.9904 19.8408 64.4232 19.4977 64.3076L18.2935 63.7922L13.4932 60.7661L13.6977 60.4192C13.6977 60.4192 13.1963 60.2937 12.9983 60.2904C12.741 60.2838 12.4836 60.3895 12.2791 60.5712L9.12839 63.1381L4.78338 66.8943C4.67451 66.9868 4.51285 66.9901 4.40728 66.8943C3.96519 66.4979 3.07771 65.7678 2.86657 65.2623C2.44757 64.2481 2.84677 63.0985 2.84677 63.0985C2.16714 63.0885 1.83723 63.703 1.98239 64.367L2.342 66.0255L2.24962 65.9396C2.00218 65.7347 1.81413 65.4672 1.70526 65.1632L1.5535 64.7404C1.38194 64.2547 1.73495 94.3408 1.73495 94.3408C0.0655728 128.725 24.806 157.873 59.1834 157.873H76.4479C110.822 157.873 138.212 129.085 136.549 94.7042Z" fill="#966A2A"/>
<path d="M137.539 94.952L135.523 53.3197C135.021 42.9728 131.933 33.3394 126.902 25.0341C126.889 25.0209 126.82 25.011 126.803 25.011C126.797 25.0176 126.767 25.2158 126.707 25.3215C123.395 30.9806 107.378 43.0289 107.378 43.0289C107.11 43.2437 106.754 43.3229 106.421 43.2371L77.3123 35.7378C76.89 35.6288 76.438 35.7709 76.1543 36.1012L60.4305 54.4264C60.1731 54.7271 59.7838 54.8724 59.3945 54.8163L43.3672 52.5401C42.2784 52.3848 41.2821 51.8496 40.553 51.027C40.553 51.027 40.5464 51.0204 40.5431 51.0171L31.8168 45.0078C31.3549 44.6906 30.7182 44.8624 30.4773 45.3712L21.7048 63.9805C21.4739 64.6578 20.6623 64.932 20.0684 64.5355L14.1728 60.6009C13.7406 60.3135 13.1732 60.3498 12.7806 60.6901L4.93845 67.5187C4.91536 67.5385 4.87907 67.5385 4.85597 67.5187L3.23608 66.184C2.98864 65.9792 2.80059 65.7116 2.69172 65.4077L2.53996 64.9848C2.3684 64.4992 2.41129 63.964 2.66203 63.5147L2.86658 63.1513C2.88967 63.1084 2.85998 63.0588 2.81379 63.0555C2.14736 63.0456 1.5931 63.5643 1.5601 64.2316L0.0721795 94.9454C-1.5939 129.33 25.7958 158.117 60.1731 158.117H77.4377C111.812 158.117 139.201 129.33 137.539 94.9487V94.952Z" fill="#B2853D"/>
<path d="M124.055 48.4436C125.454 52.8209 125.86 57.5351 125.101 62.0743C124.731 64.7106 124.283 67.5484 123.751 70.1352L122.527 69.7949C122.679 69.4943 122.765 69.3357 123.095 69.1375C124.632 68.5329 124.863 71.2287 125.058 72.1768C125.398 74.5092 125.553 76.8581 125.493 79.2102C125.464 80.3896 125.381 81.5492 125.163 82.7352L124.669 82.5039C124.936 82.167 125.253 81.8994 125.718 81.8895C127.602 81.9952 127.895 87.0233 128.09 88.4835C128.268 90.8852 128.492 94.7241 126.882 96.6897C125.302 97.7601 123.685 99.1047 122.867 100.879C122.745 101.103 122.666 101.391 122.577 101.632L122.494 102.015C122.481 102.078 122.461 102.144 122.455 102.207C122.445 102.385 122.422 102.603 122.412 102.788C122.511 105.834 123.468 108.811 124.477 111.678C125.483 114.47 125.444 117.744 124.085 120.4C123.557 121.543 122.996 122.696 122.518 123.842L122.356 123.806C122.854 121.361 124.144 119.102 124.052 116.574C124.022 115.23 123.781 113.875 123.319 112.62C123.128 112.19 122.93 111.761 122.765 111.328C122.039 109.521 121.412 107.704 121.003 105.781C120.31 102.62 120.505 100.436 122.765 97.9814C123.709 96.9705 124.721 96.1644 125.922 95.4608L125.82 95.5301C125.81 95.5368 125.787 95.5566 125.787 95.5566C126.104 95.1733 126.259 94.6778 126.407 94.1856C126.902 92.3653 126.938 90.4426 126.952 88.5331C126.912 87.2942 126.952 82.8971 125.701 82.4808C125.533 82.4577 125.272 82.6328 125.111 82.8277L124.322 83.7891L124.616 82.5964C125.101 80.3632 125.074 78.0044 124.787 75.7414C124.507 73.9476 124.213 72.0678 123.461 70.4226C123.408 70.3202 123.339 70.2277 123.306 70.1979C123.296 70.188 123.283 70.1913 123.355 70.2343C123.421 70.2772 123.603 70.2706 123.669 70.2277C123.738 70.1913 123.735 70.1781 123.732 70.1946C123.732 70.2012 123.705 70.2541 123.712 70.2475L122.488 69.9072C122.696 68.1068 122.943 66.3129 123.233 64.5256C123.471 63.0489 123.923 60.6802 124.108 59.2035C124.507 55.6554 124.342 52.0346 123.887 48.4766L124.045 48.437L124.055 48.4436Z" fill="#9B6D2C"/>
<path d="M42.4599 57.9217C41.9486 61.4797 41.7572 65.0872 42.1762 68.6551C42.7074 72.2198 43.4365 75.7712 43.9578 79.3391L42.5457 79.7322C42.5556 79.752 42.5292 79.7025 42.5292 79.7058C42.6414 79.8577 42.9878 79.871 43.1297 79.7454C43.1396 79.7388 43.1429 79.7355 43.1396 79.7355C43.1231 79.7487 43.067 79.8379 43.0208 79.937C42.3544 81.5855 42.1069 83.4521 41.8265 85.2162C41.4405 87.9351 41.4174 90.7762 42.0443 93.4588L41.1997 92.3025C41.0578 92.1076 40.8104 91.9226 40.6454 91.9325C39.3356 92.2364 39.1641 96.7525 39.0915 97.9682C39.0519 99.2698 39.0585 100.575 39.2268 101.853C39.395 102.993 39.5864 104.182 40.2429 105.137C40.2726 105.177 40.3419 105.246 40.3254 105.23L40.266 105.19C42.8361 106.673 45.4457 109.065 45.5381 112.237C45.515 115.187 44.6374 118.054 43.6707 120.806C42.9746 122.441 42.5622 124.229 42.6348 126.009C42.6612 127.185 42.9515 128.312 43.3936 129.392C43.7367 130.297 44.3372 131.863 44.6308 132.782L44.6704 132.911L44.6902 132.98L44.7199 133.092L44.3042 133.998C44.3042 133.998 44.3372 133.978 44.3273 133.984C44.1392 134.11 44.2217 134.331 44.3174 134.543C44.9046 135.501 45.5579 136.627 45.5546 137.817C45.1917 138.761 44.8815 139.762 44.6374 140.76C44.4164 141.715 44.2316 142.689 44.2349 143.624C44.2514 144.245 44.3141 144.817 44.6704 145.279C45.5513 146.29 46.7687 147.123 48.1048 147.311L48.0256 147.592C47.8508 148.342 47.5737 149.283 48.1774 149.904C48.3556 150.113 48.5799 150.301 48.8142 150.446L48.7416 150.595C48.4644 150.466 48.2137 150.304 47.9828 150.099C47.4516 149.693 47.346 148.989 47.3856 148.368C47.3955 148.061 47.4285 147.77 47.4813 147.46L47.7353 147.807C46.1946 147.648 44.865 146.832 43.8357 145.739C42.3643 143.654 43.4893 139.716 44.1425 137.44L44.0996 137.701C44.0501 137.384 43.9545 137.086 43.8225 136.789C43.3507 135.712 42.1498 134.695 42.7734 133.363C42.9383 133.01 43.1891 132.729 43.5256 132.531L43.1099 133.436C43.0439 133.251 42.902 132.835 42.8295 132.65C42.6381 132.118 42.008 130.582 41.7902 130.027C40.553 127.298 40.6157 124.047 41.6682 121.279C42.7437 118.656 43.7136 115.93 44.0502 113.112C44.1755 112.204 44.1095 111.275 43.7763 110.416C42.9944 108.57 41.4636 107.09 39.8173 105.983C39.6755 105.897 39.5831 105.745 39.5204 105.666C38.821 104.552 38.6626 103.188 38.557 101.916C38.4746 100.581 38.491 99.2566 38.5735 97.9385C38.7253 96.4552 38.7913 91.4799 40.6421 91.3279C41.1139 91.3279 41.4438 91.5856 41.7275 91.9193L41.1535 92.1869C40.3947 88.685 40.4804 85.0808 41.0842 81.569C41.2294 80.8257 41.3778 80.0328 41.7077 79.3027C41.8694 79.0021 42.0476 78.6123 42.483 78.4339C43.1033 78.1696 43.7235 78.6288 43.9248 79.1937L42.5127 79.5868C42.0772 76.8977 41.6879 74.2019 41.3151 71.5029C40.8764 68.7906 40.8335 65.9561 41.1832 63.2438C41.4174 61.4235 41.7605 59.6263 42.3082 57.8787L42.4665 57.9184L42.4599 57.9217Z" fill="#9B6D2C"/>
<path d="M111.033 48.4469C112.742 51.876 114.049 55.5464 114.547 59.3554C114.761 61.3938 115.101 63.4387 114.778 65.487C114.659 66.1708 114.118 67.2214 113.844 67.8656C113.461 68.741 113.052 69.6033 112.64 70.4622L112.221 69.8048C114.837 70.0526 113.785 76.2138 113.204 77.902L113.122 77.7467C112.194 78.4537 113.151 79.6133 113.521 80.3863C114.052 81.536 114.197 82.831 114.006 84.0666L113.907 84.0566C113.831 82.7418 113.468 81.4071 112.693 80.3467C112.623 80.2575 112.488 80.0692 112.425 79.9767C111.723 79.0979 111.554 77.6311 112.613 76.9142L112.402 77.1917C112.534 76.6334 112.633 76.009 112.699 75.4045C112.759 74.301 113.24 71.3443 112.241 70.7166C112.241 70.7133 112.201 70.7133 112.254 70.71L111.835 70.0526C112.488 68.8401 113.263 67.522 113.969 66.3261C114.21 65.9363 114.372 65.5101 114.461 65.0608C114.982 62.2428 113.927 59.4281 113.184 56.7423C112.458 54.0795 111.617 51.1624 110.938 48.4865L111.03 48.4502L111.033 48.4469Z" fill="#9B6D2C"/>
<path d="M109.585 68.8765C109.723 70.1087 109.535 71.374 108.998 72.5039C108.899 72.7516 108.671 73.0721 108.536 73.3099C108.133 73.9145 107.935 74.8759 108.615 75.3318L108.724 75.3978C108.932 76.0784 109.064 76.7457 109.162 77.4263C109.311 78.903 109.951 82.8409 107.793 83.125L108.199 82.4841C108.645 83.3265 109.07 84.1789 109.506 85.0279C109.766 85.5565 110.261 86.4815 110.439 87.0266C110.997 89.2037 110.485 91.4402 110.047 93.5711C109.169 97.3042 108.018 100.938 106.771 104.559L106.774 104.4C107.371 106.105 107.906 107.823 108.367 109.571C109.113 112.64 109.796 115.877 109.265 119.049L109.08 120.383C108.839 122.164 108.565 123.938 108.298 125.715L107.922 125.124C108.885 125.448 109.793 126.128 110.017 127.166C110.169 128.117 110.017 129.161 109.288 129.838C109.219 129.891 109.186 129.927 109.05 129.997L109.219 129.865C108.872 130.294 108.539 130.793 108.321 131.282C108.189 131.616 108.057 131.936 108.163 132.237C108.334 132.511 108.681 132.597 109.034 132.719C109.476 132.841 110.03 133.096 110.146 133.628C110.162 133.727 110.182 133.836 110.185 133.931L110.172 134.206C110.014 135.226 109.512 136.142 109.1 137.057C108.325 138.702 107.5 140.324 106.606 141.906L106.517 141.86C107.223 140.281 107.958 138.461 108.612 136.845C108.932 136.023 109.304 135.2 109.443 134.344C109.492 134.077 109.469 133.819 109.39 133.73C109.327 133.637 109.103 133.548 108.809 133.472C108.331 133.34 107.671 133.142 107.407 132.607C107.134 132.065 107.305 131.417 107.5 130.932C107.76 130.311 108.09 129.789 108.483 129.263L108.651 129.131C109.027 128.788 109.146 127.896 109.037 127.387C108.856 126.584 107.922 126.184 107.196 126.003C107.483 124.077 107.76 122.151 108.07 120.231L108.282 118.903C108.846 115.851 108.249 112.759 107.648 109.739C107.285 107.995 106.856 106.254 106.338 104.549L106.312 104.463L106.342 104.39C107.995 100.363 111.135 91.0372 109.545 86.9936C108.866 85.6721 108.08 84.2152 107.421 82.8872L107.826 82.2463C107.777 82.2463 107.813 82.2463 107.82 82.2463C109.07 81.6186 108.41 76.9406 108.127 75.7084L108.272 75.8967C108.084 75.7645 107.975 75.6423 107.863 75.4837C107.209 74.5686 107.767 73.4256 108.371 72.6657C108.8 72.0678 109.083 71.3872 109.261 70.667C109.4 70.0889 109.483 69.4877 109.483 68.8897L109.581 68.8798L109.585 68.8765Z" fill="#9B6D2C"/>
<path d="M14.1663 81.7672C14.186 82.94 14.4599 84.159 15.0603 85.1667C15.3771 85.7118 15.8257 86.161 16.0072 86.7887C16.248 87.4891 16.0369 88.3546 15.3935 88.7973L15.5486 88.5925C15.2715 89.795 14.5984 94.4697 15.829 95.1172C15.8323 95.1205 15.8686 95.1205 15.8191 95.1205L16.2282 95.7647C15.7894 96.6104 15.3375 97.4495 14.8756 98.2853C14.6413 98.7181 14.0574 99.696 13.8957 100.132C13.2689 102.131 13.612 104.334 13.9716 106.373C14.6941 110.102 16.0369 113.7 17.4489 117.212L17.4852 117.301L17.4687 117.417C17.3236 118.461 17.2378 119.528 17.2048 120.582C17.1751 121.629 17.1916 122.702 17.4456 123.641C17.736 124.566 18.3562 125.497 18.9039 126.33C19.5109 127.242 20.1773 128.137 20.8603 128.993C21.5597 132.124 22.2096 135.296 23.1433 138.362L23.3148 138.844C23.3808 138.986 23.4303 139.138 23.5227 139.257C23.747 139.627 24.2551 139.937 24.6345 140.189C25.9905 140.981 27.4751 141.56 28.9729 142.091L28.9465 142.187C27.551 141.87 26.1785 141.48 24.8622 140.896C24.1099 140.519 23.272 140.162 22.8266 139.379C22.5198 138.821 22.2987 138.187 22.0975 137.592C21.1902 134.876 20.5139 132.118 19.8573 129.339L19.9629 129.561C19.2734 128.702 18.6366 127.826 18.0296 126.915C17.4291 125.94 16.8419 125.045 16.5087 123.905C16.2315 122.749 16.2579 121.642 16.3107 120.545C16.38 119.448 16.5186 118.375 16.7132 117.291L16.733 117.496C15.4826 113.872 14.4764 110.185 13.6714 106.439C13.2953 104.311 12.7575 102.098 13.292 99.9372C13.447 99.3987 13.9617 98.4406 14.1861 97.9319C14.5951 97.0696 15.0141 96.214 15.4463 95.3649L15.8554 96.0058C13.3646 95.7713 14.4137 90.0197 14.8624 88.391L14.902 88.2555L15.0174 88.1862C15.6905 87.7468 15.4793 86.7953 15.0933 86.2007C14.2223 84.9057 13.8759 83.2935 14.0673 81.7573L14.1663 81.7672Z" fill="#9B6D2C"/>
<path d="M11.2663 70.1054C10.3261 74.1292 8.98989 78.2224 9.01298 82.3685C9.01298 82.9004 9.14495 83.5248 9.26702 84.0533C9.60353 85.6457 9.87406 87.2347 10.072 88.8733L10.0885 89.022C9.21093 89.7554 8.37954 90.7035 8.00673 91.8036C7.62403 92.8145 8.11231 94.0732 8.29046 95.137L8.23108 95.0082C10.0027 97.2282 11.616 99.6927 11.8008 102.649C11.847 104.09 11.7249 105.481 11.5467 106.871C11.3587 108.266 11.0981 109.623 10.7318 110.991L10.3425 111.45C10.1479 111.536 9.94005 111.84 9.91695 112.114C9.86747 112.488 9.98953 112.92 10.1248 113.287C10.4415 114.146 10.9397 114.998 11.5566 115.666C12.3814 116.399 13.5361 117.565 13.6516 118.943C13.7308 119.657 13.2062 120.185 12.906 120.77C12.6289 121.295 12.3913 121.863 12.2924 122.448H12.1604C12.1406 121.487 12.4771 120.575 12.8664 119.716C13.3943 118.447 11.7348 117.162 10.844 116.455C9.99283 115.679 9.40558 114.79 8.947 113.756C8.34985 112.607 8.40263 110.842 9.77839 110.175L9.38909 110.634C9.96974 108.044 10.5471 105.325 10.5834 102.676C10.5009 100.096 9.23732 97.4991 7.79229 95.3583L7.7395 95.2857L7.7329 95.2295C7.65702 94.4961 7.53165 93.7858 7.44917 93.0557C7.3337 91.9787 7.86817 90.9348 8.46532 90.0825C8.81173 89.5935 9.18454 89.1376 9.62333 88.7048L9.53425 88.9427C9.21093 87.3966 8.69296 85.8538 8.23438 84.3209C7.96714 83.5248 7.80549 82.6394 7.81538 81.8003C7.87147 79.3093 8.51811 76.9109 9.29341 74.5653C9.81798 73.0258 10.4151 71.5161 11.1409 70.0625L11.263 70.1087L11.2663 70.1054Z" fill="#9B6D2C"/>
<path d="M86.4049 47.8687C87.6256 50.9081 88.579 54.0432 89.2323 57.2543C89.483 58.7244 89.869 60.2474 89.3609 61.7274C88.7638 63.4916 87.9357 65.1533 87.1406 66.815L87.002 66.4814C88.0611 66.9769 89.3774 67.8292 89.2488 69.1672C89.0409 70.3697 88.5724 71.4368 87.9555 72.484L87.9324 72.0975C90.4694 74.8329 92.3995 78.5495 91.799 82.3916C91.5054 84.8892 89.77 87.542 86.9096 87.1191L87.3649 85.8902C88.7341 86.8284 90.5453 88.1135 90.3969 90.0065C90.3672 90.4326 90.3111 90.8324 90.1197 91.2486C89.9383 91.655 89.6612 91.8928 89.4368 92.1968C89.0574 92.7716 88.391 93.1119 87.8499 93.3993C86.9558 93.8321 86.0387 94.1855 85.0918 94.473L85.0423 94.3507C85.8968 93.8849 86.7546 93.4191 87.5398 92.8707C88.0149 92.5304 88.4801 92.2298 88.7308 91.7574C88.8925 91.4634 89.1729 91.1594 89.2554 90.8819C89.3675 90.5483 89.3807 90.0692 89.3477 89.6563C89.0541 88.4802 87.708 87.6675 86.6985 87.0365L84.2241 85.606L87.1538 85.8076C87.6916 85.8571 88.2755 85.7018 88.7242 85.3946C89.7568 84.6975 90.2055 83.3794 90.4398 82.1537C91.0864 78.6915 89.3675 75.0278 87.2989 72.3056C87.9984 71.3773 88.6219 70.264 88.8298 69.111C88.9485 67.9878 87.7212 67.294 86.8173 66.9439L86.5797 66.858L86.6787 66.6102C87.3946 64.7767 87.9753 62.9035 88.4141 61.0039C88.5295 59.8708 88.2557 58.6088 88.094 57.4625C87.8565 56.0518 87.4639 54.1192 87.1868 52.7019C86.8734 51.1096 86.55 49.5172 86.2762 47.9051L86.4016 47.8687H86.4049Z" fill="#9B6D2C"/>
<path d="M56.6397 71.7771C56.4385 72.7087 56.5836 73.6932 56.6529 74.6413C56.8377 76.0288 56.8739 77.489 57.2599 78.8336C57.5173 79.6926 58.0451 80.416 58.6159 81.09C59.2394 81.8829 59.8003 82.7154 60.2754 83.614C60.6185 84.2516 61.0936 85.3054 60.7472 86.0653C60.1929 87.7204 58.9953 89.0782 58.3916 90.6903C58.1936 91.3775 57.999 92.243 58.4575 92.8344L58.6984 93.135C59.7508 94.5027 60.2655 96.3759 59.9092 98.1103C59.8894 98.2358 59.863 98.4604 59.896 98.5001C60.183 99.098 60.7538 99.7059 61.1134 100.36C61.3443 100.747 61.3773 101.302 61.0606 101.655L61.0111 101.718L60.9352 101.804C59.0118 103.885 56.9993 106.283 56.6595 109.141C56.5011 111.011 57.0719 112.881 57.867 114.579L57.7317 114.675C56.3857 113.158 55.4322 111.15 55.3629 109.088C55.2672 105.834 57.6262 102.497 59.7013 100.647C59.6222 100.79 59.5694 100.998 59.6288 101.15C59.6288 101.146 59.6189 101.126 59.6123 101.113C59.2427 100.4 58.639 99.7158 58.4015 98.8602C58.2992 98.3481 58.4213 97.9418 58.5334 97.476C58.7908 96.1743 58.5829 94.8265 57.9429 93.6272L57.768 93.3233C57.5206 92.9533 57.4579 92.4346 57.4942 92.0217C57.5932 90.4359 58.6258 89.2367 59.2823 87.8789C59.6057 87.1323 60.1302 86.1412 59.9719 85.3418C59.6518 84.5852 58.9425 83.7957 58.3949 83.125C58.253 82.9731 57.3688 81.8862 57.2402 81.7408C56.4352 80.8092 55.9106 79.6364 55.7654 78.4141C55.6566 77.1422 55.6829 75.9132 55.7819 74.638C55.8875 73.637 55.9667 72.5865 56.5011 71.6978L56.6496 71.7705L56.6397 71.7771Z" fill="#9B6D2C"/>
<path d="M98.681 5.69796C99.9479 5.98538 100.977 7.34647 100.548 8.65801C100.119 9.85062 99.1561 10.6765 98.3082 11.5586C97.721 12.1103 97.1172 12.6521 96.3683 13.0452L96.2133 12.5034C97.2129 12.3581 98.3841 12.1599 99.2683 12.8338C100.568 14.076 99.3508 15.9326 98.1829 16.7486L98.14 16.699C98.5095 16.2431 98.8361 15.7476 99.0571 15.2322C99.3343 14.5913 99.4003 13.9306 98.9582 13.4516C98.7173 13.1807 98.3577 13.1509 97.9849 13.0849C97.0084 12.9362 95.4808 13.1443 94.4845 13.2137C95.6623 12.7116 97.1502 12.2028 98.1631 11.3802C99.2518 10.4816 100.261 8.92891 100.001 7.48192C99.8357 6.81128 99.2947 6.22324 98.6612 5.75412L98.6876 5.69466L98.681 5.69796Z" fill="#D3A759"/>
<path d="M33.054 25.9591C31.6683 25.6717 29.2632 25.1233 28.2372 26.3291C27.3596 27.8322 28.9069 29.3883 30.2761 29.8937L33.3146 31.1557L30.0484 30.6965C28.2075 30.4851 25.8849 30.3859 24.552 31.8098C23.846 32.7216 23.6975 34.2545 24.0703 35.3513C24.5322 36.7355 25.7166 36.8974 27 36.6959C27.706 36.6364 28.3889 36.567 29.118 36.5307L31.0975 36.4349C29.1576 37.3731 26.9703 38.351 25.4164 39.8673C24.8819 40.4058 24.4035 41.0732 24.7104 41.8132C24.8159 42.1832 25.004 42.5268 25.2745 42.8043C25.545 43.0785 25.908 43.28 26.3072 43.3295C25.0403 43.3362 23.9515 41.8198 24.3738 40.6173C24.8489 39.428 25.9146 38.6285 26.8845 37.8819C27.5509 37.4061 28.2339 36.9734 28.963 36.5736L29.1675 37.3368L27.0957 37.5878C25.9607 37.8158 24.5652 37.7431 23.7668 36.7421C22.5098 35.1795 22.6319 32.7546 23.8097 31.192C25.4362 29.418 28.0326 29.5567 30.2002 29.8673L29.9692 30.6701C29.5073 30.4652 29.1213 30.2208 28.7419 29.9234C27.5641 29.0645 26.7789 27.2673 27.7852 25.9723C29.0818 24.5848 31.5429 25.3876 33.0573 25.9558L33.054 25.9591Z" fill="#D3A759"/>
<path d="M47.4251 90.6143C46.155 90.3897 44.8452 90.3335 43.5189 90.4756C34.6277 91.4204 28.3164 100.664 29.4249 111.12C30.507 121.325 34.5221 130.146 46.6334 128.474" fill="white"/>
<path d="M46.6366 128.474C39.6523 127.106 34.2944 119.181 34.2944 109.607C34.2944 100.033 40.0614 91.5195 47.4251 90.6143C51.2687 91.2916 54.7658 93.5513 57.3424 96.8516C56.5473 96.508 55.5939 96.3065 54.5711 96.3065C51.7866 96.3065 49.53 97.7799 49.53 99.6002C49.53 101.421 51.7866 102.894 54.5711 102.894C56.9927 102.894 59.0118 101.777 59.5001 100.291C60.602 102.511 61.3476 105.008 61.6346 107.691C62.7432 118.147 60.4338 126.075 47.5406 128.335C47.2338 128.388 46.9368 128.431 46.6399 128.471L46.6366 128.474Z" fill="#2B1907"/>
<path d="M49.53 99.6002C49.53 101.42 51.7867 102.894 54.5712 102.894C56.9927 102.894 59.0118 101.777 59.5001 100.291C58.8865 99.0518 58.1607 97.8955 57.3425 96.8483C56.5474 96.5047 55.5939 96.3032 54.5712 96.3032C51.7867 96.3032 49.53 97.7766 49.53 99.5969V99.6002Z" fill="white"/>
<path d="M91.4724 128.474C103.584 130.146 107.599 121.325 108.681 111.12C109.789 100.664 103.481 91.4204 94.5868 90.4756C93.2605 90.3335 91.954 90.3897 90.6805 90.6143" fill="white"/>
<path d="M90.8257 90.6143C94.5076 91.0669 97.7902 93.3299 100.152 96.7227C99.4266 96.4584 98.5919 96.3065 97.7045 96.3065C94.92 96.3065 92.6633 97.7799 92.6633 99.6002C92.6633 101.42 94.92 102.894 97.7045 102.894C99.7961 102.894 101.591 102.061 102.353 100.875C103.379 103.492 103.96 106.459 103.96 109.604C103.96 119.177 98.6018 127.103 91.6175 128.471C91.3206 128.431 91.0236 128.388 90.7168 128.335C77.8237 126.075 75.5142 118.147 76.6228 107.691C77.5663 98.7941 83.5774 91.8928 90.829 90.611L90.8257 90.6143Z" fill="#2B1907"/>
<path d="M36.9306 121.272H53.3274C58.649 121.272 62.9709 125.6 62.9709 130.928V131.028H27.2904V130.928C27.2904 125.6 31.6123 121.272 36.9339 121.272H36.9306Z" fill="#B2853D"/>
<path d="M84.2836 121.272H100.68C106.002 121.272 110.324 125.6 110.324 130.928V131.028H74.6434V130.928C74.6434 125.6 78.9653 121.272 84.2869 121.272H84.2836Z" fill="#B2853D"/>
<path d="M76.5931 129.141C75.9861 131.282 72.8419 132.914 69.0545 132.914C65.2671 132.914 62.1658 131.305 61.5291 129.184C60.348 128.907 59.6321 128.679 59.6321 128.679C59.6321 133.168 62.532 136.806 69.0545 136.806C75.1382 136.806 78.4769 133.165 78.4769 128.679C78.4769 128.679 77.7445 128.887 76.5931 129.145V129.141Z" fill="#2A1A09"/>
<path d="M69.0545 132.914C72.8419 132.914 75.986 131.282 76.5931 129.141C74.729 129.557 71.7697 130.103 69.0545 130.103C66.0588 130.103 63.2809 129.594 61.5291 129.184C62.1658 131.302 65.2934 132.914 69.0545 132.914Z" fill="white"/>
<mask id="mask0_813_5149" style="mask-type:luminance" maskUnits="userSpaceOnUse" x="27" y="121" width="84" height="10">
<path d="M100.974 121.219H84.5771C81.3109 121.219 78.4275 122.848 76.6822 125.335H61.5159C59.7707 122.848 56.8872 121.219 53.621 121.219H37.2242C31.8993 121.219 27.5807 125.54 27.5807 130.876V130.975H63.2612V130.876C63.2612 129.851 63.0995 128.867 62.8059 127.942H75.3889C75.0953 128.867 74.9337 129.855 74.9337 130.876V130.975H110.614V130.876C110.614 125.544 106.299 121.219 100.971 121.219H100.974Z" fill="white"/>
</mask>
<g mask="url(#mask0_813_5149)">
<path d="M42.4599 57.9217C41.9486 61.4797 41.7572 65.0872 42.1762 68.6551C42.7074 72.2198 43.4365 75.7712 43.9578 79.3391L42.5457 79.7322C42.5556 79.752 42.5292 79.7025 42.5292 79.7058C42.6414 79.8577 42.9878 79.871 43.1297 79.7454C43.1396 79.7388 43.1429 79.7355 43.1396 79.7355C43.1231 79.7487 43.067 79.8379 43.0208 79.937C42.3544 81.5855 42.1069 83.4521 41.8265 85.2162C41.4405 87.9351 41.4174 90.7762 42.0443 93.4588L41.1997 92.3025C41.0578 92.1076 40.8104 91.9226 40.6454 91.9325C39.3356 92.2364 39.1641 96.7525 39.0915 97.9682C39.0519 99.2698 39.0585 100.575 39.2268 101.853C39.395 102.993 39.5864 104.182 40.2429 105.137C40.2726 105.177 40.3419 105.246 40.3254 105.23L40.266 105.19C42.8361 106.673 45.4457 109.065 45.5381 112.237C45.515 115.187 44.6374 118.054 43.6707 120.806C42.9746 122.441 42.5622 124.229 42.6348 126.009C42.6612 127.185 42.9515 128.312 43.3936 129.392C43.7367 130.297 44.3372 131.863 44.6308 132.782L44.6704 132.911L44.6902 132.98L44.7199 133.092L44.3042 133.998C44.3042 133.998 44.3372 133.978 44.3273 133.984C44.1392 134.11 44.2217 134.331 44.3174 134.543C44.9046 135.501 45.5579 136.627 45.5546 137.817C45.1917 138.761 44.8815 139.762 44.6374 140.76C44.4164 141.715 44.2316 142.689 44.2349 143.624C44.2514 144.245 44.3141 144.817 44.6704 145.279C45.5513 146.29 46.7687 147.123 48.1048 147.311L48.0256 147.592C47.8508 148.342 47.5737 149.283 48.1774 149.904C48.3556 150.113 48.5799 150.301 48.8142 150.446L48.7416 150.595C48.4644 150.466 48.2137 150.304 47.9828 150.099C47.4516 149.693 47.346 148.989 47.3856 148.368C47.3955 148.061 47.4285 147.77 47.4813 147.46L47.7353 147.807C46.1946 147.648 44.865 146.832 43.8357 145.739C42.3643 143.654 43.4893 139.716 44.1425 137.44L44.0996 137.701C44.0501 137.384 43.9545 137.086 43.8225 136.789C43.3507 135.712 42.1498 134.695 42.7734 133.363C42.9383 133.01 43.1891 132.729 43.5256 132.531L43.1099 133.436C43.0439 133.251 42.902 132.835 42.8295 132.65C42.6381 132.118 42.008 130.582 41.7902 130.027C40.553 127.298 40.6157 124.047 41.6682 121.279C42.7437 118.656 43.7136 115.93 44.0502 113.112C44.1755 112.204 44.1095 111.275 43.7763 110.416C42.9944 108.57 41.4636 107.09 39.8173 105.983C39.6755 105.897 39.5831 105.745 39.5204 105.666C38.821 104.552 38.6626 103.188 38.557 101.916C38.4746 100.581 38.491 99.2566 38.5735 97.9385C38.7253 96.4552 38.7913 91.4799 40.6421 91.3279C41.1139 91.3279 41.4438 91.5856 41.7275 91.9193L41.1535 92.1869C40.3947 88.685 40.4804 85.0808 41.0842 81.569C41.2294 80.8257 41.3778 80.0328 41.7077 79.3027C41.8694 79.0021 42.0476 78.6123 42.483 78.4339C43.1033 78.1696 43.7235 78.6288 43.9248 79.1937L42.5127 79.5868C42.0772 76.8977 41.6879 74.2019 41.3151 71.5029C40.8764 68.7906 40.8335 65.9561 41.1832 63.2438C41.4174 61.4235 41.7605 59.6263 42.3082 57.8787L42.4665 57.9184L42.4599 57.9217Z" fill="#9B6D2C"/>
<path d="M109.585 68.8765C109.723 70.1087 109.535 71.374 108.998 72.5039C108.899 72.7516 108.671 73.0721 108.536 73.3099C108.133 73.9145 107.935 74.8759 108.615 75.3318L108.724 75.3978C108.932 76.0784 109.064 76.7457 109.162 77.4263C109.311 78.903 109.951 82.8409 107.793 83.125L108.199 82.4841C108.645 83.3265 109.07 84.1789 109.506 85.0279C109.766 85.5565 110.261 86.4815 110.439 87.0266C110.997 89.2037 110.485 91.4402 110.047 93.5711C109.169 97.3042 108.018 100.938 106.771 104.559L106.774 104.4C107.371 106.105 107.906 107.823 108.367 109.571C109.113 112.64 109.796 115.877 109.265 119.049L109.08 120.383C108.839 122.164 108.565 123.938 108.298 125.715L107.922 125.124C108.885 125.448 109.793 126.128 110.017 127.166C110.169 128.117 110.017 129.161 109.288 129.838C109.219 129.891 109.186 129.927 109.05 129.997L109.219 129.865C108.872 130.294 108.539 130.793 108.321 131.282C108.189 131.616 108.057 131.936 108.163 132.237C108.334 132.511 108.681 132.597 109.034 132.719C109.476 132.841 110.03 133.096 110.146 133.628C110.162 133.727 110.182 133.836 110.185 133.931L110.172 134.206C110.014 135.226 109.512 136.142 109.1 137.057C108.325 138.702 107.5 140.324 106.606 141.906L106.517 141.86C107.223 140.281 107.958 138.461 108.612 136.845C108.932 136.023 109.304 135.2 109.443 134.344C109.492 134.077 109.469 133.819 109.39 133.73C109.327 133.637 109.103 133.548 108.809 133.472C108.331 133.34 107.671 133.142 107.407 132.607C107.134 132.065 107.305 131.417 107.5 130.932C107.76 130.311 108.09 129.789 108.483 129.263L108.651 129.131C109.027 128.788 109.146 127.896 109.037 127.387C108.856 126.584 107.922 126.184 107.196 126.003C107.483 124.077 107.76 122.151 108.07 120.231L108.282 118.903C108.846 115.851 108.249 112.759 107.648 109.739C107.285 107.995 106.856 106.254 106.338 104.549L106.312 104.463L106.342 104.39C107.995 100.363 111.135 91.0372 109.545 86.9936C108.866 85.6721 108.08 84.2152 107.421 82.8872L107.826 82.2463C107.777 82.2463 107.813 82.2463 107.82 82.2463C109.07 81.6186 108.41 76.9406 108.127 75.7084L108.272 75.8967C108.084 75.7645 107.975 75.6423 107.863 75.4837C107.209 74.5686 107.767 73.4256 108.371 72.6657C108.8 72.0678 109.083 71.3872 109.261 70.667C109.4 70.0889 109.483 69.4877 109.483 68.8897L109.581 68.8798L109.585 68.8765Z" fill="#9B6D2C"/>
</g>
</svg>
