<svg width="120" height="120" viewBox="0 0 120 120" fill="none" xmlns="http://www.w3.org/2000/svg">
<path d="M83.6801 88.2157H74.855L56.2693 61.0244L56.2684 61.0235L36.2821 31.7833H44.7537L83.6801 88.2157Z" fill="white"/>
<path fill-rule="evenodd" clip-rule="evenodd" d="M60.0005 0C93.1377 0.000203505 120 26.8635 120 60C120 68.2837 118.323 76.1759 115.286 83.3543C106.178 104.889 84.8526 120 60.0005 120C26.8632 120 0 93.1372 0 60C0 51.7163 1.67838 43.8241 4.71494 36.6457C13.8233 15.1109 35.1476 0 60.0005 0ZM53.5183 64.2528L29.6194 92.3078H35.4467L56.0945 68.0217L72.6937 92.3078H91.4712L66.3759 55.9287L66.3778 55.9277L90.3835 27.6922H84.6639L63.7978 52.1862L46.9018 27.6922H28.5288L53.5183 64.2528Z" fill="white"/>
</svg>
