<?xml version="1.0" encoding="UTF-8"?>
<svg xmlns="http://www.w3.org/2000/svg" xmlns:xlink="http://www.w3.org/1999/xlink" viewBox="0 0 903.74 824.82">
  <defs>
    <style>
      .cls-1, .cls-2, .cls-3, .cls-4 {
        fill: none;
      }

      .cls-5 {
        fill: #e8be6b;
      }

      .cls-6 {
        fill: #2b1907;
      }

      .cls-7 {
        fill: #cca662;
      }

      .cls-2 {
        stroke-dasharray: 3.03 3.03;
      }

      .cls-2, .cls-3, .cls-4 {
        stroke: #d4e2e8;
        stroke-miterlimit: 10;
        stroke-width: 2px;
      }

      .cls-8 {
        fill: url(#radial-gradient);
      }

      .cls-9 {
        fill: #2a1a09;
      }

      .cls-10 {
        fill: #b2853d;
      }

      .cls-3 {
        stroke-dasharray: 2.81 2.81;
      }

      .cls-11 {
        fill: #578551;
      }

      .cls-12 {
        isolation: isolate;
      }

      .cls-13 {
        fill: #d3a759;
      }

      .cls-14 {
        fill: #e8daca;
        mix-blend-mode: multiply;
      }

      .cls-15 {
        fill: #966a2a;
      }

      .cls-16 {
        fill: #9b6d2c;
      }

      .cls-17 {
        fill: #eac57d;
      }

      .cls-18 {
        fill: #5d8e57;
      }

      .cls-19 {
        fill: #507a4b;
      }

      .cls-20 {
        clip-path: url(#clippath);
      }
    </style>
    <clipPath id="clippath">
      <path class="cls-1" d="M685.4,616.01c0-19.91-52.05-36.05-116.26-36.05s-116.26,16.14-116.26,36.05h-.12c0-19.91-52.05-36.05-116.26-36.05s-116.26,16.14-116.26,36.05v91.26h465.28v-91.26h-.12Z"/>
    </clipPath>
    <radialGradient id="radial-gradient" cx="452.89" cy="590.41" fx="452.89" fy="590.41" r="138.28" gradientTransform="translate(0 458.35) scale(1 .22)" gradientUnits="userSpaceOnUse">
      <stop offset="0" stop-color="#2e472c"/>
      <stop offset=".56" stop-color="#43683f"/>
      <stop offset="1" stop-color="#578551"/>
    </radialGradient>
  </defs>
  <g class="cls-12">
    <g id="Layer_19" data-name="Layer 19">
      <g>
        <g>
          <g>
            <path class="cls-19" d="M248.49,392.38h161.2c23.84,0,43.2,19.36,43.2,43.2v214.69h-247.6v-214.69c0-23.84,19.36-43.2,43.2-43.2Z"/>
            <path class="cls-19" d="M496.09,392.38h161.2c23.84,0,43.2,19.36,43.2,43.2v214.69h-247.6v-214.69c0-23.84,19.36-43.2,43.2-43.2Z"/>
            <path class="cls-18" d="M685.4,616.01c0-19.91-52.05-36.05-116.26-36.05s-116.26,16.14-116.26,36.05h-.12c0-19.91-52.05-36.05-116.26-36.05s-116.26,16.14-116.26,36.05v91.26h465.28v-91.26h-.12Z"/>
            <path class="cls-18" d="M147.37,510.74h41.53c17.3,0,31.34,14.04,31.34,31.34v176.96h-104.22v-176.96c0-17.3,14.04-31.34,31.34-31.34Z"/>
            <path class="cls-18" d="M716.87,510.74h41.53c17.3,0,31.34,14.04,31.34,31.34v176.96h-104.22v-176.96c0-17.3,14.04-31.34,31.34-31.34Z"/>
          </g>
          <circle class="cls-11" cx="431.3" cy="657.05" r="13.59"/>
          <circle class="cls-11" cx="474.47" cy="657.05" r="13.59"/>
          <g class="cls-20">
            <ellipse class="cls-8" cx="452.89" cy="590.41" rx="140.57" ry="38.33"/>
            <rect class="cls-11" x="461.1" y="626.63" width="26.75" height="31.75"/>
            <rect class="cls-11" x="417.93" y="626.63" width="26.75" height="31.75"/>
          </g>
        </g>
        <g>
          <g>
            <g>
              <g>
                <path class="cls-9" d="M665.42,545.49l-37.53,29.21,11.77,15.12,47.33-36.84c2.94-2.29,3.47-6.53,1.18-9.47l-48.09-61.78-5.88,23.66h-.01s31.22,40.1,31.22,40.1Z"/>
                <ellipse class="cls-9" cx="620.77" cy="582.79" rx="23.16" ry="12.4"/>
                <rect class="cls-9" x="619.24" y="560.11" width="7.57" height="23.31" rx="2.51" ry="2.51" transform="translate(1409.51 261.12) rotate(115.9)"/>
              </g>
              <g>
                <path class="cls-9" d="M240.35,545.49l37.53,29.21-11.77,15.12-47.33-36.84c-2.94-2.29-3.47-6.53-1.18-9.47l48.09-61.78,5.88,23.66h.01s-31.22,40.1-31.22,40.1Z"/>
                <ellipse class="cls-9" cx="285" cy="582.79" rx="23.16" ry="12.4"/>
                <rect class="cls-9" x="278.97" y="560.11" width="7.57" height="23.31" rx="2.51" ry="2.51" transform="translate(673.57 67.65) rotate(64.1)"/>
              </g>
            </g>
            <g>
              <g>
                <path class="cls-15" d="M646.36,385.87l-383.12,3.72c-.09,0-.17-.06-.19-.15l-12.96-59.89c-.44-2.02,1.12-3.92,3.18-3.88l194.57,3.11s.08-.01.11-.03l180.74-118.23,17.86,175.15c.01.11-.08.21-.19.21Z"/>
                <path id="Walnut" class="cls-17" d="M650.95,399.97l-7.88-106.38c-4.09-55.27-32.34-103.48-74.14-134.99-7.63-5.75-15.7-10.94-24.17-15.52-1.48.18-2.57.3-4.05.48-8.47,7.18-20.81,8.83-31.14,3.19h0c-1.53-.83-2.94-1.79-4.24-2.86-1.17-.96-2.81-1.12-4.09-.31-11.82,7.44-20.01,20.69-19.57,36.58l2.03,73.17c.55,13.79-10.48,25.27-24.28,25.27h-7.96c-13.8,0-24.83-11.48-24.28-25.27v-.16c.05-1.6-.98-2.99-2.5-3.51-3.21-1.09-6.32-2.81-9.16-5.23-9.98-8.52-12.28-23.06-6-34.58,4.22-7.73,8.98-16.45,8.98-16.45,2.25-4.13,5.41-7.45,9.08-9.86.98-.64,1.58-1.71,1.61-2.88l.09-3.16c.87-31.24-31.62-52.23-59.81-38.74-13.44,6.43-26.01,14.37-37.48,23.61-1.04.83-1.5,2.18-1.24,3.49,1.2,6.11.35,12.65-2.86,18.54l-9.19,16.85c-5.84,10.71-17.74,16-29.12,13.97-1.52-.27-3.06.39-3.81,1.74-5.21,9.29-9.65,19.06-13.22,29.25-5.25,14.99-8.63,30.87-9.86,47.37l-7.88,106.38c-2.48,33.53,4.17,65.52,17.8,93.72,26.89,55.61,80.96,96.47,145.87,105.31,7.17.98,13.55-4.62,13.55-11.86v-4.71c0-7.6,6.16-13.76,13.76-13.76h14.15c7.6,0,13.76,6.16,13.76,13.76v4.71c0,7.24,6.38,12.84,13.55,11.86,64.92-8.84,118.99-49.7,145.87-105.31,13.63-28.2,20.28-60.19,17.8-93.72Z"/>
                <path class="cls-10" d="M661.22,422.19l-6.11-126.02c-1.52-31.32-10.88-60.48-26.13-85.62-.06-.1-.21-.12-.3-.04.02-.04-.11.6-.29.91-10.04,17.13-58.59,53.6-58.59,53.6-.81.65-1.89.89-2.9.63l-88.23-22.7c-1.28-.33-2.65.1-3.51,1.1l-47.66,55.47c-.78.91-1.96,1.35-3.14,1.18l-48.58-6.89c-3.3-.47-6.32-2.09-8.53-4.58,0,0-.02-.02-.03-.03l-26.45-18.19c-1.4-.96-3.33-.44-4.06,1.1l-26.59,56.33c-.7,2.05-3.16,2.88-4.96,1.68l-17.87-11.91c-1.31-.87-3.03-.76-4.22.27l-23.77,20.67c-.07.06-.18.06-.25,0l-4.91-4.04c-.75-.62-1.32-1.43-1.65-2.35l-.46-1.28c-.52-1.47-.39-3.09.37-4.45l.62-1.1c.07-.13-.02-.28-.16-.29h0c-2.02-.03-3.7,1.54-3.8,3.56l-4.51,92.96c-5.05,104.08,77.97,191.22,182.17,191.22h52.33c104.19,0,187.21-87.14,182.17-191.21Z"/>
              </g>
              <path class="cls-15" d="M658.34,424.29l-6.11-126.02c-1.52-31.32-23.34-84.94-23.42-84.94-.15,0-.75-.03-1.27,0-.41.03-.25-2.71-.52-2.57l-76.9,53.41-74.33-19.12c-1.28-.33-2.65.1-3.51,1.1l-48.12,55.94c-.78.91-1.96,1.35-3.14,1.18l-46.9-6.3c-3.3-.47-7.53-3.15-9.74-5.64,0-.01-.02-.02-.03-.03l-24.73-17,.3-.82-2.89-.76h0c-1.24-.31-2.6.25-3.19,1.49l-26.02,55.11-10.41-.17-12.06-7.59.29-1.06s-2.03-.2-2.63-.22c-.78-.02-1.56.3-2.18.85l-8.71,7.6-19.24-3.08c-2.06-.03-2.85,4.78-2.41,6.8l1.09,5.02-.28-.26c-.75-.62-1.32-1.43-1.65-2.35l-.46-1.28c-.52-1.47.55,89.6.55,89.6-5.05,104.08,118.81,154.5,173.94,180.74l13.45,1.04,29.77-1.04h9.12c104.19,0,187.41-75.57,182.37-179.64Z"/>
              <path class="cls-5" d="M651.1,400.1l-7.88-106.38c-2.12-28.66-10.75-55.42-24.39-78.94-.78-1.35-.47-3.02.7-4.04.39-.34.74-.73,1.04-1.15,4.49-6.28-2.71-19.11-16.07-28.66-5.47-3.91-11.12-6.66-16.2-8.11-1.18-.34-1.96-1.43-1.9-2.66.3-5.8-3.44-12.66-10.11-17.43-6.43-4.59-13.81-5.98-19.17-4.14-1.24.43-2.61.2-3.73-.48-2.18-1.33-4.4-2.62-6.64-3.87-.28-.16-.59-.29-.89-.4-3.52-1.2-3.96-.88-6.08.71-8.41,6.46-20.17,7.75-30.08,2.34h0c-.76-.41-1.49-.86-2.2-1.33-2.87-1.93-6.67-1.66-9.41.45-6.88,5.29-12.16,12.71-14.68,21.49-.78,2.71-2.21,5.22-4.21,7.2-3.65,3.61-6.08,10-6.08,17.28,0,6.02,1.66,11.43,4.3,15.17,1.64,2.32,2.03,5.33.83,7.9-1.68,3.59-2.66,8.01-2.66,12.79,0,8.74,3.3,16.28,8.08,19.77l.16,5.88c.55,13.79-10.48,25.27-24.28,25.27h-7.96c-13.8,0-24.83-11.48-24.28-25.27v-.13c.05-1.56-.9-3-2.38-3.49-2.67-.89-7.32-3.92-9.13-5.24-.35-.25-.34-.77.02-1,5.1-3.28,8.45-15.1,7.8-29-.35-7.45-1.79-14.19-3.88-19.28-.57-1.38-.47-2.97.38-4.2,1.56-2.28,3.42-4.27,5.5-5.93,2.31-1.84,3.7-4.59,3.78-7.55h0c.87-31.24-31.63-52.22-59.82-38.74-13.44,6.43-26.01,14.37-37.47,23.61-1.04.83-1.49,2.18-1.24,3.48.04.2.07.39.11.59.32,1.87-1,3.73-2.83,4.23-4.61,1.26-9.58,5.39-13.03,11.37-5.32,9.22-2.84,17.07.63,22.63.63,1.01-14.96,11.56-25,10.68-2.32-.2-4.53,1-5.65,3.04-4.87,8.86-9.04,18.15-12.42,27.81-5.25,14.99-8.63,30.87-9.86,47.37l-7.88,106.38c-2.48,33.53,4.17,65.52,17.8,93.72,26.89,55.61,80.96,96.47,145.87,105.31,7.17.98,13.55-4.62,13.55-11.86v-4.71c0-7.6,6.16-13.76,13.76-13.76h14.15c7.6,0,13.76,6.16,13.76,13.76v4.71c0,7.24,6.38,12.84,13.55,11.86,64.92-8.84,118.99-49.7,145.87-105.31,13.63-28.2,20.28-60.19,17.8-93.72Z"/>
              <path class="cls-13" d="M562.69,187.46c11.63-5.22,26.78-2.6,32.11,10.08,2.54,5.78,2.63,11.92,2.51,17.99,0,3.98-.27,7.95-.77,11.9-.16,1.69-.65,3.49-.9,5.18-.13.44-.89,3.14-1.03,3.65-2.17,6.42-6.45,12.55-12.98,15.07-.54.21-1,.38-1.71.54v-3.73c8.92,1.69,18.04,7.21,20.14,16.63,1.7,10.47-1.51,21.38-7.38,29.98,0,0-.34-.21-.34-.21,3.7-9.06,5.82-19.22,3.82-28.83-.12-.46-.6-1.69-.75-2.17-.67-1.35-1.48-2.73-2.5-3.83-2.76-3.23-6.62-5.44-10.6-6.92-2.15-.89-9.67-2.4-12-2.99.65-.16,9.79-1.73,10.04-1.99,17.67-7.09,18.63-33.9,11.3-48.82-5.24-11.23-17.61-13.2-28.84-11.18,0,0-.13-.38-.13-.38h0Z"/>
              <path class="cls-13" d="M394.5,173.11c-9.96-3.43-18.28,3.88-22.5,12.22-2.61,4.72-4.33,9.9-6.04,15.01-1.57,5.12-3.17,10.67-4.2,15.94-1.63,8.29-3.03,17.06-.66,25.33,2.34,9.32,10.83,15.53,20.35,15.07,0,0,7.54-.5,7.54-.5l-6.46,4.07c-6.5,4.23-12.65,10.56-14.49,18.29-.67,2.59-.43,5.3-.44,7.96.38,8.08,1.88,16.85,8.35,22.24,2.09,1.76,4.72,2.96,7.44,3.33,0,0,0,.4,0,.4-6.05.28-11.61-3.76-14.67-8.78-2.73-4.44-4.1-9.62-4.73-14.76-.41-3.72-.8-7.55-.03-11.26,1.85-9.19,8.89-16.1,16.67-20.75,0,0,1.07,3.57,1.07,3.57-8.03.2-16.15-3.96-19.84-11.2-4.77-9.16-3.29-19.76-2.29-29.6,1.33-12.38,2.87-24.94,9.45-36.05,2.62-4.44,6.1-8.55,10.75-10.98,4.67-2.46,10.54-2.52,14.9.09,0,0-.19.35-.19.35h0Z"/>
              <path class="cls-13" d="M504.6,344.27c18.04,3.01,29.06-3.61,32.31-21.94,2.23-12.72.29-28.61-11.22-36.3-1.4-.91-3.06-1.73-4.66-2.08,0,0-8.93-1.67-8.93-1.67,2.38-.61,9.82-2.09,12-2.99,5.4-1.99,10.61-5.43,13.1-10.76,3.42-9.13.64-22.13-3.07-30.99,0,0,.34-.21.34-.21,5.87,8.6,9.07,19.52,7.38,29.98-2.11,9.42-11.22,14.94-20.14,16.63,0,0,0-3.73,0-3.73,1.25.29,2.13.7,3.22,1.22,5.75,2.85,9.45,8.49,11.47,14.4.14.52.9,3.19,1.03,3.65.25,1.69.74,3.49.9,5.18.5,3.95.78,7.92.77,11.9.16,7.04-.07,14.56-4,20.79-4.93,8.47-15.78,11.31-24.89,9.12-1.98-.42-3.9-1.01-5.73-1.84,0,0,.13-.38.13-.38h0Z"/>
              <path class="cls-7" d="M617.11,258.58c5.52,11.75,13.92,31.93,11.42,44.9-.22,1.13-.73,2.4-1.27,3.43-2.9,5.18-5.85,10.32-8.82,15.45,0,0-1.7-3.38-1.7-3.38,4.53.36,9.27,3.8,9.13,8.72-.05,4.17-2.28,7.74-4.38,10.94-1.4,2.04-2.87,3.89-4.55,5.77l-1.84-4.16c.47,0,.74.02,1.09.05,17.54,2.01,22.75,20.44,21.87,35.51-.3,8.12-1.62,16.6-6.93,23.16-9.4,11.44-26.42,9.33-38.51,4.02,17.26,5.08,37.15,3.65,40.32-17.65,1.16-8.26,1.15-17.39-1.31-25.39-2.2-7.67-8.29-14.26-16.44-14.76,0,0-5.46-.21-5.46-.21,3.9-4.35,18.94-19.31,6.58-21.54,0,0-3.45-.52-3.45-.52,3.66-5.99,7.37-12.02,11.12-17.95,0,0,.39-.73.39-.73.14-.24.21-.54.33-.8,3.47-11.41-3.9-33.33-7.58-44.86h0Z"/>
              <path class="cls-13" d="M309.2,406.46c-5.83-11.14-15.59-35.09-10.21-47.14,0,0,.59-1.07.59-1.07,3.26-4.96,6.69-9.82,9.82-14.86,0,0,.51,1.01.51,1.01-1.27-.2-2.42-.55-3.54-1.11-9.21-4.92-.21-16.47,4.04-21.95,0,0,.76,2.18.76,2.18-3.73-.45-7.29-1.29-10.8-2.56-18.28-6.52-22.91-20.95-11.68-36.77,2.08-3.06,4.68-6.07,7.69-8.25,6.35-4.92,15.14-4.71,20.86.96,0,0-.27.3-.27.3-7.02-4.62-14.28-3.43-20.11,2.41-6.68,7.6-13.99,19.9-7.35,29.46,5.74,7.48,15.58,10.45,24.44,12.41-2.14,2.1-4.33,4.34-6.13,6.78-1.95,2.68-4,5.61-4.17,8.97-.18,3.93,4.02,5.85,7.41,5.96-3.22,5.71-6.31,11.53-9.23,17.4-1.46,4.34-.82,9.02-.3,13.56.77,5.39,2.07,10.76,3.46,16.12,1.42,5.35,3,10.69,4.59,16.05,0,0-.37.16-.37.16h0Z"/>
              <path class="cls-15" d="M658.22,421.44l-6.11-126.02c-1.52-31.32-23.35-84.91-23.42-84.94-.04,0-.32-.06-.68-.06-.38.04-.73.03-1,.34-5.99,10.36-55.1,51.18-59.09,53-2.2,1-3.85,1.18-3.85,1.18l-88.4-22.74c-1.28-.33-2.65.1-3.51,1.1l-48.12,55.94c-.78.91-1.96,1.35-3.14,1.18l-46.9-6.3c-3.3-.47-7.55-3.16-9.76-5.66l-24.75-17.01.3-.82-2.89-.76h0c-1.24-.31-2.6.25-3.19,1.49l-27.11,56.12c-.48.99-2.13,2.3-3.17,1.95l-3.65-1.56-14.55-9.16.62-1.05s-1.52-.38-2.12-.39c-.78-.02-1.56.3-2.18.85l-9.55,7.77-13.17,11.37c-.33.28-.82.29-1.14,0-1.34-1.2-4.03-3.41-4.67-4.94-1.27-3.07-.06-6.55-.06-6.55-2.06-.03-3.06,1.83-2.62,3.84l1.09,5.02-.28-.26c-.75-.62-1.32-1.43-1.65-2.35l-.46-1.28c-.52-1.47.55,89.6.55,89.6-5.05,104.08,69.93,192.31,174.13,192.31h52.33c104.19,0,187.21-87.14,182.17-191.21Z"/>
              <path class="cls-10" d="M661.22,422.19l-6.11-126.02c-1.52-31.32-10.88-60.48-26.13-85.62-.04-.04-.25-.07-.3-.07-.02.02-.11.62-.29.94-10.04,17.13-58.59,53.6-58.59,53.6-.81.65-1.89.89-2.9.63l-88.23-22.7c-1.28-.33-2.65.1-3.51,1.1l-47.66,55.47c-.78.91-1.96,1.35-3.14,1.18l-48.58-6.89c-3.3-.47-6.32-2.09-8.53-4.58,0,0-.02-.02-.03-.03l-26.45-18.19c-1.4-.96-3.33-.44-4.06,1.1l-26.59,56.33c-.7,2.05-3.16,2.88-4.96,1.68l-17.87-11.91c-1.31-.87-3.03-.76-4.22.27l-23.77,20.67c-.07.06-.18.06-.25,0l-4.91-4.04c-.75-.62-1.32-1.43-1.65-2.35l-.46-1.28c-.52-1.47-.39-3.09.37-4.45l.62-1.1c.07-.13-.02-.28-.16-.29h0c-2.02-.03-3.7,1.54-3.8,3.56l-4.51,92.96c-5.05,104.08,77.97,191.22,182.17,191.22h52.33c104.19,0,187.21-87.14,182.17-191.21Z"/>
              <path class="cls-16" d="M620.35,281.41c4.24,13.25,5.47,27.52,3.17,41.26-1.12,7.98-2.48,16.57-4.09,24.4,0,0-3.71-1.03-3.71-1.03.46-.91.72-1.39,1.72-1.99,4.66-1.83,5.36,6.33,5.95,9.2,1.03,7.06,1.5,14.17,1.32,21.29-.09,3.57-.34,7.08-1,10.67l-1.5-.7c.81-1.02,1.77-1.83,3.18-1.86,5.71.31,6.6,15.54,7.19,19.96.54,7.3,1.23,18.86-3.66,24.84-4.79,3.24-9.7,7.31-12.17,12.68-.37.68-.61,1.55-.88,2.28,0,0-.25,1.16-.25,1.16-.04.19-.1.39-.12.58-.03.54-.1,1.2-.13,1.76.3,9.22,3.2,18.23,6.26,26.91,3.05,8.45,2.93,18.36-1.19,26.4-1.6,3.46-3.3,6.95-4.75,10.42,0,0-.49-.11-.49-.11,1.51-7.4,5.42-14.24,5.14-21.89-.09-4.07-.82-8.17-2.22-11.97-.58-1.3-1.18-2.6-1.68-3.91-2.2-5.47-4.1-10.97-5.34-16.79-2.09-9.57-1.51-16.18,5.34-23.61,2.85-3.06,5.93-5.5,9.57-7.63,0,0-.31.21-.31.21-.03.02-.1.08-.1.08.96-1.16,1.43-2.66,1.88-4.15,1.5-5.51,1.61-11.33,1.65-17.11-.12-3.75,0-17.06-3.79-18.32-.51-.07-1.3.46-1.79,1.05l-2.39,2.91.89-3.61c1.47-6.76,1.39-13.9.52-20.75-.85-5.43-1.74-11.12-4.02-16.1-.16-.31-.37-.59-.47-.68-.03-.03-.07-.02.15.11.2.13.75.11.95-.02.21-.11.21-.15.19-.1,0,.02-.08.18-.06.16,0,0-3.71-1.03-3.71-1.03.63-5.45,1.38-10.88,2.26-16.29.72-4.47,2.09-11.64,2.65-16.11,1.21-10.74.71-21.7-.67-32.47,0,0,.49-.12.49-.12h0Z"/>
              <path class="cls-16" d="M373.04,310.1c-1.55,10.77-2.13,21.69-.86,32.49,1.61,10.79,3.82,21.54,5.4,32.34,0,0-4.28,1.19-4.28,1.19.03.06-.05-.09-.05-.08.33.46,1.39.5,1.82.12.03-.02.04-.03.03-.03-.05.04-.22.31-.36.61-2.02,4.99-2.77,10.64-3.62,15.98-1.17,8.23-1.24,16.83.66,24.95,0,0-2.56-3.5-2.56-3.5-.43-.59-1.18-1.15-1.68-1.12-3.97.92-4.49,14.59-4.71,18.27-.12,3.94-.1,7.89.41,11.76.5,3.45,1.09,7.05,3.08,9.94.09.12.3.33.25.28,0,0-.18-.12-.18-.12,7.79,4.49,15.7,11.73,15.98,21.33-.07,8.93-2.73,17.61-5.66,25.94-2.11,4.95-3.36,10.36-3.14,15.75.08,3.56.96,6.97,2.3,10.24,1.04,2.74,2.86,7.48,3.75,10.26,0,0,.12.39.12.39,0,0,.06.21.06.21s.09.34.09.34c0,0-1.26,2.74-1.26,2.74,0,0,.1-.06.07-.04-.57.38-.32,1.05-.03,1.69,1.78,2.9,3.76,6.31,3.75,9.91-1.1,2.86-2.04,5.89-2.78,8.91-.67,2.89-1.23,5.84-1.22,8.67.05,1.88.24,3.61,1.32,5.01,2.67,3.06,6.36,5.58,10.41,6.15,0,0-.24.85-.24.85-.53,2.28-1.37,5.12.46,7,.54.63,1.22,1.2,1.93,1.64,0,0-.22.45-.22.45-.84-.39-1.6-.88-2.3-1.5-1.61-1.23-1.93-3.36-1.81-5.24.03-.93.13-1.81.29-2.75,0,0,.77,1.05.77,1.05-4.67-.48-8.7-2.95-11.82-6.26-4.46-6.31-1.05-18.23.93-25.12,0,0-.13.79-.13.79-.15-.96-.44-1.86-.84-2.76-1.43-3.26-5.06-6.34-3.18-10.37.51-1.07,1.26-1.92,2.28-2.52,0,0-1.26,2.74-1.26,2.74-.2-.56-.63-1.82-.85-2.38-.58-1.61-2.49-6.26-3.15-7.94-3.75-8.26-3.56-18.1-.37-26.48,3.26-7.94,6.2-16.19,7.22-24.72.38-2.75.18-5.56-.83-8.16-2.37-5.59-7.01-10.07-12-13.42-.43-.26-.71-.72-.9-.96-2.12-3.37-2.6-7.5-2.92-11.35-.25-4.04-.2-8.05.05-12.04.46-4.49.66-19.55,6.27-20.01,1.43,0,2.43.78,3.29,1.79,0,0-1.74.81-1.74.81-2.3-10.6-2.04-21.51-.21-32.14.44-2.25.89-4.65,1.89-6.86.49-.91,1.03-2.09,2.35-2.63,1.88-.8,3.76.59,4.37,2.3,0,0-4.28,1.19-4.28,1.19-1.32-8.14-2.5-16.3-3.63-24.47-1.33-8.21-1.46-16.79-.4-25,.71-5.51,1.75-10.95,3.41-16.24l.49.12h0Z"/>
              <path class="cls-16" d="M580.88,281.42c5.18,10.38,9.13,21.49,10.65,33.02.65,6.17,1.68,12.36.7,18.56-.36,2.07-2,5.25-2.83,7.2-1.16,2.65-2.39,5.26-3.65,7.86l-1.27-1.99c7.93.75,4.74,19.4,2.98,24.51,0,0-.25-.47-.25-.47-2.82,2.14.09,5.64,1.21,7.99,1.61,3.48,2.05,7.4,1.47,11.14,0,0-.3-.03-.3-.03-.23-3.98-1.33-8.02-3.68-11.23-.21-.27-.62-.84-.81-1.12-2.13-2.66-2.64-7.09.57-9.27,0,0-.64.84-.64.84.4-1.69.7-3.58.9-5.41.18-3.34,1.64-12.29-1.39-14.19,0-.01-.12-.02.04-.02l-1.27-1.99c1.98-3.67,4.33-7.66,6.46-11.28.73-1.18,1.23-2.47,1.49-3.83,1.58-8.52-1.62-17.05-3.87-25.18-2.2-8.06-4.75-16.89-6.81-24.99,0,0,.28-.11.28-.11h0Z"/>
              <path class="cls-16" d="M576.49,343.26c.42,3.73-.15,7.56-1.78,10.98-.3.75-.99,1.72-1.4,2.44-1.22,1.83-1.82,4.75.24,6.12,0,0,.33.2.33.2.62,2.06,1.03,4.08,1.33,6.14.45,4.47,2.39,16.39-4.15,17.25,0,0,1.23-1.94,1.23-1.94,1.35,2.55,2.64,5.13,3.96,7.7,1,2.07,2.68,4.95,3.13,7.2,1.12,6.31-.2,12.56-1.49,18.66-2.66,11.3-6.15,22.3-9.93,33.26,0,0,.01-.48.01-.48,1.81,5.16,3.43,10.36,4.83,15.65,2.26,9.28,4.34,19.09,2.72,28.69,0,0-.56,4.04-.56,4.04-.73,5.39-1.56,10.76-2.37,16.14,0,0-1.14-1.79-1.14-1.79,2.91.98,5.67,3.04,6.34,6.18.46,2.88,0,6.04-2.21,8.09-.21.16-.31.27-.71.48,0,0,.5-.4.5-.4-1.05,1.3-2.05,2.81-2.72,4.29-.41,1.01-.8,1.98-.49,2.89.52.83,1.58,1.09,2.64,1.46,1.34.37,3.02,1.14,3.37,2.75.05.3.11.63.12.92l-.04.83c-.48,3.09-2,5.86-3.25,8.63-2.34,4.98-4.85,9.89-7.56,14.68,0,0-.27-.14-.27-.14,2.14-4.78,4.37-10.29,6.35-15.18.96-2.49,2.1-4.98,2.52-7.57.15-.81.08-1.59-.16-1.86-.19-.28-.87-.55-1.76-.78-1.45-.4-3.45-1-4.25-2.62-.83-1.64-.31-3.6.28-5.07.79-1.88,1.79-3.46,2.98-5.05l.5-.4c1.14-1.04,1.5-3.74,1.17-5.29-.55-2.43-3.38-3.64-5.58-4.19.87-5.83,1.71-11.66,2.65-17.47,0,0,.64-4.02.64-4.02,1.72-9.24-.1-18.6-1.92-27.74-1.1-5.28-2.4-10.55-3.97-15.71l-.08-.26.09-.22c5.01-12.19,14.53-40.42,9.71-52.66-2.06-4-4.44-8.41-6.44-12.43,0,0,1.23-1.94,1.23-1.94-.15,0-.04,0-.02,0,3.79-1.9,1.79-16.06.93-19.79,0,0,.44.57.44.57-.57-.4-.9-.77-1.24-1.25-1.98-2.77-.29-6.23,1.54-8.53,1.3-1.81,2.16-3.87,2.7-6.05.42-1.75.67-3.57.67-5.38l.3-.03h0Z"/>
              <path class="cls-16" d="M287.27,382.28c.06,3.55.89,7.24,2.71,10.29.96,1.65,2.32,3.01,2.87,4.91.73,2.12.09,4.74-1.86,6.08,0,0,.47-.62.47-.62-.84,3.63-2.88,17.79.85,19.75.01.01.12.01-.03.01l1.24,1.95c-1.33,2.56-2.7,5.1-4.1,7.63-.71,1.31-2.48,4.27-2.97,5.59-1.9,6.05-.86,12.72.23,18.89,2.19,11.29,6.26,22.18,10.54,32.81,0,0,.11.27.11.27l-.05.35c-.44,3.16-.7,6.39-.8,9.58-.09,3.17-.04,6.42.73,9.26.88,2.8,2.77,5.62,4.42,8.14,1.84,2.76,3.86,5.47,5.93,8.06,2.12,9.48,4.09,19.08,6.92,28.36,0,0,.52,1.46.52,1.46.2.43.35.89.63,1.25.68,1.12,2.22,2.06,3.37,2.82,4.12,2.4,8.61,4.15,13.15,5.76,0,0-.08.29-.08.29-4.23-.96-8.39-2.14-12.38-3.91-2.28-1.14-4.82-2.22-6.17-4.59-.93-1.69-1.6-3.61-2.21-5.41-2.75-8.22-4.8-16.57-6.79-24.98,0,0,.32.67.32.67-2.09-2.6-4.02-5.25-5.86-8.01-1.82-2.95-3.6-5.66-4.61-9.11-.84-3.5-.76-6.85-.6-10.17.21-3.32.63-6.57,1.22-9.85,0,0,.06.62.06.62-3.79-10.97-6.84-22.13-9.28-33.47-1.14-6.44-2.77-13.14-1.15-19.68.47-1.63,2.03-4.53,2.71-6.07,1.24-2.61,2.51-5.2,3.82-7.77l1.24,1.94c-7.55-.71-4.37-18.12-3.01-23.05,0,0,.12-.41.12-.41,0,0,.35-.21.35-.21,2.04-1.33,1.4-4.21.23-6.01-2.64-3.92-3.69-8.8-3.11-13.45,0,0,.3.03.3.03h0Z"/>
              <path class="cls-16" d="M278.48,346.98c-2.85,12.17-6.9,24.59-6.83,37.12,0,1.61.4,3.5.77,5.1,1.02,4.82,1.84,9.63,2.44,14.59l.05.45c-2.66,2.22-5.18,5.09-6.31,8.42-1.16,3.06.32,6.87.86,10.09,0,0-.18-.39-.18-.39,5.37,6.72,10.26,14.18,10.82,23.13.14,4.36-.23,8.57-.77,12.78-.57,4.22-1.36,8.33-2.47,12.47,0,0-1.18,1.39-1.18,1.39-.59.26-1.22,1.18-1.29,2.01-.15,1.13.22,2.44.63,3.55.96,2.6,2.47,5.18,4.34,7.2,2.5,2.22,6,5.75,6.35,9.92.24,2.16-1.35,3.76-2.26,5.53-.84,1.6-1.56,3.31-1.86,5.08,0,0-.4,0-.4,0-.06-2.91.96-5.67,2.14-8.27,1.6-3.84-3.43-7.73-6.13-9.87-2.58-2.35-4.36-5.04-5.75-8.17-1.81-3.48-1.65-8.83,2.52-10.84,0,0-1.18,1.39-1.18,1.39,1.76-7.84,3.51-16.07,3.62-24.09-.25-7.81-4.08-15.67-8.46-22.15,0,0-.16-.22-.16-.22l-.02-.17c-.23-2.22-.61-4.37-.86-6.58-.35-3.26,1.27-6.42,3.08-9,1.05-1.48,2.18-2.86,3.51-4.17l-.27.72c-.98-4.68-2.55-9.35-3.94-13.99-.81-2.41-1.3-5.09-1.27-7.63.17-7.54,2.13-14.8,4.48-21.9,1.59-4.66,3.4-9.23,5.6-13.63l.37.14h0Z"/>
              <path class="cls-16" d="M506.23,279.67c3.7,9.2,6.59,18.69,8.57,28.41.76,4.45,1.93,9.06.39,13.54-1.81,5.34-4.32,10.37-6.73,15.4,0,0-.42-1.01-.42-1.01,3.21,1.5,7.2,4.08,6.81,8.13-.63,3.64-2.05,6.87-3.92,10.04,0,0-.07-1.17-.07-1.17,7.69,8.28,13.54,19.53,11.72,31.16-.89,7.56-6.15,15.59-14.82,14.31,0,0,1.38-3.72,1.38-3.72,4.15,2.84,9.64,6.73,9.19,12.46-.09,1.29-.26,2.5-.84,3.76-.55,1.23-1.4,1.94-2.07,2.87-1.15,1.74-3.17,2.77-4.81,3.64-2.71,1.31-5.49,2.38-8.36,3.25,0,0-.15-.37-.15-.37,2.59-1.41,5.19-2.82,7.57-4.48,1.44-1.03,2.85-1.94,3.61-3.37.49-.89,1.34-1.81,1.59-2.65.34-1.01.38-2.46.28-3.71-.88-3.56-4.97-6.02-8.03-7.93,0,0-7.5-4.33-7.5-4.33,0,0,8.88.61,8.88.61,1.63.15,3.4-.32,4.76-1.25,3.13-2.11,4.49-6.1,5.2-9.81,1.97-10.48-3.25-21.57-9.52-29.81,2.13-2.81,4.01-6.18,4.64-9.67.36-3.4-3.36-5.5-6.1-6.56,0,0-.72-.26-.72-.26,0,0,.3-.75.3-.75,2.17-5.55,3.93-11.22,5.26-16.97.35-3.43-.48-7.25-.97-10.72-.72-4.27-1.91-10.12-2.75-14.41-.95-4.82-1.93-9.64-2.76-14.52,0,0,.38-.11.38-.11h0Z"/>
              <path class="cls-16" d="M416.01,352.04c-.61,2.82-.17,5.8.04,8.67.56,4.2.67,8.62,1.84,12.69.78,2.6,2.38,4.79,4.11,6.83,1.89,2.4,3.59,4.92,5.03,7.64,1.04,1.93,2.48,5.12,1.43,7.42-1.68,5.01-5.31,9.12-7.14,14-.6,2.08-1.19,4.7.2,6.49,0,0,.73.91.73.91,3.19,4.14,4.75,9.81,3.67,15.06-.06.38-.14,1.06-.04,1.18.87,1.81,2.6,3.65,3.69,5.63.7,1.17.8,2.85-.16,3.92,0,0-.15.19-.15.19l-.23.26c-5.83,6.3-11.93,13.56-12.96,22.21-.48,5.66,1.25,11.32,3.66,16.46,0,0-.41.29-.41.29-4.08-4.59-6.97-10.67-7.18-16.91-.29-9.85,6.86-19.95,13.15-25.55-.24.43-.4,1.06-.22,1.52,0-.01-.03-.07-.05-.11-1.12-2.16-2.95-4.23-3.67-6.82-.31-1.55.06-2.78.4-4.19.78-3.94.15-8.02-1.79-11.65,0,0-.53-.92-.53-.92-.75-1.12-.94-2.69-.83-3.94.3-4.8,3.43-8.43,5.42-12.54.98-2.26,2.57-5.26,2.09-7.68-.97-2.29-3.12-4.68-4.78-6.71-.43-.46-3.11-3.75-3.5-4.19-2.44-2.82-4.03-6.37-4.47-10.07-.33-3.85-.25-7.57.05-11.43.32-3.03.56-6.21,2.18-8.9,0,0,.45.22.45.22h0Z"/>
              <path class="cls-13" d="M543.45,152.02c3.84.87,6.96,4.99,5.66,8.96-1.3,3.61-4.22,6.11-6.79,8.78-1.78,1.67-3.61,3.31-5.88,4.5,0,0-.47-1.64-.47-1.64,3.03-.44,6.58-1.04,9.26,1,3.94,3.76.25,9.38-3.29,11.86,0,0-.13-.15-.13-.15,1.12-1.38,2.11-2.88,2.78-4.44.84-1.94,1.04-3.94-.3-5.39-.73-.82-1.81-.91-2.95-1.11-2.96-.45-7.59.18-10.62.39,3.57-1.52,8.08-3.06,11.15-5.55,3.3-2.72,6.36-7.42,5.58-11.8-.5-2.03-2.14-3.81-4.06-5.23l.08-.18h0Z"/>
              <path class="cls-13" d="M344.52,213.35c-4.2-.87-11.49-2.53-14.6,1.12-2.66,4.55,2.03,9.26,6.18,10.79,0,0,9.21,3.82,9.21,3.82l-9.9-1.39c-5.58-.64-12.63-.94-16.66,3.37-2.14,2.76-2.59,7.4-1.46,10.72,1.4,4.19,4.99,4.68,8.88,4.07,2.14-.18,4.21-.39,6.42-.5l6-.29c-5.88,2.84-12.51,5.8-17.22,10.39-1.62,1.63-3.07,3.65-2.14,5.89.32,1.12.89,2.16,1.71,3,.82.83,1.92,1.44,3.13,1.59-3.84.02-7.14-4.57-5.86-8.21,1.44-3.6,4.67-6.02,7.61-8.28,2.02-1.44,4.09-2.75,6.3-3.96l.62,2.31-6.28.76c-3.44.69-7.66.47-10.09-2.56-3.81-4.73-3.44-12.07.13-16.8,4.93-5.37,12.8-4.95,19.37-4.01,0,0-.7,2.43-.7,2.43-1.4-.62-2.57-1.36-3.72-2.26-3.57-2.6-5.95-8.04-2.9-11.96,3.93-4.19,11.39-1.77,15.98-.05h0Z"/>
              <path id="lowerlip" class="cls-14" d="M452.89,557.94c-6.89,0-12.6-3.13-13.66-7.23-.12.45-.19.91-.19,1.38,0,4.76,6.2,8.61,13.86,8.61s13.86-3.86,13.86-8.61c0-.47-.08-.93-.19-1.38-1.07,4.1-6.77,7.23-13.66,7.23Z"/>
              <circle id="mouth" class="cls-9" cx="452.89" cy="538.46" r="10.15"/>
              <path class="cls-6" d="M427.53,493.29c-.38,0-.72.22-.87.57-5.69,12.59-17.47,21.57-38.99,25.34-.93.16-1.83.29-2.73.41-25.27,3.48-38.9-8.09-46.02-25.71-.15-.36-.5-.6-.89-.6h0c-.65,0-1.12.64-.92,1.26,6.51,20.4,20.23,34.56,47.83,30.76.9-.12,1.8-.25,2.73-.41,24.28-4.25,36.17-15.13,40.89-30.36.19-.62-.28-1.24-.93-1.24h-.1Z"/>
              <path class="cls-6" d="M567.75,493.29c-.39,0-.74.24-.89.6-7.12,17.62-20.75,29.2-46.02,25.71v-.07c-.76-.11-1.52-.21-2.3-.35-21.52-3.77-33.3-12.75-38.99-25.34-.16-.34-.49-.57-.87-.57h-.1c-.65,0-1.12.63-.93,1.24,4.72,15.23,16.61,26.11,40.89,30.36.78.14,1.54.24,2.3.35v.07c27.61,3.81,41.33-10.36,47.84-30.76.2-.62-.27-1.26-.92-1.26h0Z"/>
            </g>
          </g>
          <g>
            <path class="cls-9" d="M440.89,668.42v-69.68c0-5.29-4.29-9.58-9.58-9.58h0c-5.29,0-9.58,4.29-9.58,9.58v69.68h19.17Z"/>
            <path class="cls-9" d="M484.05,668.42v-69.68c0-5.29-4.29-9.58-9.58-9.58h0c-5.29,0-9.58,4.29-9.58,9.58v69.68h19.17Z"/>
            <path class="cls-9" d="M431.3,653.35h0c6.61,0,11.98,5.37,11.98,11.98v2.09c0,.54-.44.99-.99.99h-21.99c-.54,0-.99-.44-.99-.99v-2.09c0-6.61,5.37-11.98,11.98-11.98Z"/>
            <path class="cls-9" d="M474.47,653.35h0c6.61,0,11.98,5.37,11.98,11.98v2.09c0,.54-.44.99-.99.99h-21.99c-.54,0-.99-.44-.99-.99v-2.09c0-6.61,5.37-11.98,11.98-11.98Z"/>
          </g>
        </g>
        <g>
          <line class="cls-4" x1="461.92" y1="550.65" x2="462.44" y2="552.06"/>
          <line class="cls-3" x1="463.42" y1="554.69" x2="472.71" y2="579.71"/>
          <line class="cls-4" x1="473.2" y1="581.03" x2="473.72" y2="582.44"/>
        </g>
        <g>
          <line class="cls-4" x1="444.93" y1="550.65" x2="444.41" y2="552.06"/>
          <line class="cls-3" x1="443.43" y1="554.69" x2="434.14" y2="579.71"/>
          <line class="cls-4" x1="433.65" y1="581.03" x2="433.13" y2="582.44"/>
        </g>
        <g>
          <line class="cls-4" x1="453.43" y1="554.15" x2="453.43" y2="555.65"/>
          <line class="cls-2" x1="453.43" y1="558.68" x2="453.43" y2="581.42"/>
          <line class="cls-4" x1="453.43" y1="582.94" x2="453.43" y2="584.44"/>
        </g>
      </g>
    </g>
  </g>
</svg>