<?xml version="1.0" encoding="UTF-8"?>
<svg id="badges" xmlns="http://www.w3.org/2000/svg" viewBox="0 0 4000 1500">
  <defs>
    <style>
      .cls-1 {
        fill: #ea4335;
      }

      .cls-2 {
        fill: #fff;
      }

      .cls-3 {
        fill: #fbbc04;
      }

      .cls-4 {
        fill: #4285f4;
      }

      .cls-5 {
        fill: #34a853;
      }

      .cls-6 {
        fill: #2e2c2f;
      }
    </style>
  </defs>
  <path class="cls-6" d="M278.87,327.57h698.11c17.03,0,30.87,13.84,30.87,30.87v195.49c0,17.03-13.84,30.87-30.87,30.87H278.87c-17.03,0-30.87-13.84-30.87-30.87v-195.49c0-17.03,13.84-30.87,30.87-30.87Z"/>
  <path class="cls-2" d="M937.13,473.04l-11.33,28.85h-.34l-11.82-28.85h-10.69l17.71,40.34-10.12,22.43h10.39l27.31-62.77h-11.1ZM857.06,449.1h-9.9v66.55h9.9v-66.55ZM819.82,449.1h-23.79v66.55h9.97v-25.19h13.86c11.65.4,21.42-8.72,21.82-20.38,0-.09,0-.19,0-.28-.24-11.68-9.91-20.95-21.59-20.7-.09,0-.19,0-.28,0ZM820.08,481.16h-14.09v-22.66h14.13c6.26,0,11.33,5.07,11.33,11.33s-5.07,11.33-11.33,11.33h-.04ZM881.46,471.61c-7.41-.42-14.36,3.58-17.71,10.2l8.84,3.78c1.79-3.27,5.35-5.17,9.06-4.83,5.23-.52,9.89,3.29,10.42,8.52,0,.02,0,.03,0,.05v.68c-3.17-1.71-6.71-2.61-10.31-2.61-9.48,0-19.15,5.21-19.15,15.11,0,8.91,7.74,14.65,16.5,14.65,5.08.32,9.93-2.17,12.61-6.5h.38v5.14h9.67v-25.61c0-11.82-8.84-18.39-20.24-18.39l-.08-.19ZM880.28,508.09c-3.25,0-7.78-1.66-7.78-5.67,0-5.14,5.63-7.1,10.54-7.1,3.17-.08,6.3.69,9.06,2.23-.75,5.97-5.8,10.47-11.82,10.54h0ZM522.17,517.08c-19.56.06-35.53-15.61-35.84-35.16.31-19.55,16.28-35.23,35.84-35.16,9.05-.15,17.77,3.35,24.21,9.71l-6.84,6.76c-4.64-4.54-10.88-7.07-17.37-7.02-14.12,0-25.57,11.45-25.57,25.57s11.45,25.57,25.57,25.57c6.67.27,13.15-2.29,17.83-7.06,3.07-3.31,4.93-7.58,5.25-12.09h-23.08v-9.33h32.48c.35,1.98.52,3.99.49,6.01.33,8.36-2.68,16.51-8.35,22.66-6.48,6.54-15.43,10.02-24.62,9.56ZM605.37,494.42c.51,12.38-9.12,22.83-21.49,23.34-12.38.51-22.83-9.12-23.34-21.49-.03-.61-.03-1.23,0-1.84-.51-12.38,9.12-22.83,21.49-23.34,12.38-.51,22.83,9.12,23.34,21.49.03.61.03,1.23,0,1.84ZM595.55,494.42c.66-6.96-4.44-13.13-11.4-13.79-6.96-.66-13.13,4.44-13.79,11.4-.08.8-.08,1.6,0,2.39-.66,6.96,4.44,13.13,11.4,13.79,6.96.66,13.13-4.44,13.79-11.4.08-.8.08-1.6,0-2.39ZM655.6,494.42c0,12.37-10.03,22.4-22.4,22.4s-22.4-10.03-22.4-22.4,10.03-22.4,22.4-22.4,22.4,10.03,22.4,22.4ZM645.82,494.42c.66-6.96-4.44-13.13-11.4-13.79-6.96-.66-13.13,4.44-13.79,11.4-.08.8-.08,1.6,0,2.39-.66,6.96,4.44,13.13,11.4,13.79,6.96.66,13.13-4.44,13.79-11.4.08-.8.08-1.6,0-2.39ZM704.63,473.16v40.68c0,16.69-9.93,23.57-21.64,23.57-8.78.07-16.73-5.14-20.17-13.22l8.57-3.78c1.82,4.71,6.28,7.88,11.33,8.04,7.55,0,12.16-4.65,12.16-13.29v-3.25h-.38c-3,3.34-7.29,5.23-11.78,5.17-12.52,0-22.66-10.15-22.66-22.66s10.15-22.66,22.66-22.66c4.52-.1,8.86,1.74,11.93,5.06h.38v-3.78h9.59v.11ZM695.83,494.53c.57-7.05-4.68-13.23-11.73-13.8-.13-.01-.27-.02-.4-.03-7.25.24-12.94,6.32-12.7,13.57,0,.08,0,.17.01.25-.34,7.19,5.22,13.29,12.41,13.62.09,0,.19,0,.28.01,6.98-.27,12.42-6.15,12.15-13.13,0-.17-.02-.33-.03-.5ZM722.11,449.17v66.51h-9.97v-66.51h9.97ZM761.39,501.9l7.78,5.14c-4.22,6.3-11.31,10.07-18.88,10.05-12.12.17-22.08-9.51-22.25-21.63,0-.34,0-.69,0-1.03-.99-11.47,7.5-21.58,18.97-22.57,9.67-.84,18.64,5.11,21.63,14.34l1.02,2.61-30.21,12.5c1.93,4.33,6.29,7.05,11.03,6.87,4.48-.07,8.6-2.44,10.91-6.27ZM737.56,493.74l20.32-8.38c-1.61-3.15-4.93-5.03-8.46-4.8-6.86.3-12.17,6.1-11.87,12.96,0,.07,0,.15.01.22Z"/>
  <g>
    <path class="cls-1" d="M372.52,452.75l-64.32,67.39c2.62,9.27,12.26,14.67,21.53,12.05,1.41-.4,2.76-.97,4.02-1.7l72.38-41.22-33.6-36.52Z"/>
    <path class="cls-3" d="M437.57,441.29l-31.3-17.93-35.23,30.92,35.37,34.89,31.06-17.73c8.33-4.36,11.54-14.64,7.18-22.97-1.61-3.07-4.11-5.57-7.18-7.18h.1Z"/>
    <path class="cls-4" d="M308.2,392.26c-.39,1.44-.58,2.92-.58,4.41v119.06c0,1.49.2,2.97.58,4.41l66.53-65.67-66.53-62.22Z"/>
    <path class="cls-5" d="M373,456.2l33.26-32.83-72.28-41.41c-2.72-1.59-5.81-2.44-8.96-2.44-7.82-.02-14.7,5.18-16.82,12.7l64.8,63.99Z"/>
  </g>
  <g>
    <path class="cls-2" d="M503.14,423.98c-10.25,0-16.81-7.48-16.81-19.15s6.54-18.77,16.81-18.77c7.93,0,13.96,4.7,15.33,12h-4.81c-1.53-4.96-5.37-7.78-10.53-7.78-7.55,0-12.1,5.44-12.1,14.52s4.63,14.95,12.1,14.95c6.51,0,10.99-4.22,10.99-10.38v-.66h-10.35v-4.02h14.93v3.48c0,9.92-5.77,15.79-15.56,15.79Z"/>
    <path class="cls-2" d="M547.29,423.37h-22.73v-36.7h22.73v4.12h-18.16v11.77h17.22v4.07h-17.22v12.61h18.16v4.12Z"/>
    <path class="cls-2" d="M562.6,423.37v-32.58h-11.57v-4.12h27.72v4.12h-11.57v32.58h-4.58Z"/>
    <path class="cls-2" d="M594.26,423.37v-36.7h4.58v36.7h-4.58Z"/>
    <path class="cls-2" d="M605.96,423.37v-36.7h4.45l20.09,28.81h.23v-28.81h4.53v36.7h-4.45l-20.09-28.71h-.23v28.71h-4.53Z"/>
    <path class="cls-2" d="M685.46,405.03c0,11.65-6.51,18.95-16.91,18.95s-16.91-7.3-16.91-18.95,6.51-18.97,16.91-18.97,16.91,7.32,16.91,18.97ZM656.34,405.03c0,9.03,4.7,14.72,12.21,14.72s12.21-5.7,12.21-14.72-4.7-14.75-12.21-14.75-12.21,5.7-12.21,14.75Z"/>
    <path class="cls-2" d="M691.16,423.37v-36.7h4.45l20.09,28.81h.23v-28.81h4.53v36.7h-4.45l-20.09-28.71h-.23v28.71h-4.53Z"/>
  </g>
</svg>