<?xml version="1.0" encoding="UTF-8"?>
<svg id="Layer_1" data-name="Layer 1" xmlns="http://www.w3.org/2000/svg" viewBox="0 0 760 257.28">
  <defs>
    <style>
      .cls-1 {
        fill: #fff;
      }

      .cls-2 {
        fill: #2f2d2f;
      }
    </style>
  </defs>
  <path class="cls-2" d="M30.87,0h698.25c17.03,0,30.87,13.84,30.87,30.87v195.53c0,17.03-13.84,30.87-30.87,30.87H30.87c-17.03,0-30.87-13.84-30.87-30.87V30.87C0,13.84,13.84,0,30.87,0Z"/>
  <g>
    <g>
      <path class="cls-1" d="M125.43,80.74c-1.03-8.29,3.08-17.09,7.66-22.49,5.2-6.12,14.25-10.81,21.46-11.11.93,8.65-2.47,17.13-7.46,23.36-5.19,6.12-13.53,10.86-21.66,10.24Z"/>
      <path class="cls-1" d="M184.91,154.07c-.1.51-2.98,10.55-10.13,20.68-6.02,8.96-12.25,17.71-22.23,17.86-9.68.2-12.92-5.71-24.03-5.71s-14.66,5.56-23.93,5.92c-9.52.36-16.72-9.57-22.95-18.42-12.4-18.12-22.03-51.04-9.11-73.43,6.23-11.01,17.7-18.06,29.9-18.27,9.46-.15,18.31,6.43,24.13,6.43s16.62-7.93,27.83-6.74c4.69.16,18.06,1.9,26.71,14.46-.67.41-15.9,9.37-15.74,27.78.2,22.03,19.3,29.33,19.55,29.44Z"/>
    </g>
    <g>
      <path class="cls-1" d="M268.31,115.52h-15.13l-24.44,76h12.61l6.74-22.33h24.7l7.1,22.33h12.96l-24.54-76ZM250.25,159.82l6.33-19.81c1.64-6.28,2.83-11.06,3.6-14.3h.25c1.86,7.51,3.14,12.24,3.81,14.3l6.43,19.81h-20.43Z"/>
      <path class="cls-1" d="M349.09,143.26c-4.33-5.09-9.68-7.66-16.16-7.66-8.24,0-14.41,3.29-18.47,9.83h-.21l-.67-8.7h-10.7c.31,6.18.46,12.15.46,18.01v59.02h12.19v-28.77c3.19,5.2,8.39,7.77,15.64,7.77,6.69,0,12.35-2.37,16.88-7.21,5.1-5.4,7.61-12.76,7.61-22.07,0-8.39-2.16-15.08-6.58-20.22ZM339.42,177.89c-2.57,3.5-6.12,5.3-10.71,5.3-3.91,0-7.1-1.39-9.52-4.11-2.42-2.73-3.65-6.13-3.65-10.08v-9.16c0-.98.2-2.21.57-3.7.72-3.25,2.37-5.82,4.78-7.83,2.47-1.95,5.2-2.98,8.18-2.98,4.43,0,7.98,1.8,10.6,5.4,2.42,3.45,3.6,7.82,3.6,13.17,0,5.81-1.29,10.45-3.86,13.99Z"/>
      <path class="cls-1" d="M412.07,143.26c-4.32-5.09-9.67-7.66-16.16-7.66-8.23,0-14.4,3.29-18.47,9.83h-.2l-.67-8.7h-10.71c.31,6.18.46,12.15.46,18.01v59.02h12.19v-28.77c3.19,5.2,8.39,7.77,15.65,7.77,6.69,0,12.35-2.37,16.87-7.21,5.1-5.4,7.62-12.76,7.62-22.07,0-8.39-2.16-15.08-6.59-20.22ZM402.4,177.89c-2.52,3.5-6.13,5.3-10.71,5.3-3.91,0-7.1-1.39-9.52-4.11-2.42-2.73-3.66-6.13-3.66-10.08v-9.16c0-.98.21-2.21.57-3.7.77-3.25,2.37-5.82,4.79-7.83,2.47-1.95,5.19-2.98,8.18-2.98,4.42,0,7.98,1.8,10.6,5.4,2.42,3.45,3.6,7.82,3.6,13.17,0,5.81-1.24,10.45-3.86,13.99Z"/>
      <path class="cls-1" d="M484.47,157c3.14,3.55,4.68,7.98,4.68,13.22,0,6.48-2.27,11.73-6.74,15.8-4.94,4.42-11.83,6.64-20.68,6.64-8.19,0-14.72-1.6-19.66-4.74l2.83-10.14c5.35,3.14,11.22,4.74,17.6,4.74,4.58,0,8.18-1.03,10.7-3.08,2.57-2.06,3.86-4.84,3.86-8.28,0-3.09-1.08-5.66-3.14-7.77-2.11-2.11-5.61-4.07-10.5-5.87-13.43-4.99-20.07-12.25-20.07-21.77,0-6.22,2.37-11.32,7.05-15.33,4.69-3.96,10.91-5.97,18.68-5.97,6.89,0,12.66,1.19,17.24,3.6l-3.08,9.88c-4.33-2.31-9.16-3.5-14.62-3.5-4.27,0-7.67,1.08-10.08,3.14-2.01,1.9-3.04,4.17-3.04,6.9,0,2.98,1.19,5.51,3.5,7.41,2.01,1.8,5.71,3.75,11.06,5.86,6.54,2.63,11.32,5.71,14.41,9.27Z"/>
      <path class="cls-1" d="M516.07,136.72h13.43v9.16h-13.43v26.6c0,6.74,2.37,10.13,7.1,10.13,2.16,0,3.96-.2,5.4-.57l.36,9.27c-2.42.87-5.55,1.34-9.46,1.34-4.84,0-8.54-1.49-11.27-4.43-2.72-2.93-4.07-7.87-4.07-14.77v-27.63h-7.97v-9.11h7.97v-10.03l11.94-3.6v13.63Z"/>
      <path class="cls-1" d="M582.91,143.67c-4.89-5.36-11.37-8.03-19.4-8.03s-14.97,2.73-19.91,8.13c-4.89,5.4-7.36,12.35-7.36,20.84s2.37,14.87,7.15,20.17c4.79,5.3,11.22,7.98,19.25,7.98s15.02-2.78,20.07-8.34c4.78-5.4,7.21-12.3,7.21-20.74s-2.32-14.87-7-20.01ZM573.95,177.01c-2.67,4.43-6.33,6.64-10.96,6.64s-8.44-2.16-11.07-6.54c-2.16-3.55-3.24-7.87-3.24-12.92s1.03-9.57,3.24-13.17c2.52-4.37,6.28-6.54,11.17-6.54s8.39,2.16,10.96,6.54c2.16,3.6,3.24,7.87,3.24,12.92s-1.13,9.36-3.34,13.07Z"/>
      <path class="cls-1" d="M629.48,135.8l.05,11.63c-1.18-.2-2.47-.31-3.86-.31-4.27,0-7.61,1.6-9.93,4.84-2.01,2.83-3.04,6.48-3.04,10.8v28.77h-12.19v-37.56c0-6.33-.1-12.09-.36-17.24h10.6l.46,10.5h.36c1.28-3.6,3.29-6.54,6.07-8.7,2.73-1.95,5.66-2.93,8.8-2.93,1.13,0,2.16.1,3.04.2Z"/>
      <path class="cls-1" d="M683.97,161.52c0-6.84-1.64-12.55-4.89-17.29-4.02-5.86-10.04-8.8-17.91-8.8s-14.4,2.93-19.14,8.8c-4.53,5.51-6.79,12.4-6.79,20.64s2.42,15.13,7.25,20.12c4.84,4.99,11.52,7.51,20.01,7.51,7.05,0,13.18-1.13,18.37-3.4l-1.9-8.43c-4.43,1.7-9.37,2.57-14.77,2.57-4.89,0-8.85-1.29-11.93-3.81-3.4-2.83-5.14-7-5.3-12.4h36.53c.31-1.49.46-3.34.46-5.51ZM647.02,158.34c.36-3.66,1.6-6.84,3.6-9.47,2.47-3.29,5.71-4.94,9.68-4.94,4.33,0,7.57,1.7,9.68,5.1,1.64,2.62,2.47,5.76,2.37,9.36l-25.32-.05Z"/>
    </g>
    <g>
      <path class="cls-1" d="M255.28,51.36c12.62,0,20.09,7.77,20.09,21.15s-7.44,21.3-20.09,21.3h-14.97v-42.45h14.97ZM246.9,88.1h7.77c9,0,13.97-5.5,13.97-15.53s-5-15.53-13.97-15.53h-7.77v31.06Z"/>
      <path class="cls-1" d="M279.49,78.33c0-9.94,5.85-16.03,14.68-16.03s14.68,6.09,14.68,16.03-5.82,16.06-14.68,16.06-14.68-6.09-14.68-16.06ZM302.37,78.33c0-6.85-3.24-10.8-8.21-10.8s-8.21,3.94-8.21,10.8,3.24,10.83,8.21,10.83,8.21-3.94,8.21-10.83Z"/>
      <path class="cls-1" d="M346,93.8h-6.62l-6.5-23.18h-.15l-6.44,23.18h-6.56l-8.5-30.95h6.35l5.65,24.36h.12l6.44-24.36h6.12l6.47,24.36h.15l5.65-24.36h6.29l-8.47,30.95Z"/>
      <path class="cls-1" d="M358.35,62.86h6.06v5.18h.15c1.68-3.53,4.97-5.71,9.74-5.71,6.82,0,10.74,4.35,10.74,11.44v20.03h-6.38v-18.8c0-4.65-2.18-7.21-6.59-7.21s-7.35,3.18-7.35,7.97v18.03h-6.35v-30.95Z"/>
      <path class="cls-1" d="M391.39,51.36h6.35v42.45h-6.35v-42.45Z"/>
      <path class="cls-1" d="M402.89,78.33c0-9.94,5.85-16.03,14.68-16.03s14.68,6.09,14.68,16.03-5.82,16.06-14.68,16.06-14.68-6.09-14.68-16.06ZM425.77,78.33c0-6.85-3.24-10.8-8.21-10.8s-8.21,3.94-8.21,10.8,3.24,10.83,8.21,10.83,8.21-3.94,8.21-10.83Z"/>
      <path class="cls-1" d="M435.92,85.01c0-5.41,4.15-8.74,11.5-9.15l8.47-.5v-2.38c0-3.44-2.32-5.5-6.21-5.5-3.68,0-5.97,1.76-6.53,4.53h-6c.35-5.59,5.12-9.71,12.77-9.71s12.3,3.97,12.3,10.18v21.33h-6.09v-5.09h-.15c-1.79,3.44-5.71,5.62-9.77,5.62-6.06,0-10.3-3.77-10.3-9.32ZM455.9,82.21v-2.44l-7.62.47c-3.79.26-5.94,1.94-5.94,4.59s2.24,4.47,5.65,4.47c4.44,0,7.91-3.06,7.91-7.09Z"/>
      <path class="cls-1" d="M466.99,78.33c0-9.77,5.18-15.97,12.94-15.97,4.44,0,7.97,2.24,9.71,5.65h.12v-16.65h6.38v42.45h-6.18v-5.27h-.12c-1.82,3.53-5.35,5.79-9.85,5.79-7.82,0-13-6.24-13-16ZM473.49,78.33c0,6.53,3.15,10.62,8.18,10.62s8.15-4.15,8.15-10.62-3.27-10.62-8.15-10.62-8.18,4.12-8.18,10.62Z"/>
      <path class="cls-1" d="M513.46,78.33c0-9.94,5.85-16.03,14.68-16.03s14.68,6.09,14.68,16.03-5.82,16.06-14.68,16.06-14.68-6.09-14.68-16.06ZM536.35,78.33c0-6.85-3.24-10.8-8.21-10.8s-8.21,3.94-8.21,10.8,3.24,10.83,8.21,10.83,8.21-3.94,8.21-10.83Z"/>
      <path class="cls-1" d="M547.73,62.86h6.06v5.18h.15c1.68-3.53,4.97-5.71,9.74-5.71,6.82,0,10.74,4.35,10.74,11.44v20.03h-6.38v-18.8c0-4.65-2.18-7.21-6.59-7.21s-7.35,3.18-7.35,7.97v18.03h-6.35v-30.95Z"/>
      <path class="cls-1" d="M600.98,55.53v7.32h5.88v5.03h-5.88v17.06c0,2.68,1.18,3.88,3.77,3.88.65,0,1.68-.06,2.09-.15v5.03c-.71.18-2.12.29-3.53.29-6.27,0-8.71-2.38-8.71-8.35v-17.77h-4.5v-5.03h4.5v-7.32h6.38Z"/>
      <path class="cls-1" d="M612.3,51.36h6.29v16.68h.15c1.71-3.62,5.09-5.71,9.8-5.71,6.8,0,10.85,4.53,10.85,11.53v19.94h-6.38v-18.71c0-4.56-2.29-7.3-6.77-7.3-4.71,0-7.59,3.24-7.59,8.12v17.88h-6.35v-42.45Z"/>
      <path class="cls-1" d="M672.05,84.72c-.88,5.65-6.24,9.68-13.33,9.68-9.09,0-14.59-6.15-14.59-15.91s5.59-16.18,14.33-16.18,13.94,6.06,13.94,15.44v2.18h-21.86v.38c0,5.38,3.24,8.94,8.32,8.94,3.62,0,6.29-1.82,7.15-4.53h6.03ZM650.57,75.48h15.47c-.15-4.74-3.15-8.06-7.59-8.06s-7.56,3.38-7.88,8.06Z"/>
    </g>
  </g>
</svg>