<?xml version="1.0" encoding="UTF-8"?>
<svg id="badges" xmlns="http://www.w3.org/2000/svg" viewBox="0 0 4000 1500">
  <defs>
    <style>
      .cls-1 {
        fill: #fff;
      }

      .cls-2 {
        fill: #2e2c2f;
      }
    </style>
  </defs>
  <path class="cls-2" d="M522.62,230.9h698.11c17.03,0,30.87,13.84,30.87,30.87v195.49c0,17.03-13.84,30.87-30.87,30.87h-698.11c-17.03,0-30.87-13.84-30.87-30.87v-195.49c0-17.03,13.84-30.87,30.87-30.87Z"/>
  <g>
    <g>
      <path class="cls-1" d="M617.16,311.63c-1.03-8.29,3.08-17.08,7.66-22.48,5.2-6.12,14.25-10.81,21.45-11.11.93,8.64-2.47,17.13-7.46,23.36-5.19,6.12-13.53,10.85-21.65,10.24Z"/>
      <path class="cls-1" d="M676.63,384.94c-.1.51-2.98,10.55-10.13,20.68-6.02,8.96-12.25,17.7-22.23,17.85-9.67.2-12.91-5.71-24.03-5.71s-14.66,5.56-23.92,5.91c-9.52.36-16.71-9.56-22.94-18.41-12.4-18.11-22.02-51.03-9.11-73.42,6.23-11,17.7-18.06,29.89-18.26,9.46-.15,18.31,6.43,24.13,6.43s16.61-7.93,27.83-6.74c4.69.16,18.06,1.9,26.7,14.46-.67.41-15.9,9.37-15.74,27.78.2,22.02,19.29,29.33,19.55,29.43Z"/>
    </g>
    <g>
      <path class="cls-1" d="M760.01,346.4h-15.12l-24.44,75.99h12.61l6.73-22.33h24.69l7.1,22.33h12.96l-24.54-75.99ZM741.95,390.69l6.33-19.8c1.64-6.28,2.82-11.06,3.6-14.3h.25c1.86,7.51,3.14,12.24,3.81,14.3l6.43,19.8h-20.42Z"/>
      <path class="cls-1" d="M840.78,374.13c-4.32-5.09-9.67-7.66-16.15-7.66-8.23,0-14.41,3.29-18.47,9.82h-.21l-.67-8.7h-10.7c.31,6.17.46,12.14.46,18.01v59.01h12.19v-28.76c3.19,5.2,8.38,7.77,15.64,7.77,6.69,0,12.35-2.37,16.88-7.2,5.1-5.4,7.61-12.76,7.61-22.07,0-8.38-2.16-15.08-6.58-20.22ZM831.1,408.75c-2.57,3.5-6.12,5.3-10.7,5.3-3.91,0-7.1-1.39-9.52-4.11-2.42-2.73-3.65-6.13-3.65-10.08v-9.16c0-.98.2-2.21.57-3.7.72-3.25,2.37-5.82,4.78-7.82,2.47-1.95,5.2-2.98,8.18-2.98,4.43,0,7.97,1.8,10.6,5.4,2.42,3.45,3.6,7.82,3.6,13.17,0,5.81-1.29,10.44-3.86,13.99Z"/>
      <path class="cls-1" d="M903.74,374.13c-4.32-5.09-9.67-7.66-16.15-7.66-8.23,0-14.4,3.29-18.47,9.82h-.2l-.67-8.7h-10.7c.31,6.17.46,12.14.46,18.01v59.01h12.19v-28.76c3.19,5.2,8.39,7.77,15.64,7.77,6.69,0,12.35-2.37,16.87-7.2,5.1-5.4,7.62-12.76,7.62-22.07,0-8.38-2.16-15.08-6.59-20.22ZM894.08,408.75c-2.52,3.5-6.13,5.3-10.7,5.3-3.91,0-7.1-1.39-9.52-4.11-2.42-2.73-3.66-6.13-3.66-10.08v-9.16c0-.98.21-2.21.57-3.7.77-3.25,2.37-5.82,4.79-7.82,2.47-1.95,5.19-2.98,8.18-2.98,4.42,0,7.97,1.8,10.59,5.4,2.42,3.45,3.6,7.82,3.6,13.17,0,5.81-1.23,10.44-3.85,13.99Z"/>
      <path class="cls-1" d="M976.13,387.87c3.14,3.55,4.68,7.97,4.68,13.22,0,6.48-2.26,11.73-6.74,15.79-4.94,4.42-11.83,6.64-20.68,6.64-8.19,0-14.71-1.6-19.65-4.73l2.83-10.14c5.35,3.14,11.22,4.73,17.59,4.73,4.58,0,8.18-1.03,10.7-3.08,2.57-2.06,3.86-4.84,3.86-8.28,0-3.09-1.08-5.66-3.14-7.77-2.11-2.11-5.61-4.07-10.5-5.87-13.43-4.99-20.06-12.25-20.06-21.76,0-6.22,2.37-11.32,7.05-15.33,4.69-3.96,10.91-5.97,18.68-5.97,6.89,0,12.65,1.19,17.23,3.6l-3.08,9.88c-4.32-2.31-9.16-3.5-14.61-3.5-4.27,0-7.67,1.08-10.08,3.14-2.01,1.9-3.04,4.17-3.04,6.9,0,2.98,1.19,5.51,3.5,7.41,2.01,1.8,5.71,3.75,11.06,5.86,6.54,2.63,11.32,5.71,14.41,9.26Z"/>
      <path class="cls-1" d="M1007.72,367.6h13.43v9.16h-13.43v26.6c0,6.74,2.37,10.13,7.1,10.13,2.16,0,3.96-.2,5.4-.57l.36,9.26c-2.42.87-5.55,1.34-9.46,1.34-4.84,0-8.54-1.49-11.27-4.43-2.72-2.93-4.07-7.87-4.07-14.76v-27.63h-7.97v-9.11h7.97v-10.03l11.94-3.6v13.63Z"/>
      <path class="cls-1" d="M1074.54,374.55c-4.88-5.35-11.37-8.03-19.39-8.03s-14.97,2.73-19.91,8.13c-4.89,5.4-7.36,12.35-7.36,20.83s2.37,14.87,7.15,20.17c4.79,5.3,11.22,7.97,19.24,7.97s15.02-2.78,20.06-8.34c4.78-5.4,7.2-12.29,7.2-20.73s-2.32-14.87-7-20.01ZM1065.59,407.88c-2.67,4.43-6.33,6.64-10.96,6.64s-8.44-2.16-11.06-6.54c-2.16-3.55-3.24-7.87-3.24-12.91s1.03-9.56,3.24-13.17c2.52-4.37,6.28-6.54,11.17-6.54s8.38,2.16,10.96,6.54c2.16,3.6,3.24,7.87,3.24,12.91s-1.13,9.36-3.34,13.06Z"/>
      <path class="cls-1" d="M1121.1,366.67l.05,11.62c-1.18-.2-2.47-.31-3.85-.31-4.27,0-7.61,1.6-9.93,4.84-2.01,2.82-3.04,6.48-3.04,10.8v28.76h-12.19v-37.55c0-6.33-.1-12.09-.36-17.24h10.6l.46,10.5h.36c1.28-3.6,3.29-6.54,6.07-8.7,2.73-1.95,5.66-2.93,8.8-2.93,1.13,0,2.16.1,3.04.2Z"/>
      <path class="cls-1" d="M1175.58,392.39c0-6.84-1.64-12.55-4.88-17.29-4.02-5.86-10.03-8.79-17.91-8.79s-14.4,2.93-19.14,8.79c-4.53,5.51-6.79,12.4-6.79,20.64s2.42,15.12,7.25,20.11c4.84,4.99,11.52,7.51,20.01,7.51,7.05,0,13.17-1.13,18.37-3.4l-1.9-8.43c-4.43,1.7-9.37,2.57-14.77,2.57-4.88,0-8.85-1.29-11.93-3.81-3.4-2.83-5.14-7-5.3-12.4h36.52c.31-1.49.46-3.34.46-5.51ZM1138.64,389.21c.36-3.66,1.6-6.84,3.6-9.47,2.47-3.29,5.71-4.94,9.67-4.94,4.32,0,7.57,1.7,9.67,5.1,1.64,2.62,2.47,5.76,2.37,9.36l-25.32-.05Z"/>
    </g>
    <g>
      <path class="cls-1" d="M746.98,282.25c12.62,0,20.09,7.76,20.09,21.15s-7.44,21.29-20.09,21.29h-14.97v-42.44h14.97ZM738.6,318.98h7.76c9,0,13.97-5.5,13.97-15.53s-5-15.53-13.97-15.53h-7.76v31.06Z"/>
      <path class="cls-1" d="M771.19,309.22c0-9.94,5.85-16.03,14.68-16.03s14.68,6.09,14.68,16.03-5.82,16.06-14.68,16.06-14.68-6.09-14.68-16.06ZM794.07,309.22c0-6.85-3.24-10.79-8.21-10.79s-8.21,3.94-8.21,10.79,3.24,10.82,8.21,10.82,8.21-3.94,8.21-10.82Z"/>
      <path class="cls-1" d="M837.68,324.69h-6.62l-6.5-23.18h-.15l-6.44,23.18h-6.56l-8.5-30.94h6.35l5.65,24.35h.12l6.44-24.35h6.12l6.47,24.35h.15l5.65-24.35h6.29l-8.47,30.94Z"/>
      <path class="cls-1" d="M850.03,293.75h6.06v5.18h.15c1.68-3.53,4.97-5.71,9.73-5.71,6.82,0,10.73,4.35,10.73,11.44v20.03h-6.38v-18.79c0-4.65-2.18-7.21-6.59-7.21s-7.35,3.18-7.35,7.97v18.03h-6.35v-30.94Z"/>
      <path class="cls-1" d="M883.06,282.25h6.35v42.44h-6.35v-42.44Z"/>
      <path class="cls-1" d="M894.56,309.22c0-9.94,5.85-16.03,14.68-16.03s14.68,6.09,14.68,16.03-5.82,16.06-14.68,16.06-14.68-6.09-14.68-16.06ZM917.44,309.22c0-6.85-3.24-10.79-8.21-10.79s-8.21,3.94-8.21,10.79,3.24,10.82,8.21,10.82,8.21-3.94,8.21-10.82Z"/>
      <path class="cls-1" d="M927.59,315.9c0-5.41,4.15-8.73,11.5-9.15l8.47-.5v-2.38c0-3.44-2.32-5.5-6.21-5.5-3.68,0-5.97,1.76-6.53,4.53h-6c.35-5.59,5.12-9.71,12.76-9.71s12.29,3.97,12.29,10.18v21.32h-6.09v-5.09h-.15c-1.79,3.44-5.71,5.62-9.76,5.62-6.06,0-10.29-3.76-10.29-9.32ZM947.56,313.1v-2.44l-7.62.47c-3.79.26-5.94,1.94-5.94,4.59s2.24,4.47,5.65,4.47c4.44,0,7.91-3.06,7.91-7.09Z"/>
      <path class="cls-1" d="M958.65,309.22c0-9.76,5.18-15.97,12.94-15.97,4.44,0,7.97,2.24,9.71,5.65h.12v-16.65h6.38v42.44h-6.18v-5.26h-.12c-1.82,3.53-5.35,5.79-9.85,5.79-7.82,0-13-6.23-13-16ZM965.15,309.22c0,6.53,3.15,10.62,8.18,10.62s8.15-4.15,8.15-10.62-3.26-10.62-8.15-10.62-8.18,4.12-8.18,10.62Z"/>
      <path class="cls-1" d="M1005.11,309.22c0-9.94,5.85-16.03,14.68-16.03s14.68,6.09,14.68,16.03-5.82,16.06-14.68,16.06-14.68-6.09-14.68-16.06ZM1027.99,309.22c0-6.85-3.24-10.79-8.21-10.79s-8.21,3.94-8.21,10.79,3.24,10.82,8.21,10.82,8.21-3.94,8.21-10.82Z"/>
      <path class="cls-1" d="M1039.38,293.75h6.06v5.18h.15c1.68-3.53,4.97-5.71,9.73-5.71,6.82,0,10.73,4.35,10.73,11.44v20.03h-6.38v-18.79c0-4.65-2.18-7.21-6.59-7.21s-7.35,3.18-7.35,7.97v18.03h-6.35v-30.94Z"/>
      <path class="cls-1" d="M1092.61,286.43v7.32h5.88v5.03h-5.88v17.06c0,2.68,1.18,3.88,3.76,3.88.65,0,1.68-.06,2.09-.15v5.03c-.71.18-2.12.29-3.53.29-6.26,0-8.71-2.38-8.71-8.35v-17.76h-4.5v-5.03h4.5v-7.32h6.38Z"/>
      <path class="cls-1" d="M1103.93,282.25h6.29v16.68h.15c1.71-3.62,5.09-5.71,9.79-5.71,6.79,0,10.85,4.53,10.85,11.53v19.94h-6.38v-18.7c0-4.56-2.29-7.29-6.76-7.29-4.71,0-7.59,3.24-7.59,8.12v17.88h-6.35v-42.44Z"/>
      <path class="cls-1" d="M1163.66,315.6c-.88,5.65-6.23,9.68-13.32,9.68-9.09,0-14.59-6.15-14.59-15.91s5.59-16.18,14.32-16.18,13.94,6.06,13.94,15.44v2.18h-21.85v.38c0,5.38,3.24,8.94,8.32,8.94,3.62,0,6.29-1.82,7.15-4.53h6.03ZM1142.19,306.37h15.47c-.15-4.74-3.15-8.06-7.59-8.06s-7.56,3.38-7.88,8.06Z"/>
    </g>
  </g>
</svg>