<svg width="510" height="509" viewBox="0 0 510 509" fill="none" xmlns="http://www.w3.org/2000/svg">
<g clip-path="url(#clip0_981_8508)">
<path d="M443.36 190.92C481.76 175.44 508.38 141.82 508.38 102.82C508.38 49.14 457.96 5.63 395.77 5.63C372.81 5.63 351.46 11.57 333.65 21.75C312.32 7.81 288.52 0 263.41 0C222.39 0 184.87 20.8 155.95 55.24C94.65 56.13 45.27 99.29 45.27 152.41C45.27 178.95 57.61 203.01 77.59 220.55C32.54 233.26 0 269.81 0 312.94C0 366.62 50.42 410.13 112.61 410.13C127.05 410.13 140.85 407.78 153.53 403.51C182.76 439.7 221.24 461.68 263.41 461.68C298.5 461.68 331.03 446.45 357.81 420.49C373.21 434.09 391.68 442.02 411.56 442.02C465.24 442.02 508.75 384.22 508.75 312.93C508.75 256.43 481.42 208.42 443.36 190.92Z" fill="#E6F5FF"/>
<path d="M493.79 103.19C487.95 99.16 480.23 95.06 474.56 94.33C472.97 94.13 471.3 94.43 469.73 94.94C470.42 92.71 471.11 90.08 471.47 87.57C472.8 78.27 469.83 67.19 455.05 60.85C440.27 54.51 436.63 50.01 436.63 50.01C436.63 50.01 439.22 54.61 440.9 63.83C442.77 74.06 446.53 86.33 451.65 92.96C452.68 94.3 454.04 95.42 455.52 96.34C443.46 95.93 418.16 96.96 397.23 110.41C368.64 128.78 361.97 176.59 361.97 176.59L369.89 181.52C369.89 181.52 376.56 133.71 405.15 115.34C426.69 101.5 452.88 100.81 464.48 101.31C465.27 102.88 466.36 104.83 467.6 106.48C471.44 111.61 478.22 115.51 488.4 111.45C498.58 107.38 502.5 107.79 502.5 107.79C502.5 107.79 499.03 106.82 493.78 103.19H493.79Z" fill="#5D8E57"/>
<path d="M463.039 93.17C462.289 87.02 459.969 81.17 457.169 75.68C455.129 71.54 452.119 67.94 448.789 64.74C447.689 63.65 446.519 62.63 445.319 61.63C450.549 65.01 455.229 69.61 458.049 75.22C460.859 80.77 463.049 86.89 463.029 93.17H463.039Z" fill="#246F1B"/>
<path d="M468.25 98.9C475.32 103.63 484.05 104.2 492.15 105.93C493.32 106.2 494.5 106.44 495.67 106.75C494.46 106.68 493.27 106.54 492.07 106.43C483.84 105.47 474.7 104.7 468.25 98.9Z" fill="#246F1B"/>
<path d="M244.24 438.48V374.74H232.22V440.16L225.86 441.05C223.24 441.42 221.29 443.66 221.29 446.31V450.5H244.24V438.48Z" fill="#2B1907"/>
<path d="M275.43 440.17V374.75H263.41V450.51H286.36V446.32C286.36 443.67 284.41 441.43 281.79 441.06L275.43 440.17Z" fill="#2B1907"/>
<path d="M382.69 286.56L378.86 207.51C377.91 187.86 364.22 154.23 364.17 154.23C364.07 154.23 363.7 154.21 363.37 154.23C363.11 154.25 363.21 152.53 363.05 152.62L314.82 186.12L268.2 174.13C267.39 173.92 266.54 174.19 266 174.82L235.81 209.91C235.32 210.48 234.58 210.76 233.84 210.65L204.42 206.7C202.35 206.41 199.7 204.72 198.31 203.16C198.31 203.16 198.3 203.15 198.29 203.14L182.78 192.48L182.97 191.97L181.16 191.49C180.38 191.3 179.53 191.65 179.16 192.43L162.84 227L156.31 226.89L148.75 222.13L148.93 221.46C148.93 221.46 147.66 221.34 147.28 221.32C146.79 221.31 146.3 221.51 145.91 221.85L140.44 226.62L128.37 224.69C127.07 224.67 126.58 227.69 126.86 228.96L127.54 232.11L127.37 231.95C126.9 231.56 126.54 231.05 126.34 230.48L126.05 229.68C125.72 228.76 126.4 285.88 126.4 285.88C123.23 351.16 200.92 382.79 235.5 399.25L243.93 399.9L262.6 399.25H268.32C333.68 399.25 385.87 351.85 382.71 286.57L382.69 286.56Z" fill="#966A2A"/>
<path d="M378.16 271.39L373.22 204.67C371.89 186.69 366.48 169.91 357.92 155.15C357.43 154.31 357.63 153.26 358.36 152.61C358.61 152.4 358.83 152.15 359.02 151.89C361.83 147.95 357.32 139.9 348.94 133.92C345.51 131.47 341.97 129.74 338.78 128.83C338.04 128.62 337.55 127.93 337.59 127.16C337.78 123.52 335.43 119.22 331.25 116.23C327.22 113.35 322.58 112.48 319.23 113.63C318.45 113.9 317.6 113.76 316.89 113.33C315.52 112.49 314.13 111.68 312.73 110.9C312.55 110.8 312.36 110.72 312.17 110.65C309.96 109.9 309.69 110.1 308.36 111.09C303.08 115.14 295.71 115.95 289.49 112.56C289.01 112.3 288.55 112.02 288.11 111.72C286.31 110.51 283.93 110.68 282.21 112C277.9 115.32 274.58 119.97 273 125.48C272.51 127.18 271.62 128.75 270.36 129.99C268.07 132.25 266.55 136.26 266.55 140.83C266.55 144.61 267.59 148 269.24 150.34C270.27 151.79 270.51 153.68 269.76 155.29C268.71 157.54 268.09 160.32 268.09 163.31C268.09 168.79 270.16 173.52 273.16 175.71L273.26 179.4C273.61 188.05 266.69 195.25 258.03 195.25H253.04C244.38 195.25 237.47 188.05 237.81 179.4V179.32C237.84 178.34 237.24 177.44 236.32 177.13C234.65 176.57 231.73 174.67 230.59 173.84C230.37 173.68 230.38 173.36 230.61 173.21C233.81 171.15 235.91 163.74 235.5 155.02C235.28 150.35 234.38 146.12 233.07 142.92C232.71 142.05 232.78 141.06 233.31 140.28C234.29 138.85 235.46 137.6 236.76 136.56C238.21 135.4 239.08 133.68 239.13 131.83C239.67 112.23 219.29 99.07 201.61 107.53C193.18 111.56 185.29 116.55 178.1 122.34C177.45 122.86 177.16 123.71 177.32 124.53C177.34 124.65 177.37 124.78 177.39 124.9C177.59 126.07 176.76 127.24 175.61 127.56C172.72 128.35 169.6 130.94 167.43 134.69C164.09 140.47 165.65 145.4 167.83 148.88C168.23 149.51 158.45 156.13 152.15 155.58C150.7 155.45 149.31 156.21 148.61 157.49C145.56 163.05 142.94 168.87 140.82 174.93C137.53 184.33 135.4 194.29 134.64 204.65L129.7 271.37C128.14 292.4 132.31 312.47 140.87 330.16C157.73 365.04 191.65 390.67 232.37 396.22C236.87 396.83 240.87 393.32 240.87 388.78V385.83C240.87 381.06 244.73 377.2 249.5 377.2H258.38C263.15 377.2 267.01 381.06 267.01 385.83V388.78C267.01 393.32 271.01 396.83 275.51 396.22C316.23 390.67 350.15 365.04 367.01 330.16C375.56 312.47 379.73 292.41 378.17 271.37L378.16 271.39Z" fill="#E8BE6B"/>
<path d="M322.7 138C329.99 134.73 339.5 136.37 342.84 144.32C344.43 147.94 344.49 151.79 344.42 155.61C344.42 158.11 344.25 160.6 343.94 163.08C343.84 164.14 343.53 165.27 343.38 166.33C343.3 166.61 342.82 168.3 342.73 168.62C341.37 172.65 338.69 176.49 334.59 178.07C334.25 178.2 333.96 178.31 333.52 178.41V176.07C339.12 177.13 344.83 180.6 346.15 186.5C347.21 193.07 345.2 199.91 341.52 205.31L341.3 205.18C343.62 199.5 344.95 193.12 343.7 187.1C343.62 186.81 343.32 186.04 343.23 185.74C342.81 184.89 342.3 184.03 341.66 183.34C339.93 181.31 337.51 179.93 335.01 179C333.66 178.44 328.95 177.5 327.48 177.13C327.89 177.03 333.62 176.04 333.78 175.88C344.86 171.43 345.47 154.62 340.87 145.26C337.58 138.21 329.83 136.98 322.78 138.25L322.7 138.01V138Z" fill="#D3A759"/>
<path d="M217.2 129C210.95 126.85 205.73 131.43 203.09 136.67C201.45 139.63 200.37 142.88 199.3 146.09C198.31 149.3 197.31 152.78 196.66 156.09C195.64 161.29 194.76 166.79 196.24 171.98C197.71 177.83 203.03 181.72 209.01 181.43L213.74 181.12L209.69 183.67C205.61 186.32 201.75 190.29 200.6 195.14C200.18 196.77 200.33 198.47 200.32 200.14C200.56 205.21 201.5 210.71 205.56 214.09C206.87 215.19 208.52 215.95 210.23 216.18V216.43C206.44 216.6 202.95 214.07 201.03 210.92C199.32 208.14 198.46 204.89 198.06 201.66C197.8 199.33 197.56 196.92 198.04 194.6C199.2 188.84 203.62 184.5 208.5 181.58L209.17 183.82C204.13 183.94 199.04 181.33 196.72 176.8C193.73 171.05 194.66 164.41 195.29 158.23C196.12 150.47 197.09 142.58 201.22 135.62C202.86 132.83 205.04 130.26 207.96 128.73C210.89 127.19 214.57 127.15 217.31 128.79L217.19 129.01L217.2 129Z" fill="#D3A759"/>
<path d="M286.26 236.37C297.57 238.26 304.49 234.11 306.53 222.61C307.93 214.63 306.71 204.66 299.49 199.84C298.61 199.27 297.57 198.76 296.57 198.54L290.97 197.49C292.47 197.11 297.13 196.18 298.5 195.62C301.89 194.37 305.16 192.21 306.72 188.87C308.87 183.14 307.12 174.99 304.8 169.43L305.01 169.3C308.69 174.7 310.7 181.54 309.64 188.11C308.32 194.02 302.61 197.48 297.01 198.54V196.2C297.8 196.38 298.35 196.64 299.03 196.96C302.63 198.75 304.96 202.28 306.22 205.99C306.31 206.31 306.79 207.99 306.87 208.28C307.03 209.34 307.33 210.47 307.43 211.53C307.74 214.01 307.92 216.5 307.91 219C308.01 223.41 307.86 228.13 305.4 232.04C302.31 237.35 295.5 239.14 289.79 237.76C288.55 237.5 287.34 237.13 286.19 236.6L286.27 236.36L286.26 236.37Z" fill="#D3A759"/>
<path d="M163.69 275.38C160.04 268.39 153.91 253.37 157.29 245.81L157.66 245.14C159.71 242.03 161.85 238.98 163.82 235.82L164.14 236.45C163.34 236.33 162.62 236.11 161.92 235.75C156.14 232.66 161.79 225.42 164.45 221.98L164.93 223.35C162.59 223.07 160.36 222.54 158.15 221.75C146.68 217.66 143.78 208.61 150.82 198.68C152.12 196.76 153.76 194.87 155.64 193.5C159.62 190.42 165.14 190.54 168.73 194.1L168.56 194.29C164.15 191.39 159.6 192.14 155.95 195.8C151.76 200.57 147.18 208.28 151.34 214.28C154.94 218.97 161.11 220.83 166.67 222.06C165.32 223.38 163.95 224.79 162.82 226.31C161.6 227.99 160.31 229.83 160.2 231.93C160.08 234.4 162.72 235.6 164.85 235.67C162.83 239.25 160.89 242.9 159.06 246.58C158.14 249.3 158.54 252.24 158.87 255.08C159.35 258.46 160.17 261.83 161.04 265.19C161.93 268.55 162.92 271.9 163.92 275.26L163.69 275.36V275.38Z" fill="#D3A759"/>
<path d="M382.62 284.77L378.79 205.72C377.84 186.07 364.15 152.46 364.1 152.44C364.08 152.44 363.9 152.4 363.68 152.4C363.44 152.42 363.22 152.42 363.05 152.61C359.29 159.11 328.49 184.71 325.99 185.86C324.61 186.49 323.58 186.6 323.58 186.6L268.13 172.34C267.32 172.13 266.47 172.4 265.93 173.03L235.74 208.12C235.25 208.69 234.51 208.97 233.77 208.86L204.35 204.91C202.28 204.62 199.61 202.93 198.23 201.36L182.71 190.69L182.9 190.18L181.09 189.7C180.31 189.51 179.46 189.86 179.09 190.64L162.08 225.84C161.78 226.46 160.74 227.28 160.09 227.06L157.8 226.08L148.67 220.33L149.06 219.67C149.06 219.67 148.1 219.43 147.73 219.42C147.24 219.41 146.75 219.61 146.36 219.95L140.37 224.82L132.11 231.95C131.9 232.13 131.6 232.13 131.39 231.95C130.55 231.2 128.86 229.81 128.46 228.85C127.66 226.93 128.43 224.74 128.43 224.74C127.13 224.72 126.51 225.89 126.79 227.15L127.47 230.3L127.3 230.14C126.83 229.75 126.47 229.24 126.27 228.67L125.98 227.87C125.65 226.95 126.33 284.07 126.33 284.07C123.16 349.35 170.2 404.69 235.56 404.69H268.39C333.75 404.69 385.82 350.03 382.66 284.75L382.62 284.77Z" fill="#966A2A"/>
<path d="M384.5 285.24L380.67 206.19C379.72 186.54 373.84 168.25 364.28 152.48C364.25 152.45 364.12 152.43 364.09 152.44C364.08 152.45 364.02 152.83 363.91 153.03C357.61 163.77 327.16 186.65 327.16 186.65C326.65 187.06 325.98 187.21 325.34 187.04L270 172.8C269.19 172.59 268.34 172.86 267.8 173.49L237.91 208.28C237.42 208.85 236.68 209.13 235.94 209.02L205.47 204.7C203.4 204.41 201.5 203.39 200.12 201.83C200.12 201.83 200.11 201.82 200.1 201.81L183.51 190.4C182.63 189.8 181.42 190.12 180.96 191.09L164.28 226.42C163.84 227.71 162.3 228.23 161.17 227.47L149.96 220C149.14 219.45 148.06 219.52 147.31 220.17L132.4 233.14C132.4 233.14 132.29 233.18 132.24 233.14L129.16 230.6C128.69 230.21 128.33 229.7 128.13 229.13L127.84 228.33C127.51 227.41 127.6 226.39 128.07 225.54L128.46 224.85C128.5 224.77 128.45 224.67 128.36 224.67C127.09 224.65 126.04 225.64 125.98 226.9L123.15 285.21C119.98 350.49 172.06 405.16 237.42 405.16H270.25C335.61 405.16 387.68 350.5 384.52 285.22L384.5 285.24Z" fill="#B2853D"/>
<path d="M358.871 196.94C361.531 205.25 362.301 214.2 360.861 222.82C360.161 227.82 359.311 233.21 358.301 238.12L355.971 237.47C356.261 236.9 356.421 236.6 357.051 236.22C359.971 235.07 360.421 240.19 360.781 241.99C361.431 246.42 361.721 250.88 361.611 255.35C361.551 257.59 361.401 259.79 360.981 262.05L360.041 261.61C360.551 260.97 361.151 260.46 362.031 260.44C365.611 260.64 366.171 270.19 366.541 272.96C366.881 277.52 367.311 284.81 364.241 288.54C361.231 290.57 358.161 293.13 356.611 296.49C356.381 296.92 356.231 297.46 356.061 297.92L355.911 298.65C355.891 298.77 355.851 298.89 355.831 299.01C355.811 299.35 355.771 299.76 355.751 300.11C355.941 305.9 357.761 311.55 359.681 316.99C361.601 322.29 361.521 328.51 358.931 333.55C357.931 335.72 356.861 337.91 355.951 340.09L355.641 340.02C356.591 335.38 359.041 331.08 358.871 326.29C358.811 323.74 358.361 321.16 357.481 318.78C357.121 317.96 356.741 317.15 356.421 316.33C355.041 312.9 353.851 309.45 353.071 305.8C351.761 299.8 352.121 295.65 356.421 290.99C358.211 289.07 360.141 287.54 362.421 286.2L362.231 286.33C362.211 286.34 362.171 286.38 362.171 286.38C362.771 285.65 363.071 284.71 363.351 283.78C364.291 280.32 364.361 276.67 364.391 273.05C364.321 270.7 364.391 262.35 362.021 261.56C361.701 261.52 361.201 261.85 360.901 262.22L359.401 264.04L359.961 261.78C360.881 257.54 360.831 253.06 360.291 248.76C359.761 245.36 359.201 241.78 357.771 238.66C357.671 238.47 357.541 238.29 357.471 238.24C357.451 238.22 357.421 238.23 357.561 238.31C357.681 238.39 358.031 238.38 358.161 238.3C358.291 238.23 358.291 238.21 358.281 238.24C358.281 238.25 358.231 238.35 358.241 238.34L355.911 237.69C356.311 234.27 356.771 230.86 357.331 227.47C357.781 224.67 358.641 220.17 358.991 217.36C359.751 210.62 359.441 203.75 358.571 196.99L358.871 196.91V196.94Z" fill="#9B6D2C"/>
<path d="M203.74 214.93C202.77 221.68 202.41 228.53 203.2 235.31C204.21 242.08 205.59 248.82 206.59 255.59L203.9 256.34C203.92 256.38 203.87 256.28 203.87 256.29C204.08 256.58 204.74 256.61 205.01 256.36C205.03 256.35 205.03 256.34 205.03 256.34C205 256.37 204.89 256.54 204.81 256.72C203.54 259.85 203.08 263.39 202.54 266.75C201.8 271.91 201.76 277.31 202.95 282.4L201.34 280.2C201.07 279.83 200.6 279.48 200.29 279.5C197.8 280.08 197.48 288.65 197.33 290.96C197.26 293.43 197.27 295.91 197.59 298.34C197.91 300.5 198.27 302.76 199.52 304.58C199.58 304.66 199.71 304.78 199.68 304.76L199.57 304.68C204.46 307.5 209.42 312.04 209.59 318.06C209.54 323.66 207.88 329.1 206.04 334.33C204.72 337.43 203.93 340.83 204.07 344.21C204.12 346.45 204.67 348.58 205.51 350.64C206.16 352.36 207.3 355.33 207.86 357.08L207.93 357.32L207.97 357.45L208.03 357.66L207.24 359.38C207.24 359.38 207.3 359.34 207.29 359.35C206.93 359.59 207.09 360.01 207.27 360.41C208.39 362.23 209.63 364.37 209.62 366.63C208.93 368.42 208.34 370.33 207.88 372.22C207.46 374.03 207.11 375.88 207.12 377.66C207.15 378.84 207.27 379.92 207.95 380.8C209.62 382.72 211.94 384.3 214.48 384.66L214.33 385.2C214 386.63 213.47 388.41 214.62 389.59C214.96 389.98 215.38 390.34 215.83 390.62L215.69 390.9C215.16 390.66 214.68 390.35 214.24 389.96C213.23 389.19 213.03 387.85 213.11 386.67C213.13 386.09 213.19 385.53 213.29 384.95L213.77 385.61C210.84 385.31 208.31 383.76 206.35 381.68C203.55 377.72 205.69 370.24 206.93 365.92L206.85 366.41C206.76 365.8 206.57 365.25 206.32 364.68C205.42 362.63 203.14 360.71 204.33 358.18C204.65 357.51 205.12 356.97 205.76 356.6L204.97 358.32C204.85 357.97 204.57 357.18 204.43 356.83C204.06 355.82 202.87 352.9 202.45 351.85C200.09 346.67 200.22 340.5 202.22 335.24C204.26 330.26 206.11 325.08 206.75 319.73C206.99 318 206.86 316.24 206.23 314.61C204.75 311.11 201.83 308.29 198.7 306.19C198.43 306.03 198.26 305.74 198.14 305.59C196.81 303.48 196.51 300.88 196.31 298.47C196.15 295.94 196.19 293.42 196.34 290.92C196.63 288.11 196.76 278.66 200.27 278.37C201.16 278.37 201.79 278.86 202.33 279.49L201.24 280C199.8 273.35 199.96 266.51 201.11 259.84C201.39 258.43 201.67 256.92 202.29 255.54C202.6 254.97 202.94 254.23 203.77 253.89C204.95 253.39 206.13 254.26 206.51 255.33L203.82 256.08C202.99 250.97 202.25 245.85 201.54 240.73C200.7 235.58 200.62 230.2 201.29 225.05C201.73 221.6 202.39 218.18 203.43 214.87L203.73 214.95L203.74 214.93Z" fill="#9B6D2C"/>
<path d="M334.11 196.94C337.36 203.45 339.84 210.42 340.79 217.65C341.2 221.52 341.85 225.4 341.23 229.29C341 230.59 339.97 232.59 339.46 233.8C338.73 235.46 337.96 237.1 337.17 238.73L336.38 237.48C341.36 237.95 339.35 249.65 338.25 252.85L338.09 252.55C336.33 253.89 338.14 256.09 338.85 257.56C339.86 259.74 340.14 262.2 339.77 264.55L339.58 264.53C339.44 262.04 338.75 259.5 337.27 257.49C337.14 257.32 336.88 256.96 336.76 256.79C335.42 255.12 335.11 252.34 337.12 250.98L336.72 251.51C336.97 250.45 337.16 249.26 337.28 248.11C337.39 246.02 338.31 240.4 336.41 239.21C336.41 239.21 336.34 239.21 336.43 239.2L335.64 237.95C336.88 235.64 338.36 233.15 339.7 230.88C340.16 230.14 340.47 229.33 340.64 228.48C341.63 223.13 339.62 217.78 338.21 212.68C336.83 207.62 335.23 202.08 333.94 197.01L334.12 196.94H334.11Z" fill="#9B6D2C"/>
<path d="M331.36 235.73C331.62 238.07 331.26 240.47 330.24 242.62C330.05 243.09 329.62 243.7 329.36 244.15C328.59 245.3 328.22 247.13 329.51 247.99L329.72 248.12C330.11 249.41 330.36 250.68 330.56 251.97C330.84 254.78 332.06 262.25 327.96 262.79L328.73 261.57C329.58 263.17 330.39 264.79 331.21 266.4C331.71 267.4 332.65 269.16 332.99 270.2C334.05 274.33 333.08 278.58 332.24 282.63C330.57 289.72 328.38 296.62 326.01 303.49V303.19C327.15 306.43 328.16 309.69 329.04 313C330.46 318.82 331.76 324.97 330.75 330.99L330.4 333.52C329.94 336.9 329.42 340.27 328.91 343.64L328.2 342.52C330.03 343.13 331.75 344.43 332.18 346.4C332.47 348.2 332.18 350.19 330.79 351.48C330.66 351.58 330.6 351.65 330.34 351.78L330.66 351.53C330 352.34 329.37 353.29 328.95 354.22C328.7 354.85 328.45 355.46 328.65 356.03C328.98 356.55 329.64 356.71 330.31 356.95C331.15 357.18 332.2 357.66 332.42 358.68C332.45 358.87 332.49 359.07 332.49 359.26L332.46 359.78C332.16 361.72 331.2 363.46 330.42 365.19C328.95 368.31 327.38 371.39 325.68 374.4L325.51 374.31C326.85 371.31 328.25 367.85 329.49 364.79C330.1 363.23 330.81 361.66 331.07 360.04C331.16 359.53 331.12 359.04 330.97 358.87C330.85 358.7 330.43 358.53 329.86 358.38C328.95 358.13 327.7 357.76 327.19 356.74C326.67 355.71 327 354.48 327.37 353.56C327.86 352.38 328.49 351.39 329.24 350.39L329.56 350.14C330.28 349.49 330.5 347.79 330.29 346.82C329.95 345.3 328.17 344.54 326.79 344.19C327.33 340.54 327.86 336.88 328.45 333.23L328.85 330.71C329.93 324.91 328.79 319.04 327.65 313.31C326.96 310 326.14 306.69 325.16 303.46L325.11 303.3L325.17 303.16C328.32 295.52 334.28 277.81 331.26 270.13C329.97 267.62 328.48 264.86 327.22 262.33L327.99 261.11C327.9 261.11 327.97 261.11 327.98 261.11C330.36 259.92 329.1 251.04 328.57 248.7L328.84 249.06C328.48 248.81 328.28 248.57 328.06 248.28C326.82 246.55 327.88 244.37 329.03 242.93C329.84 241.8 330.39 240.5 330.72 239.13C330.99 238.03 331.14 236.89 331.14 235.76L331.33 235.74L331.36 235.73Z" fill="#9B6D2C"/>
<path d="M149.94 260.21C149.98 262.44 150.5 264.75 151.64 266.67C152.24 267.7 153.1 268.56 153.44 269.75C153.9 271.08 153.5 272.72 152.27 273.56L152.57 273.17C152.04 275.45 150.76 284.33 153.11 285.56C153.11 285.56 153.19 285.56 153.09 285.56L153.87 286.78C153.04 288.39 152.18 289.98 151.3 291.56C150.86 292.38 149.74 294.24 149.44 295.07C148.25 298.87 148.9 303.05 149.58 306.92C150.96 314 153.5 320.83 156.19 327.5L156.26 327.67L156.23 327.89C155.95 329.87 155.79 331.9 155.73 333.9C155.68 335.89 155.71 337.93 156.19 339.71C156.74 341.47 157.92 343.24 158.96 344.82C160.12 346.55 161.38 348.25 162.68 349.87C164.01 355.82 165.24 361.84 167.02 367.66L167.35 368.57C167.48 368.84 167.57 369.13 167.74 369.36C168.16 370.06 169.13 370.65 169.85 371.13C172.43 372.64 175.25 373.73 178.1 374.75L178.05 374.93C175.4 374.33 172.78 373.59 170.28 372.48C168.85 371.76 167.26 371.09 166.41 369.6C165.83 368.54 165.41 367.34 165.02 366.21C163.3 361.05 162.01 355.82 160.76 350.54L160.96 350.96C159.65 349.33 158.44 347.67 157.28 345.93C156.14 344.08 155.02 342.38 154.39 340.21C153.86 338.01 153.92 335.92 154.01 333.83C154.14 331.75 154.41 329.71 154.78 327.65L154.82 328.04C152.44 321.16 150.53 314.16 149 307.04C148.28 303 147.26 298.8 148.28 294.7C148.57 293.68 149.55 291.86 149.98 290.89C150.76 289.25 151.56 287.63 152.38 286.02L153.16 287.24C148.42 286.8 150.42 275.88 151.27 272.78L151.35 272.53L151.57 272.4C152.85 271.57 152.45 269.76 151.71 268.63C150.05 266.17 149.39 263.11 149.76 260.19L149.95 260.21H149.94Z" fill="#9B6D2C"/>
<path d="M144.43 238.07C142.64 245.71 140.1 253.48 140.14 261.35C140.14 262.36 140.39 263.55 140.62 264.55C141.26 267.57 141.77 270.59 142.15 273.7L142.18 273.98C140.51 275.37 138.93 277.17 138.22 279.26C137.49 281.18 138.42 283.57 138.76 285.59L138.65 285.34C142.02 289.56 145.08 294.23 145.44 299.85C145.53 302.59 145.29 305.23 144.96 307.87C144.6 310.52 144.1 313.1 143.41 315.69L142.67 316.56C142.3 316.72 141.91 317.3 141.86 317.82C141.77 318.53 142 319.35 142.26 320.05C142.86 321.68 143.81 323.3 144.98 324.57C146.55 325.96 148.74 328.18 148.96 330.79C149.11 332.15 148.11 333.15 147.54 334.26C147.02 335.26 146.56 336.34 146.37 337.45H146.12C146.08 335.63 146.72 333.9 147.46 332.26C148.46 329.85 145.31 327.41 143.62 326.07C142 324.6 140.89 322.91 140.01 320.95C138.88 318.77 138.98 315.41 141.59 314.15L140.85 315.02C141.96 310.1 143.05 304.94 143.12 299.91C142.96 295.01 140.56 290.08 137.81 286.02L137.71 285.88V285.77C137.55 284.38 137.31 283.03 137.16 281.64C136.94 279.6 137.95 277.61 139.09 275.99C139.75 275.06 140.46 274.2 141.29 273.38L141.12 273.83C140.51 270.9 139.52 267.97 138.65 265.05C138.14 263.54 137.84 261.86 137.85 260.26C137.95 255.53 139.19 250.97 140.66 246.53C141.66 243.61 142.79 240.74 144.17 237.98L144.4 238.07H144.43Z" fill="#9B6D2C"/>
<path d="M287.29 195.85C289.61 201.62 291.43 207.57 292.66 213.67C293.14 216.46 293.87 219.35 292.9 222.16C291.77 225.51 290.19 228.67 288.68 231.82L288.42 231.18C290.43 232.12 292.93 233.74 292.69 236.28C292.29 238.56 291.4 240.59 290.23 242.58L290.18 241.84C295.01 247.03 298.67 254.09 297.53 261.39C296.97 266.13 293.67 271.17 288.24 270.37L289.11 268.04C291.72 269.82 295.15 272.26 294.87 275.86C294.81 276.67 294.71 277.43 294.35 278.22C294 278.99 293.48 279.44 293.05 280.02C292.33 281.11 291.06 281.76 290.03 282.3C288.33 283.12 286.59 283.79 284.79 284.34L284.7 284.11C286.33 283.22 287.96 282.34 289.45 281.3C290.35 280.65 291.23 280.09 291.72 279.18C292.03 278.62 292.56 278.04 292.72 277.52C292.94 276.89 292.96 275.98 292.9 275.2C292.34 272.96 289.78 271.43 287.86 270.22L283.16 267.5L288.73 267.88C289.75 267.97 290.86 267.68 291.72 267.1C293.68 265.77 294.54 263.27 294.98 260.95C296.21 254.38 292.94 247.42 289.01 242.25C290.34 240.49 291.53 238.37 291.92 236.18C292.14 234.05 289.81 232.73 288.09 232.07L287.64 231.91L287.83 231.44C289.19 227.96 290.3 224.4 291.13 220.79C291.35 218.64 290.83 216.24 290.52 214.07C290.07 211.39 289.32 207.72 288.79 205.03C288.19 202.01 287.58 198.98 287.06 195.92L287.3 195.85H287.29Z" fill="#9B6D2C"/>
<path d="M230.69 241.24C230.31 243.01 230.59 244.88 230.71 246.68C231.06 249.32 231.13 252.08 231.86 254.64C232.35 256.27 233.36 257.64 234.44 258.93C235.63 260.44 236.69 262.02 237.59 263.72C238.25 264.93 239.15 266.93 238.49 268.37C237.44 271.51 235.16 274.09 234.01 277.15C233.63 278.45 233.27 280.1 234.14 281.22L234.6 281.79C236.6 284.39 237.58 287.95 236.9 291.24C236.86 291.48 236.81 291.91 236.87 291.98C237.42 293.11 238.5 294.27 239.18 295.51C239.62 296.24 239.68 297.3 239.08 297.97L238.98 298.09L238.83 298.26C235.17 302.21 231.34 306.77 230.7 312.19C230.4 315.74 231.48 319.29 232.99 322.52L232.73 322.7C230.17 319.82 228.36 316.01 228.22 312.1C228.04 305.92 232.52 299.59 236.47 296.07C236.32 296.34 236.22 296.73 236.33 297.02C236.33 297.02 236.31 296.97 236.3 296.95C235.6 295.6 234.45 294.3 234 292.67C233.81 291.7 234.04 290.93 234.25 290.04C234.74 287.57 234.35 285.01 233.13 282.73L232.8 282.15C232.33 281.45 232.21 280.46 232.28 279.68C232.47 276.67 234.43 274.39 235.68 271.81C236.3 270.39 237.29 268.51 236.99 266.99C236.38 265.56 235.03 264.06 233.99 262.78C233.72 262.49 232.04 260.43 231.79 260.15C230.26 258.38 229.26 256.15 228.98 253.84C228.77 251.42 228.82 249.09 229.01 246.67C229.21 244.77 229.36 242.78 230.38 241.09L230.66 241.23L230.69 241.24Z" fill="#9B6D2C"/>
<path d="M310.631 115.78C313.041 116.33 315.001 118.91 314.181 121.4C313.371 123.66 311.531 125.23 309.921 126.91C308.801 127.96 307.651 128.98 306.231 129.73L305.931 128.7C307.831 128.42 310.061 128.05 311.741 129.33C314.211 131.69 311.901 135.22 309.681 136.77L309.601 136.68C310.301 135.81 310.921 134.87 311.341 133.89C311.871 132.68 311.991 131.42 311.151 130.51C310.691 130 310.011 129.94 309.301 129.81C307.441 129.53 304.541 129.92 302.641 130.05C304.881 129.09 307.711 128.13 309.631 126.57C311.701 124.86 313.621 121.92 313.131 119.17C312.821 117.9 311.791 116.78 310.581 115.89L310.631 115.77V115.78Z" fill="#D3A759"/>
<path d="M185.85 154.25C183.22 153.7 178.64 152.66 176.69 154.95C175.02 157.8 177.96 160.76 180.57 161.72L186.34 164.12L180.13 163.25C176.63 162.85 172.21 162.66 169.68 165.37C168.34 167.1 168.06 170.01 168.77 172.09C169.65 174.72 171.9 175.02 174.34 174.64C175.68 174.53 176.98 174.39 178.37 174.33L182.13 174.15C178.44 175.93 174.28 177.79 171.33 180.67C170.32 181.69 169.4 182.96 169.99 184.36C170.19 185.06 170.55 185.72 171.06 186.24C171.57 186.76 172.26 187.14 173.02 187.24C170.61 187.25 168.54 184.37 169.35 182.09C170.25 179.83 172.28 178.31 174.12 176.9C175.39 176 176.69 175.18 178.07 174.42L178.46 175.87L174.52 176.35C172.36 176.78 169.71 176.64 168.19 174.74C165.8 171.77 166.03 167.17 168.27 164.2C171.36 160.83 176.3 161.1 180.42 161.69L179.98 163.22C179.1 162.83 178.37 162.37 177.65 161.8C175.41 160.17 173.92 156.76 175.83 154.3C178.3 151.67 182.98 153.19 185.85 154.27V154.25Z" fill="#D3A759"/>
<path d="M213.18 277C210.76 276.57 208.28 276.47 205.76 276.74C188.85 278.54 176.86 296.09 178.97 315.94C181.03 335.32 188.66 352.06 211.69 348.89" fill="white"/>
<path d="M211.68 348.89C198.4 346.29 188.21 331.25 188.21 313.07C188.21 294.89 199.17 278.73 213.18 277.01C220.49 278.3 227.13 282.59 232.03 288.85C230.52 288.2 228.71 287.82 226.76 287.82C221.47 287.82 217.18 290.62 217.18 294.07C217.18 297.52 221.47 300.32 226.76 300.32C231.36 300.32 235.2 298.2 236.13 295.38C238.22 299.6 239.64 304.34 240.19 309.43C242.3 329.28 237.91 344.34 213.4 348.63C212.82 348.73 212.25 348.81 211.69 348.89H211.68Z" fill="#2B1907"/>
<path d="M217.17 294.07C217.17 297.52 221.46 300.32 226.75 300.32C231.35 300.32 235.19 298.2 236.12 295.38C234.95 293.03 233.58 290.83 232.02 288.85C230.51 288.2 228.7 287.82 226.75 287.82C221.46 287.82 217.17 290.62 217.17 294.07Z" fill="white"/>
<path d="M296.921 348.89C319.951 352.06 327.581 335.32 329.641 315.94C331.751 296.09 319.751 278.54 302.851 276.74C300.331 276.47 297.841 276.58 295.431 277" fill="white"/>
<path d="M295.691 277C302.691 277.86 308.931 282.16 313.421 288.6C312.041 288.1 310.451 287.81 308.761 287.81C303.471 287.81 299.181 290.61 299.181 294.06C299.181 297.51 303.471 300.31 308.761 300.31C312.741 300.31 316.151 298.73 317.601 296.48C319.551 301.45 320.651 307.08 320.651 313.05C320.651 331.23 310.461 346.28 297.181 348.87C296.621 348.79 296.051 348.71 295.471 348.61C270.961 344.32 266.571 329.26 268.681 309.41C270.471 292.52 281.901 279.41 295.691 276.98V277Z" fill="#2B1907"/>
<path d="M182.67 335.22H234.96C239.25 335.22 242.74 338.7 242.74 343V353.75H174.9V343C174.9 338.71 178.38 335.22 182.68 335.22H182.67Z" fill="#B2853D"/>
<path d="M272.701 335.22H324.991C329.281 335.22 332.771 338.7 332.771 343V353.75H264.931V343C264.931 338.71 268.411 335.22 272.711 335.22H272.701Z" fill="#B2853D"/>
<path d="M268.63 350.16C267.47 354.22 261.5 357.32 254.3 357.32C247.1 357.32 241.2 354.26 239.99 350.24C237.75 349.72 236.39 349.28 236.39 349.28C236.39 357.8 241.91 364.71 254.3 364.71C265.86 364.71 272.21 357.8 272.21 349.28C272.21 349.28 270.82 349.67 268.63 350.16Z" fill="#2B1907"/>
<path d="M254.299 357.32C261.499 357.32 267.479 354.22 268.629 350.16C265.089 350.95 259.459 351.99 254.299 351.99C248.609 351.99 243.319 351.02 239.989 350.25C241.199 354.27 247.149 357.33 254.299 357.33V357.32Z" fill="white"/>
<mask id="mask0_981_8508" style="mask-type:luminance" maskUnits="userSpaceOnUse" x="175" y="335" width="159" height="19">
<path d="M314.99 335.12H283.82C277.61 335.12 272.13 338.21 268.81 342.93H239.97C236.65 338.21 231.17 335.12 224.96 335.12H193.79C183.67 335.12 175.46 343.33 175.46 353.45V353.64H243.3V353.45C243.3 351.51 243 349.63 242.43 347.88H266.35C265.79 349.64 265.48 351.51 265.48 353.45V353.64H333.32V353.45C333.32 343.33 325.11 335.12 314.99 335.12Z" fill="white"/>
</mask>
<g mask="url(#mask0_981_8508)">
<path d="M203.74 214.93C202.77 221.68 202.41 228.53 203.2 235.31C204.21 242.08 205.59 248.82 206.59 255.59L203.9 256.34C203.92 256.38 203.87 256.28 203.87 256.29C204.08 256.58 204.74 256.61 205.01 256.36C205.03 256.35 205.03 256.34 205.03 256.34C205 256.37 204.89 256.54 204.81 256.72C203.54 259.85 203.08 263.39 202.54 266.75C201.8 271.91 201.76 277.31 202.95 282.4L201.34 280.2C201.07 279.83 200.6 279.48 200.29 279.5C197.8 280.08 197.48 288.65 197.33 290.96C197.26 293.43 197.27 295.91 197.59 298.34C197.91 300.5 198.27 302.76 199.52 304.58C199.58 304.66 199.71 304.78 199.68 304.76L199.57 304.68C204.46 307.5 209.42 312.04 209.59 318.06C209.54 323.66 207.88 329.1 206.04 334.33C204.72 337.43 203.93 340.83 204.07 344.21C204.12 346.45 204.67 348.58 205.51 350.64C206.16 352.36 207.3 355.33 207.86 357.08L207.93 357.32L207.97 357.45L208.03 357.66L207.24 359.38C207.24 359.38 207.3 359.34 207.29 359.35C206.93 359.59 207.09 360.01 207.27 360.41C208.39 362.23 209.63 364.37 209.62 366.63C208.93 368.42 208.34 370.33 207.88 372.22C207.46 374.03 207.11 375.88 207.12 377.66C207.15 378.84 207.27 379.92 207.95 380.8C209.62 382.72 211.94 384.3 214.48 384.66L214.33 385.2C214 386.63 213.47 388.41 214.62 389.59C214.96 389.98 215.38 390.34 215.83 390.62L215.69 390.9C215.16 390.66 214.68 390.35 214.24 389.96C213.23 389.19 213.03 387.85 213.11 386.67C213.13 386.09 213.19 385.53 213.29 384.95L213.77 385.61C210.84 385.31 208.31 383.76 206.35 381.68C203.55 377.72 205.69 370.24 206.93 365.92L206.85 366.41C206.76 365.8 206.57 365.25 206.32 364.68C205.42 362.63 203.14 360.71 204.33 358.18C204.65 357.51 205.12 356.97 205.76 356.6L204.97 358.32C204.85 357.97 204.57 357.18 204.43 356.83C204.06 355.82 202.87 352.9 202.45 351.85C200.09 346.67 200.22 340.5 202.22 335.24C204.26 330.26 206.11 325.08 206.75 319.73C206.99 318 206.86 316.24 206.23 314.61C204.75 311.11 201.83 308.29 198.7 306.19C198.43 306.03 198.26 305.74 198.14 305.59C196.81 303.48 196.51 300.88 196.31 298.47C196.15 295.94 196.19 293.42 196.34 290.92C196.63 288.11 196.76 278.66 200.27 278.37C201.16 278.37 201.79 278.86 202.33 279.49L201.24 280C199.8 273.35 199.96 266.51 201.11 259.84C201.39 258.43 201.67 256.92 202.29 255.54C202.6 254.97 202.94 254.23 203.77 253.89C204.95 253.39 206.13 254.26 206.51 255.33L203.82 256.08C202.99 250.97 202.25 245.85 201.54 240.73C200.7 235.58 200.62 230.2 201.29 225.05C201.73 221.6 202.39 218.18 203.43 214.87L203.73 214.95L203.74 214.93Z" fill="#9B6D2C"/>
<path d="M331.359 235.73C331.619 238.07 331.259 240.47 330.239 242.62C330.049 243.09 329.619 243.7 329.359 244.15C328.589 245.3 328.219 247.13 329.509 247.99L329.719 248.12C330.109 249.41 330.359 250.68 330.559 251.97C330.839 254.78 332.059 262.25 327.959 262.79L328.729 261.57C329.579 263.17 330.389 264.79 331.209 266.4C331.709 267.4 332.649 269.16 332.989 270.2C334.049 274.33 333.079 278.58 332.239 282.63C330.569 289.72 328.379 296.62 326.009 303.49V303.19C327.149 306.43 328.159 309.69 329.039 313C330.459 318.82 331.759 324.97 330.749 330.99L330.399 333.52C329.939 336.9 329.419 340.27 328.909 343.64L328.199 342.52C330.029 343.13 331.749 344.43 332.179 346.4C332.469 348.2 332.179 350.19 330.789 351.48C330.659 351.58 330.599 351.65 330.339 351.78L330.659 351.53C329.999 352.34 329.369 353.29 328.949 354.22C328.699 354.85 328.449 355.46 328.649 356.03C328.979 356.55 329.639 356.71 330.309 356.95C331.149 357.18 332.199 357.66 332.419 358.68C332.449 358.87 332.489 359.07 332.489 359.26L332.459 359.78C332.159 361.72 331.199 363.46 330.419 365.19C328.949 368.31 327.379 371.39 325.679 374.4L325.509 374.31C326.849 371.31 328.249 367.85 329.489 364.79C330.099 363.23 330.809 361.66 331.069 360.04C331.159 359.53 331.119 359.04 330.969 358.87C330.849 358.7 330.429 358.53 329.859 358.38C328.949 358.13 327.699 357.76 327.189 356.74C326.669 355.71 326.999 354.48 327.369 353.56C327.859 352.38 328.489 351.39 329.239 350.39L329.559 350.14C330.279 349.49 330.499 347.79 330.289 346.82C329.949 345.3 328.169 344.54 326.789 344.19C327.329 340.54 327.859 336.88 328.449 333.23L328.849 330.71C329.929 324.91 328.789 319.04 327.649 313.31C326.959 310 326.139 306.69 325.159 303.46L325.109 303.3L325.169 303.16C328.319 295.52 334.279 277.81 331.259 270.13C329.969 267.62 328.479 264.86 327.219 262.33L327.989 261.11C327.899 261.11 327.969 261.11 327.979 261.11C330.359 259.92 329.099 251.04 328.569 248.7L328.839 249.06C328.479 248.81 328.279 248.57 328.059 248.28C326.819 246.55 327.879 244.37 329.029 242.93C329.839 241.8 330.389 240.5 330.719 239.13C330.989 238.03 331.139 236.89 331.139 235.76L331.329 235.74L331.359 235.73Z" fill="#9B6D2C"/>
</g>
<path d="M203.87 319.77H303.79C404.5 319.77 486.26 401.53 486.26 502.24V509H21.4004V502.24C21.4004 401.53 103.16 319.77 203.87 319.77Z" fill="#735433"/>
<path d="M152.952 351.733C159.279 349.931 162.195 340.707 159.467 331.13C156.739 321.553 149.4 315.25 143.073 317.052C136.747 318.854 133.831 328.079 136.559 337.656C139.287 347.232 146.626 353.535 152.952 351.733Z" fill="#2A1A09"/>
<path d="M381.462 337.693C384.19 328.116 381.274 318.892 374.948 317.09C368.622 315.288 361.282 321.59 358.554 331.167C355.826 340.744 358.743 349.968 365.069 351.77C371.395 353.572 378.734 347.27 381.462 337.693Z" fill="#2A1A09"/>
<path d="M455.98 509C455.98 509 453.77 441.41 433.65 429.6C414.72 418.49 380.93 420.16 380.93 420.16C380.93 420.16 396.54 414.94 421.85 414.39C445.33 413.88 454.85 421.24 462.13 446.13C464.44 454.03 464.71 474.81 464.71 474.81C464.71 474.81 461.28 441.06 481.84 430.08C493.83 423.68 502.23 423.98 502.23 423.98C502.23 423.98 490.53 425.02 482.37 436.75C469.41 455.39 467.2 501.87 467.2 501.87C467.2 501.87 471.21 478.52 489.5 480.61C507.79 482.7 509.71 484.79 509.71 484.79C509.71 484.79 492.29 489.32 482.88 493.5C473.47 497.68 472.24 509.01 472.24 509.01H455.97L455.98 509Z" fill="#5D8E57"/>
<path d="M55.5696 509C55.5696 509 56.5196 501.21 48.9096 494.41C44.7896 490.73 39.8496 486 39.8496 486C39.8496 486 44.5596 486.94 49.3696 490.26C53.4296 493.07 56.5196 501.21 56.5196 501.21C56.5196 501.21 55.0196 479.66 45.2396 472.27C37.1396 466.15 45.7796 454.49 45.7796 454.49C45.7796 454.49 41.0496 459.76 47.9796 469.2C53.0296 476.09 55.0496 468.4 58.4196 479.91C59.4896 483.57 59.6096 493.18 59.6096 493.18C59.6096 493.18 58.0196 477.57 67.5396 472.49C73.0896 469.53 76.9696 469.67 76.9696 469.67C76.9696 469.67 71.5596 470.15 67.7796 475.58C61.7796 484.2 60.7596 505.7 60.7596 505.7C60.7596 505.7 62.6096 494.9 71.0796 495.87C79.5496 496.84 80.4296 497.8 80.4296 497.8C80.4296 497.8 72.3696 499.9 68.0196 501.83C63.6696 503.76 63.0996 509 63.0996 509H55.5796H55.5696Z" fill="#5D8E57"/>
<path d="M434.68 509C434.68 509 435.7 477.73 445.01 472.27C453.77 467.13 469.4 467.9 469.4 467.9C469.4 467.9 462.18 465.48 450.47 465.23C439.61 465 435.2 468.4 431.84 479.91C430.77 483.57 430.65 493.18 430.65 493.18C430.65 493.18 432.24 477.57 422.72 472.49C417.17 469.53 413.29 469.67 413.29 469.67C413.29 469.67 418.7 470.15 422.48 475.58C428.48 484.2 429.5 505.7 429.5 505.7C429.5 505.7 427.65 494.9 419.18 495.87C410.71 496.84 409.83 497.8 409.83 497.8C409.83 497.8 417.89 499.9 422.24 501.83C426.59 503.76 427.16 509 427.16 509H434.68Z" fill="#5D8E57"/>
<path d="M155.41 473.18C155.72 472.86 155.92 472.68 155.92 472.68C155.92 472.68 155.69 472.85 155.41 473.18Z" fill="#5D8E57"/>
<path d="M184.12 483.86C192.88 480.44 208.51 480.95 208.51 480.95C208.51 480.95 201.29 479.34 189.58 479.17C178.72 479.01 174.31 481.28 170.95 488.95C170.51 489.95 170.23 491.61 170.06 493.23C169.94 493.74 169.86 494.23 169.8 494.7C169.7 493.59 169.48 492.29 168.99 490.96C168.87 490.45 168.73 489.98 168.57 489.62C166.81 485.6 165.41 485.1 163.76 484.86C163.18 484.54 162.54 484.25 161.84 484C160.78 483.62 159.77 483.32 158.85 483.08C158.62 482.9 158.38 482.7 158.13 482.48C152.72 477.57 154.42 474.35 155.43 473.18C154.06 474.59 150.52 478.74 152.57 482.12C152.47 482.12 152.41 482.12 152.41 482.12C152.41 482.12 152.48 482.12 152.58 482.13C153.11 483 154 483.81 155.4 484.52C163.34 488.52 165.82 498.74 166.47 502.44C165.99 501.92 165.41 501.42 164.72 500.99C163.43 499.37 161.61 497.47 159.52 496.51C154.71 494.29 150 493.67 150 493.67C150 493.67 154.94 496.82 159.06 499.28C159.21 499.37 159.33 499.46 159.47 499.54C159.09 499.54 158.7 499.54 158.28 499.57C149.82 500.21 148.93 500.86 148.93 500.86C148.93 500.86 156.99 502.26 161.34 503.55C163.52 504.19 164.75 505.39 165.43 506.42C165.89 507.96 165.71 508.99 165.71 508.99H173.23C173.23 508.99 173.28 508.73 173.43 508.32H173.78C173.78 508.32 173.8 508 173.84 507.44C174.47 506.34 175.72 504.93 178.15 504.21C182.5 502.92 190.56 501.52 190.56 501.52C190.56 501.52 189.67 500.88 181.21 500.23C178.24 500 176.09 500.74 174.55 501.79C175.64 495.35 178.21 486.14 184.11 483.84L184.12 483.86Z" fill="#5D8E57"/>
<path d="M35.42 509C35.42 509 40.8 466.37 50.98 453.69C59.5 443.08 79.7 421.78 79.7 421.78C79.7 421.78 66.09 428.81 54.01 436.71C40.32 445.67 36.22 447.87 31.14 465.2C29.53 470.71 29.34 485.18 29.34 485.18C29.34 485.18 35.72 464.58 21.39 456.93C13.04 452.47 23.48 445.06 23.48 445.06C23.48 445.06 11.34 450.5 17.03 458.67C26.06 471.65 27.6 504.03 27.6 504.03C27.6 504.03 30.96 491.24 18.22 492.7C5.48 494.16 0 503.45 0 503.45C0 503.45 10.13 495.28 16.68 498.2C23.23 501.12 24.09 509 24.09 509H35.42Z" fill="#5D8E57"/>
</g>
<defs>
<clipPath id="clip0_981_8508">
<rect width="509.72" height="509" fill="white"/>
</clipPath>
</defs>
</svg>
