<svg width="539" height="542" viewBox="0 0 539 542" fill="none" xmlns="http://www.w3.org/2000/svg">
<g clip-path="url(#clip0_1431_23048)">
<path d="M240.259 423.741L205.652 520.379H205.633L203.851 525.359L189.87 526.835C185.351 527.307 181.925 531.116 181.925 535.662V542.01H217.949L224.31 524.257L258.02 430.108L240.259 423.751V423.741Z" fill="#2A1A09"/>
<path d="M287.153 423.741L321.76 520.379H321.779L323.561 525.359L337.542 526.835C342.061 527.307 345.487 531.116 345.487 535.662V542.01H309.463L303.102 524.257L269.392 430.108L287.153 423.751V423.741Z" fill="#2A1A09"/>
<path d="M491.939 387.664V340.861H510.813V399.887C510.813 403.558 507.839 406.529 504.167 406.529H427.087L441.914 387.664V387.645L491.939 387.664Z" fill="#2A1A09"/>
<path d="M47.0613 387.664V340.861H28.1875V399.887C28.1875 403.558 31.1608 406.529 34.8332 406.529H111.913L97.0861 387.664V387.645L47.0613 387.664Z" fill="#2A1A09"/>
<path d="M458.731 247.254L81.5311 250.915C81.4425 250.915 81.3637 250.856 81.344 250.767L68.5843 191.83C68.1511 189.842 69.687 187.972 71.7152 188.011L263.278 191.072C263.278 191.072 263.357 191.062 263.387 191.042L441.334 74.6929L458.918 247.057C458.928 247.165 458.839 247.264 458.731 247.264V247.254Z" fill="#966A2A"/>
<path d="M463.239 261.129L455.481 156.441C451.454 102.051 423.641 54.6074 382.486 23.5985C374.974 17.94 367.029 12.8326 358.69 8.3254C357.233 8.50254 356.16 8.62063 354.703 8.79776C346.363 15.8636 334.214 17.4873 324.044 11.937C322.537 11.1202 321.149 10.1755 319.869 9.12252C318.717 8.17779 317.103 8.02033 315.842 8.81745C304.205 16.1391 296.142 29.1784 296.575 44.8156L298.574 116.822C299.115 130.392 288.256 141.69 274.669 141.69H266.832C253.245 141.69 242.385 130.392 242.927 116.822V116.664C242.976 115.09 241.962 113.722 240.466 113.21C237.305 112.138 234.243 110.445 231.447 108.063C221.621 99.6789 219.357 85.3702 225.54 74.0334C229.695 66.4263 234.381 57.845 234.381 57.845C236.596 53.7807 239.707 50.5135 243.321 48.1419C244.286 47.512 244.876 46.4591 244.906 45.3077L244.995 42.1979C245.851 11.4548 213.863 -9.20133 186.109 4.07411C172.876 10.4018 160.501 18.2156 149.208 27.3086C148.184 28.1254 147.731 29.4539 147.987 30.7431C149.169 36.7559 148.332 43.1919 145.171 48.9882L136.123 65.5702C130.374 76.1098 118.657 81.3157 107.453 79.318C105.957 79.0523 104.441 79.7018 103.702 81.0303C98.5727 90.1725 94.2013 99.7872 90.6865 109.815C85.5176 124.567 82.1899 140.194 80.9789 156.432L73.2206 261.12C70.779 294.116 77.3262 325.598 90.7456 353.349C117.22 408.075 170.454 448.285 234.361 456.984C241.421 457.948 247.702 452.438 247.702 445.313V440.678C247.702 433.198 253.767 427.136 261.249 427.136H275.181C282.663 427.136 288.728 433.198 288.728 440.678V445.313C288.728 452.438 295.009 457.948 302.069 456.984C365.985 448.285 419.22 408.075 445.685 353.349C459.104 325.598 465.651 294.116 463.209 261.12L463.239 261.129Z" fill="#EAC57D"/>
<path d="M473.361 282.996L467.345 158.98C465.848 128.159 456.633 99.4624 441.619 74.7222C441.56 74.6238 441.412 74.6041 441.323 74.6829C441.343 74.6435 441.215 75.2733 441.038 75.5784C431.153 92.4359 383.353 128.326 383.353 128.326C382.556 128.966 381.493 129.202 380.498 128.946L293.632 106.607C292.371 106.282 291.023 106.705 290.176 107.689L243.252 162.277C242.484 163.173 241.323 163.606 240.161 163.438L192.332 156.658C189.083 156.195 186.109 154.601 183.933 152.151C183.933 152.151 183.914 152.131 183.904 152.121L157.863 134.221C156.484 133.276 154.584 133.788 153.865 135.303L127.686 190.737C126.997 192.755 124.575 193.571 122.803 192.39L105.209 180.67C103.919 179.814 102.226 179.922 101.054 180.936L77.6515 201.277C77.5826 201.336 77.4743 201.336 77.4054 201.277L72.5713 197.301C71.8329 196.691 71.2717 195.894 70.9468 194.988L70.4939 193.729C69.9819 192.282 70.1099 190.688 70.8582 189.35L71.4686 188.267C71.5375 188.139 71.4489 187.992 71.311 187.982C69.3223 187.952 67.6682 189.497 67.5698 191.485L63.1295 282.966C58.1575 385.391 139.895 471.145 242.484 471.145H294.006C396.586 471.145 478.323 385.391 473.361 282.976V282.996Z" fill="#B2853D"/>
<path d="M470.515 285.063L464.499 161.047C463.003 130.225 441.52 77.4581 441.441 77.4581C441.293 77.4581 440.703 77.4285 440.191 77.4581C439.787 77.4876 439.944 74.7912 439.679 74.9289L363.967 127.489L290.786 108.674C289.525 108.349 288.177 108.772 287.33 109.756L239.954 164.806C239.186 165.702 238.024 166.135 236.862 165.968L190.687 159.768C187.438 159.305 183.273 156.668 181.097 154.217C181.097 154.208 181.078 154.198 181.068 154.188L156.72 137.458L157.015 136.651L154.17 135.903C152.949 135.598 151.61 136.149 151.029 137.37L125.411 191.603L115.162 191.436L103.289 183.967L103.574 182.923C103.574 182.923 101.575 182.727 100.985 182.707C100.217 182.687 99.4489 183.002 98.8384 183.543L90.263 191.023L71.3204 187.992C69.2922 187.962 68.5144 192.696 68.9476 194.683L70.0208 199.624L69.7451 199.368C69.0067 198.758 68.4455 197.96 68.1206 197.055L67.6677 195.795C67.1557 194.349 68.2092 283.97 68.2092 283.97C63.2372 386.395 185.183 436.013 239.461 461.836L252.703 462.859L282.013 461.836H290.992C393.572 461.836 475.506 387.468 470.544 285.053L470.515 285.063Z" fill="#966A2A"/>
<path d="M463.387 261.257L455.628 156.569C453.541 128.365 445.045 102.031 431.615 78.885C430.847 77.5564 431.153 75.913 432.304 74.9092C432.688 74.5746 433.033 74.1908 433.328 73.7775C437.749 67.5974 430.66 54.9715 417.507 45.5734C412.121 41.7255 406.559 39.0193 401.557 37.5923C400.395 37.2578 399.627 36.1851 399.686 34.9747C399.982 29.2669 396.3 22.516 389.733 17.8219C383.402 13.3049 376.136 11.937 370.859 13.7477C369.638 14.1709 368.289 13.9445 367.187 13.2754C365.04 11.9665 362.855 10.697 360.649 9.46692C360.373 9.30946 360.068 9.18153 359.773 9.07328C356.307 7.89236 355.874 8.20727 353.787 9.77198C345.507 16.1292 333.929 17.3987 324.172 12.0748C323.423 11.6713 322.705 11.2284 322.006 10.7659C319.18 8.86662 315.439 9.13232 312.741 11.2088C305.967 16.4146 300.769 23.7166 298.288 32.357C297.52 35.0239 296.112 37.4939 294.143 39.4424C290.549 42.995 288.157 49.2834 288.157 56.4476C288.157 62.3718 289.791 67.6958 292.391 71.3763C294.005 73.6594 294.389 76.6215 293.208 79.1507C291.554 82.6836 290.589 87.0333 290.589 91.7372C290.589 100.338 293.838 107.758 298.544 111.193L298.702 116.979C299.243 130.55 288.383 141.847 274.797 141.847H266.96C253.373 141.847 242.513 130.55 243.055 116.979V116.851C243.104 115.316 242.169 113.899 240.712 113.417C238.083 112.541 233.505 109.559 231.723 108.26C231.378 108.014 231.388 107.502 231.742 107.276C236.764 104.048 240.062 92.4163 239.422 78.7373C239.077 71.4058 237.66 64.773 235.602 59.764C235.041 58.4059 235.139 56.8412 235.976 55.6308C237.512 53.3871 239.343 51.4287 241.391 49.7951C243.665 47.9844 245.034 45.2781 245.113 42.3652C245.969 11.6221 213.971 -9.02422 186.217 4.24137C172.985 10.5691 160.609 18.3828 149.326 27.4758C148.302 28.2926 147.859 29.6212 148.105 30.9005C148.145 31.0973 148.174 31.2843 148.214 31.4811C148.529 33.3214 147.229 35.1518 145.427 35.6438C140.888 36.8838 135.995 40.9481 132.599 46.833C127.361 55.9063 129.802 63.6315 133.219 69.1031C133.839 70.097 118.49 80.4792 108.605 79.6132C106.321 79.4164 104.145 80.5973 103.043 82.6048C98.2478 91.3239 94.1422 100.466 90.8144 109.973C85.6456 124.724 82.3178 140.351 81.1068 156.589L73.3486 261.277C70.9069 294.274 77.4541 325.755 90.8735 353.506C117.348 408.232 170.582 448.442 234.489 457.141C241.549 458.106 247.83 452.595 247.83 445.47V440.835C247.83 433.356 253.895 427.294 261.377 427.294H275.309C282.791 427.294 288.856 433.356 288.856 440.835V445.47C288.856 452.595 295.137 458.106 302.197 457.141C366.113 448.442 419.348 408.232 445.812 353.506C459.232 325.755 465.779 294.274 463.337 261.277L463.387 261.257Z" fill="#E8BE6B"/>
<path d="M376.343 51.9996C387.793 46.8626 402.709 49.4409 407.957 61.9193C410.457 67.6073 410.546 73.6497 410.428 79.633C410.428 83.5497 410.162 87.4565 409.67 91.3437C409.512 93.0068 409.03 94.7782 408.784 96.4413C408.656 96.8743 407.907 99.5314 407.77 100.033C405.633 106.351 401.419 112.384 394.99 114.864C394.459 115.07 394.006 115.238 393.307 115.395V111.724C402.089 113.387 411.068 118.82 413.135 128.09C414.809 138.393 411.649 149.13 405.869 157.593L405.535 157.386C409.178 148.47 411.265 138.472 409.296 129.015C409.178 128.562 408.705 127.352 408.557 126.879C407.898 125.551 407.1 124.193 406.096 123.11C403.388 119.932 399.578 117.757 395.66 116.3C393.543 115.424 386.139 113.939 383.845 113.358C384.485 113.2 393.484 111.655 393.73 111.4C411.127 104.422 412.072 78.0387 404.855 63.356C399.696 52.3047 387.517 50.366 376.461 52.3539L376.333 51.9799L376.343 51.9996Z" fill="#D3A759"/>
<path d="M210.752 37.8777C200.946 34.5022 192.754 41.696 188.599 49.9033C186.03 54.5482 184.336 59.6458 182.653 64.6746C180.713 70.9137 178.941 77.4776 177.828 83.9136C176.647 90.9499 175.84 98.3404 177.858 105.288C180.162 114.46 188.521 120.571 197.894 120.118L205.317 119.626L198.957 123.632C192.557 127.794 186.502 134.024 184.701 141.631C184.041 144.18 184.277 146.846 184.267 149.464C184.642 157.416 186.118 166.046 192.488 171.35C194.546 173.082 197.135 174.263 199.813 174.627V175.021C196.909 175.169 194.034 174.234 191.523 172.689C182.564 166.922 180.575 155.28 180.231 145.38C180.113 134.447 188.127 125.61 197.096 120.364L198.149 123.878C190.244 124.075 182.249 119.981 178.616 112.856C173.92 103.842 175.377 93.4101 176.361 83.7266C177.671 71.5435 179.187 59.1833 185.665 48.25C188.245 43.8806 191.671 39.836 196.249 37.4447C200.847 35.0238 206.626 34.9647 210.919 37.5332L210.732 37.8777H210.752Z" fill="#D3A759"/>
<path d="M319.15 206.316C336.912 209.278 347.761 202.763 350.961 184.724C353.157 172.207 351.247 156.57 339.914 149.002C338.536 148.106 336.902 147.299 335.326 146.955L326.534 145.311C328.878 144.711 336.203 143.255 338.349 142.369C343.666 140.411 348.795 137.025 351.247 131.78C354.614 122.795 351.877 110.002 348.224 101.283L348.559 101.076C354.338 109.54 357.489 120.286 355.825 130.58C353.747 139.85 344.778 145.282 335.996 146.945V143.274C337.227 143.56 338.093 143.963 339.166 144.465C344.827 147.27 348.47 152.82 350.459 158.636C350.607 159.148 351.345 161.775 351.473 162.228C351.719 163.891 352.202 165.663 352.359 167.326C352.851 171.213 353.117 175.12 353.117 179.036C353.275 185.964 353.048 193.365 349.179 199.496C344.325 207.831 333.643 210.626 324.674 208.471C322.724 208.057 320.834 207.477 319.032 206.66L319.16 206.286L319.15 206.316Z" fill="#D3A759"/>
<path d="M429.922 121.988C435.357 133.551 443.627 153.41 441.166 166.174C440.949 167.286 440.447 168.536 439.915 169.55C437.07 174.647 434.156 179.706 431.232 184.754L429.558 181.428C434.018 181.782 438.685 185.167 438.547 190.009C438.498 194.113 436.302 197.626 434.234 200.775C432.856 202.783 431.409 204.603 429.755 206.453L427.943 202.359C428.406 202.359 428.672 202.379 429.016 202.409C446.285 204.387 451.415 222.523 450.548 237.354C450.253 245.345 448.953 253.69 443.725 260.145C434.471 271.403 417.714 269.327 405.811 264.101C422.804 269.101 442.386 267.693 445.507 246.732C446.65 238.604 446.64 229.619 444.218 221.746C442.052 214.198 436.056 207.713 428.032 207.221L422.656 207.014C426.496 202.733 441.303 188.011 429.134 185.817L425.738 185.305C429.341 179.41 432.994 173.476 436.676 167.641L437.06 166.922C437.198 166.686 437.267 166.391 437.385 166.125C440.801 154.887 433.545 133.335 429.922 121.979V121.988Z" fill="#CCA662"/>
<path d="M126.77 267.516C121.03 256.553 111.421 232.984 116.718 221.126L117.299 220.073C120.509 215.192 123.886 210.409 126.967 205.449L127.469 206.443C126.219 206.246 125.087 205.902 123.984 205.351C114.916 200.509 123.777 189.143 127.962 183.75L128.71 185.895C125.038 185.453 121.533 184.626 118.077 183.376C100.079 176.96 95.5209 162.759 106.577 147.191C108.625 144.18 111.185 141.217 114.149 139.072C120.4 134.23 129.055 134.437 134.686 140.017L134.42 140.312C127.509 135.766 120.361 136.937 114.621 142.684C108.044 150.163 100.847 162.267 107.385 171.675C113.036 179.036 122.724 181.959 131.447 183.888C129.34 185.954 127.184 188.159 125.412 190.56C123.492 193.197 121.474 196.081 121.306 199.387C121.129 203.255 125.274 205.144 128.602 205.253C125.431 210.872 122.389 216.599 119.514 222.376C118.077 226.647 118.707 231.252 119.219 235.72C119.977 241.024 121.257 246.309 122.625 251.584C124.024 256.849 125.579 262.104 127.145 267.378L126.78 267.536L126.77 267.516Z" fill="#D3A759"/>
<path d="M470.406 282.258L464.391 158.242C462.894 127.42 441.402 74.6828 441.333 74.6533C441.293 74.6533 441.018 74.5942 440.663 74.5942C440.289 74.6336 439.944 74.6238 439.679 74.9288C433.781 85.124 385.43 125.295 381.502 127.086C379.336 128.07 377.711 128.247 377.711 128.247L290.677 105.869C289.417 105.544 288.068 105.967 287.222 106.951L239.845 162.002C239.077 162.897 237.916 163.33 236.754 163.163L190.579 156.963C187.329 156.5 183.145 153.853 180.969 151.393L156.602 134.654L156.897 133.847L154.052 133.099C152.831 132.794 151.492 133.345 150.911 134.565L124.22 189.792C123.747 190.767 122.123 192.056 121.099 191.711L117.505 190.176L103.18 181.162L103.791 180.129C103.791 180.129 102.294 179.755 101.703 179.745C100.936 179.725 100.168 180.04 99.5571 180.581L90.1547 188.228L77.1882 199.417C76.8633 199.692 76.3809 199.702 76.0659 199.417C74.7466 198.236 72.0981 196.061 71.468 194.555C70.2176 191.534 71.4089 188.11 71.4089 188.11C69.3808 188.08 68.3962 189.91 68.8294 191.888L69.9026 196.829L69.6269 196.573C68.8885 195.963 68.3273 195.166 68.0024 194.26L67.5495 193.001C67.0376 191.554 68.091 281.175 68.091 281.175C63.1191 383.6 136.94 470.427 239.53 470.427H291.051C393.631 470.427 475.369 384.673 470.406 282.258Z" fill="#966A2A"/>
<path d="M473.361 282.996L467.345 158.98C465.848 128.159 456.633 99.4623 441.619 74.7222C441.579 74.6828 441.373 74.6533 441.323 74.6533C441.304 74.673 441.215 75.2635 441.038 75.5784C431.153 92.4359 383.353 128.326 383.353 128.326C382.556 128.966 381.493 129.202 380.498 128.946L293.632 106.607C292.371 106.282 291.023 106.705 290.176 107.689L243.252 162.277C242.484 163.173 241.323 163.606 240.161 163.438L192.332 156.658C189.083 156.195 186.109 154.601 183.933 152.151C183.933 152.151 183.914 152.131 183.904 152.121L157.863 134.221C156.484 133.276 154.584 133.788 153.865 135.303L127.686 190.737C126.997 192.755 124.575 193.571 122.803 192.39L105.209 180.67C103.919 179.814 102.226 179.922 101.054 180.936L77.6515 201.277C77.5826 201.336 77.4743 201.336 77.4054 201.277L72.5713 197.301C71.8329 196.691 71.2717 195.894 70.9468 194.988L70.4939 193.729C69.9819 192.282 70.1099 190.688 70.8582 189.35L71.4686 188.267C71.5375 188.139 71.4489 187.992 71.311 187.982C69.3223 187.952 67.6682 189.497 67.5698 191.485L63.1295 282.967C58.1575 385.391 139.895 471.145 242.484 471.145H294.006C396.586 471.145 478.323 385.391 473.361 282.976V282.996Z" fill="#B2853D"/>
<path d="M433.122 144.455C437.297 157.494 438.508 171.538 436.243 185.059C435.14 192.912 433.801 201.365 432.216 209.071L428.564 208.057C429.017 207.162 429.273 206.689 430.257 206.099C434.845 204.298 435.534 212.328 436.115 215.153C437.129 222.1 437.592 229.097 437.415 236.104C437.326 239.617 437.08 243.071 436.43 246.604L434.953 245.915C435.751 244.912 436.696 244.114 438.084 244.085C443.706 244.39 444.582 259.378 445.163 263.727C445.695 270.911 446.374 282.288 441.56 288.172C436.844 291.361 432.019 295.366 429.578 300.651C429.213 301.32 428.977 302.176 428.721 302.894L428.475 304.036C428.436 304.223 428.377 304.42 428.357 304.607C428.327 305.138 428.258 305.788 428.229 306.339C428.524 315.412 431.379 324.279 434.392 332.821C437.395 341.136 437.277 350.889 433.221 358.801C431.645 362.206 429.972 365.64 428.544 369.055L428.062 368.947C429.548 361.665 433.398 354.933 433.122 347.405C433.033 343.4 432.315 339.365 430.936 335.625C430.365 334.346 429.775 333.067 429.282 331.778C427.116 326.395 425.246 320.982 424.025 315.255C421.957 305.837 422.538 299.332 429.282 292.02C432.098 289.009 435.121 286.608 438.704 284.512L438.399 284.718C438.37 284.738 438.301 284.797 438.301 284.797C439.246 283.655 439.709 282.179 440.152 280.713C441.629 275.291 441.737 269.563 441.776 263.875C441.658 260.185 441.776 247.086 438.045 245.847C437.543 245.778 436.765 246.299 436.282 246.88L433.929 249.744L434.806 246.191C436.253 239.538 436.174 232.512 435.318 225.771C434.481 220.427 433.605 214.828 431.36 209.927C431.202 209.622 430.995 209.346 430.897 209.258C430.867 209.228 430.828 209.238 431.045 209.366C431.242 209.494 431.783 209.474 431.98 209.346C432.187 209.238 432.177 209.199 432.167 209.248C432.167 209.268 432.088 209.425 432.108 209.405L428.455 208.392C429.076 203.029 429.814 197.685 430.68 192.361C431.389 187.962 432.738 180.906 433.289 176.507C434.481 165.938 433.988 155.152 432.63 144.554L433.102 144.436L433.122 144.455Z" fill="#9B6D2C"/>
<path d="M189.623 172.689C188.097 183.288 187.526 194.034 188.777 204.662C190.362 215.281 192.538 225.86 194.093 236.488L189.879 237.659C189.909 237.718 189.83 237.57 189.83 237.58C190.165 238.033 191.199 238.082 191.622 237.698C191.652 237.679 191.661 237.669 191.652 237.669C191.602 237.708 191.435 237.974 191.297 238.269C189.308 243.18 188.57 248.74 187.733 253.995C186.581 262.094 186.512 270.557 188.383 278.548L185.862 275.104C185.439 274.523 184.701 273.972 184.208 274.001C180.3 274.907 179.788 288.359 179.571 291.981C179.453 295.858 179.473 299.745 179.975 303.554C180.477 306.949 181.048 310.492 183.007 313.336C183.096 313.454 183.303 313.661 183.253 313.611L183.076 313.493C190.746 317.912 198.534 325.037 198.809 334.484C198.74 343.272 196.121 351.814 193.237 360.011C191.159 364.883 189.929 370.207 190.145 375.511C190.224 379.014 191.09 382.37 192.41 385.588C193.434 388.284 195.226 392.949 196.102 395.685L196.22 396.069L196.279 396.275L196.368 396.61L195.127 399.306C195.127 399.306 195.226 399.247 195.196 399.267C194.635 399.641 194.881 400.3 195.166 400.93C196.919 403.784 198.868 407.14 198.859 410.682C197.776 413.497 196.85 416.479 196.121 419.451C195.462 422.295 194.91 425.198 194.92 427.983C194.97 429.833 195.157 431.535 196.22 432.913C198.849 435.924 202.482 438.404 206.469 438.965L206.233 439.802C205.711 442.036 204.884 444.84 206.686 446.69C207.217 447.31 207.887 447.871 208.586 448.304L208.369 448.747C207.542 448.363 206.794 447.881 206.105 447.271C204.52 446.061 204.205 443.964 204.323 442.114C204.352 441.199 204.451 440.333 204.608 439.408L205.366 440.441C200.769 439.969 196.801 437.538 193.729 434.281C189.338 428.071 192.695 416.341 194.645 409.561L194.517 410.338C194.369 409.393 194.083 408.508 193.69 407.622C192.282 404.414 188.708 401.383 190.559 397.417C191.061 396.364 191.799 395.527 192.804 394.937L191.563 397.633C191.366 397.082 190.943 395.842 190.726 395.291C190.155 393.707 188.275 389.131 187.625 387.477C183.923 379.349 184.12 369.665 187.261 361.419C190.47 353.605 193.365 345.486 194.369 337.092C194.743 334.386 194.546 331.62 193.552 329.062C191.218 323.561 186.65 319.152 181.737 315.855C181.314 315.599 181.038 315.146 180.851 314.91C178.764 311.594 178.291 307.53 177.976 303.741C177.73 299.765 177.779 295.819 178.026 291.892C178.478 287.474 178.675 272.653 184.199 272.201C185.607 272.201 186.591 272.968 187.438 273.962L185.725 274.759C183.46 264.328 183.716 253.591 185.518 243.13C185.951 240.916 186.394 238.554 187.379 236.38C187.861 235.484 188.393 234.323 189.692 233.791C191.543 233.004 193.394 234.372 193.995 236.055L189.781 237.226C188.481 229.215 187.32 221.185 186.207 213.145C184.898 205.066 184.77 196.622 185.813 188.543C186.512 183.12 187.536 177.767 189.171 172.561L189.653 172.679L189.623 172.689Z" fill="#9B6D2C"/>
<path d="M394.252 144.465C399.352 154.68 403.241 165.613 404.738 176.96C405.378 183.032 406.392 189.123 405.427 195.225C405.072 197.262 403.458 200.391 402.641 202.31C401.499 204.918 400.288 207.487 399.047 210.045L397.797 208.087C405.604 208.825 402.463 227.178 400.731 232.207L400.484 231.744C397.718 233.85 400.573 237.305 401.676 239.607C403.271 243.032 403.694 246.89 403.123 250.57L402.828 250.541C402.601 246.624 401.518 242.648 399.205 239.489C398.998 239.224 398.594 238.663 398.407 238.387C396.31 235.769 395.808 231.4 398.968 229.265L398.338 230.091C398.732 228.428 399.027 226.568 399.224 224.767C399.401 221.49 400.839 212.673 397.856 210.803C397.856 210.793 397.738 210.783 397.895 210.783L396.645 208.825C398.594 205.213 400.908 201.287 403.015 197.724C403.733 196.563 404.216 195.294 404.482 193.955C406.037 185.561 402.887 177.176 400.672 169.176C398.506 161.244 395.995 152.554 393.967 144.583L394.242 144.475L394.252 144.465Z" fill="#9B6D2C"/>
<path d="M389.939 205.322C390.353 208.992 389.792 212.761 388.187 216.127C387.892 216.865 387.212 217.82 386.818 218.528C385.617 220.329 385.027 223.203 387.055 224.551L387.38 224.748C388 226.775 388.394 228.763 388.689 230.79C389.132 235.189 391.042 246.919 384.603 247.766L385.814 245.856C387.143 248.366 388.413 250.905 389.713 253.434C390.698 255.471 392.352 258.305 392.795 260.519C393.897 266.729 392.608 272.88 391.328 278.883C388.699 290.003 385.273 300.828 381.551 311.614L381.561 311.141C383.343 316.219 384.938 321.336 386.316 326.542C388.541 335.685 390.579 345.329 388.994 354.776L388.443 358.752C387.724 364.056 386.907 369.341 386.11 374.635L384.987 372.873C387.862 373.838 390.57 375.865 391.239 378.955C391.692 381.789 391.239 384.899 389.063 386.917C388.857 387.074 388.758 387.182 388.354 387.389L388.856 386.995C387.823 388.275 386.828 389.761 386.179 391.217C385.785 392.211 385.391 393.165 385.706 394.061C386.218 394.878 387.252 395.134 388.305 395.498C389.624 395.862 391.278 396.62 391.623 398.204C391.672 398.499 391.731 398.824 391.741 399.109L391.702 399.926C391.229 402.967 389.733 405.693 388.502 408.419C386.188 413.32 383.727 418.152 381.059 422.865L380.793 422.728C382.9 418.024 385.096 412.601 387.045 407.789C387.99 405.339 389.112 402.888 389.526 400.34C389.674 399.542 389.605 398.775 389.368 398.509C389.181 398.234 388.512 397.968 387.636 397.742C386.208 397.348 384.239 396.757 383.451 395.163C382.634 393.549 383.146 391.62 383.727 390.174C384.505 388.324 385.489 386.769 386.661 385.204L387.163 384.811C388.285 383.787 388.64 381.13 388.315 379.615C387.773 377.223 384.987 376.032 382.821 375.491C383.678 369.754 384.505 364.017 385.43 358.299L386.06 354.343C387.744 345.25 385.962 336.039 384.17 327.044C383.087 321.848 381.807 316.662 380.261 311.584L380.183 311.328L380.271 311.112C385.204 299.116 394.577 271.335 389.831 259.289C387.803 255.353 385.46 251.013 383.491 247.057L384.702 245.148C384.554 245.148 384.672 245.148 384.682 245.148C388.413 243.278 386.444 229.343 385.598 225.673L386.031 226.234C385.47 225.84 385.145 225.476 384.81 225.003C382.861 222.287 384.524 218.873 386.326 216.609C387.606 214.828 388.453 212.801 388.984 210.655C389.398 208.933 389.644 207.142 389.644 205.361L389.939 205.331V205.322Z" fill="#9B6D2C"/>
<path d="M105.189 243.721C105.248 247.214 106.065 250.846 107.857 253.847C108.802 255.471 110.141 256.809 110.683 258.679C111.402 260.765 110.772 263.344 108.852 264.662L109.314 264.052C108.487 267.625 106.479 281.559 110.151 283.488C110.161 283.498 110.269 283.498 110.122 283.498L111.343 285.417C110.033 287.936 108.684 290.436 107.306 292.926C106.607 294.215 104.864 297.128 104.382 298.427C102.511 304.381 103.535 310.944 104.608 317.016C106.764 328.127 110.772 338.844 114.985 349.304L115.094 349.57L115.045 349.915C114.611 353.024 114.355 356.203 114.257 359.342C114.168 362.462 114.217 365.66 114.976 368.455C115.842 371.21 117.693 373.986 119.327 376.465C121.139 379.182 123.128 381.848 125.166 384.397C127.253 393.726 129.192 403.174 131.979 412.306L132.491 413.743C132.688 414.166 132.835 414.619 133.111 414.973C133.78 416.075 135.297 417 136.429 417.748C140.485 420.11 144.906 421.832 149.376 423.417L149.297 423.702C145.132 422.757 141.037 421.596 137.108 419.854C134.863 418.732 132.363 417.669 131.034 415.337C130.118 413.674 129.458 411.785 128.858 410.013C126.15 401.924 124.132 393.707 122.173 385.431L122.488 386.09C120.43 383.531 118.53 380.923 116.718 378.207C114.926 375.304 113.174 372.637 112.179 369.242C111.352 365.798 111.431 362.501 111.589 359.234C111.795 355.967 112.209 352.768 112.79 349.541L112.849 350.151C109.118 339.355 106.115 328.373 103.712 317.213C102.59 310.876 100.985 304.282 102.58 297.846C103.043 296.242 104.579 293.388 105.248 291.873C106.469 289.304 107.719 286.755 109.009 284.226L110.23 286.135C102.797 285.437 105.928 268.304 107.267 263.452L107.385 263.049L107.729 262.842C109.738 261.533 109.108 258.699 107.956 256.927C105.357 253.07 104.323 248.267 104.894 243.691L105.189 243.721Z" fill="#9B6D2C"/>
<path d="M96.5246 208.982C93.7186 220.959 89.7312 233.181 89.8001 245.512C89.8001 247.096 90.194 248.956 90.5582 250.531C91.5625 255.274 92.3698 260.008 92.9605 264.889L93.0098 265.332C90.3909 267.516 87.9098 270.341 86.7973 273.618C85.6552 276.629 87.1123 280.378 87.644 283.547L87.4668 283.163C92.7538 289.777 97.5682 297.118 98.1196 305.926C98.2574 310.216 97.8931 314.359 97.3615 318.502C96.8003 322.655 96.0225 326.7 94.9296 330.774L93.7679 332.142C93.187 332.398 92.5667 333.303 92.4978 334.12C92.3501 335.232 92.7144 336.521 93.1181 337.613C94.0632 340.172 95.5499 342.711 97.391 344.699C99.8524 346.884 103.298 350.357 103.643 354.461C103.879 356.587 102.314 358.161 101.418 359.903C100.591 361.468 99.8819 363.161 99.5865 364.902H99.1927C99.1336 362.039 100.138 359.323 101.3 356.764C102.875 352.985 97.9227 349.157 95.2644 347.051C92.7243 344.748 90.9718 342.091 89.6032 339.011C87.8311 335.547 87.959 330.37 92.0843 328.343L90.9225 329.711C92.6553 321.996 94.3783 313.897 94.4866 306.004C94.2405 298.319 90.4696 290.584 86.1573 284.207L85.9998 283.99L85.9801 283.823C85.7537 281.638 85.3795 279.522 85.1334 277.347C84.7888 274.139 86.3739 271.03 88.1658 268.491C89.1996 267.034 90.3121 265.676 91.6216 264.387L91.3557 265.096C90.3909 260.49 88.8451 255.894 87.4766 251.328C86.6791 248.956 86.1967 246.319 86.2262 243.819C86.3936 236.399 88.3233 229.255 90.637 222.268C92.2024 217.682 93.9845 213.185 96.1505 208.854L96.5148 208.992L96.5246 208.982Z" fill="#9B6D2C"/>
<path d="M320.766 142.743C324.408 151.797 327.254 161.136 329.203 170.701C329.951 175.08 331.103 179.617 329.587 184.026C327.805 189.281 325.334 194.231 322.961 199.181L322.548 198.187C325.708 199.663 329.636 202.202 329.252 206.188C328.632 209.77 327.234 212.948 325.393 216.068L325.324 214.916C332.895 223.065 338.655 234.136 336.863 245.581C335.987 253.021 330.808 260.923 322.272 259.663L323.631 256.002C327.717 258.787 333.122 262.625 332.679 268.264C332.59 269.534 332.423 270.724 331.852 271.964C331.31 273.175 330.483 273.883 329.814 274.789C328.681 276.501 326.693 277.515 325.078 278.371C322.41 279.66 319.673 280.713 316.847 281.569L316.7 281.205C319.249 279.817 321.809 278.43 324.152 276.796C325.57 275.783 326.958 274.887 327.707 273.48C328.189 272.604 329.026 271.699 329.272 270.872C329.607 269.878 329.646 268.451 329.548 267.221C328.672 263.718 324.655 261.297 321.642 259.417L314.258 255.156L323.001 255.756C324.605 255.904 326.348 255.441 327.687 254.526C330.769 252.45 332.108 248.523 332.807 244.872C334.736 234.559 329.607 223.645 323.434 215.536C325.521 212.771 327.382 209.455 328.002 206.02C328.357 202.674 324.694 200.608 321.996 199.565L321.287 199.309L321.583 198.571C323.719 193.109 325.452 187.529 326.762 181.871C327.106 178.495 326.289 174.736 325.807 171.321C325.098 167.119 323.926 161.362 323.099 157.14C322.164 152.397 321.199 147.654 320.382 142.851L320.756 142.743H320.766Z" fill="#9B6D2C"/>
<path d="M231.93 213.962C231.329 216.737 231.763 219.67 231.969 222.494C232.521 226.627 232.629 230.977 233.781 234.982C234.549 237.541 236.124 239.696 237.827 241.703C239.688 244.065 241.362 246.545 242.78 249.222C243.804 251.121 245.221 254.26 244.188 256.524C242.534 261.454 238.96 265.499 237.158 270.301C236.567 272.348 235.986 274.926 237.355 276.688L238.074 277.584C241.214 281.658 242.75 287.237 241.687 292.404C241.628 292.778 241.549 293.447 241.647 293.565C242.504 295.346 244.207 297.157 245.28 299.106C245.97 300.257 246.068 301.91 245.123 302.963L244.975 303.15L244.749 303.406C239.009 309.606 233.003 316.75 231.989 325.263C231.516 330.833 233.22 336.403 235.592 341.461L235.189 341.746C231.172 337.229 228.326 331.246 228.12 325.105C227.834 315.412 234.874 305.473 241.067 299.962C240.83 300.385 240.673 301.005 240.85 301.458C240.85 301.448 240.82 301.389 240.801 301.349C239.708 299.224 237.896 297.187 237.187 294.638C236.882 293.113 237.246 291.902 237.581 290.514C238.349 286.637 237.729 282.622 235.819 279.05L235.297 278.144C234.559 277.042 234.372 275.497 234.48 274.267C234.775 269.543 237.857 265.971 239.816 261.927C240.781 259.703 242.346 256.75 241.874 254.369C240.919 252.115 238.802 249.763 237.168 247.765C236.744 247.313 234.106 244.075 233.722 243.642C231.32 240.867 229.754 237.373 229.321 233.732C228.996 229.943 229.075 226.283 229.37 222.484C229.685 219.502 229.921 216.373 231.516 213.726L231.959 213.942L231.93 213.962Z" fill="#9B6D2C"/>
<path d="M357.4 17.1231C361.181 17.9793 364.253 22.0338 362.973 25.9406C361.693 29.4932 358.818 31.9534 356.288 34.581C354.535 36.2244 352.734 37.8383 350.499 39.0094L350.036 37.3955C353.019 36.9625 356.514 36.372 359.153 38.3796C363.032 42.0798 359.399 47.6104 355.914 50.0411L355.786 49.8935C356.888 48.5354 357.863 47.0593 358.523 45.5241C359.35 43.615 359.547 41.6468 358.227 40.2198C357.509 39.4129 356.436 39.3243 355.323 39.1275C352.409 38.6846 347.85 39.3046 344.867 39.5113C348.382 38.0155 352.822 36.4999 355.845 34.0496C359.094 31.3728 362.107 26.7476 361.329 22.4372C360.837 20.4395 359.222 18.6878 357.332 17.2904L357.41 17.1133L357.4 17.1231Z" fill="#D3A759"/>
<path d="M161.544 77.4778C157.409 76.6216 150.232 74.988 147.17 78.58C144.551 83.0576 149.168 87.6927 153.254 89.1984L162.312 92.9576L152.565 91.5897C147.071 90.9599 140.14 90.6647 136.162 94.9061C134.056 97.6222 133.612 102.188 134.725 105.456C136.103 109.579 139.638 110.061 143.468 109.461C145.575 109.284 147.613 109.077 149.789 108.969L155.696 108.683C149.907 111.478 143.379 114.391 138.742 118.908C137.147 120.512 135.719 122.5 136.635 124.705C136.95 125.807 137.511 126.83 138.319 127.657C139.126 128.474 140.209 129.074 141.4 129.221C137.629 129.241 134.371 124.724 135.631 121.142C137.049 117.599 140.229 115.218 143.123 112.994C145.112 111.577 147.15 110.288 149.316 109.097L149.926 111.37L143.743 112.118C140.357 112.797 136.202 112.58 133.809 109.599C130.058 104.944 130.423 97.7206 133.937 93.0659C138.791 87.7813 146.54 88.1946 153.008 89.1196L152.319 91.511C150.94 90.9009 149.789 90.1726 148.656 89.2869C145.142 86.7283 142.798 81.3748 145.801 77.5172C149.67 73.384 157.015 75.7753 161.534 77.468L161.544 77.4778Z" fill="#D3A759"/>
<path d="M55.509 323.984H19.7207V337.82H55.509V323.984Z" fill="#515151"/>
<path d="M70.11 315.51H60.2251C57.3976 315.51 55.1055 317.802 55.1055 320.628V341.186C55.1055 344.012 57.3976 346.303 60.2251 346.303H70.11C72.9375 346.303 75.2296 344.012 75.2296 341.186V320.628C75.2296 317.802 72.9375 315.51 70.11 315.51Z" fill="#515151"/>
<path d="M15.0045 315.51H5.11964C2.29214 315.51 0 317.802 0 320.628V341.186C0 344.012 2.29214 346.303 5.11964 346.303H15.0045C17.832 346.303 20.1241 344.012 20.1241 341.186V320.628C20.1241 317.802 17.832 315.51 15.0045 315.51Z" fill="#515151"/>
<path d="M519.279 323.984H483.491V337.82H519.279V323.984Z" fill="#515151"/>
<path d="M533.88 315.51H523.996C521.168 315.51 518.876 317.802 518.876 320.628V341.186C518.876 344.012 521.168 346.303 523.996 346.303H533.88C536.708 346.303 539 344.012 539 341.186V320.628C539 317.802 536.708 315.51 533.88 315.51Z" fill="#515151"/>
<path d="M478.775 315.51H468.89C466.063 315.51 463.771 317.802 463.771 320.628V341.186C463.771 344.012 466.063 346.303 468.89 346.303H478.775C481.603 346.303 483.895 344.012 483.895 341.186V320.628C483.895 317.802 481.603 315.51 478.775 315.51Z" fill="#515151"/>
<path d="M515.716 323.078C515.617 319.959 513.058 317.449 509.907 317.449H492.855C489.704 317.449 487.144 319.949 487.046 323.078V334.543C487.046 339.965 491.447 344.364 496.872 344.364H505.92C511.344 344.364 515.745 339.965 515.745 334.543V323.078H515.716Z" fill="#2A1A09"/>
<path d="M23.2844 323.078C23.3829 319.959 25.9427 317.449 29.0932 317.449H46.1456C49.2961 317.449 51.856 319.949 51.9544 323.078V334.543C51.9544 339.965 47.5535 344.364 42.1286 344.364H33.0807C27.6558 344.364 23.2549 339.965 23.2549 334.543V323.078H23.2844Z" fill="#2A1A09"/>
<path d="M335.012 382.941C371.214 387.93 383.226 361.605 386.455 331.158C389.773 299.962 370.909 272.378 344.326 269.553C340.358 269.13 336.45 269.297 332.649 269.967" fill="white"/>
<path d="M333.082 269.967C344.089 271.315 353.905 278.075 360.965 288.202C362.235 289.983 366.281 296.891 367.541 300.592C370.603 308.395 372.336 317.252 372.336 326.641C372.336 355.209 356.318 378.866 335.435 382.941C334.549 382.823 333.663 382.695 332.738 382.537C294.193 375.796 287.291 352.129 290.609 320.933C293.435 294.382 311.403 273.785 333.072 269.967H333.082Z" fill="#2B1907"/>
<path d="M359.743 312.096C368.079 312.096 374.837 307.685 374.837 302.245C374.837 296.804 368.079 292.394 359.743 292.394C351.408 292.394 344.65 296.804 344.65 302.245C344.65 307.685 351.408 312.096 359.743 312.096Z" fill="white"/>
<mask id="mask0_1431_23048" style="mask-type:luminance" maskUnits="userSpaceOnUse" x="149" y="269" width="98" height="115">
<path d="M245.881 320.844C243.075 294.471 225.313 273.972 203.831 269.957V269.868C200.03 269.199 196.122 269.032 192.154 269.455C165.561 272.279 146.697 299.863 150.015 331.069C153.254 361.527 165.256 387.851 201.468 382.862V382.793C202.216 382.685 202.964 382.586 203.732 382.449C242.277 375.708 249.189 352.04 245.871 320.834L245.881 320.844Z" fill="white"/>
</mask>
<g mask="url(#mask0_1431_23048)">
<path d="M201.477 382.862C165.266 387.851 153.264 361.527 150.025 331.069C146.707 299.863 165.571 272.279 192.164 269.455C196.131 269.032 200.04 269.199 203.84 269.868" fill="white"/>
<path d="M203.407 269.868C192.4 271.216 182.584 277.977 175.515 288.103C174.245 289.885 170.199 296.793 168.938 300.503C165.876 308.307 164.144 317.164 164.144 326.552C164.144 355.13 180.162 378.778 201.054 382.862C201.94 382.744 202.836 382.616 203.752 382.458C242.297 375.717 249.208 352.05 245.89 320.844C243.065 294.293 225.097 273.686 203.417 269.868H203.407Z" fill="#2B1907"/>
<path d="M231.526 312.007C239.861 312.007 246.619 307.597 246.619 302.156C246.619 296.716 239.861 292.305 231.526 292.305C223.19 292.305 216.433 296.716 216.433 302.156C216.433 307.597 223.19 312.007 231.526 312.007Z" fill="white"/>
</g>
<path d="M364.627 289.265H315.695C299.814 289.265 286.917 276.373 286.917 260.5V260.204H393.396V260.5C393.396 276.373 380.498 289.265 364.617 289.265H364.627Z" fill="#B2853D"/>
<path d="M223.305 289.265H174.373C158.492 289.265 145.595 276.373 145.595 260.5V260.204H252.073V260.5C252.073 276.373 239.176 289.265 223.295 289.265H223.305Z" fill="#B2853D"/>
<path d="M363.358 399.562H314.426C298.545 399.562 285.647 386.67 285.647 370.797V370.502H392.126V370.797C392.126 386.67 379.228 399.562 363.348 399.562H363.358Z" fill="#B2853D"/>
<path d="M222.055 399.562H173.123C157.242 399.562 144.345 386.67 144.345 370.797V370.502H250.823V370.797C250.823 386.67 237.926 399.562 222.045 399.562H222.055Z" fill="#B2853D"/>
<g style="mix-blend-mode:multiply">
<path d="M268.239 416.587C261.456 416.587 255.834 413.506 254.791 409.472C254.672 409.915 254.604 410.367 254.604 410.83C254.604 415.514 260.708 419.303 268.249 419.303C275.791 419.303 281.895 415.504 281.895 410.83C281.895 410.367 281.816 409.915 281.708 409.472C280.655 413.506 275.043 416.587 268.259 416.587H268.239Z" fill="#E8DACA"/>
</g>
<path d="M268.24 407.405C273.759 407.405 278.233 402.933 278.233 397.417C278.233 391.9 273.759 387.428 268.24 387.428C262.721 387.428 258.247 391.9 258.247 397.417C258.247 402.933 262.721 407.405 268.24 407.405Z" fill="#2A1A09"/>
<path opacity="0.58" d="M442.376 357.167L435.74 322.222L420.893 354.422C420.893 354.422 420.884 354.451 420.874 354.461L420.844 354.52C420.066 356.154 419.515 357.984 419.279 359.943C418.294 367.924 422.715 375.039 429.144 375.826C435.573 376.613 441.579 370.787 442.563 362.796C442.8 360.838 442.711 358.929 442.357 357.158L442.376 357.167Z" fill="url(#paint0_linear_1431_23048)"/>
<path opacity="0.58" d="M428.652 250.875L411.501 219.709L407.376 254.92C407.376 254.92 407.376 254.949 407.376 254.969V255.038C407.139 256.829 407.189 258.738 407.573 260.677C409.118 268.569 415.528 273.962 421.878 272.722C428.238 271.482 432.137 264.072 430.591 256.18C430.207 254.241 429.538 252.46 428.642 250.885L428.652 250.875Z" fill="url(#paint1_linear_1431_23048)"/>
<path opacity="0.58" d="M117.821 297.413L111.185 262.468L96.3378 294.668C96.3378 294.668 96.3279 294.697 96.3181 294.707L96.2886 294.766C95.5108 296.4 94.9594 298.23 94.7231 300.188C93.7386 308.169 98.1592 315.284 104.588 316.072C111.017 316.859 117.023 311.033 118.008 303.042C118.244 301.084 118.155 299.175 117.801 297.403L117.821 297.413Z" fill="url(#paint2_linear_1431_23048)"/>
<path opacity="0.58" d="M142.73 382.301L122.92 352.749L121.897 388.186C121.897 388.186 121.897 388.216 121.897 388.235V388.304C121.818 390.115 122.034 392.004 122.586 393.904C124.811 401.629 131.673 406.441 137.895 404.65C144.118 402.859 147.357 395.134 145.132 387.409C144.58 385.509 143.753 383.797 142.73 382.301Z" fill="url(#paint3_linear_1431_23048)"/>
<mask id="mask1_1431_23048" style="mask-type:luminance" maskUnits="userSpaceOnUse" x="56" y="152" width="427" height="85">
<path d="M467.945 236.606H71.0449C62.5187 236.606 55.8336 229.284 56.6114 220.791L61.6818 165.731C62.371 158.242 68.6721 152.535 76.1941 152.574L466.557 154.7C474.374 154.739 480.754 160.978 480.971 168.782L482.438 221.716C482.664 229.875 476.107 236.606 467.945 236.606Z" fill="white"/>
</mask>
<g mask="url(#mask1_1431_23048)">
<path d="M490.492 149.002H48.5088V240.188H490.492V149.002Z" fill="#E6E8F4"/>
<path d="M490.492 179.636H48.5088V209.543H490.492V179.636Z" fill="#B73232"/>
</g>
<mask id="mask2_1431_23048" style="mask-type:luminance" maskUnits="userSpaceOnUse" x="487" y="346" width="29" height="24">
<path d="M512.328 346.795H490.363C488.525 346.795 487.035 348.284 487.035 350.121V366.388C487.035 368.225 488.525 369.714 490.363 369.714H512.328C514.166 369.714 515.656 368.225 515.656 366.388V350.121C515.656 348.284 514.166 346.795 512.328 346.795Z" fill="white"/>
</mask>
<g mask="url(#mask2_1431_23048)">
<path d="M517.871 346.175H483.854V370.324H517.871V346.175Z" fill="#E6E8F4"/>
<path d="M518.875 353.851H482.86V362.649H518.875V353.851Z" fill="#B73232"/>
</g>
<mask id="mask3_1431_23048" style="mask-type:luminance" maskUnits="userSpaceOnUse" x="23" y="346" width="29" height="24">
<path d="M48.5977 346.795H26.6325C24.7946 346.795 23.3047 348.284 23.3047 350.121V366.388C23.3047 368.225 24.7946 369.714 26.6325 369.714H48.5977C50.4356 369.714 51.9255 368.225 51.9255 366.388V350.121C51.9255 348.284 50.4356 346.795 48.5977 346.795Z" fill="white"/>
</mask>
<g mask="url(#mask3_1431_23048)">
<path d="M54.1401 346.175H20.124V370.324H54.1401V346.175Z" fill="#E6E8F4"/>
<path d="M55.1348 353.851H19.1201V362.649H55.1348V353.851Z" fill="#B73232"/>
</g>
<mask id="mask4_1431_23048" style="mask-type:luminance" maskUnits="userSpaceOnUse" x="144" y="260" width="250" height="140">
<path d="M274.118 279.876H294.429C299.686 285.643 307.267 289.265 315.695 289.265H364.627C380.518 289.265 393.405 276.383 393.405 260.5V260.204H286.927V260.5C286.927 263.412 287.36 266.227 288.177 268.884H250.853C251.66 266.227 252.103 263.412 252.103 260.5V260.204H145.624V260.5C145.624 276.383 158.512 289.265 174.403 289.265H223.335C231.762 289.265 239.343 285.643 244.601 279.876H268.269V381.563H248.766C250.114 378.237 250.853 374.605 250.853 370.797V370.502H144.374V370.797C144.374 386.68 157.262 399.562 173.152 399.562H222.084C232.009 399.562 240.761 394.543 245.93 386.897V392.024H295.049C300.169 396.708 306.982 399.562 314.464 399.562H363.396C379.287 399.562 392.175 386.68 392.175 370.797V370.502H285.696V370.797C285.696 374.605 286.444 378.237 287.783 381.563H274.147V279.876H274.118Z" fill="white"/>
</mask>
<g mask="url(#mask4_1431_23048)">
<path d="M189.623 172.689C188.097 183.288 187.526 194.034 188.777 204.662C190.362 215.281 192.538 225.86 194.093 236.488L189.879 237.659C189.909 237.718 189.83 237.57 189.83 237.58C190.165 238.033 191.199 238.082 191.622 237.698C191.652 237.679 191.661 237.669 191.652 237.669C191.602 237.708 191.435 237.974 191.297 238.269C189.308 243.18 188.57 248.74 187.733 253.995C186.581 262.094 186.512 270.557 188.383 278.548L185.862 275.104C185.439 274.523 184.701 273.972 184.208 274.001C180.3 274.907 179.788 288.359 179.571 291.981C179.453 295.858 179.473 299.745 179.975 303.554C180.477 306.949 181.048 310.492 183.007 313.336C183.096 313.454 183.303 313.661 183.253 313.611L183.076 313.493C190.746 317.912 198.534 325.037 198.809 334.484C198.74 343.272 196.121 351.814 193.237 360.011C191.159 364.883 189.929 370.207 190.145 375.511C190.224 379.014 191.09 382.37 192.41 385.588C193.434 388.284 195.226 392.949 196.102 395.685L196.22 396.069L196.279 396.275L196.368 396.61L195.127 399.306C195.127 399.306 195.226 399.247 195.196 399.267C194.635 399.641 194.881 400.3 195.166 400.93C196.919 403.784 198.868 407.14 198.859 410.682C197.776 413.497 196.85 416.479 196.121 419.451C195.462 422.295 194.91 425.198 194.92 427.983C194.97 429.833 195.157 431.535 196.22 432.913C198.849 435.924 202.482 438.404 206.469 438.965L206.233 439.802C205.711 442.036 204.884 444.84 206.686 446.69C207.217 447.31 207.887 447.871 208.586 448.304L208.369 448.747C207.542 448.363 206.794 447.881 206.105 447.271C204.52 446.061 204.205 443.964 204.323 442.114C204.352 441.199 204.451 440.333 204.608 439.408L205.366 440.441C200.769 439.969 196.801 437.538 193.729 434.281C189.338 428.071 192.695 416.341 194.645 409.561L194.517 410.338C194.369 409.393 194.083 408.508 193.69 407.622C192.282 404.414 188.708 401.383 190.559 397.417C191.061 396.364 191.799 395.527 192.804 394.937L191.563 397.633C191.366 397.082 190.943 395.842 190.726 395.291C190.155 393.707 188.275 389.131 187.625 387.477C183.923 379.349 184.12 369.665 187.261 361.419C190.47 353.605 193.365 345.486 194.369 337.092C194.743 334.386 194.546 331.62 193.552 329.062C191.218 323.561 186.65 319.152 181.737 315.855C181.314 315.599 181.038 315.146 180.851 314.91C178.764 311.594 178.291 307.53 177.976 303.741C177.73 299.765 177.779 295.819 178.026 291.892C178.478 287.474 178.675 272.653 184.199 272.201C185.607 272.201 186.591 272.968 187.438 273.962L185.725 274.759C183.46 264.328 183.716 253.591 185.518 243.13C185.951 240.916 186.394 238.554 187.379 236.38C187.861 235.484 188.393 234.323 189.692 233.791C191.543 233.004 193.394 234.372 193.995 236.055L189.781 237.226C188.481 229.215 187.32 221.185 186.207 213.145C184.898 205.066 184.77 196.622 185.813 188.543C186.512 183.12 187.536 177.767 189.171 172.561L189.653 172.679L189.623 172.689Z" fill="#9B6D2C"/>
<path d="M389.939 205.322C390.353 208.992 389.792 212.761 388.187 216.127C387.892 216.865 387.212 217.82 386.818 218.528C385.617 220.329 385.027 223.203 387.055 224.551L387.38 224.748C388 226.775 388.394 228.763 388.689 230.79C389.132 235.189 391.042 246.919 384.603 247.766L385.814 245.856C387.143 248.366 388.413 250.905 389.713 253.434C390.698 255.471 392.352 258.305 392.795 260.519C393.897 266.729 392.608 272.88 391.328 278.883C388.699 290.003 385.273 300.828 381.551 311.614L381.561 311.141C383.343 316.219 384.938 321.336 386.316 326.542C388.541 335.685 390.579 345.329 388.994 354.776L388.443 358.752C387.724 364.056 386.907 369.341 386.11 374.635L384.987 372.873C387.862 373.838 390.57 375.865 391.239 378.955C391.692 381.789 391.239 384.899 389.063 386.917C388.856 387.074 388.758 387.182 388.354 387.389L388.856 386.995C387.823 388.275 386.828 389.761 386.178 391.217C385.785 392.211 385.391 393.165 385.706 394.061C386.218 394.878 387.252 395.134 388.305 395.498C389.624 395.862 391.278 396.62 391.623 398.204C391.672 398.499 391.731 398.824 391.741 399.109L391.702 399.926C391.229 402.967 389.733 405.693 388.502 408.419C386.188 413.32 383.727 418.152 381.059 422.865L380.793 422.728C382.9 418.024 385.096 412.601 387.045 407.789C387.99 405.339 389.112 402.888 389.526 400.34C389.674 399.542 389.605 398.775 389.368 398.509C389.181 398.234 388.512 397.968 387.636 397.742C386.208 397.348 384.239 396.757 383.451 395.163C382.634 393.549 383.146 391.62 383.727 390.174C384.505 388.324 385.489 386.769 386.661 385.204L387.163 384.811C388.285 383.787 388.64 381.13 388.315 379.615C387.773 377.223 384.987 376.032 382.821 375.491C383.678 369.754 384.505 364.017 385.43 358.299L386.06 354.343C387.744 345.25 385.962 336.039 384.17 327.044C383.087 321.848 381.807 316.662 380.261 311.584L380.183 311.328L380.271 311.112C385.204 299.116 394.577 271.335 389.831 259.289C387.803 255.353 385.46 251.013 383.491 247.057L384.702 245.148C384.554 245.148 384.672 245.148 384.682 245.148C388.413 243.278 386.444 229.343 385.598 225.673L386.031 226.234C385.47 225.84 385.145 225.476 384.81 225.003C382.861 222.287 384.524 218.873 386.326 216.609C387.606 214.828 388.453 212.801 388.984 210.655C389.398 208.933 389.644 207.142 389.644 205.361L389.939 205.331V205.322Z" fill="#9B6D2C"/>
<path d="M320.765 142.743C324.407 151.797 327.253 161.136 329.202 170.701C329.95 175.08 331.102 179.617 329.586 184.026C327.804 189.281 325.333 194.231 322.96 199.181L322.547 198.187C325.707 199.663 329.635 202.202 329.251 206.188C328.631 209.77 327.233 212.948 325.392 216.068L325.323 214.916C332.894 223.065 338.654 234.136 336.862 245.581C335.986 253.021 330.807 260.923 322.271 259.663L323.63 256.002C327.716 258.787 333.121 262.625 332.678 268.264C332.589 269.534 332.422 270.724 331.851 271.964C331.309 273.175 330.482 273.883 329.813 274.789C328.68 276.501 326.692 277.515 325.077 278.371C322.409 279.66 319.672 280.713 316.846 281.569L316.699 281.205C319.248 279.817 321.808 278.43 324.152 276.796C325.569 275.783 326.957 274.887 327.706 273.48C328.188 272.604 329.025 271.699 329.271 270.872C329.606 269.878 329.645 268.451 329.547 267.221C328.671 263.718 324.654 261.297 321.641 259.417L314.257 255.156L323 255.756C324.604 255.904 326.347 255.441 327.686 254.526C330.768 252.45 332.107 248.523 332.806 244.872C334.735 234.559 329.606 223.645 323.433 215.536C325.52 212.771 327.381 209.455 328.001 206.02C328.356 202.674 324.693 200.608 321.995 199.565L321.286 199.309L321.582 198.571C323.718 193.109 325.451 187.529 326.761 181.871C327.105 178.495 326.288 174.736 325.806 171.321C325.097 167.119 323.925 161.362 323.098 157.14C322.163 152.397 321.198 147.654 320.381 142.851L320.755 142.743H320.765Z" fill="#9B6D2C"/>
<path d="M231.929 213.962C231.328 216.737 231.762 219.67 231.968 222.494C232.52 226.627 232.628 230.977 233.78 234.982C234.548 237.541 236.123 239.696 237.826 241.703C239.687 244.065 241.361 246.545 242.779 249.222C243.803 251.121 245.22 254.26 244.187 256.524C242.533 261.454 238.959 265.499 237.157 270.301C236.566 272.348 235.985 274.926 237.354 276.688L238.073 277.584C241.213 281.658 242.749 287.237 241.686 292.404C241.627 292.778 241.548 293.447 241.646 293.565C242.503 295.346 244.206 297.157 245.279 299.106C245.969 300.257 246.067 301.91 245.122 302.963L244.974 303.15L244.748 303.406C239.008 309.606 233.002 316.75 231.988 325.263C231.515 330.833 233.219 336.403 235.591 341.461L235.188 341.746C231.171 337.229 228.326 331.246 228.119 325.105C227.833 315.412 234.873 305.473 241.066 299.962C240.829 300.385 240.672 301.005 240.849 301.458C240.849 301.448 240.819 301.389 240.8 301.349C239.707 299.224 237.895 297.187 237.186 294.638C236.881 293.113 237.246 291.902 237.58 290.514C238.348 286.637 237.728 282.622 235.818 279.05L235.296 278.144C234.558 277.042 234.371 275.497 234.479 274.267C234.774 269.543 237.856 265.971 239.815 261.927C240.78 259.703 242.345 256.75 241.873 254.369C240.918 252.115 238.801 249.763 237.167 247.765C236.743 247.313 234.105 244.075 233.721 243.642C231.319 240.867 229.753 237.373 229.32 233.732C228.995 229.943 229.074 226.283 229.369 222.484C229.684 219.502 229.92 216.373 231.515 213.726L231.959 213.942L231.929 213.962Z" fill="#9B6D2C"/>
</g>
</g>
<defs>
<linearGradient id="paint0_linear_1431_23048" x1="429.263" y1="375.003" x2="435.634" y2="323.088" gradientUnits="userSpaceOnUse">
<stop stop-color="#44CAFF"/>
<stop offset="0.38" stop-color="#44CAFF" stop-opacity="0.58"/>
<stop offset="0.68" stop-color="#44CAFF" stop-opacity="0.27"/>
<stop offset="0.89" stop-color="#44CAFF" stop-opacity="0.07"/>
<stop offset="1" stop-color="#44CAFF" stop-opacity="0"/>
</linearGradient>
<linearGradient id="paint1_linear_1431_23048" x1="421.709" y1="271.919" x2="411.68" y2="220.584" gradientUnits="userSpaceOnUse">
<stop stop-color="#44CAFF"/>
<stop offset="0.38" stop-color="#44CAFF" stop-opacity="0.58"/>
<stop offset="0.68" stop-color="#44CAFF" stop-opacity="0.27"/>
<stop offset="0.89" stop-color="#44CAFF" stop-opacity="0.07"/>
<stop offset="1" stop-color="#44CAFF" stop-opacity="0"/>
</linearGradient>
<linearGradient id="paint2_linear_1431_23048" x1="104.713" y1="315.241" x2="111.086" y2="263.316" gradientUnits="userSpaceOnUse">
<stop stop-color="#44CAFF"/>
<stop offset="0.38" stop-color="#44CAFF" stop-opacity="0.58"/>
<stop offset="0.68" stop-color="#44CAFF" stop-opacity="0.27"/>
<stop offset="0.89" stop-color="#44CAFF" stop-opacity="0.07"/>
<stop offset="1" stop-color="#44CAFF" stop-opacity="0"/>
</linearGradient>
<linearGradient id="paint3_linear_1431_23048" x1="137.69" y1="403.833" x2="123.2" y2="353.574" gradientUnits="userSpaceOnUse">
<stop stop-color="#44CAFF"/>
<stop offset="0.38" stop-color="#44CAFF" stop-opacity="0.58"/>
<stop offset="0.68" stop-color="#44CAFF" stop-opacity="0.27"/>
<stop offset="0.89" stop-color="#44CAFF" stop-opacity="0.07"/>
<stop offset="1" stop-color="#44CAFF" stop-opacity="0"/>
</linearGradient>
<clipPath id="clip0_1431_23048">
<rect width="539" height="542" fill="white"/>
</clipPath>
</defs>
</svg>
