<svg width="510" height="727" viewBox="0 0 510 727" fill="none" xmlns="http://www.w3.org/2000/svg">
<g clip-path="url(#clip0_1431_17938)">
<path d="M203.87 537.44H303.79C404.5 537.44 486.26 619.2 486.26 719.91V726.67H21.4004V719.91C21.4004 619.2 103.16 537.44 203.87 537.44Z" fill="#735433"/>
<path d="M455.98 726.67C455.98 726.67 453.77 659.08 433.65 647.27C414.72 636.16 380.93 637.83 380.93 637.83C380.93 637.83 396.54 632.61 421.85 632.06C445.33 631.55 454.85 638.91 462.13 663.8C464.44 671.7 464.71 692.48 464.71 692.48C464.71 692.48 461.28 658.73 481.84 647.75C493.83 641.35 502.23 641.65 502.23 641.65C502.23 641.65 490.53 642.69 482.37 654.42C469.41 673.06 467.2 719.54 467.2 719.54C467.2 719.54 471.21 696.19 489.5 698.28C507.8 700.37 509.71 702.46 509.71 702.46C509.71 702.46 492.29 706.99 482.88 711.17C473.47 715.35 472.24 726.68 472.24 726.68H455.97L455.98 726.67Z" fill="#5D8E57"/>
<path d="M55.5696 726.67C55.5696 726.67 56.5196 718.88 48.9096 712.08C44.7896 708.4 39.8496 703.67 39.8496 703.67C39.8496 703.67 44.5596 704.61 49.3696 707.93C53.4296 710.74 56.5196 718.88 56.5196 718.88C56.5196 718.88 55.0196 697.33 45.2396 689.94C37.1396 683.82 45.7796 672.16 45.7796 672.16C45.7796 672.16 41.0496 677.43 47.9796 686.87C53.0296 693.76 55.0496 686.07 58.4196 697.58C59.4896 701.24 59.6096 710.85 59.6096 710.85C59.6096 710.85 58.0196 695.24 67.5396 690.16C73.0896 687.2 76.9696 687.34 76.9696 687.34C76.9696 687.34 71.5596 687.82 67.7796 693.25C61.7796 701.87 60.7596 723.37 60.7596 723.37C60.7596 723.37 62.6096 712.57 71.0796 713.54C79.5396 714.51 80.4296 715.47 80.4296 715.47C80.4296 715.47 72.3696 717.57 68.0196 719.5C63.6696 721.43 63.0996 726.67 63.0996 726.67H55.5796H55.5696Z" fill="#5D8E57"/>
<path d="M434.68 726.67C434.68 726.67 435.7 695.4 445.01 689.94C453.77 684.8 469.4 685.57 469.4 685.57C469.4 685.57 462.18 683.15 450.47 682.9C439.61 682.67 435.2 686.07 431.84 697.58C430.77 701.24 430.65 710.85 430.65 710.85C430.65 710.85 432.24 695.24 422.72 690.16C417.17 687.2 413.29 687.34 413.29 687.34C413.29 687.34 418.7 687.82 422.48 693.25C428.48 701.87 429.5 723.37 429.5 723.37C429.5 723.37 427.65 712.57 419.18 713.54C410.72 714.51 409.83 715.47 409.83 715.47C409.83 715.47 417.89 717.57 422.24 719.5C426.59 721.43 427.16 726.67 427.16 726.67H434.68Z" fill="#5D8E57"/>
<path d="M155.41 690.85C155.72 690.53 155.92 690.35 155.92 690.35C155.92 690.35 155.69 690.52 155.41 690.85Z" fill="#5D8E57"/>
<path d="M184.12 701.53C192.88 698.11 208.51 698.62 208.51 698.62C208.51 698.62 201.29 697.01 189.58 696.84C178.72 696.68 174.31 698.95 170.95 706.62C170.51 707.62 170.23 709.28 170.06 710.9C169.94 711.41 169.86 711.9 169.8 712.37C169.7 711.26 169.48 709.96 168.99 708.63C168.87 708.12 168.73 707.65 168.57 707.29C166.81 703.27 165.41 702.77 163.76 702.53C163.18 702.21 162.54 701.92 161.84 701.67C160.78 701.29 159.77 700.99 158.85 700.75C158.62 700.57 158.38 700.37 158.13 700.15C152.72 695.24 154.42 692.02 155.43 690.85C154.06 692.26 150.52 696.41 152.57 699.79C152.47 699.79 152.41 699.79 152.41 699.79C152.41 699.79 152.48 699.79 152.58 699.8C153.11 700.67 154 701.48 155.4 702.19C163.34 706.19 165.82 716.41 166.47 720.11C165.99 719.59 165.41 719.09 164.72 718.66C163.43 717.04 161.61 715.14 159.52 714.18C154.71 711.96 150 711.34 150 711.34C150 711.34 154.94 714.49 159.06 716.95C159.21 717.04 159.33 717.13 159.47 717.21C159.09 717.21 158.7 717.21 158.28 717.24C149.82 717.88 148.93 718.53 148.93 718.53C148.93 718.53 156.99 719.93 161.34 721.22C163.52 721.86 164.75 723.06 165.43 724.09C165.89 725.63 165.71 726.66 165.71 726.66H173.23C173.23 726.66 173.28 726.4 173.43 725.99H173.78C173.78 725.99 173.8 725.67 173.84 725.11C174.47 724.01 175.72 722.6 178.15 721.88C182.5 720.59 190.56 719.19 190.56 719.19C190.56 719.19 189.67 718.55 181.21 717.9C178.24 717.67 176.09 718.41 174.55 719.46C175.64 713.02 178.21 703.81 184.11 701.51L184.12 701.53Z" fill="#5D8E57"/>
<path d="M35.42 726.67C35.42 726.67 40.8 684.04 50.98 671.36C59.5 660.75 79.7 639.45 79.7 639.45C79.7 639.45 66.09 646.48 54.01 654.38C40.32 663.34 36.22 665.54 31.14 682.87C29.53 688.38 29.34 702.85 29.34 702.85C29.34 702.85 35.72 682.25 21.39 674.6C13.04 670.14 23.48 662.73 23.48 662.73C23.48 662.73 11.34 668.17 17.03 676.34C26.06 689.32 27.6 721.7 27.6 721.7C27.6 721.7 30.96 708.91 18.22 710.37C5.47 711.83 0 721.13 0 721.13C0 721.13 10.13 712.96 16.68 715.88C23.23 718.79 24.09 726.68 24.09 726.68H35.42V726.67Z" fill="#5D8E57"/>
<mask id="mask0_1431_17938" style="mask-type:luminance" maskUnits="userSpaceOnUse" x="21" y="537" width="466" height="190">
<path d="M203.9 537.41H303.82C404.53 537.41 486.29 619.17 486.29 719.88V726.64H21.4297V719.88C21.4297 619.17 103.19 537.41 203.9 537.41Z" fill="white"/>
</mask>
<g mask="url(#mask0_1431_17938)">
<path d="M253.859 572.99C322.011 572.99 377.259 564.098 377.259 553.13C377.259 542.162 322.011 533.27 253.859 533.27C185.707 533.27 130.459 542.162 130.459 553.13C130.459 564.098 185.707 572.99 253.859 572.99Z" fill="#5C3F21"/>
</g>
<path d="M466.71 314.57L472.84 188.55C474.36 157.23 457.83 101.75 457.75 101.74C457.6 101.72 457.01 101.63 456.48 101.62C456.07 101.61 456.49 98.9 456.22 99.01L374.51 144.72L302.39 118.49C301.14 118.04 299.75 118.33 298.79 119.25L245.48 170.26C244.62 171.09 243.4 171.42 242.24 171.13L196.17 160.32C192.93 159.54 188.98 156.45 187.02 153.76C187.02 153.75 187 153.74 186.99 153.73L164.02 134.41L164.39 133.62L161.59 132.58C160.39 132.15 158.97 132.58 158.27 133.76L127.04 186.1L116.7 184.92L105.43 176.2L105.82 175.17C105.82 175.17 103.82 174.78 103.22 174.7C102.44 174.6 101.64 174.85 100.96 175.33L91.5503 182.05L72.7003 177.12C70.6503 176.89 69.4003 181.6 69.6403 183.66L70.2303 188.76L69.9803 188.48C69.2903 187.79 68.8003 186.93 68.5703 185.98L68.2403 184.66C67.8603 183.15 60.1103 273.9 60.1103 273.9C45.0003 377 163.4 439.18 215.72 470.64L229 472.97L258.73 474.82L267.81 475.7C371.51 485.79 461.66 418.63 466.72 314.56L466.71 314.57Z" fill="#966A2A"/>
<path d="M461.86 289.8L464.32 183.16C464.98 154.43 458.99 126.96 447.69 102.23C447.04 100.82 447.52 99.18 448.78 98.27C449.2 97.97 449.59 97.62 449.93 97.23C455 91.41 449.09 77.95 436.71 67.15C431.65 62.73 426.29 59.45 421.38 57.5C420.24 57.05 419.57 55.88 419.75 54.67C420.61 48.93 417.55 41.73 411.37 36.34C405.42 31.15 398.2 29.05 392.7 30.36C391.42 30.66 390.09 30.31 389.04 29.52C386.99 27.98 384.92 26.48 382.81 25.03C382.54 24.85 382.26 24.68 381.96 24.55C378.58 23.01 378.1 23.29 375.84 24.66C366.84 30.27 355.01 30.42 345.67 24.08C344.95 23.59 344.27 23.08 343.61 22.54C340.94 20.34 337.13 20.24 334.2 22.07C326.84 26.67 320.86 33.54 317.51 42.03C316.48 44.65 314.81 47.01 312.62 48.78C308.64 52.02 305.6 58.14 304.9 65.39C304.32 71.39 305.44 76.93 307.71 80.9C309.11 83.36 309.21 86.4 307.77 88.84C305.75 92.25 304.34 96.56 303.88 101.31C303.03 110.01 305.59 117.83 310 121.76L309.59 127.63C308.8 141.41 296.72 151.76 282.98 150.43L275.06 149.66C261.33 148.32 251.46 135.83 253.34 122.16L253.36 122.03C253.55 120.49 252.75 118.96 251.33 118.32C248.76 117.17 244.43 113.71 242.75 112.22C242.43 111.93 242.49 111.42 242.87 111.23C248.26 108.46 252.74 97.02 253.44 83.13C253.81 75.68 253.04 68.83 251.45 63.56C251.02 62.13 251.27 60.56 252.24 59.41C254.02 57.29 256.06 55.5 258.29 54.04C260.76 52.43 262.42 49.83 262.79 46.89C266.68 15.88 236.37 -8.15 207 2.54C193 7.64 179.72 14.33 167.42 22.41C166.31 23.14 165.72 24.44 165.85 25.76C165.87 25.96 165.89 26.16 165.9 26.35C166.04 28.24 164.54 29.97 162.67 30.29C157.96 31.1 152.62 34.73 148.6 40.35C142.41 49.01 144.12 57.07 147.04 62.93C147.57 64 131.03 72.99 121.12 71.14C118.83 70.71 116.52 71.7 115.2 73.62C109.5 81.96 104.45 90.81 100.15 100.1C93.4704 114.51 88.5704 129.99 85.7504 146.3L67.6004 251.41C61.8804 284.55 65.4004 317.03 76.2404 346.42C97.6104 404.37 147.47 450.27 211.23 465.36C218.27 467.03 225.16 462.07 225.87 454.87L226.33 450.18C227.07 442.62 233.79 437.08 241.36 437.82L255.44 439.19C263 439.93 268.54 446.65 267.8 454.22L267.34 458.91C266.64 466.11 272.45 472.3 279.68 472.03C345.15 469.51 402.92 434.08 435.07 381.34C451.37 354.59 461.09 323.4 461.86 289.78V289.8Z" fill="#E8BE6B"/>
<path d="M364.301 60.36C375.931 55.14 391.081 57.76 396.411 70.44C398.951 76.22 399.041 82.36 398.921 88.44C398.921 92.42 398.651 96.39 398.151 100.34C397.991 102.03 397.501 103.83 397.251 105.52C397.121 105.96 396.361 108.66 396.221 109.17C394.051 115.59 389.771 121.72 383.241 124.24C382.701 124.45 382.241 124.62 381.531 124.78V121.05C390.451 122.74 399.571 128.26 401.671 137.68C403.371 148.15 400.161 159.06 394.291 167.66L393.951 167.45C397.651 158.39 399.771 148.23 397.771 138.62C397.651 138.16 397.171 136.93 397.021 136.45C396.351 135.1 395.541 133.72 394.521 132.62C391.761 129.39 387.901 127.18 383.921 125.7C381.771 124.81 374.251 123.3 371.921 122.71C372.571 122.55 381.711 120.98 381.961 120.72C399.631 113.63 400.591 86.82 393.261 71.9C388.021 60.67 375.651 58.7 364.421 60.72L364.291 60.34L364.301 60.36Z" fill="#D3A759"/>
<path d="M196.11 46.02C186.15 42.59 177.83 49.9 173.61 58.24C171 62.96 169.28 68.14 167.57 73.25C166 78.37 164.4 83.92 163.37 89.18C161.74 97.47 160.34 106.24 162.71 114.51C165.05 123.83 173.54 130.04 183.06 129.58L190.6 129.08L184.14 133.15C177.64 137.38 171.49 143.71 169.66 151.44C168.99 154.03 169.23 156.74 169.22 159.4C169.6 167.48 171.1 176.25 177.57 181.64C179.66 183.4 182.29 184.6 185.01 184.97V185.37C178.96 185.65 173.4 181.61 170.34 176.59C167.61 172.15 166.24 166.97 165.61 161.83C165.2 158.11 164.81 154.28 165.58 150.58C167.43 141.39 174.47 134.48 182.25 129.83L183.32 133.4C175.29 133.6 167.17 129.44 163.48 122.2C158.71 113.04 160.19 102.44 161.19 92.6C162.52 80.22 164.06 67.66 170.64 56.55C173.26 52.11 176.74 48 181.39 45.57C186.06 43.11 191.93 43.05 196.29 45.66L196.1 46.01L196.11 46.02Z" fill="#D3A759"/>
<path d="M306.2 217.18C324.24 220.19 335.26 213.57 338.51 195.24C340.74 182.52 338.8 166.63 327.29 158.94C325.89 158.03 324.23 157.21 322.63 156.86L313.7 155.19C316.08 154.58 323.52 153.1 325.7 152.2C331.11 150.21 336.31 146.77 338.8 141.44C342.22 132.31 339.44 119.31 335.73 110.45L336.07 110.24C341.94 118.84 345.14 129.76 343.45 140.22C341.34 149.64 332.23 155.16 323.31 156.85V153.12C324.56 153.41 325.44 153.82 326.53 154.34C332.28 157.19 335.98 162.83 338 168.74C338.14 169.26 338.9 171.93 339.03 172.39C339.28 174.08 339.77 175.88 339.93 177.57C340.43 181.52 340.7 185.49 340.7 189.47C340.86 196.51 340.63 204.03 336.7 210.26C331.77 218.73 320.92 221.57 311.81 219.38C309.83 218.96 307.91 218.37 306.08 217.54L306.21 217.16L306.2 217.18Z" fill="#D3A759"/>
<path d="M245.561 539.4V437.79H226.391V542.09L216.261 543.51C212.081 544.1 208.971 547.67 208.971 551.89V558.57H245.561V539.4Z" fill="#2A1A09"/>
<path d="M304.731 543.51L291.171 542.09L273.151 452.54L254.361 456.32L274.411 555.93L274.941 558.56L275.431 558.46V558.56H312.021V551.88C312.021 547.66 308.911 544.08 304.731 543.5V543.51Z" fill="#2A1A09"/>
<path d="M345.05 24.93C348.89 25.8 352.01 29.92 350.71 33.89C349.41 37.5 346.49 40 343.92 42.67C342.14 44.34 340.31 45.98 338.04 47.17L337.57 45.53C340.6 45.09 344.15 44.49 346.83 46.53C350.77 50.29 347.08 55.91 343.54 58.38L343.41 58.23C344.53 56.85 345.52 55.35 346.19 53.79C347.03 51.85 347.23 49.85 345.89 48.4C345.16 47.58 344.07 47.49 342.94 47.29C339.98 46.84 335.35 47.47 332.33 47.68C335.9 46.16 340.41 44.62 343.48 42.13C346.78 39.41 349.84 34.71 349.05 30.33C348.55 28.3 346.91 26.52 344.99 25.1L345.07 24.92L345.05 24.93Z" fill="#D3A759"/>
<path d="M146.119 86.2601C141.919 85.3901 134.629 83.73 131.519 87.38C128.859 91.93 133.549 96.64 137.699 98.17L146.909 101.99L137.009 100.6C131.429 99.96 124.389 99.6601 120.349 103.97C118.209 106.73 117.759 111.37 118.889 114.69C120.289 118.88 123.879 119.37 127.769 118.76C129.909 118.58 131.979 118.37 134.189 118.26L140.189 117.97C134.309 120.81 127.679 123.77 122.969 128.36C121.349 129.99 119.899 132.01 120.829 134.25C121.149 135.37 121.719 136.41 122.539 137.25C123.359 138.08 124.459 138.69 125.669 138.84C121.829 138.86 118.529 134.27 119.809 130.63C121.249 127.03 124.479 124.61 127.419 122.35C129.439 120.91 131.509 119.6 133.719 118.39L134.339 120.7L128.059 121.46C124.619 122.15 120.389 121.93 117.969 118.9C114.159 114.17 114.529 106.83 118.099 102.1C123.029 96.73 130.899 97.15 137.469 98.09L136.769 100.52C135.369 99.9 134.199 99.1601 133.049 98.2601C129.479 95.6601 127.099 90.2201 130.149 86.3001C134.079 82.1001 141.539 84.5301 146.129 86.2501L146.119 86.2601Z" fill="#D3A759"/>
<path d="M455.411 414.25L429.711 435.4L435.111 379.86L416.031 378L409.091 449.34C408.891 451.44 409.521 453.53 410.861 455.15L415.901 461.28C418.691 464.67 423.691 465.15 427.071 462.37L467.571 429.05L455.391 414.25H455.411Z" fill="#2A1A09"/>
<path d="M469.403 399.679L467.241 398.326C466.066 397.591 464.517 397.947 463.782 399.123L454.079 414.627C453.343 415.802 453.7 417.35 454.875 418.086L457.036 419.439C458.211 420.174 459.76 419.818 460.496 418.643L470.199 403.139C470.934 401.963 470.578 400.415 469.403 399.679Z" fill="#2A1A09"/>
<path d="M474.268 431.161C486.581 428.895 495.588 421.756 494.384 415.216C493.18 408.677 482.222 405.213 469.909 407.479C457.595 409.746 448.589 416.885 449.793 423.424C450.997 429.964 461.955 433.428 474.268 431.161Z" fill="#2A1A09"/>
<path d="M31.9707 436.36L41.7107 452.75L41.7607 452.84L145.601 391.17L135.821 374.69L31.9707 436.36Z" fill="#2A1A09"/>
<path d="M40.8657 440.576L41.5545 438.121C41.9289 436.786 41.1504 435.401 39.8157 435.026L22.2055 430.086C20.8708 429.712 19.4853 430.49 19.1108 431.825L18.4221 434.28C18.0477 435.615 18.8262 437 20.1609 437.375L37.7711 442.315C39.1058 442.689 40.4913 441.911 40.8657 440.576Z" fill="#2A1A09"/>
<path d="M41.7372 458.046C49.8718 448.528 52.3685 437.31 47.3137 432.99C42.2589 428.67 31.5667 432.883 23.4321 442.401C15.2975 451.918 12.8008 463.136 17.8557 467.456C22.9105 471.777 33.6026 467.563 41.7372 458.046Z" fill="#2A1A09"/>
<path d="M120.94 263.03C116.22 251.38 108.82 226.6 115.35 215.12L116.04 214.12C119.77 209.5 123.65 204.99 127.25 200.29L127.66 201.34C126.42 201.02 125.3 200.56 124.24 199.89C115.55 194.1 125.63 183.47 130.38 178.44L130.93 180.68C127.26 179.87 123.8 178.69 120.43 177.09C102.87 168.83 99.6597 154.02 112.36 139.36C114.72 136.52 117.61 133.77 120.82 131.89C127.61 127.61 136.34 128.67 141.49 134.86L141.19 135.13C134.65 129.86 127.31 130.33 120.94 135.59C113.55 142.51 105.09 154.04 110.78 164.2C115.77 172.2 125.27 176.11 133.9 178.92C131.56 180.81 129.17 182.82 127.14 185.07C124.94 187.55 122.62 190.26 122.12 193.59C121.56 197.49 125.56 199.81 128.92 200.24C125.16 205.61 121.53 211.1 118.05 216.66C116.18 220.84 116.36 225.56 116.44 230.12C116.68 235.55 117.46 241.03 118.32 246.5C119.21 251.97 120.27 257.43 121.33 262.92L120.95 263.04L120.94 263.03Z" fill="#D3A759"/>
<path d="M466.88 311.73L473.01 185.71C474.53 154.39 458 98.9301 457.92 98.9001C457.88 98.9001 457.61 98.8101 457.25 98.7801C456.87 98.7801 456.52 98.74 456.22 99.02C449.26 108.76 396.42 144.63 392.28 146.05C389.99 146.84 388.34 146.85 388.34 146.85L302.56 115.65C301.31 115.2 299.92 115.49 298.96 116.41L245.65 167.42C244.79 168.25 243.57 168.58 242.41 168.29L196.34 157.48C193.1 156.69 189.13 153.6 187.18 150.9L164.2 131.57L164.57 130.78L161.77 129.74C160.57 129.31 159.15 129.74 158.45 130.92L126.03 184.15C125.46 185.09 123.69 186.24 122.69 185.78L119.21 183.88L105.61 173.35L106.33 172.36C106.33 172.36 104.85 171.84 104.26 171.76C103.48 171.66 102.68 171.91 102 172.39L91.7398 179.2L77.5298 189.24C77.1698 189.49 76.6898 189.45 76.3898 189.13C75.1698 187.81 72.6998 185.34 72.2198 183.76C71.2498 180.59 72.7998 177.24 72.7998 177.24C70.7498 177.01 69.5798 178.76 69.8198 180.81L70.4098 185.91L70.1598 185.63C69.4698 184.94 68.9798 184.08 68.7498 183.13L68.4198 181.81C68.0398 180.3 60.2898 271.05 60.2898 271.05C45.1798 374.15 111.27 469.22 214.98 479.31L224.63 480.25L257.99 483.5L267.07 484.38C370.77 494.47 461.84 415.78 466.9 311.71L466.88 311.73Z" fill="#966A2A"/>
<path d="M469.79 312.77L475.92 186.75C477.44 155.43 470.94 125.5 458.21 99C458.17 98.95 457.97 98.9 457.92 98.9C457.9 98.91 457.75 99.51 457.54 99.8C445.89 115.88 394.04 147.48 394.04 147.48C393.17 148.05 392.08 148.18 391.1 147.82L305.48 116.68C304.23 116.23 302.84 116.52 301.88 117.44L249.08 168.03C248.22 168.86 247 169.19 245.84 168.9L198.15 157.34C194.91 156.56 192.06 154.65 190.1 151.95C190.1 151.94 190.08 151.93 190.07 151.92L165.5 131.26C164.2 130.16 162.22 130.5 161.35 131.96L129.43 185.45C128.53 187.42 126.01 188.01 124.33 186.64L107.7 173.05C106.48 172.06 104.75 172 103.48 172.91L77.8097 191.18C77.7297 191.23 77.6297 191.23 77.5597 191.16L73.0697 186.66C72.3797 185.97 71.8897 185.11 71.6597 184.16L71.3297 182.84C70.9497 181.33 71.2397 179.73 72.1297 178.45L72.8497 177.42C72.9297 177.3 72.8497 177.14 72.7097 177.12C70.6997 176.89 68.8797 178.3 68.5897 180.3L55.0997 272.39C39.9897 375.49 114.19 470.27 217.89 480.36L227.54 481.3L260.9 484.55L269.98 485.43C373.68 495.52 464.75 416.83 469.81 312.76L469.79 312.77Z" fill="#B2853D"/>
<path d="M442.751 168.69C445.691 182.28 445.531 196.61 441.911 210.06C440.021 217.89 437.841 226.31 435.481 233.95L431.891 232.57C432.431 231.71 432.741 231.26 433.801 230.76C438.611 229.39 438.531 237.58 438.831 240.49C439.171 247.62 438.951 254.74 438.081 261.81C437.641 265.35 437.061 268.82 436.051 272.34L434.631 271.5C435.531 270.56 436.571 269.85 437.981 269.95C443.631 270.82 443.051 286.06 443.201 290.51C443.041 297.8 442.581 309.43 437.151 314.88C432.071 317.64 426.791 321.22 423.811 326.32C423.381 326.96 423.051 327.81 422.721 328.5L422.361 329.63C422.311 329.82 422.221 330 422.181 330.2C422.101 330.74 421.971 331.38 421.881 331.94C421.291 341.15 423.301 350.4 425.511 359.33C427.731 368.04 426.651 377.89 421.771 385.49C419.841 388.78 417.821 392.08 416.031 395.4L415.551 395.25C417.771 388.03 422.321 381.6 422.791 373.96C423.091 369.9 422.771 365.75 421.741 361.83C421.291 360.48 420.821 359.13 420.441 357.78C418.781 352.12 417.421 346.47 416.751 340.55C415.591 330.82 416.821 324.3 424.351 317.57C427.491 314.8 430.781 312.67 434.611 310.9L434.291 311.08C434.251 311.1 434.191 311.15 434.191 311.15C435.261 310.09 435.871 308.64 436.461 307.21C438.481 301.87 439.161 296.08 439.761 290.34C440.011 286.6 441.411 273.36 437.771 271.74C437.271 271.62 436.431 272.07 435.891 272.61L433.231 275.27L434.461 271.77C436.581 265.18 437.191 258.07 436.991 251.17C436.671 245.69 436.341 239.93 434.551 234.75C434.421 234.43 434.241 234.13 434.151 234.03C434.121 234 434.081 234.01 434.291 234.15C434.481 234.3 435.031 234.33 435.241 234.22C435.461 234.13 435.461 234.09 435.441 234.14C435.431 234.16 435.341 234.31 435.361 234.29L431.771 232.91C432.931 227.54 434.191 222.21 435.601 216.92C436.751 212.55 438.811 205.54 439.801 201.14C442.051 190.56 442.611 179.61 442.281 168.76L442.771 168.69H442.751Z" fill="#9B6D2C"/>
<path d="M193.81 173.3C191.22 183.87 189.59 194.68 189.81 205.55C190.36 216.45 191.52 227.36 192.05 238.26L187.67 239.03C187.69 239.09 187.63 238.93 187.63 238.95C187.92 239.44 188.96 239.59 189.43 239.24C189.46 239.22 189.47 239.21 189.47 239.21C189.42 239.25 189.22 239.5 189.06 239.78C186.56 244.55 185.28 250.1 183.91 255.34C181.95 263.42 181.05 271.97 182.15 280.24L179.94 276.51C179.57 275.89 178.88 275.25 178.38 275.23C174.34 275.76 172.5 289.32 171.92 292.95C171.42 296.86 171.05 300.79 171.19 304.69C171.36 308.17 171.59 311.82 173.29 314.88C173.37 315.01 173.55 315.23 173.52 315.18L173.35 315.04C180.67 320.26 187.84 328.23 187.18 337.82C186.24 346.7 182.75 355.08 179.03 363.09C176.45 367.81 174.68 373.08 174.38 378.46C174.11 382.01 174.66 385.49 175.68 388.88C176.45 391.71 177.8 396.6 178.42 399.46L178.5 399.86L178.54 400.08L178.59 400.43L177.07 403.03C177.07 403.03 177.18 402.98 177.15 402.99C176.54 403.31 176.73 404 176.96 404.67C178.45 407.73 180.09 411.32 179.73 414.9C178.36 417.64 177.12 420.57 176.1 423.5C175.15 426.31 174.31 429.19 174.05 432.02C173.92 433.89 173.94 435.63 174.87 437.13C177.23 440.43 180.66 443.3 184.63 444.26L184.31 445.09C183.56 447.3 182.45 450.05 184.09 452.1C184.57 452.78 185.19 453.41 185.85 453.92L185.58 454.34C184.78 453.87 184.07 453.31 183.43 452.63C181.95 451.25 181.83 449.1 182.14 447.24C182.26 446.32 182.44 445.45 182.69 444.53L183.35 445.65C178.75 444.72 174.98 441.87 172.19 438.27C168.36 431.56 172.91 420.02 175.54 413.36L175.33 414.13C175.27 413.16 175.07 412.24 174.76 411.3C173.65 407.91 170.33 404.5 172.6 400.68C173.21 399.67 174.04 398.89 175.11 398.4L173.59 401C173.45 400.42 173.14 399.13 172.97 398.55C172.55 396.89 171.1 392.07 170.6 390.34C167.66 381.76 168.81 371.99 172.8 363.95C176.81 356.36 180.54 348.44 182.38 340.04C183.03 337.34 183.1 334.53 182.34 331.84C180.52 326.05 176.34 321.14 171.7 317.32C171.3 317.02 171.07 316.53 170.9 316.27C169.11 312.71 169.04 308.55 169.1 304.69C169.24 300.64 169.68 296.66 170.32 292.71C171.21 288.29 172.87 273.31 178.49 273.4C179.91 273.53 180.83 274.41 181.59 275.5L179.78 276.14C178.52 265.37 179.84 254.54 182.68 244.14C183.34 241.95 184.01 239.6 185.22 237.49C185.8 236.64 186.45 235.51 187.82 235.1C189.77 234.49 191.51 236.05 191.94 237.81L187.56 238.58C187.04 230.35 186.65 222.11 186.32 213.87C185.79 205.57 186.49 197.01 188.34 188.95C189.58 183.54 191.14 178.22 193.3 173.12L193.77 173.29L193.81 173.3Z" fill="#9B6D2C"/>
<path d="M403.459 164.88C407.609 175.71 410.469 187.15 410.859 198.78C410.909 204.98 411.339 211.24 409.759 217.33C409.199 219.36 407.259 222.37 406.249 224.22C404.839 226.74 403.359 229.22 401.859 231.69L400.789 229.59C408.609 231.1 403.629 249.36 401.389 254.27L401.189 253.77C398.179 255.62 400.729 259.4 401.619 261.84C402.889 265.46 402.949 269.4 401.999 273.07L401.709 273.01C401.869 269.03 401.159 264.9 399.139 261.48C398.959 261.2 398.609 260.58 398.439 260.29C396.569 257.43 396.499 252.97 399.899 251.12L399.179 251.89C399.739 250.25 400.229 248.39 400.599 246.59C401.099 243.29 403.419 234.52 400.589 232.33C400.589 232.32 400.469 232.3 400.629 232.31L399.559 230.21C401.879 226.74 404.609 223.01 407.089 219.61C407.929 218.51 408.549 217.27 408.949 215.95C411.349 207.62 408.979 198.82 407.539 190.51C406.129 182.28 404.449 173.24 403.179 164.98L403.469 164.9L403.459 164.88Z" fill="#9B6D2C"/>
<path d="M393.101 226.01C393.151 229.76 392.211 233.52 390.271 236.76C389.901 237.48 389.121 238.38 388.651 239.05C387.261 240.75 386.381 243.6 388.301 245.17L388.611 245.41C389.031 247.52 389.241 249.57 389.341 251.65C389.361 256.14 390.131 268.2 383.541 268.42L384.951 266.61C386.051 269.28 387.081 271.97 388.151 274.65C388.781 276.32 390.001 279.25 390.381 280.95C391.421 287.67 389.221 294.26 387.271 300.55C383.521 311.54 378.991 322.15 374.171 332.69L374.231 332.21C375.541 337.52 376.651 342.85 377.521 348.25C378.871 357.71 379.991 367.67 377.451 377.07L376.501 381.04C375.251 386.33 373.901 391.6 372.581 396.87L371.621 394.98C374.431 396.24 376.971 398.56 377.341 401.75C377.521 404.66 376.751 407.76 374.351 409.59C374.121 409.73 374.021 409.83 373.591 410L374.131 409.65C372.961 410.84 371.811 412.25 371.001 413.66C370.501 414.63 370.011 415.55 370.241 416.49C370.681 417.37 371.701 417.73 372.731 418.2C374.031 418.7 375.621 419.62 375.821 421.27C375.841 421.58 375.871 421.91 375.851 422.2L375.731 423.02C374.961 426.05 373.171 428.66 371.661 431.29C368.841 436.02 365.881 440.66 362.711 445.16L362.461 445C365.051 440.45 367.801 435.18 370.251 430.5C371.451 428.11 372.821 425.74 373.501 423.21C373.731 422.42 373.731 421.63 373.521 421.34C373.361 421.04 372.711 420.71 371.841 420.4C370.441 419.86 368.511 419.08 367.861 417.38C367.191 415.67 367.901 413.76 368.631 412.36C369.591 410.57 370.751 409.08 372.091 407.62L372.631 407.27C373.871 406.35 374.491 403.69 374.311 402.12C374.001 399.65 371.301 398.17 369.171 397.41C370.601 391.7 372.001 385.97 373.501 380.28L374.531 376.34C377.131 367.31 376.231 357.81 375.311 348.54C374.721 343.18 373.941 337.81 372.881 332.52L372.831 332.25L372.941 332.04C379.111 320.4 391.321 293.22 387.701 280.57C386.041 276.38 384.101 271.77 382.491 267.57L383.901 265.76C383.751 265.75 383.871 265.76 383.881 265.75C387.841 264.23 387.221 249.94 386.731 246.15L387.111 246.76C386.581 246.31 386.291 245.9 386.001 245.39C384.291 242.45 386.321 239.16 388.361 237.05C389.831 235.38 390.891 233.41 391.631 231.29C392.221 229.59 392.641 227.8 392.821 226H393.121L393.101 226.01Z" fill="#9B6D2C"/>
<path d="M101.46 236.83C101.17 240.37 101.64 244.12 103.16 247.34C103.95 249.07 105.18 250.56 105.54 252.51C106.06 254.69 105.17 257.24 103.1 258.38L103.63 257.81C102.44 261.35 99.0396 275.23 102.57 277.55C102.57 277.56 102.69 277.57 102.54 277.56L103.58 279.62C102.01 282.04 100.4 284.44 98.7596 286.81C97.9296 288.05 95.8796 290.82 95.2596 292.09C92.7896 297.93 93.1796 304.67 93.6596 310.92C94.7496 322.37 97.7396 333.6 100.97 344.59L101.05 344.87L100.97 345.21C100.23 348.31 99.6596 351.51 99.2396 354.67C98.8496 357.81 98.5796 361.06 99.0696 363.95C99.6696 366.82 101.28 369.81 102.68 372.48C104.25 375.41 105.99 378.3 107.8 381.07C108.99 390.71 110.02 400.45 111.94 409.97L112.31 411.47C112.47 411.92 112.57 412.39 112.81 412.78C113.38 413.96 114.82 415.05 115.89 415.91C119.75 418.7 124.06 420.88 128.42 422.92L128.31 423.2C124.19 421.84 120.16 420.25 116.37 418.11C114.21 416.75 111.79 415.43 110.67 412.94C109.91 411.17 109.43 409.2 108.99 407.34C107.05 398.89 105.82 390.39 104.65 381.82L104.91 382.51C103.08 379.72 101.42 376.9 99.8496 373.97C98.3196 370.86 96.8196 367.98 96.1396 364.45C95.6396 360.88 96.0496 357.56 96.5196 354.27C97.0496 350.99 97.7896 347.79 98.6896 344.59V345.21C95.9796 333.92 94.0296 322.52 92.6996 311C92.1896 304.48 91.2096 297.66 93.4596 291.3C94.0796 289.73 95.9196 286.98 96.7396 285.52C98.2296 283.05 99.7396 280.59 101.3 278.16L102.34 280.22C94.8896 278.78 99.7396 261.77 101.58 256.98L101.74 256.59L102.11 256.41C104.27 255.28 103.91 252.36 102.92 250.45C100.67 246.29 100.1 241.33 101.12 236.76L101.41 236.82L101.46 236.83Z" fill="#9B6D2C"/>
<path d="M96.1297 200.85C92.1097 212.7 86.8797 224.64 85.7397 237.13C85.5897 238.73 85.7897 240.66 86.0197 242.28C86.5697 247.17 86.9197 252.04 87.0397 257.04V257.49C84.1797 259.44 81.3997 262.05 79.9597 265.26C78.5097 268.19 79.6197 272.13 79.8397 275.39L79.6997 274.98C84.3897 282.19 88.5397 290.08 88.2297 299.05C87.9497 303.41 87.1697 307.56 86.2297 311.7C85.2497 315.85 84.0697 319.86 82.5597 323.87L81.2497 325.14C80.6397 325.34 79.9297 326.19 79.7797 327.01C79.5297 328.12 79.7697 329.46 80.0597 330.6C80.7697 333.28 82.0197 335.99 83.6797 338.19C85.9497 340.64 89.0897 344.5 89.0397 348.68C89.0697 350.86 87.3297 352.29 86.2497 353.97C85.2597 355.48 84.3797 357.11 83.8997 358.85L83.4997 358.81C83.7197 355.91 84.9997 353.26 86.4297 350.79C88.3897 347.12 83.7597 342.77 81.2897 340.37C78.9497 337.79 77.4397 334.93 76.3597 331.69C74.8997 328.05 75.5697 322.75 79.9197 321.14L78.6097 322.41C81.1197 314.77 83.6597 306.76 84.5397 298.78C85.0497 290.98 81.9997 282.79 78.2597 275.91L78.1297 275.67V275.5C78.1097 273.27 77.9397 271.09 77.9097 268.86C77.8797 265.59 79.7897 262.59 81.8397 260.2C83.0297 258.82 84.2897 257.56 85.7297 256.39L85.3897 257.08C84.8697 252.33 83.7497 247.53 82.8297 242.77C82.2497 240.29 82.0297 237.58 82.2997 235.05C83.1997 227.56 85.8597 220.52 88.8797 213.69C90.9197 209.21 93.1597 204.83 95.7797 200.66L96.1397 200.84L96.1297 200.85Z" fill="#9B6D2C"/>
<path d="M329.329 155.91C332.119 165.42 334.079 175.15 335.109 185.01C335.439 189.51 336.149 194.21 334.179 198.52C331.859 203.66 328.869 208.43 325.989 213.19L325.669 212.14C328.719 213.95 332.439 216.9 331.659 220.89C330.679 224.45 328.949 227.53 326.789 230.5L326.829 229.33C333.689 238.31 338.409 250.07 335.479 261.48C333.859 268.92 327.839 276.4 319.349 274.29L321.089 270.72C324.949 273.94 330.029 278.35 329.029 284.02C328.809 285.3 328.529 286.49 327.829 287.68C327.159 288.85 326.249 289.48 325.489 290.34C324.179 291.96 322.069 292.79 320.349 293.49C317.519 294.53 314.659 295.33 311.719 295.92L311.609 295.54C314.329 294.39 317.049 293.23 319.579 291.82C321.109 290.93 322.599 290.17 323.499 288.81C324.069 287.97 325.009 287.14 325.339 286.33C325.779 285.36 325.959 283.92 325.979 282.67C325.439 279.04 321.619 276.2 318.759 274L311.719 268.96L320.499 270.43C322.109 270.73 323.919 270.44 325.359 269.65C328.679 267.85 330.419 264.01 331.489 260.39C334.459 250.15 330.339 238.61 324.909 229.79C327.299 227.2 329.499 224.03 330.459 220.61C331.149 217.26 327.649 214.81 325.019 213.49L324.329 213.16L324.699 212.44C327.399 207.13 329.699 201.65 331.579 196.06C332.259 192.68 331.799 188.8 331.649 185.3C331.349 180.98 330.729 175.04 330.309 170.69C329.829 165.8 329.319 160.91 328.969 155.97L329.359 155.9L329.329 155.91Z" fill="#9B6D2C"/>
<path d="M232.53 219.2C231.65 221.95 231.8 224.95 231.73 227.83C231.88 232.07 231.56 236.47 232.33 240.64C232.86 243.3 234.24 245.64 235.75 247.84C237.4 250.41 238.84 253.08 240.01 255.94C240.86 257.96 241.99 261.28 240.72 263.46C238.56 268.28 234.55 272.02 232.26 276.7C231.46 278.71 230.62 281.26 231.83 283.18L232.46 284.16C235.23 288.59 236.24 294.39 234.65 299.51C234.55 299.88 234.41 300.55 234.49 300.68C235.18 302.56 236.73 304.56 237.61 306.64C238.19 307.87 238.13 309.56 237.07 310.53L236.9 310.7L236.64 310.94C230.23 316.65 223.45 323.28 221.59 331.79C220.57 337.38 221.74 343.18 223.64 348.53L223.21 348.78C219.59 343.82 217.31 337.49 217.7 331.26C218.37 321.43 226.46 312.07 233.26 307.1C232.98 307.51 232.76 308.12 232.9 308.59C232.9 308.58 232.87 308.51 232.86 308.48C231.96 306.22 230.34 303.98 229.86 301.34C229.7 299.76 230.19 298.58 230.66 297.21C231.82 293.37 231.59 289.24 230.01 285.44L229.57 284.47C228.93 283.28 228.9 281.7 229.12 280.47C229.88 275.73 233.35 272.41 235.73 268.51C236.93 266.35 238.79 263.53 238.55 261.07C237.8 258.7 235.89 256.11 234.44 253.93C234.06 253.43 231.71 249.9 231.36 249.42C229.21 246.38 227.97 242.69 227.88 238.97C227.93 235.1 228.36 231.41 229.03 227.6C229.64 224.62 230.19 221.48 232.06 218.95L232.48 219.22L232.53 219.2Z" fill="#9B6D2C"/>
<path d="M275.91 397.88C273.45 404.15 263.49 408.14 252.06 407.03C240.71 405.93 231.75 400.16 230.45 393.59C226.97 392.41 224.88 391.51 224.88 391.51C223.56 405.03 231.25 416.85 250.92 418.76C269.27 420.55 280.41 410.56 281.73 397.04C281.73 397.04 279.46 397.45 275.91 397.89V397.88Z" fill="#2A1A09"/>
<path d="M252.059 407.03C263.489 408.14 273.449 404.15 275.909 397.88C270.159 398.59 261.069 399.36 252.879 398.56C243.849 397.68 235.609 395.33 230.439 393.58C231.739 400.15 240.699 405.92 252.049 407.02L252.059 407.03Z" fill="white"/>
<mask id="mask1_1431_17938" style="mask-type:luminance" maskUnits="userSpaceOnUse" x="127" y="362" width="252" height="52">
<path d="M351.78 381.17L302.31 376.36C292.46 375.4 283.28 379.46 277.28 386.44L231.52 381.99C226.99 373.98 218.76 368.23 208.91 367.27L159.44 362.46C143.37 360.9 129.08 372.65 127.52 388.72L127.49 389.02L235.13 399.49L235.16 399.19C235.46 396.11 235.27 393.09 234.65 390.21L272.61 393.9C271.45 396.6 270.68 399.53 270.38 402.61L270.35 402.91L377.99 413.38L378.02 413.08C379.58 397.01 367.83 382.72 351.76 381.16L351.78 381.17Z" fill="white"/>
</mask>
<g mask="url(#mask1_1431_17938)">
<path d="M193.81 173.3C191.22 183.87 189.59 194.68 189.81 205.55C190.36 216.45 191.52 227.36 192.05 238.26L187.67 239.03C187.69 239.09 187.63 238.93 187.63 238.95C187.92 239.44 188.96 239.59 189.43 239.24C189.46 239.22 189.47 239.21 189.47 239.21C189.42 239.25 189.22 239.5 189.06 239.78C186.56 244.55 185.28 250.1 183.91 255.34C181.95 263.42 181.05 271.97 182.15 280.24L179.94 276.51C179.57 275.89 178.88 275.25 178.38 275.23C174.34 275.76 172.5 289.32 171.92 292.95C171.42 296.86 171.05 300.79 171.19 304.69C171.36 308.17 171.59 311.82 173.29 314.88C173.37 315.01 173.55 315.23 173.52 315.18L173.35 315.04C180.67 320.26 187.84 328.23 187.18 337.82C186.24 346.7 182.75 355.08 179.03 363.09C176.45 367.81 174.68 373.08 174.38 378.46C174.11 382.01 174.66 385.49 175.68 388.88C176.45 391.71 177.8 396.6 178.42 399.46L178.5 399.86L178.54 400.08L178.59 400.43L177.07 403.03C177.07 403.03 177.18 402.98 177.15 402.99C176.54 403.31 176.73 404 176.96 404.67C178.45 407.73 180.09 411.32 179.73 414.9C178.36 417.64 177.12 420.57 176.1 423.5C175.15 426.31 174.31 429.19 174.05 432.02C173.92 433.89 173.94 435.63 174.87 437.13C177.23 440.43 180.66 443.3 184.63 444.26L184.31 445.09C183.56 447.3 182.45 450.05 184.09 452.1C184.57 452.78 185.19 453.41 185.85 453.92L185.58 454.34C184.78 453.87 184.07 453.31 183.43 452.63C181.95 451.25 181.83 449.1 182.14 447.24C182.26 446.32 182.44 445.45 182.69 444.53L183.35 445.65C178.75 444.72 174.98 441.87 172.19 438.27C168.36 431.56 172.91 420.02 175.54 413.36L175.33 414.13C175.27 413.16 175.07 412.24 174.76 411.3C173.65 407.91 170.33 404.5 172.6 400.68C173.21 399.67 174.04 398.89 175.11 398.4L173.59 401C173.45 400.42 173.14 399.13 172.97 398.55C172.55 396.89 171.1 392.07 170.6 390.34C167.66 381.76 168.81 371.99 172.8 363.95C176.81 356.36 180.54 348.44 182.38 340.04C183.03 337.34 183.1 334.53 182.34 331.84C180.52 326.05 176.34 321.14 171.7 317.32C171.3 317.02 171.07 316.53 170.9 316.27C169.11 312.71 169.04 308.55 169.1 304.69C169.24 300.64 169.68 296.66 170.32 292.71C171.21 288.29 172.87 273.31 178.49 273.4C179.91 273.53 180.83 274.41 181.59 275.5L179.78 276.14C178.52 265.37 179.84 254.54 182.68 244.14C183.34 241.95 184.01 239.6 185.22 237.49C185.8 236.64 186.45 235.51 187.82 235.1C189.77 234.49 191.51 236.05 191.94 237.81L187.56 238.58C187.04 230.35 186.65 222.11 186.32 213.87C185.79 205.57 186.49 197.01 188.34 188.95C189.58 183.54 191.14 178.22 193.3 173.12L193.77 173.29L193.81 173.3Z" fill="#9B6D2C"/>
<path d="M393.099 226.01C393.149 229.76 392.209 233.52 390.269 236.76C389.899 237.48 389.119 238.38 388.649 239.05C387.259 240.75 386.379 243.6 388.299 245.17L388.609 245.41C389.029 247.52 389.239 249.57 389.339 251.65C389.359 256.14 390.129 268.2 383.539 268.42L384.949 266.61C386.049 269.28 387.079 271.97 388.149 274.65C388.779 276.32 389.999 279.25 390.379 280.95C391.419 287.67 389.219 294.26 387.269 300.55C383.519 311.54 378.989 322.15 374.169 332.69L374.229 332.21C375.539 337.52 376.649 342.85 377.519 348.25C378.869 357.71 379.989 367.67 377.449 377.07L376.499 381.04C375.249 386.33 373.899 391.6 372.579 396.87L371.619 394.98C374.429 396.24 376.969 398.56 377.339 401.75C377.519 404.66 376.749 407.76 374.349 409.59C374.119 409.73 374.019 409.83 373.589 410L374.129 409.65C372.959 410.84 371.809 412.25 370.999 413.66C370.499 414.63 370.009 415.55 370.239 416.49C370.679 417.37 371.699 417.73 372.729 418.2C374.029 418.7 375.619 419.62 375.819 421.27C375.839 421.58 375.869 421.91 375.849 422.2L375.729 423.02C374.959 426.05 373.169 428.66 371.659 431.29C368.839 436.02 365.879 440.66 362.709 445.16L362.459 445C365.049 440.45 367.799 435.18 370.249 430.5C371.449 428.11 372.819 425.74 373.499 423.21C373.729 422.42 373.729 421.63 373.519 421.34C373.359 421.04 372.709 420.71 371.839 420.4C370.439 419.86 368.509 419.08 367.859 417.38C367.189 415.67 367.899 413.76 368.629 412.36C369.589 410.57 370.749 409.08 372.089 407.62L372.629 407.27C373.869 406.35 374.489 403.69 374.309 402.12C373.999 399.65 371.299 398.17 369.169 397.41C370.599 391.7 371.999 385.97 373.499 380.28L374.529 376.34C377.129 367.31 376.229 357.81 375.309 348.54C374.719 343.18 373.939 337.81 372.879 332.52L372.829 332.25L372.939 332.04C379.109 320.4 391.319 293.22 387.699 280.57C386.039 276.38 384.099 271.77 382.489 267.57L383.899 265.76C383.749 265.75 383.869 265.76 383.879 265.75C387.839 264.23 387.219 249.94 386.729 246.15L387.109 246.76C386.579 246.31 386.289 245.9 385.999 245.39C384.289 242.45 386.319 239.16 388.359 237.05C389.829 235.38 390.889 233.41 391.629 231.29C392.219 229.59 392.639 227.8 392.819 226H393.119L393.099 226.01Z" fill="#9B6D2C"/>
</g>
<path d="M232.61 345.04C232.23 345 231.88 345.19 231.69 345.52C224.81 357.5 212.22 365.3 190.43 366.96C189.49 367.03 188.58 367.07 187.67 367.11C162.18 368.13 149.73 355.29 144.35 337.06C144.24 336.68 143.91 336.41 143.52 336.37C142.87 336.31 142.34 336.9 142.48 337.53C146.98 358.46 159.26 373.89 187.11 372.77C188.02 372.73 188.93 372.7 189.87 372.62C214.45 370.74 227.34 361.06 233.51 346.37C233.76 345.77 233.35 345.1 232.71 345.04H232.61Z" fill="#2B1907"/>
<path d="M313.09 399.1C276.94 390.97 274.9 361.7 282.65 331.62C290.59 300.8 318.31 281.3 344.56 288.07C348.47 289.08 352.13 290.63 355.5 292.61" fill="white"/>
<path d="M355.09 292.46C344.16 289.83 332.44 292.76 322.13 299.87C320.29 301.11 313.99 306.24 311.48 309.31C305.8 315.64 301 323.43 297.66 332.35C287.5 359.49 294.3 387.66 312.68 398.95C313.57 399.15 314.45 399.35 315.38 399.52C354.37 406.81 369.35 386.79 377.29 355.97C384.05 329.75 374.31 303.79 355.09 292.46Z" fill="#2B1907"/>
<mask id="mask2_1431_17938" style="mask-type:luminance" maskUnits="userSpaceOnUse" x="278" y="286" width="102" height="116">
<path d="M355.46 292.69L355.49 292.61C352.12 290.62 348.47 289.08 344.55 288.07C318.3 281.3 290.58 300.8 282.64 331.62C274.89 361.7 276.93 390.97 313.08 399.1L313.1 399.04C313.85 399.21 314.6 399.37 315.38 399.52C354.37 406.81 369.35 386.79 377.29 355.97C384 329.92 374.43 304.14 355.46 292.69Z" fill="white"/>
</mask>
<g mask="url(#mask2_1431_17938)">
<path d="M335.162 315.369C337.096 310.202 332.249 303.612 324.335 300.65C316.421 297.688 308.438 299.475 306.504 304.643C304.57 309.81 309.417 316.4 317.331 319.362C325.245 322.324 333.228 320.536 335.162 315.369Z" fill="white"/>
</g>
</g>
<defs>
<clipPath id="clip0_1431_17938">
<rect width="509.72" height="726.67" fill="white"/>
</clipPath>
</defs>
</svg>
