<svg width="480" height="559" viewBox="0 0 480 559" fill="none" xmlns="http://www.w3.org/2000/svg">
<g clip-path="url(#clip0_1011_12449)">
<path d="M451.47 314.57L457.6 188.55C459.12 157.23 442.59 101.75 442.51 101.74C442.36 101.72 441.77 101.63 441.24 101.62C440.83 101.61 441.25 98.9 440.98 99.01L359.27 144.72L287.15 118.49C285.9 118.04 284.51 118.33 283.55 119.25L230.24 170.26C229.38 171.09 228.16 171.42 227 171.13L180.93 160.32C177.69 159.54 173.74 156.45 171.78 153.76C171.78 153.75 171.76 153.74 171.75 153.73L148.78 134.41L149.15 133.62L146.35 132.58C145.15 132.15 143.73 132.58 143.03 133.76L111.8 186.1L101.46 184.92L90.1901 176.2L90.5801 175.17C90.5801 175.17 88.5801 174.78 87.9801 174.7C87.2001 174.6 86.4001 174.85 85.7201 175.33L76.3101 182.05L57.4601 177.12C55.4101 176.89 54.1601 181.6 54.4001 183.66L54.9901 188.76L54.7401 188.48C54.0501 187.79 53.5601 186.93 53.3301 185.98L53.0001 184.66C52.6201 183.15 44.8701 273.9 44.8701 273.9C29.7601 377 148.16 439.18 200.48 470.64L213.76 472.97L243.49 474.82L252.57 475.7C356.27 485.79 446.42 418.63 451.48 314.56L451.47 314.57Z" fill="#966A2A"/>
<path d="M446.61 289.8L449.07 183.16C449.73 154.43 443.74 126.96 432.44 102.23C431.79 100.82 432.27 99.18 433.53 98.27C433.95 97.97 434.34 97.62 434.68 97.23C439.75 91.41 433.84 77.95 421.46 67.15C416.4 62.73 411.04 59.45 406.13 57.5C404.99 57.05 404.32 55.88 404.5 54.67C405.36 48.93 402.3 41.73 396.12 36.34C390.17 31.15 382.95 29.05 377.45 30.36C376.17 30.66 374.84 30.31 373.79 29.52C371.74 27.98 369.67 26.48 367.56 25.03C367.29 24.85 367.01 24.68 366.71 24.55C363.33 23.01 362.85 23.29 360.59 24.66C351.59 30.27 339.76 30.42 330.42 24.08C329.7 23.59 329.02 23.08 328.36 22.54C325.69 20.34 321.88 20.24 318.95 22.07C311.59 26.67 305.61 33.54 302.26 42.03C301.23 44.65 299.56 47.01 297.37 48.78C293.39 52.02 290.35 58.14 289.65 65.39C289.07 71.39 290.19 76.93 292.46 80.9C293.86 83.36 293.96 86.4 292.52 88.84C290.5 92.25 289.09 96.56 288.63 101.31C287.78 110.01 290.34 117.83 294.75 121.76L294.34 127.63C293.55 141.41 281.47 151.76 267.73 150.43L259.81 149.66C246.08 148.32 236.21 135.83 238.09 122.16L238.11 122.03C238.3 120.49 237.5 118.96 236.08 118.32C233.51 117.17 229.18 113.71 227.5 112.22C227.18 111.93 227.24 111.42 227.62 111.23C233.01 108.46 237.49 97.02 238.19 83.13C238.56 75.68 237.79 68.83 236.2 63.56C235.77 62.13 236.02 60.56 236.99 59.41C238.77 57.29 240.81 55.5 243.04 54.04C245.51 52.43 247.17 49.83 247.54 46.89C251.43 15.88 221.12 -8.15 191.75 2.54C177.75 7.64 164.47 14.33 152.17 22.41C151.06 23.14 150.47 24.44 150.6 25.76C150.62 25.96 150.64 26.16 150.65 26.35C150.79 28.24 149.29 29.97 147.42 30.29C142.71 31.1 137.37 34.73 133.35 40.35C127.16 49.01 128.87 57.07 131.79 62.93C132.32 64 115.78 72.99 105.87 71.14C103.58 70.71 101.27 71.7 99.9504 73.62C94.2504 81.96 89.2004 90.81 84.9004 100.1C78.2204 114.51 73.3204 129.99 70.5004 146.3L52.3504 251.41C46.6304 284.55 50.1504 317.03 60.9904 346.42C82.3604 404.37 132.22 450.27 195.98 465.36C203.02 467.03 209.91 462.07 210.62 454.87L211.08 450.18C211.82 442.62 218.54 437.08 226.11 437.82L240.19 439.19C247.75 439.93 253.29 446.65 252.55 454.22L252.09 458.91C251.39 466.11 257.2 472.3 264.43 472.03C329.9 469.51 387.67 434.08 419.82 381.34C436.12 354.59 445.84 323.4 446.61 289.78V289.8Z" fill="#E8BE6B"/>
<path d="M349.05 60.36C360.68 55.14 375.83 57.76 381.16 70.44C383.7 76.22 383.79 82.36 383.67 88.44C383.67 92.42 383.4 96.39 382.9 100.34C382.74 102.03 382.25 103.83 382 105.52C381.87 105.96 381.11 108.66 380.97 109.17C378.8 115.59 374.52 121.72 367.99 124.24C367.45 124.45 366.99 124.62 366.28 124.78V121.05C375.2 122.74 384.32 128.26 386.42 137.68C388.12 148.15 384.91 159.06 379.04 167.66L378.7 167.45C382.4 158.39 384.52 148.23 382.52 138.62C382.4 138.16 381.92 136.93 381.77 136.45C381.1 135.1 380.29 133.72 379.27 132.62C376.51 129.39 372.65 127.18 368.67 125.7C366.52 124.81 359 123.3 356.67 122.71C357.32 122.55 366.46 120.98 366.71 120.72C384.38 113.63 385.34 86.82 378.01 71.9C372.77 60.67 360.4 58.7 349.17 60.72L349.04 60.34L349.05 60.36Z" fill="#D3A759"/>
<path d="M180.86 46.02C170.9 42.59 162.58 49.9 158.36 58.24C155.75 62.96 154.03 68.14 152.32 73.25C150.75 78.37 149.15 83.92 148.12 89.18C146.49 97.47 145.09 106.24 147.46 114.51C149.8 123.83 158.29 130.04 167.81 129.58L175.35 129.08L168.89 133.15C162.39 137.38 156.24 143.71 154.41 151.44C153.74 154.03 153.98 156.74 153.97 159.4C154.35 167.48 155.85 176.25 162.32 181.64C164.41 183.4 167.04 184.6 169.76 184.97V185.37C163.71 185.65 158.15 181.61 155.09 176.59C152.36 172.15 150.99 166.97 150.36 161.83C149.95 158.11 149.56 154.28 150.33 150.58C152.18 141.39 159.22 134.48 167 129.83L168.07 133.4C160.04 133.6 151.92 129.44 148.23 122.2C143.46 113.04 144.94 102.44 145.94 92.6C147.27 80.22 148.81 67.66 155.39 56.55C158.01 52.11 161.49 48 166.14 45.57C170.81 43.11 176.68 43.05 181.04 45.66L180.85 46.01L180.86 46.02Z" fill="#D3A759"/>
<path d="M290.96 217.18C309 220.19 320.02 213.57 323.27 195.24C325.5 182.52 323.56 166.63 312.05 158.94C310.65 158.03 308.99 157.21 307.39 156.86L298.46 155.19C300.84 154.58 308.28 153.1 310.46 152.2C315.87 150.21 321.07 146.77 323.56 141.44C326.98 132.31 324.2 119.31 320.49 110.45L320.83 110.24C326.7 118.84 329.9 129.76 328.21 140.22C326.1 149.64 316.99 155.16 308.07 156.85V153.12C309.32 153.41 310.2 153.82 311.29 154.34C317.04 157.19 320.74 162.83 322.76 168.74C322.9 169.26 323.66 171.93 323.79 172.39C324.04 174.08 324.53 175.88 324.69 177.57C325.19 181.52 325.46 185.49 325.46 189.47C325.62 196.51 325.39 204.03 321.46 210.26C316.53 218.73 305.68 221.57 296.57 219.38C294.59 218.96 292.67 218.37 290.84 217.54L290.97 217.16L290.96 217.18Z" fill="#D3A759"/>
<path d="M230.31 539.4V437.79H211.14V542.09L201.01 543.51C196.83 544.1 193.72 547.67 193.72 551.89V558.57H230.31V539.4Z" fill="#2A1A09"/>
<path d="M289.49 543.51L275.93 542.09L257.91 452.54L239.12 456.32L259.17 555.93L259.7 558.56L260.19 558.46V558.56H296.78V551.88C296.78 547.66 293.67 544.08 289.49 543.5V543.51Z" fill="#2A1A09"/>
<path d="M328.72 32.01C332.56 32.88 335.68 37 334.38 40.97C333.08 44.58 330.16 47.08 327.59 49.75C325.81 51.42 323.98 53.06 321.71 54.25L321.24 52.61C324.27 52.17 327.82 51.57 330.5 53.61C334.44 57.37 330.75 62.99 327.21 65.46L327.08 65.31C328.2 63.93 329.19 62.43 329.86 60.87C330.7 58.93 330.9 56.93 329.56 55.48C328.83 54.66 327.74 54.57 326.61 54.37C323.65 53.92 319.02 54.55 316 54.76C319.57 53.24 324.08 51.7 327.15 49.21C330.45 46.49 333.51 41.79 332.72 37.41C332.22 35.38 330.58 33.6 328.66 32.18L328.74 32L328.72 32.01Z" fill="#D3A759"/>
<path d="M130.88 86.2601C126.68 85.3901 119.39 83.73 116.28 87.38C113.62 91.93 118.31 96.64 122.46 98.17L131.67 101.99L121.77 100.6C116.19 99.96 109.15 99.6601 105.11 103.97C102.97 106.73 102.52 111.37 103.65 114.69C105.05 118.88 108.64 119.37 112.53 118.76C114.67 118.58 116.74 118.37 118.95 118.26L124.95 117.97C119.07 120.81 112.44 123.77 107.73 128.36C106.11 129.99 104.66 132.01 105.59 134.25C105.91 135.37 106.48 136.41 107.3 137.25C108.12 138.08 109.22 138.69 110.43 138.84C106.59 138.86 103.29 134.27 104.57 130.63C106.01 127.03 109.24 124.61 112.18 122.35C114.2 120.91 116.27 119.6 118.48 118.39L119.1 120.7L112.82 121.46C109.38 122.15 105.15 121.93 102.73 118.9C98.9201 114.17 99.2901 106.83 102.86 102.1C107.79 96.73 115.66 97.15 122.23 98.09L121.53 100.52C120.13 99.9 118.96 99.1601 117.81 98.2601C114.24 95.6601 111.86 90.2201 114.91 86.3001C118.84 82.1001 126.3 84.5301 130.89 86.2501L130.88 86.2601Z" fill="#D3A759"/>
<path d="M440.16 414.25L414.46 435.4L419.86 379.86L400.78 378L393.84 449.34C393.64 451.44 394.27 453.53 395.61 455.15L400.65 461.28C403.44 464.67 408.44 465.15 411.82 462.37L452.32 429.05L440.14 414.25H440.16Z" fill="#2A1A09"/>
<path d="M454.143 399.679L451.981 398.326C450.806 397.591 449.257 397.947 448.522 399.122L438.819 414.626C438.083 415.801 438.44 417.35 439.615 418.085L441.777 419.438C442.952 420.174 444.5 419.817 445.236 418.642L454.939 403.138C455.674 401.963 455.318 400.414 454.143 399.679Z" fill="#2A1A09"/>
<path d="M459.018 431.162C471.331 428.895 480.338 421.757 479.134 415.217C477.93 408.677 466.972 405.213 454.659 407.48C442.345 409.747 433.339 416.885 434.543 423.425C435.747 429.965 446.705 433.429 459.018 431.162Z" fill="#2A1A09"/>
<path d="M16.7295 436.36L26.4595 452.75L26.5095 452.84L130.359 391.17L120.569 374.69L16.7295 436.36Z" fill="#2A1A09"/>
<path d="M25.6118 440.582L26.3006 438.127C26.675 436.792 25.8965 435.407 24.5618 435.033L6.9516 430.092C5.61688 429.718 4.23135 430.497 3.85693 431.831L3.16819 434.286C2.79377 435.621 3.57225 437.007 4.90697 437.381L22.5172 442.321C23.8519 442.696 25.2374 441.917 25.6118 440.582Z" fill="#2A1A09"/>
<path d="M26.495 458.041C34.6297 448.523 37.1263 437.305 32.0715 432.985C27.0167 428.665 16.3245 432.878 8.18994 442.396C0.0553374 451.913 -2.44134 463.131 2.61348 467.452C7.6683 471.772 18.3604 467.559 26.495 458.041Z" fill="#2A1A09"/>
<path d="M119.285 279.726C114.565 268.076 107.165 243.296 113.695 231.816L114.385 230.816C118.115 226.196 121.995 221.686 125.595 216.986L126.005 218.036C124.765 217.716 123.645 217.256 122.585 216.586C113.895 210.796 123.975 200.166 128.725 195.136L129.275 197.376C125.605 196.566 122.145 195.386 118.775 193.786C101.215 185.526 98.0055 170.716 110.705 156.056C113.065 153.216 115.955 150.466 119.165 148.586C125.955 144.306 134.685 145.366 139.835 151.556L139.535 151.826C132.995 146.556 125.655 147.026 119.285 152.286C111.895 159.206 103.435 170.736 109.125 180.896C114.115 188.896 123.615 192.806 132.245 195.616C129.905 197.506 127.515 199.516 125.485 201.766C123.285 204.246 120.965 206.956 120.465 210.286C119.905 214.186 123.905 216.506 127.265 216.936C123.505 222.306 119.875 227.796 116.395 233.356C114.525 237.536 114.705 242.256 114.785 246.816C115.025 252.246 115.805 257.726 116.665 263.196C117.555 268.666 118.615 274.126 119.675 279.617L119.295 279.736L119.285 279.726Z" fill="#D3A759"/>
<path d="M451.63 311.73L457.76 185.71C459.28 154.39 442.75 98.9301 442.67 98.9001C442.63 98.9001 442.36 98.8101 442 98.7801C441.62 98.7801 441.27 98.74 440.97 99.02C434.01 108.76 381.17 144.63 377.03 146.05C374.74 146.84 373.09 146.85 373.09 146.85L287.31 115.65C286.06 115.2 284.67 115.49 283.71 116.41L230.4 167.42C229.54 168.25 228.32 168.58 227.16 168.29L181.09 157.48C177.85 156.69 173.88 153.6 171.93 150.9L148.95 131.57L149.32 130.78L146.52 129.74C145.32 129.31 143.9 129.74 143.2 130.92L110.78 184.15C110.21 185.09 108.44 186.24 107.44 185.78L103.96 183.88L90.3598 173.35L91.0798 172.36C91.0798 172.36 89.5998 171.84 89.0098 171.76C88.2298 171.66 87.4298 171.91 86.7498 172.39L76.4898 179.2L62.2798 189.24C61.9198 189.49 61.4398 189.45 61.1398 189.13C59.9198 187.81 57.4498 185.34 56.9698 183.76C55.9998 180.59 57.5498 177.24 57.5498 177.24C55.4998 177.01 54.3298 178.76 54.5698 180.81L55.1598 185.91L54.9098 185.63C54.2198 184.94 53.7298 184.08 53.4998 183.13L53.1698 181.81C52.7898 180.3 45.0398 271.05 45.0398 271.05C29.9298 374.15 96.0198 469.22 199.73 479.31L209.38 480.25L242.74 483.5L251.82 484.38C355.52 494.47 446.59 415.78 451.65 311.71L451.63 311.73Z" fill="#966A2A"/>
<path d="M454.54 312.77L460.67 186.75C462.19 155.43 455.69 125.5 442.96 99C442.92 98.95 442.72 98.9 442.67 98.9C442.65 98.91 442.5 99.51 442.29 99.8C430.64 115.88 378.79 147.48 378.79 147.48C377.92 148.05 376.83 148.18 375.85 147.82L290.23 116.68C288.98 116.23 287.59 116.52 286.63 117.44L233.83 168.03C232.97 168.86 231.75 169.19 230.59 168.9L182.9 157.34C179.66 156.56 176.81 154.65 174.85 151.95C174.85 151.94 174.83 151.93 174.82 151.92L150.25 131.26C148.95 130.16 146.97 130.5 146.1 131.96L114.18 185.45C113.28 187.42 110.76 188.01 109.08 186.64L92.4497 173.05C91.2297 172.06 89.4997 172 88.2297 172.91L62.5597 191.18C62.4797 191.23 62.3797 191.23 62.3097 191.16L57.8197 186.66C57.1297 185.97 56.6397 185.11 56.4097 184.16L56.0797 182.84C55.6997 181.33 55.9897 179.73 56.8797 178.45L57.5997 177.42C57.6797 177.3 57.5997 177.14 57.4597 177.12C55.4497 176.89 53.6297 178.3 53.3397 180.3L39.8497 272.39C24.7397 375.49 98.9397 470.27 202.64 480.36L212.29 481.3L245.65 484.55L254.73 485.43C358.43 495.52 449.5 416.83 454.56 312.76L454.54 312.77Z" fill="#B2853D"/>
<path d="M427.5 168.69C430.44 182.28 430.28 196.61 426.66 210.06C424.77 217.89 422.59 226.31 420.23 233.95L416.64 232.57C417.18 231.71 417.49 231.26 418.55 230.76C423.36 229.39 423.28 237.58 423.58 240.49C423.92 247.62 423.7 254.74 422.83 261.81C422.39 265.35 421.81 268.82 420.8 272.34L419.38 271.5C420.28 270.56 421.32 269.85 422.73 269.95C428.38 270.82 427.8 286.06 427.95 290.51C427.79 297.8 427.33 309.43 421.9 314.88C416.82 317.64 411.54 321.22 408.56 326.32C408.13 326.96 407.8 327.81 407.47 328.5L407.11 329.63C407.06 329.82 406.97 330 406.93 330.2C406.85 330.74 406.72 331.38 406.63 331.94C406.04 341.15 408.05 350.4 410.26 359.33C412.48 368.04 411.4 377.89 406.52 385.49C404.59 388.78 402.57 392.08 400.78 395.4L400.3 395.25C402.52 388.03 407.07 381.6 407.54 373.96C407.84 369.9 407.52 365.75 406.49 361.83C406.04 360.48 405.57 359.13 405.19 357.78C403.53 352.12 402.17 346.47 401.5 340.55C400.34 330.82 401.57 324.3 409.1 317.57C412.24 314.8 415.53 312.67 419.36 310.9L419.04 311.08C419 311.1 418.94 311.15 418.94 311.15C420.01 310.09 420.62 308.64 421.21 307.21C423.23 301.87 423.91 296.08 424.51 290.34C424.76 286.6 426.16 273.36 422.52 271.74C422.02 271.62 421.18 272.07 420.64 272.61L417.98 275.27L419.21 271.77C421.33 265.18 421.94 258.07 421.74 251.17C421.42 245.69 421.09 239.93 419.3 234.75C419.17 234.43 418.99 234.13 418.9 234.03C418.87 234 418.83 234.01 419.04 234.15C419.23 234.3 419.78 234.33 419.99 234.22C420.21 234.13 420.21 234.09 420.19 234.14C420.18 234.16 420.09 234.31 420.11 234.29L416.52 232.91C417.68 227.54 418.94 222.21 420.35 216.92C421.5 212.55 423.56 205.54 424.55 201.14C426.8 190.56 427.36 179.61 427.03 168.76L427.52 168.69H427.5Z" fill="#9B6D2C"/>
<path d="M178.57 173.3C175.98 183.87 174.35 194.68 174.57 205.55C175.12 216.45 176.28 227.36 176.81 238.26L172.43 239.03C172.45 239.09 172.39 238.93 172.39 238.95C172.68 239.44 173.72 239.59 174.19 239.24C174.22 239.22 174.23 239.21 174.23 239.21C174.18 239.25 173.98 239.5 173.82 239.78C171.32 244.55 170.04 250.1 168.67 255.34C166.71 263.42 165.81 271.97 166.91 280.24L164.7 276.51C164.33 275.89 163.64 275.25 163.14 275.23C159.1 275.76 157.26 289.32 156.68 292.95C156.18 296.86 155.81 300.79 155.95 304.69C156.12 308.17 156.35 311.82 158.05 314.88C158.13 315.01 158.31 315.23 158.28 315.18L158.11 315.04C165.43 320.26 172.6 328.23 171.94 337.82C171 346.7 167.51 355.08 163.79 363.09C161.21 367.81 159.44 373.08 159.14 378.46C158.87 382.01 159.42 385.49 160.44 388.88C161.21 391.71 162.56 396.6 163.18 399.46L163.26 399.86L163.3 400.08L163.35 400.43L161.83 403.03C161.83 403.03 161.94 402.98 161.91 402.99C161.3 403.31 161.49 404 161.72 404.67C163.21 407.73 164.85 411.32 164.49 414.9C163.12 417.64 161.88 420.57 160.86 423.5C159.91 426.31 159.07 429.19 158.81 432.02C158.68 433.89 158.7 435.63 159.63 437.13C161.99 440.43 165.42 443.3 169.39 444.26L169.07 445.09C168.32 447.3 167.21 450.05 168.85 452.1C169.33 452.78 169.95 453.41 170.61 453.92L170.34 454.34C169.54 453.87 168.83 453.31 168.19 452.63C166.71 451.25 166.59 449.1 166.9 447.24C167.02 446.32 167.2 445.45 167.45 444.53L168.11 445.65C163.51 444.72 159.74 441.87 156.95 438.27C153.12 431.56 157.67 420.02 160.3 413.36L160.09 414.13C160.03 413.16 159.83 412.24 159.52 411.3C158.41 407.91 155.09 404.5 157.36 400.68C157.97 399.67 158.8 398.89 159.87 398.4L158.35 401C158.21 400.42 157.9 399.13 157.73 398.55C157.31 396.89 155.86 392.07 155.36 390.34C152.42 381.76 153.57 371.99 157.56 363.95C161.57 356.36 165.3 348.44 167.14 340.04C167.79 337.34 167.86 334.53 167.1 331.84C165.28 326.05 161.1 321.14 156.46 317.32C156.06 317.02 155.83 316.53 155.66 316.27C153.87 312.71 153.8 308.55 153.86 304.69C154 300.64 154.44 296.66 155.08 292.71C155.97 288.29 157.63 273.31 163.25 273.4C164.67 273.53 165.59 274.41 166.35 275.5L164.54 276.14C163.28 265.37 164.6 254.54 167.44 244.14C168.1 241.95 168.77 239.6 169.98 237.49C170.56 236.64 171.21 235.51 172.58 235.1C174.53 234.49 176.27 236.05 176.7 237.81L172.32 238.58C171.8 230.35 171.41 222.11 171.08 213.87C170.55 205.57 171.25 197.01 173.1 188.95C174.34 183.54 175.9 178.22 178.06 173.12L178.53 173.29L178.57 173.3Z" fill="#9B6D2C"/>
<path d="M388.21 164.88C392.36 175.71 395.22 187.15 395.61 198.78C395.66 204.98 396.09 211.24 394.51 217.33C393.95 219.36 392.01 222.37 391 224.22C389.59 226.74 388.11 229.22 386.61 231.69L385.54 229.59C393.36 231.1 388.38 249.36 386.14 254.27L385.94 253.77C382.93 255.62 385.48 259.4 386.37 261.84C387.64 265.46 387.7 269.4 386.75 273.07L386.46 273.01C386.62 269.03 385.91 264.9 383.89 261.48C383.71 261.2 383.36 260.58 383.19 260.29C381.32 257.43 381.25 252.97 384.65 251.12L383.93 251.89C384.49 250.25 384.98 248.39 385.35 246.59C385.85 243.29 388.17 234.52 385.34 232.33C385.34 232.32 385.22 232.3 385.38 232.31L384.31 230.21C386.63 226.74 389.36 223.01 391.84 219.61C392.68 218.51 393.3 217.27 393.7 215.95C396.1 207.62 393.73 198.82 392.29 190.51C390.88 182.28 389.2 173.24 387.93 164.98L388.22 164.9L388.21 164.88Z" fill="#9B6D2C"/>
<path d="M377.86 226.01C377.91 229.76 376.97 233.52 375.03 236.76C374.66 237.48 373.88 238.38 373.41 239.05C372.02 240.75 371.14 243.6 373.06 245.17L373.37 245.41C373.79 247.52 374 249.57 374.1 251.65C374.12 256.14 374.89 268.2 368.3 268.42L369.71 266.61C370.81 269.28 371.84 271.97 372.91 274.65C373.54 276.32 374.76 279.25 375.14 280.95C376.18 287.67 373.98 294.26 372.03 300.55C368.28 311.54 363.75 322.15 358.93 332.69L358.99 332.21C360.3 337.52 361.41 342.85 362.28 348.25C363.63 357.71 364.75 367.67 362.21 377.07L361.26 381.04C360.01 386.33 358.66 391.6 357.34 396.87L356.38 394.98C359.19 396.24 361.73 398.56 362.1 401.75C362.28 404.66 361.51 407.76 359.11 409.59C358.88 409.73 358.78 409.83 358.35 410L358.89 409.65C357.72 410.84 356.57 412.25 355.76 413.66C355.26 414.63 354.77 415.55 355 416.49C355.44 417.37 356.46 417.73 357.49 418.2C358.79 418.7 360.38 419.62 360.58 421.27C360.6 421.58 360.63 421.91 360.61 422.2L360.49 423.02C359.72 426.05 357.93 428.66 356.42 431.29C353.6 436.02 350.64 440.66 347.47 445.16L347.22 445C349.81 440.45 352.56 435.18 355.01 430.5C356.21 428.11 357.58 425.74 358.26 423.21C358.49 422.42 358.49 421.63 358.28 421.34C358.12 421.04 357.47 420.71 356.6 420.4C355.2 419.86 353.27 419.08 352.62 417.38C351.95 415.67 352.66 413.76 353.39 412.36C354.35 410.57 355.51 409.08 356.85 407.62L357.39 407.27C358.63 406.35 359.25 403.69 359.07 402.12C358.76 399.65 356.06 398.17 353.93 397.41C355.36 391.7 356.76 385.97 358.26 380.28L359.29 376.34C361.89 367.31 360.99 357.81 360.07 348.54C359.48 343.18 358.7 337.81 357.64 332.52L357.59 332.25L357.7 332.04C363.87 320.4 376.08 293.22 372.46 280.57C370.8 276.38 368.86 271.77 367.25 267.57L368.66 265.76C368.51 265.75 368.63 265.76 368.64 265.75C372.6 264.23 371.98 249.94 371.49 246.15L371.87 246.76C371.34 246.31 371.05 245.9 370.76 245.39C369.05 242.45 371.08 239.16 373.12 237.05C374.59 235.38 375.65 233.41 376.39 231.29C376.98 229.59 377.4 227.8 377.58 226H377.88L377.86 226.01Z" fill="#9B6D2C"/>
<path d="M86.2203 236.83C85.9303 240.37 86.4003 244.12 87.9203 247.34C88.7103 249.07 89.9403 250.56 90.3003 252.51C90.8203 254.69 89.9303 257.24 87.8603 258.38L88.3903 257.81C87.2003 261.35 83.8003 275.23 87.3303 277.55C87.3303 277.56 87.4503 277.57 87.3003 277.56L88.3403 279.62C86.7703 282.04 85.1603 284.44 83.5203 286.81C82.6903 288.05 80.6403 290.82 80.0203 292.09C77.5503 297.93 77.9403 304.67 78.4203 310.92C79.5103 322.37 82.5003 333.6 85.7303 344.59L85.8103 344.87L85.7303 345.21C84.9903 348.31 84.4203 351.51 84.0003 354.67C83.6103 357.81 83.3403 361.06 83.8303 363.95C84.4303 366.82 86.0403 369.81 87.4403 372.48C89.0103 375.41 90.7503 378.3 92.5603 381.07C93.7503 390.71 94.7803 400.45 96.7003 409.97L97.0703 411.47C97.2303 411.92 97.3303 412.39 97.5703 412.78C98.1403 413.96 99.5803 415.05 100.65 415.91C104.51 418.7 108.82 420.88 113.18 422.92L113.07 423.2C108.95 421.84 104.92 420.25 101.13 418.11C98.9703 416.75 96.5503 415.43 95.4303 412.94C94.6703 411.17 94.1903 409.2 93.7503 407.34C91.8103 398.89 90.5803 390.39 89.4103 381.82L89.6703 382.51C87.8403 379.72 86.1803 376.9 84.6103 373.97C83.0803 370.86 81.5803 367.98 80.9003 364.45C80.4003 360.88 80.8103 357.56 81.2803 354.27C81.8103 350.99 82.5503 347.79 83.4503 344.59V345.21C80.7403 333.92 78.7903 322.52 77.4603 311C76.9503 304.48 75.9703 297.66 78.2203 291.3C78.8403 289.73 80.6803 286.98 81.5003 285.52C82.9903 283.05 84.5003 280.59 86.0603 278.16L87.1003 280.22C79.6503 278.78 84.5003 261.77 86.3403 256.98L86.5003 256.59L86.8703 256.41C89.0303 255.28 88.6703 252.36 87.6803 250.45C85.4303 246.29 84.8603 241.33 85.8803 236.76L86.1703 236.82L86.2203 236.83Z" fill="#9B6D2C"/>
<path d="M80.8904 200.85C76.8704 212.7 71.6404 224.64 70.5004 237.13C70.3504 238.73 70.5504 240.66 70.7804 242.28C71.3304 247.17 71.6804 252.04 71.8004 257.04V257.49C68.9404 259.44 66.1604 262.05 64.7204 265.26C63.2704 268.19 64.3804 272.13 64.6004 275.39L64.4604 274.98C69.1504 282.19 73.3004 290.08 72.9904 299.05C72.7104 303.41 71.9304 307.56 70.9904 311.7C70.0104 315.85 68.8304 319.86 67.3204 323.87L66.0104 325.14C65.4004 325.34 64.6904 326.19 64.5404 327.01C64.2904 328.12 64.5304 329.46 64.8204 330.6C65.5304 333.28 66.7804 335.99 68.4404 338.19C70.7104 340.64 73.8504 344.5 73.8004 348.68C73.8304 350.86 72.0904 352.29 71.0104 353.97C70.0204 355.48 69.1404 357.11 68.6604 358.85L68.2604 358.81C68.4804 355.91 69.7604 353.26 71.1904 350.79C73.1504 347.12 68.5204 342.77 66.0504 340.37C63.7104 337.79 62.2004 334.93 61.1204 331.69C59.6604 328.05 60.3304 322.75 64.6804 321.14L63.3704 322.41C65.8804 314.77 68.4204 306.76 69.3004 298.78C69.8104 290.98 66.7604 282.79 63.0204 275.91L62.8904 275.67V275.5C62.8704 273.27 62.7004 271.09 62.6704 268.86C62.6404 265.59 64.5504 262.59 66.6004 260.2C67.7904 258.82 69.0504 257.56 70.4904 256.39L70.1504 257.08C69.6304 252.33 68.5104 247.53 67.5904 242.77C67.0104 240.29 66.7904 237.58 67.0604 235.05C67.9604 227.56 70.6204 220.52 73.6404 213.69C75.6804 209.21 77.9204 204.83 80.5404 200.66L80.9004 200.84L80.8904 200.85Z" fill="#9B6D2C"/>
<path d="M314.08 155.91C316.87 165.42 318.83 175.15 319.86 185.01C320.19 189.51 320.9 194.21 318.93 198.52C316.61 203.66 313.62 208.43 310.74 213.19L310.42 212.14C313.47 213.95 317.19 216.9 316.41 220.89C315.43 224.45 313.7 227.53 311.54 230.5L311.58 229.33C318.44 238.31 323.16 250.07 320.23 261.48C318.61 268.92 312.59 276.4 304.1 274.29L305.84 270.72C309.7 273.94 314.78 278.35 313.78 284.02C313.56 285.3 313.28 286.49 312.58 287.68C311.91 288.85 311 289.48 310.24 290.34C308.93 291.96 306.82 292.79 305.1 293.49C302.27 294.53 299.41 295.33 296.47 295.92L296.36 295.54C299.08 294.39 301.8 293.23 304.33 291.82C305.86 290.93 307.35 290.17 308.25 288.81C308.82 287.97 309.76 287.14 310.09 286.33C310.53 285.36 310.71 283.92 310.73 282.67C310.19 279.04 306.37 276.2 303.51 274L296.47 268.96L305.25 270.43C306.86 270.73 308.67 270.44 310.11 269.65C313.43 267.85 315.17 264.01 316.24 260.39C319.21 250.15 315.09 238.61 309.66 229.79C312.05 227.2 314.25 224.03 315.21 220.61C315.9 217.26 312.4 214.81 309.77 213.49L309.08 213.16L309.45 212.44C312.15 207.13 314.45 201.65 316.33 196.06C317.01 192.68 316.55 188.8 316.4 185.3C316.1 180.98 315.48 175.04 315.06 170.69C314.58 165.8 314.07 160.91 313.72 155.97L314.11 155.9L314.08 155.91Z" fill="#9B6D2C"/>
<path d="M217.28 219.2C216.4 221.95 216.55 224.95 216.48 227.83C216.63 232.07 216.31 236.47 217.08 240.64C217.61 243.3 218.99 245.64 220.5 247.84C222.15 250.41 223.59 253.08 224.76 255.94C225.61 257.96 226.74 261.28 225.47 263.46C223.31 268.28 219.3 272.02 217.01 276.7C216.21 278.71 215.37 281.26 216.58 283.18L217.21 284.16C219.98 288.59 220.99 294.39 219.4 299.51C219.3 299.88 219.16 300.55 219.24 300.68C219.93 302.56 221.48 304.56 222.36 306.64C222.94 307.87 222.88 309.56 221.82 310.53L221.65 310.7L221.39 310.94C214.98 316.65 208.2 323.28 206.34 331.79C205.32 337.38 206.49 343.18 208.39 348.53L207.96 348.78C204.34 343.82 202.06 337.49 202.45 331.26C203.12 321.43 211.21 312.07 218.01 307.1C217.73 307.51 217.51 308.12 217.65 308.59C217.65 308.58 217.62 308.51 217.61 308.48C216.71 306.22 215.09 303.98 214.61 301.34C214.45 299.76 214.94 298.58 215.41 297.21C216.57 293.37 216.34 289.24 214.76 285.44L214.32 284.47C213.68 283.28 213.65 281.7 213.87 280.47C214.63 275.73 218.1 272.41 220.48 268.51C221.68 266.35 223.54 263.53 223.3 261.07C222.55 258.7 220.64 256.11 219.19 253.93C218.81 253.43 216.46 249.9 216.11 249.42C213.96 246.38 212.72 242.69 212.63 238.97C212.68 235.1 213.11 231.41 213.78 227.6C214.39 224.62 214.94 221.48 216.81 218.95L217.23 219.22L217.28 219.2Z" fill="#9B6D2C"/>
<path d="M260.66 397.88C258.2 404.15 248.24 408.14 236.81 407.03C225.38 405.92 216.5 400.16 215.2 393.59C211.72 392.41 209.63 391.51 209.63 391.51C208.31 405.03 216 416.85 235.67 418.76C254.02 420.55 265.16 410.56 266.48 397.04C266.48 397.04 264.21 397.45 260.66 397.89V397.88Z" fill="#2A1A09"/>
<path d="M236.81 407.03C248.24 408.14 258.2 404.15 260.66 397.88C254.91 398.59 245.82 399.36 237.63 398.56C228.6 397.68 220.36 395.33 215.19 393.58C216.49 400.15 225.45 405.92 236.8 407.02L236.81 407.03Z" fill="white"/>
<mask id="mask0_1011_12449" style="mask-type:luminance" maskUnits="userSpaceOnUse" x="112" y="362" width="251" height="52">
<path d="M336.54 381.17L287.07 376.36C277.22 375.4 268.04 379.46 262.04 386.44L216.28 381.99C211.75 373.98 203.52 368.23 193.67 367.27L144.2 362.46C128.13 360.9 113.84 372.65 112.28 388.72L112.25 389.02L219.89 399.49L219.92 399.19C220.22 396.11 220.03 393.09 219.41 390.21L257.37 393.9C256.21 396.6 255.44 399.53 255.14 402.61L255.11 402.91L362.75 413.38L362.78 413.08C364.34 397.01 352.59 382.72 336.52 381.16L336.54 381.17Z" fill="white"/>
</mask>
<g mask="url(#mask0_1011_12449)">
<path d="M178.57 173.3C175.98 183.87 174.35 194.68 174.57 205.55C175.12 216.45 176.28 227.36 176.81 238.26L172.43 239.03C172.45 239.09 172.39 238.93 172.39 238.95C172.68 239.44 173.72 239.59 174.19 239.24C174.22 239.22 174.23 239.21 174.23 239.21C174.18 239.25 173.98 239.5 173.82 239.78C171.32 244.55 170.04 250.1 168.67 255.34C166.71 263.42 165.81 271.97 166.91 280.24L164.7 276.51C164.33 275.89 163.64 275.25 163.14 275.23C159.1 275.76 157.26 289.32 156.68 292.95C156.18 296.86 155.81 300.79 155.95 304.69C156.12 308.17 156.35 311.82 158.05 314.88C158.13 315.01 158.31 315.23 158.28 315.18L158.11 315.04C165.43 320.26 172.6 328.23 171.94 337.82C171 346.7 167.51 355.08 163.79 363.09C161.21 367.81 159.44 373.08 159.14 378.46C158.87 382.01 159.42 385.49 160.44 388.88C161.21 391.71 162.56 396.6 163.18 399.46L163.26 399.86L163.3 400.08L163.35 400.43L161.83 403.03C161.83 403.03 161.94 402.98 161.91 402.99C161.3 403.31 161.49 404 161.72 404.67C163.21 407.73 164.85 411.32 164.49 414.9C163.12 417.64 161.88 420.57 160.86 423.5C159.91 426.31 159.07 429.19 158.81 432.02C158.68 433.89 158.7 435.63 159.63 437.13C161.99 440.43 165.42 443.3 169.39 444.26L169.07 445.09C168.32 447.3 167.21 450.05 168.85 452.1C169.33 452.78 169.95 453.41 170.61 453.92L170.34 454.34C169.54 453.87 168.83 453.31 168.19 452.63C166.71 451.25 166.59 449.1 166.9 447.24C167.02 446.32 167.2 445.45 167.45 444.53L168.11 445.65C163.51 444.72 159.74 441.87 156.95 438.27C153.12 431.56 157.67 420.02 160.3 413.36L160.09 414.13C160.03 413.16 159.83 412.24 159.52 411.3C158.41 407.91 155.09 404.5 157.36 400.68C157.97 399.67 158.8 398.89 159.87 398.4L158.35 401C158.21 400.42 157.9 399.13 157.73 398.55C157.31 396.89 155.86 392.07 155.36 390.34C152.42 381.76 153.57 371.99 157.56 363.95C161.57 356.36 165.3 348.44 167.14 340.04C167.79 337.34 167.86 334.53 167.1 331.84C165.28 326.05 161.1 321.14 156.46 317.32C156.06 317.02 155.83 316.53 155.66 316.27C153.87 312.71 153.8 308.55 153.86 304.69C154 300.64 154.44 296.66 155.08 292.71C155.97 288.29 157.63 273.31 163.25 273.4C164.67 273.53 165.59 274.41 166.35 275.5L164.54 276.14C163.28 265.37 164.6 254.54 167.44 244.14C168.1 241.95 168.77 239.6 169.98 237.49C170.56 236.64 171.21 235.51 172.58 235.1C174.53 234.49 176.27 236.05 176.7 237.81L172.32 238.58C171.8 230.35 171.41 222.11 171.08 213.87C170.55 205.57 171.25 197.01 173.1 188.95C174.34 183.54 175.9 178.22 178.06 173.12L178.53 173.29L178.57 173.3Z" fill="#9B6D2C"/>
<path d="M377.861 226.01C377.911 229.76 376.971 233.52 375.031 236.76C374.661 237.48 373.881 238.38 373.411 239.05C372.021 240.75 371.141 243.6 373.061 245.17L373.371 245.41C373.791 247.52 374.001 249.57 374.101 251.65C374.121 256.14 374.891 268.2 368.301 268.42L369.711 266.61C370.811 269.28 371.841 271.97 372.911 274.65C373.541 276.32 374.761 279.25 375.141 280.95C376.181 287.67 373.981 294.26 372.031 300.55C368.281 311.54 363.751 322.15 358.931 332.69L358.991 332.21C360.301 337.52 361.411 342.85 362.281 348.25C363.631 357.71 364.751 367.67 362.211 377.07L361.261 381.04C360.011 386.33 358.661 391.6 357.341 396.87L356.381 394.98C359.191 396.24 361.731 398.56 362.101 401.75C362.281 404.66 361.511 407.76 359.111 409.59C358.881 409.73 358.781 409.83 358.351 410L358.891 409.65C357.721 410.84 356.571 412.25 355.761 413.66C355.261 414.63 354.771 415.55 355.001 416.49C355.441 417.37 356.461 417.73 357.491 418.2C358.791 418.7 360.381 419.62 360.581 421.27C360.601 421.58 360.631 421.91 360.611 422.2L360.491 423.02C359.721 426.05 357.931 428.66 356.421 431.29C353.601 436.02 350.641 440.66 347.471 445.16L347.221 445C349.811 440.45 352.561 435.18 355.011 430.5C356.211 428.11 357.581 425.74 358.261 423.21C358.491 422.42 358.491 421.63 358.281 421.34C358.121 421.04 357.471 420.71 356.601 420.4C355.201 419.86 353.271 419.08 352.621 417.38C351.951 415.67 352.661 413.76 353.391 412.36C354.351 410.57 355.511 409.08 356.851 407.62L357.391 407.27C358.631 406.35 359.251 403.69 359.071 402.12C358.761 399.65 356.061 398.17 353.931 397.41C355.361 391.7 356.761 385.97 358.261 380.28L359.291 376.34C361.891 367.31 360.991 357.81 360.071 348.54C359.481 343.18 358.701 337.81 357.641 332.52L357.591 332.25L357.701 332.04C363.871 320.4 376.081 293.22 372.461 280.57C370.801 276.38 368.861 271.77 367.251 267.57L368.661 265.76C368.511 265.75 368.631 265.76 368.641 265.75C372.601 264.23 371.981 249.94 371.491 246.15L371.871 246.76C371.341 246.31 371.051 245.9 370.761 245.39C369.051 242.45 371.081 239.16 373.121 237.05C374.591 235.38 375.651 233.41 376.391 231.29C376.981 229.59 377.401 227.8 377.581 226H377.881L377.861 226.01Z" fill="#9B6D2C"/>
</g>
<path d="M217.37 345.04C216.99 345 216.64 345.19 216.45 345.52C209.57 357.5 196.98 365.3 175.19 366.96C174.25 367.03 173.34 367.07 172.43 367.11C146.94 368.13 134.49 355.29 129.11 337.06C129 336.68 128.67 336.41 128.28 336.37C127.63 336.31 127.1 336.9 127.24 337.53C131.74 358.46 144.02 373.89 171.87 372.77C172.78 372.73 173.69 372.7 174.63 372.62C199.21 370.74 212.1 361.06 218.27 346.37C218.52 345.77 218.11 345.1 217.47 345.04H217.37Z" fill="#2B1907"/>
<path d="M297.84 399.1C261.69 390.97 259.65 361.7 267.4 331.62C275.34 300.8 303.06 281.3 329.31 288.07C333.22 289.08 336.88 290.63 340.25 292.61" fill="white"/>
<path d="M339.85 292.46C328.92 289.83 317.2 292.76 306.89 299.87C305.05 301.11 298.75 306.24 296.24 309.31C290.56 315.64 285.76 323.43 282.42 332.35C272.26 359.49 279.06 387.66 297.44 398.95C298.33 399.15 299.21 399.35 300.14 399.52C339.13 406.81 354.11 386.79 362.05 355.97C368.81 329.75 359.07 303.79 339.85 292.46Z" fill="#2B1907"/>
<mask id="mask1_1011_12449" style="mask-type:luminance" maskUnits="userSpaceOnUse" x="263" y="286" width="102" height="116">
<path d="M340.22 292.69L340.25 292.61C336.88 290.62 333.23 289.08 329.31 288.07C303.06 281.3 275.34 300.8 267.4 331.62C259.65 361.7 261.69 390.97 297.84 399.1L297.86 399.04C298.61 399.21 299.36 399.37 300.14 399.52C339.13 406.81 354.11 386.79 362.05 355.97C368.76 329.92 359.19 304.14 340.22 292.69Z" fill="white"/>
</mask>
<g mask="url(#mask1_1011_12449)">
<path d="M319.915 315.371C321.849 310.204 317.002 303.614 309.088 300.652C301.174 297.69 293.191 299.478 291.257 304.645C289.323 309.812 294.17 316.402 302.084 319.364C309.998 322.326 317.981 320.539 319.915 315.371Z" fill="white"/>
</g>
</g>
<defs>
<clipPath id="clip0_1011_12449">
<rect width="479.23" height="558.57" fill="white"/>
</clipPath>
</defs>
</svg>
