<svg width="440" height="956" viewBox="0 0 440 956" fill="none" xmlns="http://www.w3.org/2000/svg">
<g clip-path="url(#clip0_1707_19056)">
<rect width="440" height="956" fill="#FFF5E7"/>
<path d="M309.014 312.464C346.429 312.509 384.37 312.113 420.123 303.167C426.867 301.436 433.477 299.304 440 296.954V-9.15527e-05H0V304.605C0.0605702 304.584 0.120903 304.562 0.181489 304.54C6.41556 302.329 12.7929 300.41 19.2702 298.768C99.8006 279.265 183.49 298.38 263.044 308.776C278.364 310.721 293.82 312.334 309.014 312.464Z" fill="#735433"/>
<rect x="254.766" y="746.195" width="110" height="36" rx="18" fill="#735433"/>
<path d="M282.328 770.355C281.464 770.355 280.626 770.233 279.816 769.987C279.016 769.742 278.381 769.417 277.912 769.011L278.632 767.395C279.09 767.758 279.65 768.057 280.312 768.291C280.984 768.515 281.656 768.627 282.328 768.627C283.16 768.627 283.778 768.494 284.184 768.227C284.6 767.961 284.808 767.609 284.808 767.171C284.808 766.851 284.69 766.59 284.456 766.387C284.232 766.174 283.944 766.009 283.592 765.891C283.24 765.774 282.76 765.641 282.152 765.491C281.298 765.289 280.605 765.086 280.072 764.883C279.549 764.681 279.096 764.366 278.712 763.939C278.338 763.502 278.152 762.915 278.152 762.179C278.152 761.561 278.317 761.001 278.648 760.499C278.989 759.987 279.496 759.582 280.168 759.283C280.85 758.985 281.682 758.835 282.664 758.835C283.346 758.835 284.018 758.921 284.68 759.091C285.341 759.262 285.912 759.507 286.392 759.827L285.736 761.443C285.245 761.155 284.733 760.937 284.2 760.787C283.666 760.638 283.149 760.563 282.648 760.563C281.826 760.563 281.213 760.702 280.808 760.979C280.413 761.257 280.216 761.625 280.216 762.083C280.216 762.403 280.328 762.665 280.552 762.867C280.786 763.07 281.08 763.23 281.432 763.347C281.784 763.465 282.264 763.598 282.872 763.747C283.704 763.939 284.386 764.142 284.92 764.355C285.453 764.558 285.906 764.873 286.28 765.299C286.664 765.726 286.856 766.302 286.856 767.027C286.856 767.646 286.685 768.206 286.344 768.707C286.013 769.209 285.506 769.609 284.824 769.907C284.141 770.206 283.309 770.355 282.328 770.355ZM288.726 761.651H290.726V770.195H288.726V761.651ZM289.734 760.243C289.371 760.243 289.067 760.131 288.822 759.907C288.577 759.673 288.454 759.385 288.454 759.043C288.454 758.702 288.577 758.419 288.822 758.195C289.067 757.961 289.371 757.843 289.734 757.843C290.097 757.843 290.401 757.955 290.646 758.179C290.891 758.393 291.014 758.665 291.014 758.995C291.014 759.347 290.891 759.646 290.646 759.891C290.411 760.126 290.107 760.243 289.734 760.243ZM301.831 761.651V768.899C301.831 771.907 300.295 773.411 297.223 773.411C296.402 773.411 295.623 773.305 294.887 773.091C294.151 772.889 293.543 772.59 293.063 772.195L293.959 770.691C294.332 771.001 294.802 771.246 295.367 771.427C295.943 771.619 296.524 771.715 297.111 771.715C298.05 771.715 298.738 771.502 299.175 771.075C299.612 770.649 299.831 769.998 299.831 769.123V768.675C299.49 769.049 299.074 769.331 298.583 769.523C298.092 769.715 297.554 769.811 296.967 769.811C296.156 769.811 295.42 769.641 294.759 769.299C294.108 768.947 293.591 768.457 293.207 767.827C292.834 767.198 292.647 766.478 292.647 765.667C292.647 764.857 292.834 764.142 293.207 763.523C293.591 762.894 294.108 762.409 294.759 762.067C295.42 761.726 296.156 761.555 296.967 761.555C297.586 761.555 298.146 761.657 298.647 761.859C299.159 762.062 299.586 762.371 299.927 762.787V761.651H301.831ZM297.271 768.115C298.028 768.115 298.647 767.891 299.127 767.443C299.618 766.985 299.863 766.393 299.863 765.667C299.863 764.953 299.618 764.371 299.127 763.923C298.647 763.475 298.028 763.251 297.271 763.251C296.503 763.251 295.874 763.475 295.383 763.923C294.903 764.371 294.663 764.953 294.663 765.667C294.663 766.393 294.903 766.985 295.383 767.443C295.874 767.891 296.503 768.115 297.271 768.115ZM309.308 761.555C310.386 761.555 311.25 761.87 311.9 762.499C312.551 763.129 312.876 764.062 312.876 765.299V770.195H310.876V765.555C310.876 764.809 310.7 764.249 310.348 763.875C309.996 763.491 309.495 763.299 308.844 763.299C308.108 763.299 307.527 763.523 307.1 763.971C306.674 764.409 306.46 765.043 306.46 765.875V770.195H304.46V761.651H306.364V762.755C306.695 762.361 307.111 762.062 307.612 761.859C308.114 761.657 308.679 761.555 309.308 761.555ZM329.707 758.995V770.195H327.707V768.771C326.95 769.827 325.777 770.355 324.187 770.355C322.865 770.355 321.825 769.945 321.067 769.123C320.31 768.291 319.931 767.118 319.931 765.603V758.995H322.011V765.523C322.011 766.515 322.246 767.267 322.715 767.779C323.195 768.281 323.851 768.531 324.683 768.531C325.579 768.531 326.294 768.265 326.827 767.731C327.361 767.187 327.627 766.382 327.627 765.315V758.995H329.707ZM337.259 761.555C338.091 761.555 338.832 761.737 339.483 762.099C340.144 762.462 340.662 762.974 341.035 763.635C341.408 764.297 341.595 765.059 341.595 765.923C341.595 766.787 341.408 767.555 341.035 768.227C340.662 768.889 340.144 769.401 339.483 769.763C338.832 770.126 338.091 770.307 337.259 770.307C336.107 770.307 335.195 769.923 334.523 769.155V773.299H332.523V761.651H334.427V762.771C334.758 762.366 335.163 762.062 335.643 761.859C336.134 761.657 336.672 761.555 337.259 761.555ZM337.035 768.595C337.771 768.595 338.374 768.35 338.843 767.859C339.323 767.369 339.563 766.723 339.563 765.923C339.563 765.123 339.323 764.478 338.843 763.987C338.374 763.497 337.771 763.251 337.035 763.251C336.555 763.251 336.123 763.363 335.739 763.587C335.355 763.801 335.051 764.11 334.827 764.515C334.603 764.921 334.491 765.39 334.491 765.923C334.491 766.457 334.603 766.926 334.827 767.331C335.051 767.737 335.355 768.051 335.739 768.275C336.123 768.489 336.555 768.595 337.035 768.595Z" fill="#FFF5E7"/>
<rect x="70.1973" y="746.59" width="110" height="36" rx="18" fill="#735433"/>
<path d="M99.8028 759.39H101.883V768.83H107.739V770.59H99.8028V759.39ZM112.951 770.702C112.087 770.702 111.308 770.515 110.615 770.142C109.921 769.769 109.377 769.251 108.983 768.59C108.599 767.918 108.407 767.161 108.407 766.318C108.407 765.475 108.599 764.723 108.983 764.062C109.377 763.401 109.921 762.883 110.615 762.51C111.308 762.137 112.087 761.95 112.951 761.95C113.825 761.95 114.609 762.137 115.303 762.51C115.996 762.883 116.535 763.401 116.919 764.062C117.313 764.723 117.511 765.475 117.511 766.318C117.511 767.161 117.313 767.918 116.919 768.59C116.535 769.251 115.996 769.769 115.303 770.142C114.609 770.515 113.825 770.702 112.951 770.702ZM112.951 768.99C113.687 768.99 114.295 768.745 114.775 768.254C115.255 767.763 115.495 767.118 115.495 766.318C115.495 765.518 115.255 764.873 114.775 764.382C114.295 763.891 113.687 763.646 112.951 763.646C112.215 763.646 111.607 763.891 111.127 764.382C110.657 764.873 110.423 765.518 110.423 766.318C110.423 767.118 110.657 767.763 111.127 768.254C111.607 768.745 112.215 768.99 112.951 768.99ZM127.903 762.046V769.294C127.903 772.302 126.367 773.806 123.295 773.806C122.474 773.806 121.695 773.699 120.959 773.486C120.223 773.283 119.615 772.985 119.135 772.59L120.031 771.086C120.405 771.395 120.874 771.641 121.439 771.822C122.015 772.014 122.597 772.11 123.183 772.11C124.122 772.11 124.81 771.897 125.247 771.47C125.685 771.043 125.903 770.393 125.903 769.518V769.07C125.562 769.443 125.146 769.726 124.655 769.918C124.165 770.11 123.626 770.206 123.039 770.206C122.229 770.206 121.493 770.035 120.831 769.694C120.181 769.342 119.663 768.851 119.279 768.222C118.906 767.593 118.719 766.873 118.719 766.062C118.719 765.251 118.906 764.537 119.279 763.918C119.663 763.289 120.181 762.803 120.831 762.462C121.493 762.121 122.229 761.95 123.039 761.95C123.658 761.95 124.218 762.051 124.719 762.254C125.231 762.457 125.658 762.766 125.999 763.182V762.046H127.903ZM123.343 768.51C124.101 768.51 124.719 768.286 125.199 767.838C125.69 767.379 125.935 766.787 125.935 766.062C125.935 765.347 125.69 764.766 125.199 764.318C124.719 763.87 124.101 763.646 123.343 763.646C122.575 763.646 121.946 763.87 121.455 764.318C120.975 764.766 120.735 765.347 120.735 766.062C120.735 766.787 120.975 767.379 121.455 767.838C121.946 768.286 122.575 768.51 123.343 768.51ZM138.427 761.134V768.846H140.491V770.59H134.299V768.846H136.363V761.134H134.299V759.39H140.491V761.134H138.427ZM147.303 761.95C148.38 761.95 149.244 762.265 149.895 762.894C150.545 763.523 150.871 764.457 150.871 765.694V770.59H148.871V765.95C148.871 765.203 148.695 764.643 148.343 764.27C147.991 763.886 147.489 763.694 146.839 763.694C146.103 763.694 145.521 763.918 145.095 764.366C144.668 764.803 144.455 765.438 144.455 766.27V770.59H142.455V762.046H144.359V763.15C144.689 762.755 145.105 762.457 145.607 762.254C146.108 762.051 146.673 761.95 147.303 761.95Z" fill="#FFF5E7"/>
<path d="M90.3484 173.703C88.6984 169.703 88.1984 167.753 85.6484 167.053V165.053H100.348V167.053C97.4484 167.453 97.3484 169.403 98.2484 171.553L103.548 184.203C103.898 185.053 104.198 185.053 104.548 184.203L106.498 179.053C107.598 176.303 109.198 174.553 107.848 171.353C106.848 169.053 106.148 167.653 104.098 167.053V165.053H118.798V167.053C115.898 167.453 115.798 169.403 116.698 171.553L122.048 184.203C122.398 185.053 122.698 185.053 123.048 184.203L127.748 171.903C128.798 169.253 127.698 167.553 124.248 167.053V165.053H136.598V167.053C133.448 167.653 132.298 169.753 131.148 172.553L124.198 190.303C123.198 192.953 122.698 195.153 122.698 196.103H118.398L110.598 177.903L105.748 190.303C104.698 192.953 104.198 195.153 104.198 196.103H99.8984L90.3484 173.703ZM146.548 196.403C140.298 196.403 134.098 192.803 134.098 184.953C134.098 176.753 140.798 173.103 146.998 173.103C152.298 173.103 156.598 175.753 156.598 180.153C156.598 184.653 152.248 184.903 147.848 185.253L143.948 185.553C143.098 185.603 142.648 186.003 142.648 187.153C142.648 190.853 146.648 192.503 149.948 192.503C151.698 192.503 154.098 192.003 155.898 189.953L157.398 191.303C156.448 193.253 152.398 196.403 146.548 196.403ZM142.298 181.453C142.298 182.903 142.648 183.653 143.948 183.603L145.748 183.403C149.198 183.053 149.898 182.153 149.898 180.203C149.898 177.803 148.898 175.403 146.298 175.403C143.048 175.403 142.298 179.053 142.298 181.453ZM168.066 196.403C164.916 196.403 162.566 194.603 162.566 190.903V169.353C162.566 167.003 161.266 166.603 159.416 166.753V164.803L167.566 163.453C169.266 163.203 170.066 163.953 170.066 165.453V191.003C170.066 192.653 170.716 193.753 172.166 193.153V194.253C171.466 195.953 169.666 196.403 168.066 196.403ZM187.512 196.403C181.462 196.403 175.162 192.653 175.162 184.903C175.162 176.753 181.862 173.103 187.962 173.103C193.612 173.103 197.662 176.303 197.662 179.903C197.662 181.553 196.862 183.353 194.312 183.353C191.562 183.353 190.912 181.253 190.662 179.953C190.412 178.153 190.712 175.403 187.612 175.403C184.312 175.403 183.212 178.503 183.212 182.053C183.212 188.253 186.512 192.453 191.412 192.453C192.712 192.453 194.562 192.103 196.212 189.903L197.662 190.953C196.812 193.153 193.162 196.403 187.512 196.403ZM214.515 196.403C208.365 196.403 202.115 192.703 202.115 184.603C202.115 176.553 208.365 173.103 214.365 173.103C220.565 173.103 226.765 176.803 226.765 184.903C226.765 192.953 220.565 196.403 214.515 196.403ZM210.115 182.403C210.115 188.603 212.165 194.103 215.365 194.103C217.315 194.103 218.765 192.153 218.765 187.003C218.765 180.853 216.815 175.353 213.515 175.353C211.515 175.353 210.115 177.353 210.115 182.403ZM267.614 196.403C264.464 196.403 262.114 194.603 262.114 190.903V182.803C262.114 179.753 260.864 177.353 258.464 177.353C255.864 177.353 254.664 179.753 254.664 182.803V190.553C254.664 193.253 255.514 194.003 257.914 194.153V196.103H244.164V194.153C246.314 194.003 247.164 193.253 247.164 190.553V182.803C247.164 179.753 245.864 177.353 243.464 177.353C240.914 177.353 239.664 179.753 239.664 182.803V190.553C239.664 193.253 240.514 194.003 242.564 194.153V196.103H228.964V194.153C231.314 194.003 232.164 193.253 232.164 190.553V179.053C232.164 176.703 230.864 176.303 229.014 176.453V174.553L237.164 173.203C238.864 172.953 239.664 173.703 239.664 174.803C239.664 176.503 240.714 176.653 241.414 176.003C242.814 174.503 244.864 172.903 248.114 172.903C249.814 172.903 252.364 173.253 253.814 175.553C254.464 176.503 255.114 176.653 255.764 176.053C258.014 173.453 260.164 172.903 262.564 172.903C265.864 172.903 269.614 174.353 269.614 182.203V191.003C269.614 192.653 270.264 193.753 271.714 193.153V194.253C271.064 195.953 269.214 196.403 267.614 196.403ZM286.684 196.403C280.434 196.403 274.234 192.803 274.234 184.953C274.234 176.753 280.934 173.103 287.134 173.103C292.434 173.103 296.734 175.753 296.734 180.153C296.734 184.653 292.384 184.903 287.984 185.253L284.084 185.553C283.234 185.603 282.784 186.003 282.784 187.153C282.784 190.853 286.784 192.503 290.084 192.503C291.834 192.503 294.234 192.003 296.034 189.953L297.534 191.303C296.584 193.253 292.534 196.403 286.684 196.403ZM282.434 181.453C282.434 182.903 282.784 183.653 284.084 183.603L285.884 183.403C289.334 183.053 290.034 182.153 290.034 180.203C290.034 177.803 289.034 175.403 286.434 175.403C283.184 175.403 282.434 179.053 282.434 181.453ZM320.475 196.353C315.875 196.353 313.075 193.803 313.075 188.953V178.003C313.075 176.253 312.675 175.903 311.525 175.903H309.275V174.303C313.425 173.353 315.425 171.453 317.125 168.703C317.525 168.053 317.875 167.853 318.525 167.853H319.425C320.175 167.853 320.625 168.303 320.625 169.053L320.575 172.153C320.575 173.253 321.125 173.553 323.675 173.553H326.925V176.203L323.675 176.003C321.125 175.853 320.575 176.303 320.575 178.103V188.703C320.575 191.453 320.875 193.303 323.325 193.303C323.975 193.303 324.975 193.203 325.925 192.503C326.575 193.303 326.825 194.003 326.175 194.603C325.025 195.603 322.975 196.353 320.475 196.353ZM341.615 196.403C335.465 196.403 329.215 192.703 329.215 184.603C329.215 176.553 335.465 173.103 341.465 173.103C347.665 173.103 353.865 176.803 353.865 184.903C353.865 192.953 347.665 196.403 341.615 196.403ZM337.215 182.403C337.215 188.603 339.265 194.103 342.465 194.103C344.415 194.103 345.865 192.153 345.865 187.003C345.865 180.853 343.915 175.353 340.615 175.353C338.615 175.353 337.215 177.353 337.215 182.403ZM133.317 225.703C131.667 221.703 131.167 219.753 128.617 219.053V217.053H143.317V219.053C140.417 219.453 140.317 221.403 141.217 223.553L146.517 236.203C146.867 237.053 147.167 237.053 147.517 236.203L149.467 231.053C150.567 228.303 152.167 226.553 150.817 223.353C149.817 221.053 149.117 219.653 147.067 219.053V217.053H161.767V219.053C158.867 219.453 158.767 221.403 159.667 223.553L165.017 236.203C165.367 237.053 165.667 237.053 166.017 236.203L170.717 223.903C171.767 221.253 170.667 219.553 167.217 219.053V217.053H179.567V219.053C176.417 219.653 175.267 221.753 174.117 224.553L167.167 242.303C166.167 244.953 165.667 247.153 165.667 248.103H161.367L153.567 229.903L148.717 242.303C147.667 244.953 147.167 247.153 147.167 248.103H142.867L133.317 225.703ZM189.516 248.403C183.266 248.403 177.066 244.803 177.066 236.953C177.066 228.753 183.766 225.103 189.966 225.103C195.266 225.103 199.566 227.753 199.566 232.153C199.566 236.653 195.216 236.903 190.816 237.253L186.916 237.553C186.066 237.603 185.616 238.003 185.616 239.153C185.616 242.853 189.616 244.503 192.916 244.503C194.666 244.503 197.066 244.003 198.866 241.953L200.366 243.303C199.416 245.253 195.366 248.403 189.516 248.403ZM185.266 233.453C185.266 234.903 185.616 235.653 186.916 235.603L188.716 235.403C192.166 235.053 192.866 234.153 192.866 232.203C192.866 229.803 191.866 227.403 189.266 227.403C186.016 227.403 185.266 231.053 185.266 233.453ZM211.035 248.403C207.885 248.403 205.535 246.603 205.535 242.903V221.353C205.535 219.003 204.235 218.603 202.385 218.753V216.803L210.535 215.453C212.235 215.203 213.035 215.953 213.035 217.453V243.003C213.035 244.653 213.685 245.753 215.135 245.153V246.253C214.435 247.953 212.635 248.403 211.035 248.403ZM226.025 248.403C222.875 248.403 220.525 246.603 220.525 242.903V221.353C220.525 219.003 219.225 218.603 217.375 218.753V216.803L225.525 215.453C227.225 215.203 228.025 215.953 228.025 217.453V243.003C228.025 244.653 228.675 245.753 230.125 245.153V246.253C229.425 247.953 227.625 248.403 226.025 248.403ZM257.565 248.403C254.365 248.403 252.065 246.603 252.065 242.903V234.803C252.065 231.853 250.565 229.353 247.915 229.353C245.215 229.353 243.765 231.853 243.765 234.803V242.553C243.765 245.253 244.615 246.003 246.865 246.153V248.103H233.065V246.153C235.415 246.003 236.265 245.253 236.265 242.553V231.103C236.265 228.753 234.965 228.353 233.115 228.503V226.553L241.265 225.203C242.965 224.953 243.765 225.703 243.765 226.803C243.765 228.453 244.815 228.803 245.465 228.003C246.765 226.353 248.565 224.903 252.215 224.903C255.715 224.903 259.565 226.353 259.565 233.653V243.003C259.565 244.653 260.215 245.703 261.665 245.153V246.253C260.965 247.953 259.165 248.403 257.565 248.403ZM273.595 248.403C270.095 248.403 266.295 246.953 266.295 239.103V231.153C266.295 228.853 264.995 228.453 263.145 228.503V226.553L271.295 225.203C272.995 224.953 273.795 225.703 273.795 227.203V237.903C273.795 241.403 275.245 243.903 277.945 243.903C280.695 243.903 282.095 241.403 282.095 237.903V231.153C282.095 228.853 280.795 228.453 278.945 228.503V226.553L287.045 225.203C288.795 224.953 289.595 225.703 289.595 227.203V243.003C289.595 244.653 290.245 245.753 291.695 245.153V246.253C290.995 247.953 289.195 248.403 287.495 248.403C283.895 248.403 282.895 246.153 282.645 245.053C282.495 244.353 282.095 244.003 281.745 244.003C281.395 244.003 281.145 244.303 280.895 244.653C279.495 246.553 277.545 248.403 273.595 248.403ZM304.411 248.353C299.811 248.353 297.011 245.803 297.011 240.953V230.003C297.011 228.253 296.611 227.903 295.461 227.903H293.211V226.303C297.361 225.353 299.361 223.453 301.061 220.703C301.461 220.053 301.811 219.853 302.461 219.853H303.361C304.111 219.853 304.561 220.303 304.561 221.053L304.511 224.153C304.511 225.253 305.061 225.553 307.611 225.553H310.861V228.203L307.611 228.003C305.061 227.853 304.511 228.303 304.511 230.103V240.703C304.511 243.453 304.811 245.303 307.261 245.303C307.911 245.303 308.911 245.203 309.861 244.503C310.511 245.303 310.761 246.003 310.111 246.603C308.961 247.603 306.911 248.353 304.411 248.353Z" fill="#FFF5E7"/>
<path d="M220 675C312.784 675 388 643.876 388 605.483C388 567.09 312.784 535.966 220 535.966C127.216 535.966 52 567.09 52 605.483C52 643.876 127.216 675 220 675Z" fill="#5D8E57"/>
<path d="M224.065 628.364C283.213 628.364 331.163 613.879 331.163 596.005H116.967C116.967 613.873 164.917 628.364 224.065 628.364Z" fill="url(#paint0_linear_1707_19056)"/>
<path d="M98.0708 635.333C110.066 635.333 119.784 627.87 119.784 618.66H76.3516C76.3516 627.87 86.0759 635.333 98.0648 635.333H98.0708Z" fill="url(#paint1_linear_1707_19056)"/>
<path d="M111.499 629.612L139.549 563.503L129.064 559.049L102.066 622.685C107.624 624.647 111.595 629.392 111.505 629.606L111.499 629.612Z" fill="#2A1A09"/>
<path d="M111.666 628.738C111.809 625.396 107.612 622.399 101.811 621.359C100.759 621.169 99.6534 621.044 98.5122 620.996C91.0763 620.675 84.9065 623.613 84.7341 627.567C84.639 629.761 86.4162 631.806 89.2872 633.245C91.5875 634.399 94.5832 635.16 97.8881 635.303C104.581 635.594 110.24 633.239 111.434 629.886C111.488 629.737 111.529 629.588 111.565 629.44C111.619 629.208 111.654 628.97 111.66 628.732L111.666 628.738Z" fill="#2A1A09"/>
<path d="M233.85 622.37V622.382H204.309V633.775H233.089H238.516V622.382V622.37H233.85Z" fill="#2A1A09"/>
<path d="M342.116 573.509L331.056 589.923L324.718 557.354L313.533 559.533L321.674 601.364C321.914 602.595 322.632 603.673 323.671 604.373L327.581 607.01C329.742 608.467 332.676 607.896 334.133 605.734L351.56 579.872L342.115 573.503L342.116 573.509Z" fill="#2A1A09"/>
<path d="M355.363 572.977C357.331 565.798 355.836 559.13 352.024 558.084C348.213 557.039 343.527 562.011 341.559 569.191C339.591 576.371 341.086 583.039 344.898 584.085C348.71 585.13 353.395 580.157 355.363 572.977Z" fill="#2A1A09"/>
<path d="M341.696 575.759C342.78 575.386 343.103 573.468 342.418 571.474C341.733 569.48 340.299 568.166 339.216 568.538C338.132 568.911 337.809 570.829 338.494 572.823C339.179 574.817 340.613 576.131 341.696 575.759Z" fill="#2A1A09"/>
<path d="M342.118 516.153L338.486 441.219C337.583 422.595 324.613 390.712 324.565 390.712C324.476 390.712 324.12 390.694 323.81 390.712C323.567 390.73 323.662 389.101 323.501 389.184L277.792 420.942L233.611 409.573C232.85 409.377 232.036 409.633 231.525 410.227L202.922 443.49C202.459 444.032 201.757 444.293 201.056 444.192L173.179 440.446C171.217 440.167 168.703 438.573 167.389 437.092C167.389 437.086 167.377 437.08 167.371 437.074L152.672 426.966L152.85 426.478L151.133 426.026C150.396 425.842 149.587 426.175 149.236 426.912L133.77 459.682L127.583 459.581L120.414 455.068L120.587 454.437C120.587 454.437 119.38 454.318 119.023 454.307C118.56 454.295 118.096 454.485 117.728 454.812L112.55 459.331L101.114 457.5C99.8897 457.482 99.4201 460.342 99.6817 461.543L100.33 464.528L100.163 464.374C99.7173 464.005 99.3785 463.523 99.1824 462.976L98.9089 462.215C98.5999 461.341 99.2359 515.493 99.2359 515.493C96.2342 577.381 169.856 607.362 202.625 622.965L210.62 623.583L228.315 622.965H233.736C295.666 622.965 345.131 578.029 342.136 516.147L342.118 516.153Z" fill="#966A2A"/>
<path d="M337.815 501.769L333.131 438.514C331.871 421.472 326.741 405.56 318.633 391.574C318.17 390.771 318.354 389.778 319.049 389.172C319.281 388.97 319.489 388.738 319.668 388.488C322.336 384.754 318.057 377.125 310.116 371.446C306.864 369.121 303.506 367.486 300.486 366.624C299.785 366.422 299.321 365.774 299.357 365.042C299.535 361.593 297.312 357.514 293.348 354.678C289.526 351.949 285.139 351.122 281.953 352.216C281.216 352.472 280.402 352.335 279.736 351.931C278.44 351.14 277.121 350.373 275.789 349.63C275.623 349.534 275.439 349.457 275.26 349.392C273.168 348.678 272.907 348.869 271.646 349.814C266.648 353.655 259.657 354.422 253.767 351.205C253.315 350.962 252.881 350.694 252.459 350.415C250.753 349.267 248.495 349.427 246.866 350.682C242.777 353.828 239.638 358.24 238.14 363.461C237.677 365.072 236.827 366.564 235.638 367.742C233.468 369.888 232.024 373.688 232.024 378.017C232.024 381.596 233.011 384.813 234.58 387.037C235.555 388.417 235.787 390.207 235.073 391.735C234.075 393.869 233.492 396.498 233.492 399.34C233.492 404.537 235.454 409.02 238.295 411.096L238.39 414.592C238.717 422.792 232.161 429.618 223.958 429.618H219.227C211.024 429.618 204.468 422.792 204.795 414.592V414.515C204.824 413.587 204.26 412.731 203.38 412.439C201.793 411.91 199.029 410.108 197.953 409.324C197.745 409.175 197.751 408.866 197.965 408.729C200.997 406.779 202.988 399.75 202.601 391.485C202.393 387.055 201.537 383.047 200.295 380.021C199.956 379.2 200.016 378.255 200.521 377.523C201.448 376.168 202.554 374.984 203.79 373.997C205.163 372.903 205.989 371.268 206.037 369.508C206.554 350.932 187.236 338.457 170.48 346.472C162.492 350.296 155.02 355.017 148.208 360.511C147.59 361.005 147.323 361.807 147.471 362.58C147.495 362.699 147.513 362.812 147.537 362.931C147.727 364.043 146.942 365.149 145.854 365.447C143.114 366.196 140.16 368.652 138.109 372.207C134.947 377.69 136.421 382.358 138.484 385.664C138.858 386.264 129.592 392.537 123.624 392.014C122.245 391.895 120.931 392.609 120.266 393.822C117.371 399.09 114.892 404.614 112.883 410.358C109.763 419.272 107.754 428.714 107.023 438.525L102.339 501.781C100.865 521.719 104.817 540.741 112.919 557.509C128.902 590.576 161.041 614.872 199.623 620.128C203.885 620.711 207.678 617.381 207.678 613.076V610.276C207.678 605.756 211.339 602.094 215.856 602.094H224.267C228.785 602.094 232.446 605.756 232.446 610.276V613.076C232.446 617.381 236.238 620.711 240.5 620.128C279.088 614.872 311.227 590.576 327.205 557.509C335.306 540.741 339.259 521.719 337.785 501.781L337.815 501.769Z" fill="#E8BE6B"/>
<path d="M285.264 375.329C292.177 372.225 301.182 373.783 304.35 381.323C305.86 384.76 305.913 388.411 305.842 392.026C305.842 394.393 305.681 396.753 305.384 399.102C305.289 400.107 304.998 401.177 304.849 402.182C304.772 402.444 304.32 404.049 304.237 404.353C302.947 408.17 300.403 411.815 296.522 413.313C296.201 413.438 295.927 413.539 295.505 413.635V411.417C300.807 412.422 306.228 415.704 307.476 421.305C308.487 427.531 306.579 434.018 303.09 439.132L302.888 439.007C305.087 433.62 306.347 427.578 305.158 421.864C305.087 421.591 304.802 420.859 304.712 420.574C304.314 419.771 303.833 418.95 303.226 418.296C301.586 416.376 299.291 415.062 296.926 414.182C295.648 413.652 291.178 412.755 289.793 412.404C290.179 412.309 295.612 411.375 295.761 411.22C306.264 407.005 306.834 391.063 302.477 382.191C299.363 375.513 292.01 374.342 285.335 375.543L285.258 375.317L285.264 375.329Z" fill="#D3A759"/>
<path d="M185.292 366.796C179.372 364.757 174.427 369.103 171.918 374.063C170.367 376.869 169.339 379.949 168.328 382.988C167.395 386.032 166.444 389.332 165.832 392.46C164.863 397.389 164.031 402.604 165.439 407.522C166.83 413.064 171.877 416.756 177.535 416.483L182.017 416.185L178.177 418.6C174.314 421.115 170.658 424.879 169.57 429.475C169.172 431.015 169.315 432.627 169.309 434.208C169.535 439.013 170.426 444.228 174.272 447.433C175.514 448.479 177.078 449.193 178.694 449.413V449.651C175.098 449.817 171.793 447.415 169.975 444.43C168.352 441.79 167.538 438.71 167.163 435.653C166.919 433.441 166.688 431.164 167.145 428.964C168.245 423.499 172.429 419.39 177.054 416.625L177.69 418.748C172.917 418.861 168.09 416.394 165.897 412.088C163.062 406.642 163.941 400.339 164.536 394.488C165.326 387.126 166.242 379.658 170.153 373.052C171.71 370.412 173.779 367.968 176.543 366.523C179.319 365.06 182.808 365.024 185.399 366.576L185.286 366.784L185.292 366.796Z" fill="#D3A759"/>
<path d="M250.735 468.572C261.458 470.361 268.009 466.425 269.94 455.526C271.266 447.962 270.113 438.514 263.271 433.941C262.439 433.4 261.452 432.912 260.501 432.704L255.193 431.711C256.608 431.348 261.03 430.468 262.326 429.933C265.536 428.75 268.639 426.704 270.113 423.535C272.146 418.106 270.493 410.376 268.288 405.108L268.49 404.983C271.979 410.097 273.881 416.59 272.877 422.81C271.622 428.411 266.207 431.693 260.905 432.698V430.48C261.648 430.653 262.172 430.896 262.819 431.2C266.237 432.894 268.436 436.248 269.637 439.762C269.726 440.071 270.172 441.659 270.249 441.933C270.398 442.938 270.689 444.008 270.784 445.013C271.082 447.362 271.242 449.722 271.242 452.089C271.337 456.275 271.2 460.746 268.864 464.451C265.934 469.487 259.485 471.176 254.07 469.874C252.893 469.624 251.752 469.273 250.664 468.78L250.741 468.554L250.735 468.572Z" fill="#D3A759"/>
<path d="M317.611 417.619C320.892 424.606 325.885 436.605 324.399 444.317C324.269 444.989 323.966 445.744 323.645 446.357C321.921 449.437 320.167 452.493 318.402 455.544L317.392 453.534C320.084 453.748 322.902 455.793 322.818 458.719C322.789 461.198 321.463 463.321 320.215 465.224C319.383 466.437 318.509 467.537 317.51 468.655L316.417 466.181C316.696 466.181 316.857 466.193 317.065 466.211C327.49 467.406 330.587 478.365 330.064 487.326C329.886 492.154 329.101 497.197 325.945 501.098C320.363 507.9 310.241 506.645 303.055 503.488C313.314 506.509 325.136 505.658 327.021 492.993C327.716 488.081 327.704 482.652 326.242 477.895C324.934 473.335 321.315 469.416 316.47 469.119L313.225 468.994C315.543 466.407 324.483 457.512 317.136 456.186L315.085 455.877C317.261 452.315 319.466 448.729 321.695 445.203L321.927 444.769C322.01 444.626 322.052 444.448 322.123 444.287C324.185 437.503 319.805 424.469 317.617 417.613L317.611 417.619Z" fill="#CCA662"/>
<path d="M134.591 505.557C131.126 498.933 125.325 484.692 128.523 477.526L128.873 476.89C130.811 473.941 132.85 471.051 134.71 468.054L135.013 468.649C134.258 468.53 133.575 468.322 132.909 467.989C127.435 465.063 132.784 458.195 135.311 454.937L135.762 456.233C133.545 455.966 131.429 455.466 129.343 454.711C118.477 450.834 115.725 442.254 122.4 432.847C123.637 431.027 125.182 429.237 126.971 427.941C130.746 425.016 135.97 425.14 139.37 428.512L139.21 428.69C135.037 425.943 130.722 426.651 127.257 430.123C123.28 434.642 118.941 441.956 122.888 447.641C126.3 452.083 132.148 453.855 137.415 455.02C136.143 456.269 134.841 457.601 133.771 459.052C132.612 460.645 131.393 462.387 131.292 464.385C131.185 466.722 133.682 467.864 135.697 467.929C133.783 471.325 131.946 474.785 130.211 478.276C129.343 480.856 129.723 483.639 130.032 486.339C130.49 489.544 131.263 492.737 132.089 495.924C132.933 499.105 133.872 502.281 134.817 505.468L134.597 505.563L134.591 505.557Z" fill="#D3A759"/>
<path d="M342.048 514.458L338.416 439.524C337.512 420.901 324.537 389.035 324.495 389.017C324.471 389.017 324.305 388.981 324.091 388.981C323.865 389.005 323.657 388.999 323.497 389.184C319.936 395.344 290.745 419.616 288.374 420.699C287.066 421.293 286.085 421.4 286.085 421.4L233.541 407.878C232.78 407.682 231.966 407.938 231.454 408.533L202.852 441.796C202.388 442.337 201.687 442.598 200.986 442.497L173.108 438.751C171.147 438.472 168.621 436.872 167.307 435.386L152.596 425.271L152.774 424.784L151.056 424.332C150.319 424.147 149.511 424.48 149.16 425.218L133.046 458.588C132.761 459.176 131.78 459.955 131.162 459.747L128.992 458.82L120.344 453.373L120.712 452.749C120.712 452.749 119.809 452.523 119.452 452.517C118.989 452.505 118.525 452.695 118.157 453.022L112.48 457.642L104.652 464.403C104.456 464.57 104.165 464.576 103.974 464.403C103.178 463.69 101.579 462.375 101.198 461.466C100.444 459.64 101.163 457.571 101.163 457.571C99.9384 457.553 99.344 458.659 99.6055 459.854L100.253 462.839L100.087 462.685C99.6412 462.316 99.3023 461.834 99.1062 461.287L98.8328 460.526C98.5237 459.652 99.1597 513.804 99.1597 513.804C96.158 575.692 140.726 628.156 202.662 628.156H233.767C295.697 628.156 345.043 576.34 342.048 514.458Z" fill="#966A2A"/>
<path d="M343.83 514.904L340.198 439.97C339.295 421.347 333.731 404.007 324.667 389.059C324.643 389.035 324.518 389.017 324.488 389.017C324.477 389.029 324.423 389.386 324.316 389.576C318.348 399.762 289.49 421.448 289.49 421.448C289.009 421.834 288.367 421.977 287.767 421.822L235.323 408.324C234.562 408.128 233.748 408.384 233.237 408.979L204.908 441.962C204.444 442.503 203.743 442.765 203.042 442.664L174.166 438.567C172.204 438.287 170.409 437.324 169.096 435.843C169.096 435.843 169.084 435.832 169.078 435.826L153.356 425.009C152.524 424.439 151.377 424.748 150.943 425.664L135.138 459.159C134.722 460.377 133.259 460.871 132.19 460.157L121.568 453.076C120.789 452.558 119.767 452.624 119.059 453.236L104.931 465.527C104.889 465.563 104.824 465.563 104.782 465.527L101.863 463.125C101.418 462.756 101.079 462.274 100.883 461.727L100.609 460.966C100.3 460.092 100.378 459.129 100.829 458.32L101.198 457.666C101.239 457.589 101.186 457.5 101.103 457.494C99.902 457.476 98.9034 458.409 98.844 459.61L96.1632 514.886C93.1615 576.774 142.508 628.59 204.444 628.59H235.549C297.479 628.59 346.826 576.774 343.83 514.892V514.904Z" fill="#B2853D"/>
<path d="M319.538 431.194C322.058 439.072 322.789 447.557 321.422 455.728C320.757 460.473 319.948 465.58 318.991 470.236L316.786 469.624C317.059 469.083 317.214 468.797 317.808 468.441C320.578 467.352 320.994 472.205 321.345 473.911C321.957 478.109 322.237 482.337 322.13 486.571C322.076 488.693 321.927 490.78 321.535 492.915L320.644 492.499C321.125 491.892 321.696 491.411 322.534 491.393C325.928 491.577 326.457 500.633 326.807 503.262C327.128 507.602 327.539 514.476 324.632 518.032C321.785 519.958 318.872 522.379 317.398 525.572C317.178 525.976 317.036 526.493 316.881 526.927L316.732 527.617C316.709 527.73 316.673 527.849 316.661 527.962C316.643 528.283 316.602 528.676 316.584 529.009C316.762 534.491 318.486 539.849 320.305 545.01C322.118 550.034 322.046 555.927 319.597 560.708C318.646 562.765 317.636 564.84 316.774 566.904L316.483 566.838C317.38 562.438 319.704 558.371 319.538 553.822C319.485 551.402 319.051 548.964 318.218 546.705C317.874 545.932 317.517 545.159 317.22 544.38C315.912 541.127 314.783 537.857 314.046 534.396C312.798 528.705 313.148 524.775 317.22 520.357C318.92 518.537 320.745 517.086 322.908 515.82L322.724 515.945C322.706 515.957 322.665 515.992 322.665 515.992C323.235 515.303 323.515 514.411 323.782 513.525C324.674 510.248 324.739 506.788 324.763 503.351C324.691 501.121 324.763 493.207 322.51 492.457C322.207 492.416 321.737 492.731 321.446 493.082L320.025 494.812L320.554 492.665C321.428 488.646 321.381 484.4 320.864 480.327C320.358 477.104 319.829 473.715 318.474 470.754C318.379 470.569 318.254 470.403 318.195 470.349C318.177 470.331 318.153 470.337 318.284 470.415C318.403 470.492 318.73 470.48 318.849 470.403C318.973 470.337 318.967 470.314 318.961 470.343C318.961 470.355 318.914 470.45 318.926 470.438L316.721 469.826C317.095 466.585 317.541 463.357 318.064 460.14C318.492 457.482 319.306 453.218 319.639 450.56C320.358 444.174 320.061 437.657 319.241 431.253L319.526 431.182L319.538 431.194Z" fill="#9B6D2C"/>
<path d="M172.538 448.254C171.616 454.658 171.272 461.151 172.027 467.573C172.983 473.989 174.297 480.381 175.236 486.803L172.692 487.51C172.71 487.546 172.663 487.457 172.663 487.463C172.865 487.736 173.489 487.76 173.744 487.534C173.762 487.522 173.768 487.516 173.762 487.516C173.732 487.54 173.631 487.701 173.548 487.879C172.347 490.846 171.902 494.206 171.396 497.381C170.701 502.275 170.659 507.389 171.789 512.217L170.267 510.136C170.012 509.785 169.566 509.452 169.269 509.47C166.909 510.017 166.6 518.145 166.469 520.333C166.398 522.676 166.409 525.025 166.713 527.326C167.016 529.378 167.361 531.518 168.543 533.237C168.597 533.308 168.722 533.433 168.692 533.403L168.585 533.332C173.215 536.002 177.917 540.307 178.083 546.015C178.042 551.325 176.461 556.486 174.719 561.44C173.465 564.383 172.722 567.6 172.853 570.805C172.9 572.922 173.423 574.949 174.22 576.894C174.838 578.523 175.92 581.342 176.449 582.995L176.52 583.226L176.556 583.351L176.609 583.554L175.86 585.183C175.86 585.183 175.92 585.147 175.902 585.159C175.563 585.385 175.712 585.783 175.884 586.164C176.942 587.888 178.119 589.916 178.113 592.057C177.459 593.757 176.901 595.559 176.461 597.355C176.062 599.073 175.73 600.827 175.736 602.51C175.765 603.628 175.878 604.657 176.52 605.489C178.107 607.309 180.3 608.807 182.708 609.146L182.565 609.651C182.25 611.001 181.751 612.696 182.839 613.814C183.16 614.188 183.564 614.527 183.986 614.789L183.855 615.057C183.356 614.825 182.904 614.533 182.488 614.165C181.531 613.433 181.341 612.167 181.412 611.049C181.43 610.496 181.489 609.973 181.584 609.414L182.042 610.038C179.266 609.753 176.871 608.284 175.016 606.316C172.365 602.564 174.392 595.476 175.563 591.379L175.486 591.848C175.397 591.278 175.224 590.742 174.987 590.207C174.137 588.269 171.979 586.437 173.096 584.041C173.4 583.405 173.845 582.899 174.452 582.543L173.703 584.172C173.584 583.839 173.328 583.09 173.197 582.757C172.853 581.799 171.717 579.034 171.325 578.035C169.096 573.124 169.209 567.273 171.105 562.29C173.043 557.569 174.79 552.663 175.397 547.591C175.623 545.956 175.504 544.285 174.903 542.739C173.495 539.415 170.737 536.751 167.771 534.759C167.515 534.604 167.349 534.331 167.236 534.188C165.976 532.184 165.69 529.728 165.5 527.439C165.351 525.037 165.381 522.652 165.53 520.28C165.803 517.61 165.922 508.655 169.257 508.382C170.107 508.382 170.701 508.845 171.212 509.446L170.178 509.928C168.811 503.625 168.965 497.137 170.053 490.817C170.315 489.479 170.582 488.052 171.177 486.737C171.468 486.196 171.789 485.495 172.573 485.174C173.691 484.698 174.808 485.524 175.171 486.541L172.627 487.249C171.842 482.409 171.141 477.556 170.469 472.698C169.679 467.817 169.601 462.715 170.231 457.833C170.653 454.557 171.272 451.322 172.258 448.176L172.544 448.248L172.538 448.254Z" fill="#9B6D2C"/>
<path d="M296.077 431.2C299.156 437.372 301.509 443.978 302.407 450.834C302.793 454.503 303.406 458.184 302.823 461.87C302.609 463.101 301.634 464.992 301.141 466.151C300.451 467.727 299.72 469.279 298.971 470.825L298.217 469.642C302.93 470.088 301.034 481.178 299.988 484.216L299.839 483.937C298.169 485.209 299.893 487.296 300.558 488.688C301.515 490.757 301.777 493.088 301.432 495.312L301.254 495.294C301.117 492.927 300.463 490.525 299.066 488.616C298.942 488.456 298.698 488.117 298.585 487.95C297.319 486.369 297.016 483.728 298.924 482.438L298.543 482.938C298.781 481.933 298.959 480.809 299.078 479.721C299.185 477.741 300.053 472.413 298.252 471.283C298.252 471.277 298.181 471.271 298.276 471.271L297.521 470.088C298.698 467.9 300.095 465.533 301.367 463.381C301.801 462.679 302.092 461.912 302.252 461.103C303.192 456.031 301.29 450.965 299.952 446.131C298.644 441.338 297.129 436.087 295.904 431.271L296.071 431.206L296.077 431.2Z" fill="#9B6D2C"/>
<path d="M293.467 467.971C293.716 470.189 293.378 472.467 292.409 474.5C292.23 474.946 291.82 475.523 291.577 475.951C290.851 477.039 290.495 478.77 291.719 479.59L291.915 479.709C292.29 480.934 292.528 482.135 292.706 483.36C292.973 486.018 294.127 493.106 290.239 493.617L290.97 492.464C291.773 493.98 292.54 495.514 293.324 497.042C293.794 497.994 294.685 499.659 295.006 500.64C296.011 504.558 295.09 508.584 294.299 512.419C292.712 519.138 290.643 525.679 288.397 532.196L288.403 531.911C289.478 534.979 290.441 538.071 291.273 541.217C292.617 546.741 293.847 552.568 292.89 558.276L292.557 560.678C292.123 563.883 291.63 567.077 291.149 570.276L290.471 569.211C292.201 569.794 293.841 571.019 294.24 572.886C294.513 574.599 294.24 576.478 292.926 577.697C292.801 577.792 292.742 577.857 292.498 577.982L292.801 577.744C292.177 578.517 291.577 579.415 291.184 580.295C290.947 580.896 290.709 581.472 290.899 582.013C291.208 582.507 291.832 582.662 292.468 582.882C293.265 583.102 294.263 583.559 294.471 584.517C294.501 584.695 294.537 584.891 294.543 585.064L294.519 585.557C294.234 587.395 293.33 589.042 292.587 590.689C291.19 593.65 289.704 596.57 288.093 599.418L287.933 599.335C289.205 596.492 290.53 593.216 291.707 590.308C292.278 588.828 292.956 587.347 293.205 585.807C293.294 585.326 293.253 584.862 293.11 584.701C292.997 584.535 292.593 584.374 292.064 584.237C291.202 584 290.013 583.643 289.538 582.679C289.045 581.704 289.354 580.539 289.704 579.665C290.174 578.547 290.768 577.607 291.476 576.662L291.779 576.424C292.456 575.806 292.67 574.2 292.474 573.284C292.147 571.84 290.465 571.12 289.157 570.793C289.675 567.326 290.174 563.86 290.733 560.405L291.113 558.015C292.129 552.52 291.054 546.955 289.972 541.52C289.318 538.38 288.545 535.247 287.612 532.178L287.564 532.024L287.618 531.893C290.596 524.644 296.255 507.858 293.39 500.58C292.165 498.202 290.75 495.579 289.562 493.189L290.293 492.035C290.204 492.035 290.269 492.035 290.281 492.035C292.534 490.906 291.345 482.486 290.834 480.268L291.095 480.607C290.756 480.369 290.56 480.149 290.358 479.864C289.181 478.217 290.186 476.159 291.273 474.791C292.046 473.715 292.557 472.49 292.878 471.194C293.128 470.153 293.277 469.071 293.277 467.995L293.455 467.977L293.467 467.971Z" fill="#9B6D2C"/>
<path d="M121.556 491.173C121.592 493.284 122.085 495.478 123.167 497.292C123.738 498.273 124.546 499.082 124.873 500.211C125.307 501.472 124.927 503.03 123.768 503.827L124.047 503.458C123.548 505.616 122.335 514.036 124.552 515.202C124.558 515.208 124.623 515.208 124.534 515.208L125.271 516.367C124.481 517.889 123.667 519.4 122.834 520.904C122.412 521.683 121.36 523.443 121.069 524.228C119.94 527.826 120.558 531.792 121.206 535.46C122.507 542.174 124.927 548.649 127.471 554.97L127.536 555.131L127.506 555.339C127.245 557.218 127.09 559.138 127.031 561.035C126.977 562.92 127.007 564.853 127.465 566.541C127.988 568.206 129.105 569.883 130.092 571.381C131.186 573.023 132.386 574.634 133.617 576.174C134.877 581.811 136.048 587.519 137.73 593.038L138.039 593.906C138.158 594.161 138.247 594.435 138.413 594.649C138.818 595.315 139.733 595.874 140.417 596.326C142.86 597.753 145.534 598.793 148.233 599.751L148.185 599.923C145.671 599.352 143.198 598.651 140.827 597.598C139.471 596.92 137.962 596.278 137.159 594.869C136.606 593.864 136.208 592.728 135.846 591.652C134.211 586.764 132.993 581.799 131.81 576.798L132 577.197C130.758 575.651 129.61 574.075 128.517 572.434C127.435 570.68 126.377 569.068 125.777 567.017C125.277 564.936 125.325 562.944 125.42 560.97C125.545 558.996 125.794 557.063 126.145 555.113L126.181 555.481C123.928 548.958 122.115 542.322 120.665 535.579C119.987 531.75 119.018 527.766 119.981 523.877C120.261 522.908 121.188 521.184 121.592 520.268C122.329 518.716 123.084 517.176 123.863 515.648L124.6 516.801C120.112 516.379 122.002 506.027 122.811 503.095L122.882 502.851L123.09 502.727C124.303 501.936 123.922 500.223 123.227 499.153C121.657 496.822 121.033 493.92 121.378 491.155L121.556 491.173Z" fill="#9B6D2C"/>
<path d="M116.332 470.183C114.638 477.419 112.23 484.804 112.272 492.255C112.272 493.212 112.51 494.336 112.73 495.288C113.336 498.154 113.823 501.014 114.18 503.963L114.21 504.231C112.623 505.551 111.131 507.257 110.459 509.237C109.769 511.057 110.649 513.322 110.97 515.237L110.863 515.005C114.055 519.001 116.962 523.437 117.295 528.759C117.378 531.351 117.158 533.855 116.837 536.358C116.498 538.867 116.028 541.311 115.369 543.773L114.667 544.6C114.317 544.754 113.942 545.301 113.901 545.795C113.811 546.467 114.037 547.246 114.275 547.906C114.846 549.452 115.743 550.986 116.855 552.187C118.341 553.507 120.421 555.606 120.629 558.086C120.772 559.37 119.827 560.321 119.286 561.374C118.786 562.319 118.358 563.342 118.18 564.394H117.942C117.907 562.664 118.513 561.023 119.214 559.477C120.165 557.194 117.176 554.881 115.571 553.608C114.037 552.217 112.979 550.611 112.153 548.75C111.083 546.657 111.16 543.529 113.651 542.304L112.949 543.131C113.996 538.469 115.036 533.575 115.101 528.806C114.953 524.162 112.676 519.489 110.073 515.636L109.977 515.505L109.966 515.404C109.829 514.084 109.603 512.805 109.454 511.491C109.246 509.553 110.203 507.674 111.285 506.139C111.909 505.259 112.581 504.439 113.371 503.66L113.211 504.088C112.629 501.305 111.695 498.528 110.869 495.769C110.388 494.336 110.096 492.743 110.114 491.232C110.215 486.749 111.38 482.432 112.777 478.21C113.722 475.439 114.798 472.722 116.106 470.105L116.326 470.189L116.332 470.183Z" fill="#9B6D2C"/>
<path d="M251.704 430.159C253.898 435.63 255.621 441.273 256.798 447.052C257.25 449.698 257.945 452.44 257.03 455.104C255.954 458.279 254.462 461.27 253.03 464.261L252.78 463.66C254.688 464.552 257.06 466.086 256.828 468.494C256.454 470.659 255.61 472.579 254.498 474.464L254.456 473.769C259.027 478.692 262.505 485.382 261.423 492.297C260.894 496.792 257.767 501.567 252.614 500.806L253.434 498.594C255.901 500.283 259.164 502.596 258.897 506.003C258.843 506.77 258.742 507.49 258.397 508.239C258.07 508.97 257.571 509.398 257.167 509.945C256.483 510.98 255.283 511.592 254.308 512.11C252.697 512.889 251.045 513.525 249.339 514.042L249.249 513.822C250.789 512.984 252.334 512.145 253.749 511.158C254.605 510.546 255.443 510.005 255.895 509.155C256.186 508.625 256.691 508.078 256.84 507.579C257.042 506.978 257.066 506.116 257.006 505.373C256.477 503.256 254.052 501.793 252.233 500.657L247.775 498.083L253.054 498.445C254.022 498.535 255.075 498.255 255.883 497.702C257.743 496.447 258.552 494.075 258.974 491.869C260.139 485.637 257.042 479.043 253.315 474.143C254.575 472.472 255.699 470.469 256.073 468.393C256.287 466.372 254.076 465.123 252.447 464.493L252.019 464.338L252.198 463.892C253.488 460.592 254.534 457.22 255.324 453.801C255.532 451.762 255.039 449.49 254.748 447.427C254.32 444.888 253.612 441.409 253.113 438.858C252.548 435.992 251.966 433.126 251.473 430.225L251.698 430.159H251.704Z" fill="#9B6D2C"/>
<path d="M198.079 473.192C197.716 474.869 197.978 476.641 198.103 478.347C198.435 480.845 198.501 483.473 199.196 485.893C199.66 487.439 200.611 488.741 201.639 489.954C202.763 491.381 203.773 492.88 204.629 494.497C205.247 495.645 206.103 497.542 205.479 498.909C204.48 501.888 202.323 504.332 201.235 507.234C200.878 508.471 200.528 510.029 201.354 511.093L201.788 511.64C203.684 514.102 204.611 517.473 203.969 520.595C203.934 520.821 203.886 521.225 203.946 521.297C204.463 522.373 205.491 523.467 206.139 524.644C206.555 525.34 206.614 526.339 206.044 526.975L205.955 527.088L205.818 527.243C202.353 530.989 198.727 535.306 198.114 540.449C197.829 543.815 198.857 547.181 200.29 550.237L200.046 550.409C197.621 547.68 195.903 544.065 195.779 540.354C195.606 534.497 199.856 528.492 203.595 525.162C203.452 525.417 203.357 525.792 203.464 526.066C203.464 526.06 203.446 526.024 203.434 526C202.775 524.716 201.681 523.485 201.253 521.945C201.069 521.023 201.289 520.292 201.491 519.453C201.954 517.111 201.58 514.685 200.427 512.526L200.112 511.979C199.666 511.313 199.553 510.38 199.618 509.636C199.797 506.782 201.657 504.624 202.84 502.18C203.422 500.836 204.368 499.052 204.082 497.613C203.506 496.251 202.228 494.83 201.241 493.623C200.985 493.35 199.392 491.393 199.161 491.132C197.71 489.455 196.765 487.344 196.504 485.144C196.308 482.855 196.355 480.643 196.533 478.347C196.724 476.546 196.866 474.655 197.829 473.055L198.097 473.186L198.079 473.192Z" fill="#9B6D2C"/>
<path d="M273.828 354.256C276.111 354.779 277.965 357.223 277.193 359.584C276.42 361.73 274.684 363.217 273.157 364.805C272.099 365.798 271.011 366.773 269.662 367.48L269.382 366.505C271.183 366.243 273.293 365.887 274.886 367.1C277.228 369.336 275.035 372.677 272.931 374.146L272.854 374.057C273.519 373.236 274.108 372.344 274.506 371.417C275.005 370.263 275.124 369.074 274.328 368.212C273.894 367.724 273.246 367.671 272.574 367.552C270.815 367.284 268.063 367.659 266.262 367.784C268.384 366.88 271.064 365.964 272.889 364.483C274.851 362.866 276.67 360.071 276.206 357.467C275.909 356.26 274.934 355.201 273.793 354.357L273.84 354.25L273.828 354.256Z" fill="#D3A759"/>
<path d="M155.585 390.724C153.088 390.207 148.755 389.22 146.907 391.39C145.325 394.095 148.113 396.896 150.58 397.806L156.048 400.077L150.164 399.251C146.847 398.87 142.663 398.692 140.261 401.255C138.989 402.896 138.722 405.655 139.393 407.629C140.226 410.121 142.359 410.412 144.672 410.049C145.944 409.942 147.174 409.817 148.488 409.752L152.054 409.579C148.559 411.268 144.618 413.028 141.818 415.758C140.856 416.727 139.994 417.928 140.546 419.26C140.737 419.926 141.075 420.544 141.563 421.044C142.05 421.537 142.704 421.9 143.423 421.989C141.141 422.001 139.179 419.272 139.94 417.107C140.796 414.967 142.716 413.528 144.464 412.184C145.664 411.328 146.895 410.549 148.208 409.829L148.577 411.203L144.844 411.655C142.799 412.065 140.291 411.934 138.847 410.132C136.582 407.32 136.802 402.955 138.924 400.143C141.854 396.95 146.532 397.199 150.437 397.758L150.021 399.203C149.189 398.835 148.494 398.395 147.81 397.859C145.688 396.313 144.273 393.079 146.086 390.748C148.422 388.25 152.856 389.695 155.585 390.718V390.724Z" fill="#D3A759"/>
<path d="M233.618 576.233C232.518 580.098 226.842 583.042 219.994 583.042C213.147 583.042 207.548 580.14 206.394 576.311C204.261 575.811 202.971 575.395 202.971 575.395C202.971 583.5 208.213 590.064 219.994 590.064C230.985 590.064 237.018 583.494 237.018 575.395C237.018 575.395 235.692 575.77 233.618 576.233Z" fill="#2A1A09"/>
<path d="M220 583.042C226.842 583.042 232.524 580.098 233.624 576.233C230.253 576.983 224.91 577.97 220 577.97C214.591 577.97 209.569 577.048 206.4 576.311C207.554 580.134 213.2 583.042 220 583.042Z" fill="white"/>
<path d="M260.354 575.241C282.234 578.255 289.491 562.337 291.447 543.916C293.45 525.043 282.05 508.364 265.989 506.657C263.594 506.401 261.228 506.502 258.934 506.907" fill="white"/>
<path d="M259.183 506.907C265.834 507.721 271.766 511.812 276.034 517.931C276.801 519.007 279.25 523.187 280.011 525.429C281.865 530.15 282.911 535.508 282.911 541.187C282.911 558.466 273.229 572.773 260.61 575.241C260.075 575.169 259.534 575.092 258.981 574.997C235.687 570.918 231.514 556.605 233.523 537.738C235.229 521.683 246.089 509.22 259.189 506.913L259.183 506.907Z" fill="#2B1907"/>
<path d="M275.298 532.392C280.333 532.392 284.416 529.725 284.416 526.434C284.416 523.144 280.333 520.476 275.298 520.476C270.262 520.476 266.18 523.144 266.18 526.434C266.18 529.725 270.262 532.392 275.298 532.392Z" fill="white"/>
<mask id="mask0_1707_19056" style="mask-type:luminance" maskUnits="userSpaceOnUse" x="148" y="506" width="59" height="70">
<path d="M206.49 537.678C204.796 521.725 194.061 509.327 181.08 506.901V506.847C178.785 506.443 176.42 506.342 174.024 506.598C157.958 508.304 146.557 524.989 148.56 543.862C150.516 562.284 157.773 578.208 179.659 575.187V575.145C180.111 575.08 180.563 575.021 181.032 574.937C204.327 570.858 208.499 556.546 206.496 537.672L206.49 537.678Z" fill="white"/>
</mask>
<g mask="url(#mask0_1707_19056)">
<path d="M179.653 575.193C157.768 578.208 150.516 562.29 148.554 543.868C146.551 524.995 157.952 508.31 174.018 506.603C176.414 506.348 178.779 506.449 181.074 506.853" fill="white"/>
<path d="M180.818 506.847C174.167 507.662 168.235 511.753 163.967 517.877C163.2 518.954 160.751 523.134 159.99 525.376C158.136 530.097 157.09 535.454 157.09 541.133C157.09 558.419 166.773 572.725 179.398 575.193C179.932 575.121 180.473 575.044 181.026 574.949C204.321 570.87 208.493 556.557 206.49 537.684C204.784 521.623 193.919 509.16 180.818 506.853V506.847Z" fill="#2B1907"/>
<path d="M197.811 532.333C202.85 532.333 206.935 529.665 206.935 526.375C206.935 523.084 202.85 520.417 197.811 520.417C192.772 520.417 188.688 523.084 188.688 526.375C188.688 529.665 192.772 532.333 197.811 532.333Z" fill="white"/>
</g>
<path d="M192.77 645.233L205.051 638.146L241.868 620.503C244.709 619.141 248.109 620.343 249.47 623.185C250.831 626.027 249.63 629.428 246.789 630.79L209.972 648.432L196.753 653.564C194.916 654.278 192.848 653.457 191.998 651.679L191.255 650.127C190.405 648.349 191.065 646.221 192.77 645.239V645.233Z" fill="#2A1A09"/>
<path d="M248.151 645.233L235.871 638.146L199.054 620.503C196.213 619.141 192.813 620.343 191.452 623.185C190.091 626.027 191.291 629.428 194.132 630.79L230.949 648.432L244.169 653.564C246.005 654.278 248.074 653.457 248.924 651.679L249.667 650.127C250.517 648.349 249.857 646.221 248.151 645.239V645.233Z" fill="#2A1A09"/>
<rect width="144" height="5" rx="2.5" transform="matrix(-1 0 0 1 293.75 943)" fill="black"/>
</g>
<defs>
<linearGradient id="paint0_linear_1707_19056" x1="224.065" y1="547.377" x2="224.065" y2="743.839" gradientUnits="userSpaceOnUse">
<stop offset="0.259615" stop-color="#5D8E57"/>
<stop offset="0.403846" stop-color="#246F1B"/>
</linearGradient>
<linearGradient id="paint1_linear_1707_19056" x1="98.0678" y1="593.604" x2="98.0678" y2="694.832" gradientUnits="userSpaceOnUse">
<stop offset="0.259615" stop-color="#5D8E57"/>
<stop offset="0.403846" stop-color="#246F1B"/>
</linearGradient>
<clipPath id="clip0_1707_19056">
<rect width="440" height="956" fill="white"/>
</clipPath>
</defs>
</svg>
