<svg width="239" height="281" viewBox="0 0 239 281" fill="none" xmlns="http://www.w3.org/2000/svg">
<g clip-path="url(#clip0_1431_23186)">
<path opacity="0.56" d="M119.5 281C149.837 281 174.43 276.235 174.43 270.358C174.43 264.481 149.837 259.716 119.5 259.716C89.1633 259.716 64.5703 264.481 64.5703 270.358C64.5703 276.235 89.1633 281 119.5 281Z" fill="black"/>
<path d="M238.802 194.422L238.323 193.152C237.76 191.67 236.163 190.862 234.637 191.284L227.926 193.143L207.454 189.042L194.396 169.964L187.435 174.725L202.427 196.633L228.467 201.851L237.091 198.347C238.635 197.719 239.391 195.978 238.802 194.422Z" fill="#2A1A09"/>
<path d="M0.197901 194.422L0.677273 193.152C1.24021 191.67 2.83665 190.862 4.36272 191.284L11.0739 193.143L31.5462 189.042L44.6036 169.964L51.5655 174.725L36.573 196.633L10.533 201.851L1.90869 198.347C0.365022 197.719 -0.391419 195.978 0.197901 194.422Z" fill="#2A1A09"/>
<path d="M130.728 207.165L130.723 207.174H108.87V215.596H130.165H134.18V207.174V207.165H130.728Z" fill="#2A1A09"/>
<path d="M206.614 110.385L38.1208 112.02C38.0812 112.02 38.046 111.994 38.0372 111.954L32.3376 85.6283C32.144 84.7403 32.8301 83.9051 33.7361 83.9227L119.306 85.2898C119.306 85.2898 119.341 85.2854 119.355 85.2766L198.842 33.3062L206.697 110.297C206.701 110.345 206.662 110.389 206.614 110.389V110.385Z" fill="#966A2A"/>
<path d="M211.877 127.273L209.19 71.8785C208.522 58.1112 198.925 34.5414 198.89 34.5414C198.824 34.5414 198.56 34.5282 198.332 34.5414C198.151 34.5546 198.222 33.3502 198.103 33.4117L164.283 56.8892L131.593 48.4846C131.03 48.3395 130.428 48.5285 130.05 48.9681L108.887 73.5577C108.544 73.9577 108.025 74.1511 107.506 74.0764L86.8798 71.3071C85.4285 71.1005 83.5682 69.9225 82.5962 68.8279C82.5962 68.8235 82.5874 68.8191 82.583 68.8147L71.707 61.342L71.839 60.9816L70.568 60.6475C70.0226 60.5112 69.4245 60.7574 69.165 61.3025L57.7217 85.5272L53.1434 85.4525L47.8396 82.1161L47.9671 81.6502C47.9671 81.6502 47.0743 81.5623 46.8105 81.5535C46.4674 81.5447 46.1244 81.6854 45.8517 81.9271L42.0211 85.2679L33.5595 83.914C32.6536 83.9008 32.3061 86.0151 32.4997 86.9031L32.979 89.1097L32.8559 88.9954C32.526 88.7229 32.2754 88.3668 32.1302 87.9624L31.9279 87.3998C31.6992 86.7536 32.1698 126.785 32.1698 126.785C29.9489 172.536 84.4214 194.699 108.667 206.233L114.582 206.69L127.675 206.233H131.686C177.508 206.233 214.107 173.015 211.89 127.269L211.877 127.273Z" fill="#966A2A"/>
<path d="M208.698 116.64L205.233 69.8785C204.3 57.2804 200.505 45.5175 194.506 35.1788C194.163 34.5853 194.3 33.8513 194.814 33.4029C194.986 33.2534 195.14 33.082 195.271 32.8974C197.246 30.1369 194.08 24.4972 188.204 20.2993C185.798 18.5806 183.314 17.3718 181.079 16.7344C180.56 16.5849 180.217 16.1058 180.244 15.5651C180.376 13.0156 178.731 10.0002 175.798 7.9034C172.97 5.88577 169.724 5.27477 167.367 6.08358C166.821 6.27259 166.219 6.17149 165.726 5.87258C164.768 5.28795 163.791 4.72091 162.806 4.17144C162.683 4.10111 162.547 4.04397 162.415 3.99562C160.867 3.46813 160.673 3.60879 159.741 4.30771C156.042 7.14734 150.87 7.71439 146.512 5.33631C146.178 5.15608 145.857 4.95828 145.544 4.75168C144.282 3.90331 142.611 4.02199 141.406 4.94949C138.38 7.27481 136.058 10.5364 134.95 14.3959C134.607 15.5871 133.978 16.6904 133.098 17.5608C131.493 19.1476 130.424 21.9565 130.424 25.1566C130.424 27.8028 131.154 30.1808 132.315 31.8248C133.037 32.8446 133.208 34.1678 132.68 35.2975C131.942 36.8755 131.511 38.8184 131.511 40.9196C131.511 44.7614 132.962 48.0758 135.064 49.6099L135.134 52.1945C135.376 58.2562 130.525 63.3025 124.456 63.3025H120.956C114.886 63.3025 110.036 58.2562 110.277 52.1945V52.1374C110.299 51.4517 109.882 50.8187 109.231 50.6033C108.057 50.2121 106.012 48.8802 105.215 48.3C105.062 48.1901 105.066 47.9615 105.224 47.8604C107.467 46.4186 108.941 41.2229 108.655 35.1128C108.501 31.838 107.867 28.8753 106.948 26.6379C106.698 26.0313 106.742 25.3324 107.115 24.7917C107.801 23.7895 108.619 22.9147 109.534 22.1851C110.55 21.3762 111.161 20.1674 111.197 18.8663C111.579 5.13411 97.2861 -4.08809 84.8884 1.83732C78.9776 4.66376 73.4494 8.15396 68.4094 12.2156C67.952 12.5804 67.7541 13.1739 67.864 13.7453C67.8816 13.8332 67.8948 13.9167 67.9124 14.0046C68.0532 14.8266 67.4726 15.6442 66.6678 15.864C64.6404 16.4179 62.4546 18.2333 60.9373 20.8619C58.5977 24.9148 59.6883 28.3654 61.2144 30.8094C61.4915 31.2534 54.6351 35.8909 50.2196 35.504C49.1993 35.4161 48.2274 35.9436 47.7348 36.8403C45.593 40.7349 43.7591 44.8186 42.2726 49.0648C39.9637 55.654 38.4772 62.6344 37.9363 69.8873L34.4707 116.649C33.38 131.388 36.3046 145.449 42.299 157.845C54.125 182.29 77.9045 200.251 106.451 204.137C109.605 204.567 112.41 202.106 112.41 198.923V196.853C112.41 193.512 115.12 190.804 118.462 190.804H124.685C128.027 190.804 130.737 193.512 130.737 196.853V198.923C130.737 202.106 133.542 204.567 136.696 204.137C165.247 200.251 189.026 182.29 200.848 157.845C206.842 145.449 209.767 131.388 208.676 116.649L208.698 116.64Z" fill="#E8BE6B"/>
<path d="M169.816 23.1698C174.931 20.8752 181.594 22.0269 183.938 27.6006C185.055 30.1414 185.094 32.8403 185.041 35.5129C185.041 37.2624 184.923 39.0075 184.703 40.7438C184.632 41.4867 184.417 42.2779 184.307 43.0208C184.25 43.2142 183.916 44.401 183.854 44.6252C182.9 47.4472 181.017 50.1418 178.146 51.2495C177.908 51.3418 177.706 51.4166 177.394 51.4869V49.8473C181.316 50.5902 185.327 53.0166 186.251 57.1574C186.999 61.7597 185.587 66.5554 183.005 70.3357L182.856 70.2434C184.483 66.2609 185.415 61.7948 184.536 57.5706C184.483 57.3684 184.272 56.8277 184.206 56.6167C183.911 56.0233 183.555 55.4167 183.106 54.9331C181.893 53.5133 180.195 52.5419 178.445 51.8913C177.499 51.5001 174.192 50.8363 173.167 50.577C173.453 50.5067 177.473 49.8165 177.583 49.7022C185.354 46.5857 185.776 34.8008 182.552 28.2424C180.248 23.306 174.808 22.4401 169.869 23.328L169.812 23.161L169.816 23.1698Z" fill="#D3A759"/>
<path d="M95.8475 16.8619C91.4672 15.3542 87.8081 18.5674 85.9522 22.2335C84.8043 24.3082 84.0479 26.5852 83.2958 28.8314C82.6054 31.082 81.9017 33.5216 81.4487 35.8338C80.7319 39.4778 80.1161 43.3329 81.1585 46.9681C82.1876 51.0649 85.9214 53.7946 90.1082 53.5924L93.4242 53.3727L90.5832 55.1617C87.7245 57.0211 85.0198 59.8036 84.215 63.2015C83.9203 64.34 84.0259 65.5312 84.0215 66.7005C84.1886 70.2522 84.8483 74.1072 87.6937 76.4765C88.6129 77.2501 89.7696 77.7776 90.9658 77.9403V78.1161C88.3051 78.2392 85.8598 76.4633 84.5141 74.2567C83.3134 72.305 82.7109 70.028 82.4338 67.7686C82.2535 66.1334 82.082 64.4498 82.4207 62.8234C83.2343 58.7838 86.3304 55.7463 89.752 53.7023L90.2225 55.2716C86.691 55.3595 83.1199 53.5309 81.4971 50.3484C79.3993 46.3219 80.0502 41.6625 80.49 37.3371C81.0749 31.8952 81.7522 26.3742 84.646 21.4906C85.7982 19.5389 87.3287 17.7323 89.3737 16.6641C91.4276 15.5828 94.0091 15.5564 95.9266 16.7037L95.8431 16.8575L95.8475 16.8619Z" fill="#D3A759"/>
<path d="M144.264 92.0988C152.198 93.4219 157.044 90.5119 158.473 82.4546C159.454 76.8632 158.601 69.8785 153.539 66.4982C152.923 66.0981 152.193 65.7377 151.489 65.5838L147.562 64.8498C148.609 64.5816 151.881 63.9311 152.84 63.5354C155.215 62.6607 157.506 61.1486 158.601 58.8057C160.105 54.7924 158.882 49.078 157.251 45.1834L157.4 45.0911C159.982 48.8714 161.389 53.6715 160.646 58.2694C159.718 62.4101 155.711 64.8366 151.789 65.5795V63.9399C152.338 64.0673 152.725 64.2476 153.205 64.4761C155.733 65.7289 157.361 68.2081 158.249 70.806C158.311 71.0345 158.645 72.2082 158.702 72.4104C158.812 73.1533 159.027 73.9445 159.098 74.6874C159.318 76.4237 159.436 78.1688 159.436 79.9183C159.507 83.0128 159.406 86.3184 157.677 89.0569C155.509 92.7801 150.737 94.0285 146.731 93.0658C145.86 92.8812 145.016 92.6218 144.211 92.257L144.268 92.09L144.264 92.0988Z" fill="#D3A759"/>
<path d="M193.745 54.4319C196.173 59.5968 199.867 68.4674 198.768 74.1686C198.671 74.6653 198.446 75.2236 198.209 75.6763C196.934 77.9533 195.636 80.2127 194.33 82.4677L193.582 80.982C195.575 81.1402 197.659 82.6523 197.598 84.815C197.576 86.648 196.595 88.2173 195.671 89.6239C195.056 90.5206 194.409 91.3339 193.67 92.1602L192.861 90.3316C193.068 90.3316 193.187 90.3404 193.34 90.3536C201.054 91.2371 203.346 99.3384 202.959 105.963C202.827 109.532 202.246 113.26 199.911 116.143C195.781 121.172 188.292 120.244 182.975 117.91C190.565 120.143 199.313 119.515 200.707 110.152C201.222 106.521 201.213 102.508 200.131 98.9912C199.163 95.6197 196.485 92.7229 192.901 92.5031L190.499 92.4108C192.215 90.4987 198.829 83.9227 193.393 82.9424L191.876 82.7139C193.486 80.0808 195.117 77.4302 196.762 74.8236L196.934 74.5027C196.995 74.3972 197.026 74.2653 197.079 74.1466C198.605 69.1267 195.364 59.5001 193.745 54.4275V54.4319Z" fill="#CCA662"/>
<path d="M58.3293 119.44C55.7653 114.543 51.473 104.016 53.839 98.7187L54.0985 98.2484C55.5322 96.0681 57.0407 93.9318 58.4173 91.7164L58.6416 92.1603C58.083 92.0724 57.5773 91.9186 57.0847 91.6724C53.0342 89.5097 56.9923 84.4327 58.8615 82.0238L59.1957 82.9821C57.5553 82.7843 55.9896 82.4151 54.446 81.8568C46.4066 78.9908 44.3704 72.6478 49.3092 65.6938C50.224 64.3487 51.3674 63.0256 52.6912 62.0673C55.4839 59.9046 59.3496 59.9969 61.8652 62.4893L61.7465 62.6212C58.6592 60.5904 55.4663 61.1135 52.9023 63.6805C49.9645 67.0213 46.7496 72.428 49.6698 76.6303C52.1942 79.9139 56.5218 81.2238 60.4183 82.0854C59.4772 83.0085 58.514 83.9931 57.7224 85.0657C56.8648 86.2437 55.9632 87.5317 55.8885 89.0086C55.8093 90.7361 57.6564 91.5801 59.1473 91.6285C57.7312 94.1384 56.3722 96.6967 55.0881 99.277C54.446 101.185 54.7274 103.242 54.9561 105.238C55.2948 107.607 55.8665 109.967 56.4778 112.323C57.1023 114.675 57.7972 117.022 58.4964 119.379L58.3337 119.449L58.3293 119.44Z" fill="#D3A759"/>
<path d="M211.829 126.02L209.142 70.6257C208.473 56.8584 198.873 33.3018 198.842 33.2886C198.824 33.2886 198.701 33.2622 198.543 33.2622C198.376 33.2798 198.222 33.2754 198.103 33.4117C195.469 37.9656 173.87 55.9089 172.116 56.7089C171.148 57.1485 170.423 57.2276 170.423 57.2276L131.545 47.2318C130.982 47.0867 130.38 47.2757 130.001 47.7153L108.839 72.3049C108.496 72.7049 107.977 72.8983 107.458 72.8236L86.8315 70.0543C85.3802 69.8477 83.511 68.6652 82.5391 67.5663L71.6543 60.0892L71.7862 59.7288L70.5152 59.3947C69.9699 59.2584 69.3718 59.5046 69.1123 60.0497L57.1896 84.7184C56.9785 85.1535 56.2528 85.7294 55.7954 85.5755L54.1902 84.8898L47.7912 80.8633L48.0639 80.4018C48.0639 80.4018 47.3954 80.2347 47.1315 80.2303C46.7885 80.2216 46.4455 80.3622 46.1728 80.604L41.9728 84.0194L36.1807 89.0174C36.0356 89.1404 35.8201 89.1448 35.6794 89.0174C35.0901 88.4899 33.907 87.5184 33.6256 86.8459C33.067 85.4964 33.5992 83.9667 33.5992 83.9667C32.6932 83.9535 32.2534 84.7711 32.4469 85.6546L32.9263 87.8613L32.8031 87.747C32.4733 87.4745 32.2226 87.1184 32.0775 86.714L31.8752 86.1514C31.6465 85.5052 32.1171 125.537 32.1171 125.537C29.8961 171.287 62.8717 210.071 108.698 210.071H131.712C177.534 210.071 214.045 171.767 211.829 126.02Z" fill="#966A2A"/>
<path d="M213.149 126.35L210.461 70.9554C209.793 57.188 205.677 44.3702 198.97 33.3193C198.952 33.3018 198.86 33.2886 198.838 33.2886C198.829 33.2974 198.789 33.5611 198.71 33.7018C194.295 41.2316 172.943 57.2628 172.943 57.2628C172.587 57.5485 172.112 57.654 171.668 57.5397L132.865 47.5614C132.302 47.4164 131.699 47.6054 131.321 48.045L110.361 72.428C110.018 72.828 109.499 73.0214 108.98 72.9466L87.6147 69.918C86.1634 69.7114 84.8352 68.9993 83.8633 67.9048C83.8633 67.9048 83.8545 67.896 83.8501 67.8916L72.2176 59.8958C71.6019 59.4738 70.7531 59.7024 70.432 60.3793L58.738 85.1403C58.4301 86.0415 57.3483 86.4063 56.5566 85.8788L48.6976 80.6435C48.1214 80.2611 47.365 80.3095 46.8417 80.7622L36.3878 89.8481C36.357 89.8745 36.3087 89.8745 36.2779 89.8481L34.1185 88.0723C33.7887 87.7997 33.538 87.4437 33.3928 87.0393L33.1905 86.4766C32.9619 85.8305 33.019 85.1184 33.3533 84.5205L33.6259 84.037C33.6567 83.9799 33.6171 83.9139 33.5556 83.9095C32.6672 83.8964 31.9283 84.5865 31.8844 85.4744L29.9009 126.337C27.68 172.087 64.1914 210.392 110.018 210.392H133.032C178.854 210.392 215.365 172.087 213.149 126.341V126.35Z" fill="#B2853D"/>
<path d="M195.174 64.4673C197.039 70.2916 197.58 76.5643 196.568 82.604C196.076 86.1118 195.478 89.8877 194.769 93.3295L193.138 92.8767C193.34 92.4767 193.455 92.2657 193.894 92.002C195.944 91.1976 196.252 94.7845 196.511 96.0461C196.964 99.1494 197.171 102.275 197.092 105.405C197.052 106.974 196.942 108.517 196.652 110.095L195.992 109.787C196.348 109.339 196.771 108.983 197.391 108.969C199.902 109.106 200.293 115.8 200.553 117.743C200.79 120.939 201.089 126.047 198.943 128.662C196.837 130.086 194.682 131.875 193.591 134.236C193.428 134.535 193.323 134.917 193.208 135.238L193.098 135.748C193.081 135.832 193.054 135.92 193.046 136.003C193.032 136.24 193.002 136.531 192.988 136.777C193.12 140.83 194.396 144.79 195.741 148.606C197.083 152.32 197.03 156.676 195.218 160.21C194.514 161.731 193.767 163.265 193.129 164.791L192.914 164.742C193.578 161.489 195.297 158.483 195.174 155.12C195.135 153.331 194.813 151.529 194.198 149.858C193.943 149.287 193.679 148.715 193.459 148.14C192.491 145.735 191.656 143.317 191.11 140.759C190.187 136.552 190.446 133.647 193.459 130.381C194.717 129.036 196.067 127.963 197.668 127.027L197.531 127.119C197.518 127.128 197.487 127.154 197.487 127.154C197.91 126.645 198.116 125.985 198.314 125.33C198.974 122.908 199.022 120.35 199.04 117.809C198.987 116.161 199.04 110.31 197.373 109.756C197.149 109.725 196.801 109.958 196.586 110.218L195.535 111.497L195.926 109.91C196.573 106.939 196.537 103.8 196.155 100.789C195.781 98.4065 195.39 95.901 194.387 93.7119C194.317 93.5757 194.224 93.4526 194.18 93.413C194.167 93.3998 194.149 93.4042 194.246 93.4614C194.334 93.5185 194.576 93.5097 194.664 93.4526C194.756 93.4042 194.752 93.3866 194.748 93.4086C194.748 93.4174 194.712 93.4878 194.721 93.479L193.089 93.0262C193.367 90.6305 193.696 88.2437 194.083 85.8656C194.4 83.9007 195.003 80.749 195.249 78.7841C195.781 74.0631 195.561 69.2454 194.954 64.5112L195.165 64.4585L195.174 64.4673Z" fill="#9B6D2C"/>
<path d="M86.4054 77.0786C85.7237 81.8128 85.4686 86.6129 86.0272 91.3603C86.7352 96.1032 87.7072 100.829 88.402 105.576L86.5197 106.099C86.5329 106.125 86.4977 106.06 86.4977 106.064C86.6473 106.266 87.1091 106.288 87.2982 106.117C87.3114 106.108 87.3158 106.103 87.3114 106.103C87.2894 106.121 87.2146 106.24 87.153 106.372C86.2647 108.565 85.9348 111.049 85.561 113.396C85.0464 117.014 85.0157 120.794 85.8513 124.363L84.7254 122.825C84.5363 122.565 84.2064 122.319 83.9865 122.332C82.2406 122.737 82.0119 128.746 81.9151 130.363C81.8623 132.095 81.8711 133.832 82.0954 135.533C82.3197 137.049 82.5748 138.632 83.45 139.902C83.4896 139.955 83.5819 140.047 83.5599 140.025L83.4808 139.972C86.9068 141.946 90.3855 145.129 90.5086 149.348C90.4779 153.274 89.308 157.089 88.0194 160.751C87.0915 162.927 86.5417 165.305 86.6385 167.674C86.6737 169.239 87.0607 170.738 87.65 172.175C88.1074 173.38 88.9078 175.463 89.2992 176.685L89.352 176.857L89.3784 176.949L89.418 177.099L88.8638 178.303C88.8638 178.303 88.9078 178.277 88.8946 178.285C88.6439 178.452 88.7539 178.747 88.8814 179.028C89.6642 180.303 90.535 181.802 90.5306 183.384C90.0469 184.642 89.6335 185.973 89.308 187.301C89.0134 188.571 88.7671 189.868 88.7715 191.112C88.7935 191.938 88.877 192.699 89.352 193.314C90.5262 194.659 92.1491 195.767 93.9302 196.018L93.8247 196.391C93.5916 197.389 93.2221 198.642 94.027 199.468C94.2645 199.745 94.5635 199.996 94.8758 200.189L94.779 200.387C94.4096 200.216 94.0753 200 93.7675 199.728C93.0594 199.187 92.9187 198.251 92.9715 197.424C92.9847 197.016 93.0286 196.629 93.099 196.215L93.4376 196.677C91.3838 196.466 89.6115 195.38 88.2393 193.925C86.2778 191.152 87.7775 185.912 88.6439 182.883L88.5867 183.231C88.5208 182.809 88.3932 182.413 88.2173 182.017C87.5884 180.584 85.992 179.23 86.8188 177.459C87.0431 176.989 87.3729 176.615 87.8215 176.351L87.2674 177.556C87.1794 177.31 86.9903 176.756 86.8936 176.51C86.6385 175.802 85.7985 173.758 85.5082 173.019C83.859 169.388 83.9426 165.063 85.3455 161.38C86.7792 157.889 88.0722 154.263 88.5208 150.513C88.6879 149.304 88.5999 148.069 88.1558 146.926C87.1134 144.469 85.0728 142.5 82.8783 141.027C82.6892 140.913 82.566 140.711 82.4825 140.605C81.5501 139.124 81.339 137.309 81.1983 135.616C81.0883 133.84 81.1103 132.078 81.2202 130.324C81.4226 128.35 81.5105 121.73 83.9777 121.528C84.6066 121.528 85.0464 121.871 85.4247 122.315L84.6594 122.671C83.6479 118.011 83.7622 113.216 84.5671 108.543C84.7606 107.554 84.9585 106.499 85.3983 105.528C85.6138 105.128 85.8512 104.609 86.4318 104.372C87.2586 104.02 88.0854 104.631 88.3537 105.383L86.4714 105.906C85.8908 102.328 85.3719 98.7407 84.8749 95.1494C84.29 91.5405 84.2328 87.769 84.699 84.1601C85.0112 81.7381 85.4686 79.3468 86.1987 77.0215L86.4098 77.0742L86.4054 77.0786Z" fill="#9B6D2C"/>
<path d="M177.816 64.4717C180.094 69.0344 181.836 73.9181 182.5 78.9863C182.786 81.6985 183.239 84.4194 182.808 87.1447C182.649 88.0546 181.928 89.4525 181.563 90.3096C181.053 91.4745 180.512 92.6218 179.958 93.7647L179.399 92.8899C182.887 93.2196 181.484 101.418 180.71 103.664L180.6 103.457C179.364 104.398 180.639 105.941 181.132 106.969C181.84 108.499 182.034 110.222 181.779 111.866L181.647 111.853C181.545 110.104 181.062 108.328 180.028 106.917C179.936 106.798 179.755 106.547 179.672 106.424C178.735 105.255 178.511 103.303 179.923 102.349L179.641 102.719C179.817 101.976 179.949 101.145 180.037 100.341C180.116 98.8769 180.758 94.9383 179.426 94.1031C179.426 94.0987 179.373 94.0944 179.443 94.0944L178.885 93.2196C179.755 91.6064 180.789 89.8525 181.73 88.2612C182.051 87.7426 182.267 87.1755 182.385 86.5777C183.08 82.8282 181.673 79.083 180.683 75.5093C179.716 71.9664 178.594 68.0849 177.688 64.5244L177.812 64.4761L177.816 64.4717Z" fill="#9B6D2C"/>
<path d="M175.885 91.6548C176.069 93.2944 175.819 94.9779 175.102 96.4813C174.97 96.811 174.666 97.2373 174.491 97.5538C173.954 98.3582 173.69 99.6418 174.596 100.244L174.741 100.332C175.018 101.237 175.194 102.125 175.326 103.031C175.524 104.996 176.377 110.235 173.501 110.613L174.042 109.761C174.636 110.882 175.203 112.016 175.784 113.145C176.131 113.849 176.791 115.08 177.028 115.805C177.771 118.702 177.09 121.677 176.505 124.513C175.331 129.48 173.8 134.315 172.138 139.133L172.142 138.922C172.938 141.19 173.651 143.476 174.266 145.801C175.26 149.885 176.171 154.193 175.463 158.412L175.216 160.188C174.895 162.558 174.53 164.918 174.174 167.283L173.673 166.496C174.957 166.927 176.166 167.832 176.465 169.213C176.668 170.479 176.465 171.868 175.493 172.769C175.401 172.839 175.357 172.887 175.177 172.98L175.401 172.804C174.939 173.375 174.495 174.039 174.205 174.69C174.029 175.134 173.853 175.56 173.994 175.96C174.222 176.325 174.684 176.439 175.155 176.602C175.744 176.764 176.483 177.103 176.637 177.811C176.659 177.943 176.685 178.088 176.69 178.215L176.672 178.58C176.461 179.938 175.792 181.156 175.243 182.373C174.209 184.562 173.11 186.721 171.918 188.826L171.799 188.765C172.74 186.664 173.721 184.242 174.592 182.092C175.014 180.998 175.515 179.903 175.7 178.765C175.766 178.408 175.735 178.066 175.63 177.947C175.546 177.824 175.247 177.705 174.856 177.604C174.222 177.428 173.338 177.164 172.986 176.452C172.621 175.731 172.85 174.87 173.11 174.224C173.457 173.397 173.897 172.703 174.42 172.004L174.644 171.828C175.146 171.371 175.304 170.184 175.159 169.503C174.917 168.435 173.673 167.903 172.705 167.661C173.088 165.098 173.457 162.536 173.87 159.982L174.152 158.215C174.904 154.153 174.108 150.039 173.308 146.021C172.824 143.7 172.252 141.383 171.562 139.115L171.526 139.001L171.566 138.904C173.769 133.546 177.956 121.137 175.836 115.756C174.93 113.998 173.884 112.06 173.004 110.293L173.545 109.44C173.479 109.44 173.527 109.44 173.536 109.44C175.203 108.605 174.323 102.38 173.945 100.741L174.139 100.991C173.888 100.815 173.743 100.653 173.593 100.442C172.723 99.2242 173.466 97.7033 174.271 96.6923C174.842 95.8966 175.221 94.9911 175.458 94.0329C175.643 93.2636 175.753 92.4636 175.753 91.668L175.885 91.6548Z" fill="#9B6D2C"/>
<path d="M48.6888 108.807C48.7152 110.367 49.0802 111.989 49.8806 113.33C50.3028 114.055 50.9009 114.653 51.1428 115.488C51.4639 116.42 51.1824 117.572 50.3248 118.161L50.5315 117.888C50.1621 119.484 49.2649 125.708 50.9053 126.57C50.9097 126.574 50.9581 126.574 50.8921 126.574L51.4375 127.431C50.8526 128.557 50.2501 129.673 49.6343 130.785C49.3221 131.361 48.5437 132.662 48.3282 133.243C47.4926 135.902 47.9499 138.834 48.4293 141.546C49.3925 146.509 51.1824 151.296 53.0647 155.968L53.1131 156.087L53.0911 156.241C52.8976 157.63 52.7832 159.05 52.7393 160.452C52.6997 161.845 52.7217 163.274 53.0603 164.522C53.4473 165.753 54.2741 166.993 55.0042 168.101C55.8134 169.314 56.7018 170.505 57.6122 171.644C58.5445 175.811 59.4109 180.031 60.6555 184.11L60.8842 184.752C60.9722 184.941 61.0381 185.143 61.1613 185.301C61.4603 185.793 62.1376 186.207 62.6434 186.541C64.4553 187.596 66.43 188.365 68.4266 189.073L68.3914 189.2C66.5311 188.778 64.7016 188.259 62.9468 187.481C61.9441 186.98 60.827 186.505 60.2333 185.464C59.8243 184.721 59.5296 183.877 59.2614 183.086C58.0519 179.472 57.1504 175.802 56.2752 172.105L56.4159 172.4C55.4968 171.257 54.648 170.092 53.8387 168.879C53.0383 167.582 52.2555 166.391 51.8113 164.874C51.4419 163.336 51.4771 161.863 51.5474 160.404C51.6398 158.944 51.8245 157.516 52.084 156.074L52.1104 156.346C50.4436 151.524 49.1022 146.619 48.0291 141.634C47.5277 138.803 46.8109 135.858 47.5233 132.983C47.73 132.267 48.4161 130.992 48.7152 130.315C49.2605 129.168 49.8191 128.029 50.3952 126.9L50.9405 127.752C47.6201 127.44 49.0186 119.787 49.6168 117.62L49.6695 117.44L49.8235 117.348C50.7206 116.763 50.4392 115.497 49.9246 114.706C48.7636 112.983 48.3018 110.838 48.5569 108.794L48.6888 108.807Z" fill="#9B6D2C"/>
<path d="M44.8234 93.29C43.57 98.6396 41.7889 104.099 41.8197 109.607C41.8197 110.315 41.9956 111.145 42.1583 111.849C42.6069 113.967 42.9675 116.082 43.2314 118.262L43.2534 118.46C42.0792 119.436 40.9753 120.697 40.4783 122.161C39.9682 123.506 40.619 125.181 40.8565 126.596L40.7774 126.425C43.139 129.379 45.2896 132.658 45.5359 136.592C45.5975 138.509 45.4348 140.359 45.1973 142.21C44.9466 144.065 44.5992 145.872 44.111 147.691L43.592 148.302C43.3326 148.417 43.0555 148.821 43.0247 149.186C42.9587 149.683 43.1215 150.258 43.3018 150.746C43.724 151.889 44.3881 153.023 45.2105 153.911C46.3099 154.887 47.8492 156.439 48.0031 158.272C48.1087 159.221 47.4094 159.925 47.0092 160.703C46.6398 161.402 46.3231 162.158 46.1912 162.936H46.0153C45.9889 161.656 46.4375 160.443 46.9564 159.3C47.6601 157.612 45.448 155.903 44.2605 154.962C43.1259 153.929 42.343 152.746 41.7317 151.371C40.9357 149.841 41.0061 147.494 42.84 146.606L42.321 147.217C43.0951 143.77 43.8647 140.153 43.9131 136.627C43.8031 133.194 42.1187 129.739 40.1924 126.891L40.1221 126.794L40.1133 126.719C40.0121 125.744 39.845 124.798 39.7351 123.827C39.5811 122.394 40.2892 121.005 41.0896 119.871C41.5514 119.22 42.0484 118.614 42.6333 118.038L42.5145 118.354C42.0835 116.297 41.3931 114.244 40.7818 112.205C40.4255 111.145 40.21 109.967 40.2232 108.851C40.298 105.536 41.16 102.345 42.1935 99.2243C42.8928 97.1759 43.6888 95.167 44.6563 93.2329L44.8191 93.2944L44.8234 93.29Z" fill="#9B6D2C"/>
<path d="M144.985 63.7024C146.612 67.7464 147.883 71.918 148.754 76.1906C149.088 78.1467 149.603 80.1731 148.926 82.1424C148.13 84.4897 147.026 86.7007 145.966 88.9118L145.781 88.4678C147.193 89.1272 148.948 90.2613 148.776 92.0415C148.499 93.6416 147.875 95.0614 147.052 96.4548L147.021 95.9405C150.403 99.5802 152.976 104.525 152.176 109.638C151.784 112.961 149.471 116.49 145.658 115.928L146.265 114.293C148.09 115.541 150.505 117.251 150.307 119.77C150.267 120.337 150.192 120.869 149.937 121.422C149.695 121.963 149.326 122.275 149.027 122.684C148.521 123.449 147.633 123.902 146.911 124.284C145.72 124.86 144.497 125.33 143.235 125.713L143.169 125.55C144.308 124.93 145.451 124.31 146.498 123.581C147.131 123.128 147.751 122.728 148.086 122.099C148.301 121.708 148.675 121.304 148.785 120.934C148.934 120.491 148.952 119.853 148.908 119.304C148.517 117.739 146.722 116.657 145.377 115.818L142.078 113.915L145.983 114.183C146.7 114.249 147.479 114.042 148.077 113.633C149.453 112.706 150.052 110.952 150.364 109.321C151.226 104.714 148.934 99.8395 146.177 96.2174C147.109 94.9822 147.941 93.5009 148.218 91.9668C148.376 90.4723 146.74 89.5492 145.535 89.0832L145.218 88.9689L145.35 88.6392C146.305 86.1996 147.079 83.7073 147.663 81.1797C147.817 79.672 147.452 77.9928 147.237 76.4675C146.92 74.5906 146.397 72.0191 146.027 70.1333C145.61 68.0146 145.179 65.8959 144.814 63.7507L144.981 63.7024H144.985Z" fill="#9B6D2C"/>
<path d="M105.307 95.5142C105.039 96.7538 105.233 98.0637 105.325 99.3253C105.571 101.171 105.62 103.114 106.134 104.903C106.477 106.046 107.181 107.009 107.942 107.906C108.773 108.961 109.521 110.068 110.154 111.264C110.611 112.112 111.244 113.515 110.783 114.526C110.044 116.728 108.447 118.535 107.643 120.68C107.379 121.594 107.119 122.746 107.731 123.532L108.052 123.932C109.455 125.752 110.141 128.245 109.666 130.552C109.639 130.719 109.604 131.018 109.648 131.071C110.031 131.867 110.792 132.675 111.271 133.546C111.579 134.06 111.623 134.799 111.201 135.269L111.135 135.352L111.033 135.467C108.469 138.236 105.787 141.427 105.334 145.23C105.123 147.718 105.883 150.206 106.943 152.465L106.763 152.592C104.969 150.575 103.698 147.902 103.605 145.159C103.478 140.83 106.622 136.39 109.389 133.928C109.283 134.117 109.213 134.394 109.292 134.596C109.292 134.592 109.279 134.566 109.27 134.548C108.782 133.599 107.972 132.689 107.656 131.55C107.519 130.869 107.682 130.328 107.832 129.708C108.175 127.976 107.898 126.183 107.044 124.587L106.811 124.183C106.482 123.691 106.398 123.001 106.446 122.451C106.578 120.341 107.955 118.745 108.83 116.939C109.261 115.945 109.96 114.627 109.749 113.563C109.323 112.556 108.377 111.506 107.647 110.613C107.458 110.411 106.279 108.965 106.108 108.772C105.035 107.532 104.335 105.972 104.142 104.345C103.997 102.653 104.032 101.018 104.164 99.3209C104.305 97.989 104.41 96.5911 105.123 95.4087L105.321 95.5054L105.307 95.5142Z" fill="#9B6D2C"/>
<path d="M161.35 7.59131C163.039 7.97374 164.411 9.78477 163.84 11.5299C163.268 13.1167 161.984 14.2156 160.854 15.3893C160.071 16.1234 159.266 16.8443 158.268 17.3674L158.061 16.6465C159.393 16.4531 160.955 16.1893 162.133 17.086C163.866 18.7388 162.243 21.2092 160.686 22.295L160.629 22.229C161.122 21.6224 161.557 20.9631 161.852 20.2773C162.221 19.4246 162.309 18.5454 161.72 17.908C161.399 17.5476 160.919 17.508 160.423 17.4201C159.121 17.2223 157.085 17.4992 155.752 17.5915C157.322 16.9234 159.305 16.2465 160.656 15.1519C162.107 13.9563 163.453 11.8903 163.105 9.96499C162.885 9.07266 162.164 8.29023 161.32 7.66604L161.355 7.58691L161.35 7.59131Z" fill="#D3A759"/>
<path d="M73.8625 34.5501C72.0154 34.1677 68.8093 33.438 67.4416 35.0424C66.2673 37.0425 68.3344 39.1128 70.1595 39.7854L74.2056 41.4645L69.8516 40.8535C67.3976 40.5722 64.3015 40.4403 62.5247 42.3349C61.5836 43.5481 61.3857 45.5877 61.8826 47.0471C62.4983 48.8889 64.0772 49.1043 65.788 48.8361C66.7291 48.757 67.6395 48.6647 68.6114 48.6164L71.2502 48.4889C68.6642 49.7373 65.7484 51.0384 63.677 53.056C62.9645 53.7725 62.3268 54.6605 62.7358 55.6451C62.8766 56.1374 63.1272 56.5946 63.4879 56.9638C63.8485 57.3286 64.3323 57.5968 64.8644 57.6627C63.18 57.6715 61.7243 55.6539 62.2872 54.0538C62.9205 52.4714 64.3411 51.4076 65.634 50.4142C66.5224 49.7812 67.4328 49.2054 68.4047 48.6735L68.6774 49.6889L65.9155 50.023C64.4026 50.3263 62.5467 50.2296 61.478 48.8977C59.8024 46.8185 59.9651 43.5921 61.5352 41.5129C63.7034 39.1524 67.1645 39.337 70.0539 39.7502L69.7461 40.8184C69.1304 40.5458 68.6158 40.2206 68.1101 39.8249C66.54 38.6821 65.4933 36.2908 66.8347 34.5677C68.5631 32.7215 71.8439 33.7896 73.8625 34.5457V34.5501Z" fill="#D3A759"/>
<path d="M142.716 224.067L133.63 218.827L106.39 205.785C104.287 204.778 101.772 205.666 100.765 207.768C99.7576 209.869 100.646 212.383 102.748 213.39L129.989 226.432L139.77 230.225C141.129 230.753 142.659 230.146 143.288 228.832L143.838 227.684C144.467 226.37 143.979 224.796 142.716 224.071V224.067Z" fill="#2A1A09"/>
<path d="M100.334 224.067L109.42 218.827L136.66 205.785C138.763 204.778 141.278 205.666 142.285 207.768C143.292 209.869 142.404 212.383 140.302 213.39L113.061 226.432L103.28 230.225C101.921 230.753 100.391 230.146 99.762 228.832L99.2122 227.684C98.5833 226.37 99.0715 224.796 100.334 224.071V224.067Z" fill="#2A1A09"/>
<path d="M110.37 157.375C110.203 157.375 110.054 157.472 109.988 157.626C107.485 163.16 102.305 167.107 92.8403 168.764C92.4313 168.835 92.0355 168.892 91.6397 168.945C80.5261 170.474 74.5318 165.388 71.4005 157.643C71.3345 157.485 71.1806 157.379 71.0091 157.379C70.7232 157.379 70.5165 157.661 70.6045 157.933C73.4675 166.901 79.5014 173.125 91.6397 171.454C92.0355 171.402 92.4313 171.345 92.8403 171.274C103.518 169.406 108.748 164.624 110.823 157.929C110.907 157.656 110.7 157.384 110.414 157.384H110.37V157.375Z" fill="#2B1907"/>
<path d="M172.037 157.375C171.866 157.375 171.712 157.48 171.646 157.639C168.515 165.384 162.52 170.474 151.407 168.94V168.909C151.073 168.861 150.738 168.817 150.395 168.755C140.931 167.098 135.75 163.151 133.248 157.617C133.178 157.467 133.032 157.366 132.865 157.366H132.821C132.535 157.366 132.329 157.643 132.412 157.911C134.488 164.606 139.717 169.388 150.395 171.257C150.738 171.318 151.073 171.362 151.407 171.411V171.441C163.549 173.116 169.583 166.887 172.446 157.92C172.534 157.648 172.328 157.366 172.042 157.366L172.037 157.375Z" fill="#2B1907"/>
<path d="M121.523 181.604C116.06 181.604 111.632 177.178 111.632 171.718H107.964C107.964 179.204 114.033 185.27 121.523 185.27C129.012 185.27 135.081 179.204 135.081 171.718H131.414C131.414 177.178 126.985 181.604 121.523 181.604Z" fill="#2A1A09"/>
</g>
<defs>
<clipPath id="clip0_1431_23186">
<rect width="239" height="281" fill="white"/>
</clipPath>
</defs>
</svg>
