<svg width="440" height="956" viewBox="0 0 440 956" fill="none" xmlns="http://www.w3.org/2000/svg">
<g clip-path="url(#clip0_1707_19022)">
<rect width="440" height="956" fill="#FFF5E7"/>
<circle cx="175.5" cy="16.5" r="321.5" fill="#F6DCB7"/>
<path d="M212.219 768.41V714.857H202.122V769.821L196.779 770.569C194.578 770.88 192.939 772.762 192.939 774.988V778.508H212.219V768.41Z" fill="#2B1907"/>
<path d="M238.424 769.83V714.866H228.326V778.517H247.606V774.997C247.606 772.77 245.968 770.888 243.767 770.578L238.424 769.83Z" fill="#2B1907"/>
<path d="M160.496 681.653H204.424C208.028 681.653 210.96 684.577 210.96 688.19V697.222H153.969V688.19C153.969 684.586 156.892 681.653 160.505 681.653H160.496Z" fill="#B2853D"/>
<path d="M236.129 681.653H280.057C283.661 681.653 286.593 684.577 286.593 688.19V697.222H229.602V688.19C229.602 684.586 232.525 681.653 236.137 681.653H236.129Z" fill="#B2853D"/>
<path d="M232.711 694.206C231.737 697.617 226.722 700.221 220.673 700.221C214.624 700.221 209.668 697.65 208.651 694.273C206.769 693.836 205.627 693.466 205.627 693.466C205.627 700.625 210.264 706.43 220.673 706.43C230.384 706.43 235.719 700.625 235.719 693.466C235.719 693.466 234.551 693.794 232.711 694.206Z" fill="#2B1907"/>
<path d="M220.672 700.221C226.721 700.221 231.744 697.617 232.71 694.206C229.737 694.869 225.007 695.743 220.672 695.743C215.892 695.743 211.448 694.928 208.65 694.281C209.667 697.659 214.665 700.23 220.672 700.23V700.221Z" fill="white"/>
<path d="M137.596 797.564C137.856 797.295 138.024 797.144 138.024 797.144C138.024 797.144 137.831 797.286 137.596 797.564Z" fill="#5D8E57"/>
<path d="M398.342 587.033C393.435 583.648 386.95 580.203 382.187 579.589C380.851 579.421 379.448 579.674 378.129 580.102C378.709 578.228 379.288 576.019 379.591 573.91C380.708 566.096 378.213 556.787 365.797 551.46C353.38 546.134 350.322 542.353 350.322 542.353C350.322 542.353 352.498 546.218 353.909 553.964C355.48 562.559 358.639 572.868 362.94 578.438C363.806 579.564 364.948 580.505 366.192 581.278C356.06 580.934 334.806 581.799 317.223 593.099C293.205 608.533 287.602 648.702 287.602 648.702L294.255 652.844C294.255 652.844 299.858 612.675 323.876 597.242C341.972 585.614 363.974 585.034 373.719 585.454C374.382 586.773 375.298 588.411 376.34 589.798C379.566 594.108 385.261 597.384 393.814 593.973C402.366 590.554 405.659 590.898 405.659 590.898C405.659 590.898 402.744 590.083 398.333 587.033H398.342Z" fill="#5D8E57"/>
<path d="M326.833 777.887C329.412 768.284 330.571 758.109 330.059 747.616L326.774 679.772C324.237 627.454 281.09 586.336 228.711 586.336H207.121C154.75 586.336 111.603 627.446 109.066 679.763L105.773 747.607C105.261 758.101 106.42 768.284 108.999 777.887H326.833Z" fill="#B2853D"/>
<path d="M372.509 578.615C371.879 573.448 369.93 568.533 367.578 563.92C365.864 560.442 363.336 557.417 360.538 554.729C359.614 553.813 358.631 552.956 357.623 552.116C362.017 554.956 365.948 558.82 368.317 563.534C370.678 568.197 372.518 573.338 372.501 578.615H372.509Z" fill="#246F1B"/>
<path d="M376.885 583.429C382.824 587.403 390.158 587.882 396.963 589.336C397.946 589.562 398.937 589.764 399.92 590.025C398.903 589.966 397.904 589.848 396.896 589.756C389.982 588.949 382.303 588.302 376.885 583.429Z" fill="#246F1B"/>
<path d="M305.066 658.507C308.174 665.144 309.771 672.521 309.493 679.864C309.443 684.107 309.309 688.686 308.998 692.887L306.99 692.593C307.175 692.088 307.275 691.82 307.754 691.433C310.065 690.164 310.989 694.382 311.476 695.844C312.492 699.465 313.207 703.154 313.593 706.892C313.786 708.766 313.895 710.614 313.786 712.547L312.954 712.278C313.307 711.69 313.753 711.202 314.492 711.093C317.499 710.875 318.986 718.772 319.591 721.041C320.364 724.805 321.498 730.837 319.339 734.274C317.046 736.29 314.761 738.752 313.828 741.717C313.685 742.104 313.618 742.566 313.526 742.969L313.475 743.591C313.475 743.692 313.45 743.801 313.45 743.902C313.467 744.188 313.484 744.532 313.501 744.826C314.273 749.632 316.399 754.144 318.583 758.47C320.75 762.68 321.347 767.872 319.726 772.35C319.121 774.266 318.465 776.207 317.945 778.122L317.676 778.097C317.97 774.131 319.558 770.283 318.902 766.309C318.583 764.192 317.928 762.092 316.945 760.201C316.558 759.554 316.155 758.924 315.802 758.269C314.282 755.555 312.929 752.808 311.888 749.85C310.157 744.994 310.014 741.491 313.097 737.147C314.383 735.357 315.828 733.87 317.583 732.518L317.441 732.644L317.399 732.694C317.819 732.022 317.97 731.207 318.104 730.4C318.516 727.418 318.188 724.368 317.827 721.343C317.516 719.394 316.684 712.429 314.626 712.017C314.357 712.017 313.971 712.345 313.761 712.689L312.702 714.37L312.929 712.429C313.24 708.799 312.719 705.069 311.812 701.54C311.005 698.768 310.157 695.844 308.636 693.391C308.536 693.239 308.401 693.105 308.342 693.071C308.326 693.055 308.3 693.071 308.426 693.122C308.536 693.172 308.83 693.122 308.922 693.046C309.023 692.971 309.023 692.954 309.014 692.987C309.014 692.987 308.981 693.088 308.989 693.071L306.981 692.777C306.948 689.887 306.965 686.997 307.074 684.107C307.149 681.729 307.385 677.881 307.376 675.503C307.292 669.807 306.301 664.111 304.848 658.574L305.091 658.473V658.498L305.066 658.507Z" fill="#9B6D2C"/>
<path d="M178.895 630.042C178.08 635.713 177.777 641.468 178.441 647.165C179.289 652.853 180.449 658.516 181.289 664.204L179.029 664.834C179.029 664.834 179.004 664.783 179.004 664.792C179.18 665.035 179.735 665.061 179.961 664.85C179.978 664.85 179.978 664.834 179.978 664.834C179.953 664.859 179.861 665.002 179.793 665.153C178.727 667.783 178.34 670.757 177.886 673.58C177.265 677.915 177.231 682.452 178.231 686.729L176.878 684.88C176.652 684.569 176.257 684.275 175.996 684.292C173.904 684.779 173.636 691.98 173.51 693.92C173.451 695.996 173.459 698.079 173.728 700.121C173.997 701.936 174.299 703.834 175.349 705.364C175.4 705.431 175.509 705.532 175.484 705.515L175.391 705.448C179.499 707.817 183.666 711.631 183.809 716.689C183.767 721.394 182.372 725.965 180.827 730.359C179.718 732.963 179.054 735.82 179.172 738.66C179.214 740.542 179.676 742.331 180.381 744.062C180.928 745.507 181.885 748.002 182.356 749.473L182.414 749.674L182.448 749.784L182.499 749.96L181.835 751.405C181.835 751.405 181.885 751.371 181.877 751.38C181.574 751.581 181.709 751.934 181.86 752.27C182.801 753.8 183.843 755.598 183.834 757.496C183.255 759 182.759 760.605 182.372 762.193C182.02 763.714 181.726 765.268 181.734 766.763C181.759 767.755 181.86 768.662 182.431 769.402C183.834 771.015 185.783 772.342 187.917 772.645L187.791 773.098C187.514 774.3 187.069 775.795 188.035 776.787C188.32 777.114 188.673 777.417 189.051 777.652L188.934 777.887C188.488 777.686 188.085 777.425 187.715 777.098C186.867 776.451 186.699 775.325 186.766 774.333C186.783 773.846 186.833 773.376 186.917 772.888L187.321 773.443C184.859 773.191 182.734 771.888 181.087 770.141C178.735 766.814 180.533 760.529 181.574 756.9L181.507 757.311C181.432 756.799 181.272 756.337 181.062 755.858C180.306 754.136 178.39 752.522 179.39 750.397C179.659 749.834 180.054 749.38 180.592 749.069L179.928 750.514C179.827 750.22 179.592 749.557 179.474 749.263C179.163 748.414 178.164 745.961 177.811 745.079C175.828 740.726 175.937 735.543 177.618 731.123C179.331 726.939 180.886 722.587 181.423 718.092C181.625 716.639 181.516 715.16 180.986 713.791C179.743 710.85 177.29 708.481 174.661 706.716C174.434 706.582 174.291 706.338 174.19 706.212C173.073 704.439 172.821 702.255 172.653 700.23C172.518 698.104 172.552 695.987 172.678 693.887C172.922 691.526 173.031 683.586 175.979 683.343C176.727 683.343 177.256 683.754 177.71 684.284L176.794 684.712C175.585 679.125 175.719 673.378 176.685 667.774C176.92 666.59 177.156 665.321 177.676 664.162C177.937 663.683 178.222 663.061 178.92 662.775C179.911 662.355 180.902 663.086 181.222 663.985L178.962 664.615C178.264 660.322 177.643 656.02 177.046 651.719C176.341 647.392 176.273 642.872 176.836 638.545C177.206 635.646 177.76 632.773 178.634 629.992L178.886 630.059V630.042H178.895Z" fill="#9B6D2C"/>
<path d="M294.338 674.697C297.068 680.167 299.152 686.023 299.95 692.097C300.294 695.349 300.84 698.609 300.32 701.877C300.126 702.969 299.261 704.649 298.833 705.666C298.219 707.061 297.572 708.439 296.909 709.808L296.245 708.758C300.429 709.153 298.74 718.983 297.816 721.671L297.682 721.419C296.203 722.545 297.724 724.393 298.32 725.629C299.169 727.46 299.404 729.527 299.093 731.501L298.933 731.485C298.816 729.393 298.236 727.258 296.993 725.57C296.884 725.427 296.665 725.124 296.564 724.982C295.439 723.579 295.178 721.243 296.867 720.1L296.531 720.546C296.741 719.655 296.9 718.655 297.001 717.689C297.094 715.933 297.866 711.211 296.27 710.211C296.27 710.211 296.212 710.211 296.287 710.203L295.623 709.153C296.665 707.212 297.908 705.12 299.034 703.213C299.421 702.591 299.681 701.91 299.824 701.196C300.656 696.701 298.967 692.206 297.782 687.922C296.623 683.67 295.279 679.016 294.195 674.756L294.347 674.697H294.338Z" fill="#9B6D2C"/>
<path d="M285.081 616.507C285.409 618.456 285.216 620.489 284.451 622.338C284.317 622.741 283.981 623.27 283.779 623.665C283.183 624.665 282.956 626.219 284.082 626.883L284.266 626.984C284.653 628.051 284.922 629.101 285.149 630.176C285.51 632.521 286.871 638.729 283.46 639.368L284.048 638.309C284.838 639.612 285.585 640.939 286.35 642.25C286.812 643.065 287.686 644.501 288.013 645.358C289.089 648.778 288.467 652.382 287.946 655.819C286.871 661.843 285.342 667.732 283.67 673.605L283.653 673.353C284.754 676.016 285.753 678.705 286.644 681.444C288.097 686.258 289.467 691.366 288.895 696.458L288.719 698.6C288.484 701.457 288.206 704.305 287.929 707.161L287.282 706.254C288.845 706.683 290.349 707.699 290.794 709.329C291.122 710.825 290.97 712.505 289.861 713.656C289.761 713.748 289.71 713.807 289.5 713.925L289.761 713.698C289.24 714.404 288.761 715.236 288.45 716.034C288.265 716.571 288.089 717.101 288.282 717.563C288.584 717.983 289.147 718.092 289.719 718.26C290.433 718.411 291.34 718.773 291.567 719.613C291.6 719.772 291.642 719.941 291.651 720.1V720.537C291.483 722.175 290.76 723.679 290.181 725.166C289.089 727.847 287.912 730.51 286.627 733.106L286.484 733.039C287.476 730.459 288.492 727.494 289.391 724.872C289.828 723.536 290.357 722.184 290.5 720.814C290.55 720.386 290.5 719.974 290.365 719.84C290.256 719.705 289.895 719.579 289.416 719.478C288.643 719.31 287.576 719.058 287.106 718.227C286.627 717.386 286.846 716.336 287.106 715.546C287.467 714.538 287.946 713.673 288.534 712.799L288.795 712.572C289.366 711.992 289.475 710.556 289.257 709.758C288.904 708.497 287.375 707.943 286.199 707.708C286.484 704.624 286.761 701.524 287.089 698.44L287.308 696.306C287.946 691.391 286.728 686.518 285.51 681.763C284.779 679.016 283.939 676.277 282.973 673.613L282.922 673.479L282.964 673.361C285.258 666.808 289.45 651.676 286.568 645.375C285.375 643.325 283.998 641.082 282.821 639.015L283.41 637.956C283.334 637.956 283.393 637.956 283.41 637.956C285.35 636.847 283.888 629.454 283.342 627.522L283.586 627.807C283.275 627.614 283.09 627.421 282.897 627.185C281.78 625.791 282.569 623.917 283.468 622.657C284.098 621.674 284.502 620.556 284.712 619.389C284.888 618.456 284.964 617.49 284.913 616.54L285.073 616.515H285.098L285.081 616.507Z" fill="#9B6D2C"/>
<path d="M139.377 630.034C139.099 631.89 139.209 633.873 139.889 635.621C140.242 636.562 140.838 637.394 140.956 638.427C141.149 639.595 140.595 640.897 139.461 641.418L139.763 641.141C139.007 642.956 136.714 650.139 138.486 651.483C138.486 651.483 138.553 651.492 138.469 651.483L138.948 652.601C138.041 653.819 137.1 655.02 136.151 656.205C135.672 656.827 134.487 658.213 134.126 658.852C132.614 661.834 132.572 665.388 132.597 668.69C132.757 674.748 133.916 680.763 135.21 686.661L135.243 686.813L135.185 686.989C134.681 688.594 134.26 690.249 133.933 691.896C133.614 693.534 133.353 695.231 133.504 696.777C133.714 698.315 134.445 699.944 135.092 701.398C135.815 702.994 136.621 704.574 137.47 706.103C137.747 711.22 137.923 716.378 138.595 721.444L138.738 722.243C138.805 722.486 138.839 722.738 138.948 722.948C139.2 723.587 139.923 724.209 140.452 724.704C142.376 726.317 144.568 727.611 146.786 728.846L146.719 728.989C144.61 728.124 142.535 727.149 140.62 725.881C139.536 725.082 138.31 724.309 137.814 722.957C137.478 721.999 137.302 720.949 137.134 719.957C136.428 715.446 136.083 710.934 135.781 706.38L135.89 706.758C135.033 705.229 134.26 703.683 133.538 702.079C132.849 700.39 132.16 698.827 131.942 696.937C131.807 695.038 132.152 693.316 132.513 691.602C132.908 689.896 133.42 688.241 134.008 686.586L133.983 686.913C132.967 680.881 132.362 674.815 132.076 668.707C132.043 665.262 131.782 661.641 133.194 658.381C133.572 657.575 134.639 656.205 135.134 655.457C136.008 654.205 136.898 652.979 137.797 651.752L138.276 652.87C134.412 651.845 137.587 643.073 138.721 640.628L138.822 640.435L139.024 640.359C140.2 639.847 140.116 638.293 139.662 637.259C138.629 634.991 138.511 632.361 139.217 629.992L139.368 630.034H139.377Z" fill="#9B6D2C"/>
<path d="M127.32 654.726C124.766 660.801 121.565 666.884 120.499 673.403C120.356 674.244 120.398 675.26 120.448 676.126C120.557 678.713 120.549 681.293 120.431 683.922L120.415 684.158C118.835 685.073 117.273 686.342 116.391 687.972C115.517 689.459 115.954 691.568 115.945 693.29L115.886 693.072C118.087 697.038 119.961 701.339 119.474 706.044C119.163 708.329 118.592 710.48 117.945 712.623C117.273 714.765 116.5 716.832 115.559 718.882L114.82 719.495C114.492 719.579 114.089 719.999 113.971 720.428C113.795 720.999 113.87 721.713 113.988 722.335C114.257 723.772 114.811 725.242 115.609 726.46C116.718 727.83 118.213 729.981 118.029 732.174C117.961 733.325 116.995 734.005 116.365 734.845C115.794 735.601 115.265 736.433 114.946 737.324L114.736 737.29C114.962 735.778 115.735 734.434 116.575 733.182C117.743 731.325 115.475 728.863 114.265 727.511C113.131 726.065 112.451 724.511 111.997 722.764C111.367 720.798 111.921 718.033 114.265 717.353L113.526 717.966C115.139 714.051 116.769 709.926 117.533 705.767C118.087 701.684 116.794 697.264 115.088 693.517L115.021 693.391L115.038 693.299C115.097 692.122 115.088 690.971 115.164 689.804C115.265 688.081 116.382 686.577 117.558 685.393C118.239 684.712 118.944 684.099 119.751 683.536L119.549 683.889C119.457 681.377 119.045 678.806 118.734 676.268C118.524 674.949 118.516 673.513 118.743 672.185C119.49 668.278 121.162 664.682 123.002 661.204C124.237 658.927 125.581 656.709 127.11 654.617L127.286 654.726H127.312H127.32Z" fill="#9B6D2C"/>
<path d="M245.454 604.71C247.689 609.432 249.52 614.33 250.856 619.38C251.402 621.699 252.158 624.085 251.486 626.488C250.705 629.353 249.545 632.083 248.436 634.805L248.184 634.285C249.915 634.973 252.099 636.2 252.024 638.343C251.805 640.275 251.158 642.023 250.276 643.753L250.201 643.132C254.51 647.24 257.938 652.978 257.35 659.154C257.123 663.161 254.611 667.547 250.016 667.152L250.629 665.152C252.906 666.514 255.905 668.387 255.854 671.42C255.846 672.101 255.796 672.748 255.535 673.428C255.283 674.092 254.872 674.495 254.535 675.008C253.989 675.957 252.956 676.57 252.116 677.075C250.73 677.847 249.31 678.494 247.823 679.049L247.739 678.864C249.058 678.032 250.385 677.217 251.578 676.268C252.301 675.68 253.007 675.167 253.376 674.378C253.611 673.89 254.023 673.378 254.132 672.932C254.283 672.395 254.258 671.63 254.166 670.975C253.586 669.127 251.36 667.967 249.688 667.051L245.605 665.01L250.293 665.043C251.15 665.068 252.066 664.766 252.763 664.237C254.342 663.018 254.93 660.884 255.182 658.91C255.88 653.34 252.788 647.668 249.226 643.526C250.251 641.981 251.142 640.149 251.36 638.292C251.436 636.494 249.419 635.503 247.941 635.041L247.554 634.931L247.689 634.528C248.655 631.537 249.403 628.496 249.915 625.429C249.991 623.614 249.436 621.632 249.067 619.825C248.554 617.599 247.739 614.557 247.16 612.331C246.504 609.827 245.841 607.315 245.244 604.778L245.446 604.71H245.454Z" fill="#9B6D2C"/>
<path d="M270.514 708.497L270.313 708.455C270.548 705.859 270.867 703.28 271.17 700.709C271.439 698.423 271.833 695.298 272.035 693.021C272.153 691.181 272.438 689.139 272.111 687.35C271.178 684.376 270.019 681.469 268.658 678.646L268.465 678.268L268.834 678.108C270.229 677.444 272.102 676.184 271.775 674.42C271.304 672.613 270.17 670.908 268.943 669.521C271.901 664.934 274.186 658.893 272.732 653.474C272.211 651.559 271.329 649.517 269.607 648.534C268.851 648.105 267.902 647.929 267.053 648.072L262.416 648.752L266.18 646.173C267.709 645.039 269.758 643.585 270.078 641.678C270.078 641.023 270.002 640.258 269.775 639.746C269.607 639.317 269.128 638.872 268.834 638.418C268.364 637.687 267.591 637.276 266.793 636.788C265.474 636.015 264.054 635.385 262.634 634.738L262.693 634.537C264.239 634.881 265.734 635.326 267.213 635.906C268.112 636.293 269.212 636.755 269.893 637.62C270.288 638.082 270.758 638.418 271.094 639.04C271.447 639.678 271.581 640.309 271.682 640.981C272.153 643.98 269.431 646.24 267.364 647.904L266.482 646.005C270.976 644.98 274.068 648.996 274.841 652.928C276.269 658.969 273.656 665.119 269.952 669.782V669.16C271.052 670.748 271.934 672.395 272.413 674.277C272.774 676.386 270.792 677.906 269.17 678.822L269.347 678.268C270.817 680.805 272.346 683.351 273.505 686.09C274.496 688.383 274.076 690.845 273.85 693.214C273.211 698.407 272.077 703.506 270.506 708.489L270.514 708.497Z" fill="#9B6D2C"/>
<path d="M198.273 596.872C197.887 598.065 197.937 599.376 197.887 600.627C197.92 602.476 197.769 604.383 198.063 606.206C198.273 607.366 198.845 608.382 199.466 609.348C200.147 610.474 200.743 611.642 201.214 612.877C201.566 613.759 202.02 615.205 201.466 616.154C200.533 618.246 198.819 619.859 197.82 621.892C197.467 622.766 197.106 623.875 197.601 624.707L197.87 625.135C199.013 627.076 199.399 629.605 198.702 631.823C198.66 631.983 198.593 632.277 198.626 632.336C198.912 633.159 199.542 634.033 199.903 634.94C200.147 635.478 200.105 636.209 199.651 636.629L199.575 636.705L199.466 636.814C196.728 639.275 193.829 642.149 193.006 645.846C192.544 648.274 193.006 650.803 193.77 653.138L193.586 653.248C192.09 651.08 191.166 648.316 191.359 645.61C191.695 641.334 195.157 637.284 198.055 635.142C197.937 635.318 197.836 635.579 197.887 635.789C197.887 635.789 197.878 635.755 197.87 635.738C197.5 634.755 196.828 633.772 196.652 632.621C196.593 631.941 196.812 631.42 197.013 630.823C197.526 629.151 197.45 627.362 196.812 625.698L196.635 625.278C196.375 624.757 196.366 624.068 196.467 623.539C196.82 621.472 198.299 620.044 199.323 618.355C199.844 617.423 200.642 616.196 200.558 615.12C200.256 614.087 199.466 612.961 198.87 611.995C198.71 611.777 197.744 610.231 197.593 610.021C196.702 608.693 196.198 607.08 196.181 605.467C196.223 603.778 196.425 602.173 196.736 600.518C197.013 599.224 197.257 597.855 198.063 596.763L198.24 596.88H198.256L198.273 596.872Z" fill="#9B6D2C"/>
<path d="M163.798 611.121C163.261 612.541 163.261 614.129 163.126 615.641C163.084 617.876 162.799 620.178 163.076 622.396C163.277 623.816 163.941 625.076 164.68 626.286C165.478 627.689 166.159 629.134 166.697 630.663C167.091 631.756 167.587 633.528 166.856 634.637C165.588 637.116 163.37 638.973 162.026 641.367C161.547 642.401 161.043 643.728 161.622 644.761L161.933 645.291C163.269 647.702 163.63 650.786 162.656 653.432C162.589 653.625 162.496 653.978 162.538 654.045C162.849 655.054 163.605 656.154 164.008 657.272C164.286 657.935 164.201 658.818 163.613 659.305L163.513 659.389L163.37 659.515C159.833 662.338 156.078 665.64 154.86 670.059C154.162 672.966 154.616 676.058 155.465 678.931L155.229 679.049C153.465 676.335 152.44 672.941 152.818 669.673C153.448 664.514 157.968 659.826 161.69 657.398C161.53 657.599 161.396 657.919 161.454 658.171C161.454 658.171 161.446 658.129 161.438 658.112C161.026 656.902 160.236 655.675 160.068 654.264C160.035 653.432 160.32 652.827 160.606 652.113C161.32 650.122 161.32 647.946 160.598 645.896L160.396 645.375C160.093 644.736 160.119 643.896 160.278 643.258C160.816 640.779 162.731 639.132 164.092 637.15C164.79 636.049 165.848 634.612 165.789 633.31C165.462 632.041 164.529 630.63 163.823 629.437C163.639 629.159 162.496 627.235 162.328 626.975C161.278 625.311 160.732 623.337 160.791 621.379C160.925 619.346 161.253 617.414 161.715 615.431C162.118 613.877 162.496 612.247 163.555 610.97L163.773 611.121H163.798Z" fill="#9B6D2C"/>
<path d="M232.164 742.129H209.465V591.553C209.465 586.269 214.161 582.211 219.395 582.984L220.814 583.194L222.234 582.984C227.468 582.211 232.164 586.26 232.164 591.553V742.129Z" fill="#9B6D2C"/>
<path d="M222.325 651.114C221.762 648.719 221.46 646.316 221.661 643.922C221.838 641.527 222.787 639.124 223.165 636.73C223.316 635.318 223.35 633.924 223.3 632.529C224.324 625.866 223.829 618.969 222.325 612.398C221.762 610.004 221.46 607.601 221.661 605.206C221.838 602.812 222.787 600.409 223.165 598.015C223.686 593.1 222.989 588.277 221.006 583.631H220.418C219.301 586.025 218.78 588.428 218.419 590.823C218.116 593.217 217.881 595.612 218.259 598.015C218.637 600.409 219.586 602.812 219.763 605.206C220.149 608.819 219.007 612.44 218.343 615.994C217.873 619.573 217.486 623.178 217.57 626.782C217.671 628.664 217.847 630.563 218.125 632.437C218.032 633.865 218.032 635.293 218.259 636.73C218.637 639.124 219.586 641.527 219.763 643.922C220.149 647.534 219.007 651.156 218.343 654.709C217.873 658.289 217.486 661.893 217.57 665.497C217.73 668.598 218.099 671.715 218.813 674.748C218.662 675.487 218.536 676.218 218.427 676.957C218.125 679.352 217.889 681.746 218.267 684.149C218.645 686.544 219.595 688.947 219.771 691.341C220.158 694.954 219.015 698.575 218.351 702.129C217.881 705.708 217.495 709.312 217.579 712.917C217.831 717.79 218.578 722.713 220.426 727.3H221.014C224.585 718.151 224.509 708.002 222.333 698.541C221.771 696.147 221.468 693.744 221.67 691.349C221.846 688.955 222.795 686.552 223.173 684.158C223.51 680.965 223.333 677.823 222.627 674.739C224.484 667.018 224.106 658.843 222.333 651.13L222.325 651.114Z" fill="#855D26"/>
<path d="M220.001 678.948C318.593 678.948 398.518 726.156 398.519 784.39C398.519 842.623 318.594 889.832 220.001 889.832C121.408 889.832 41.4824 842.623 41.4824 784.39C41.4827 726.156 121.408 678.948 220.001 678.948Z" fill="#735433"/>
<path d="M309.014 754.003C346.429 753.95 384.37 754.424 420.123 765.16C426.867 767.239 433.477 769.797 440 772.617L440 956.5H0.000130415L0 763.435C0.0605702 763.461 0.120903 763.487 0.181489 763.513C6.41556 766.167 12.7929 768.469 19.2702 770.44C99.8006 793.846 183.49 770.905 263.044 758.429C278.364 756.096 293.82 754.159 309.014 754.003Z" fill="#463019"/>
<path d="M65.06 142V154.51C65.06 157.39 64.32 159.58 62.84 161.08C61.38 162.56 59.28 163.3 56.54 163.3C55.06 163.3 53.74 163.07 52.58 162.61C51.44 162.13 50.53 161.48 49.85 160.66C49.15 161.48 48.23 162.13 47.09 162.61C45.97 163.07 44.67 163.3 43.19 163.3C40.45 163.3 38.34 162.55 36.86 161.05C35.38 159.55 34.64 157.37 34.64 154.51V142H38.54V154.39C38.54 156.29 38.93 157.68 39.71 158.56C40.51 159.44 41.67 159.88 43.19 159.88C46.33 159.88 47.9 158.05 47.9 154.39V142H51.8V154.39C51.8 158.05 53.38 159.88 56.54 159.88C59.64 159.88 61.19 158.05 61.19 154.39V142H65.06ZM77.8222 160.03C79.5622 160.03 81.0122 159.45 82.1722 158.29L84.1522 160.6C83.4522 161.46 82.5522 162.11 81.4522 162.55C80.3522 162.99 79.1122 163.21 77.7322 163.21C75.9722 163.21 74.4222 162.86 73.0822 162.16C71.7422 161.46 70.7022 160.49 69.9622 159.25C69.2422 157.99 68.8822 156.57 68.8822 154.99C68.8822 153.43 69.2322 152.03 69.9322 150.79C70.6522 149.53 71.6322 148.55 72.8722 147.85C74.1322 147.15 75.5522 146.8 77.1322 146.8C78.6322 146.8 79.9922 147.13 81.2122 147.79C82.4522 148.43 83.4322 149.36 84.1522 150.58C84.8722 151.78 85.2322 153.19 85.2322 154.81L72.9622 157.21C73.3422 158.13 73.9522 158.83 74.7922 159.31C75.6322 159.79 76.6422 160.03 77.8222 160.03ZM77.1322 149.8C75.7522 149.8 74.6322 150.25 73.7722 151.15C72.9322 152.05 72.5122 153.26 72.5122 154.78V154.81L81.5722 153.07C81.3122 152.09 80.7822 151.3 79.9822 150.7C79.2022 150.1 78.2522 149.8 77.1322 149.8ZM94.115 163.21C92.455 163.21 91.155 162.76 90.215 161.86C89.295 160.94 88.835 159.65 88.835 157.99V140.74H92.585V157.72C92.585 159.32 93.335 160.12 94.835 160.12C95.335 160.12 95.785 160.02 96.185 159.82L96.365 162.82C95.665 163.08 94.915 163.21 94.115 163.21ZM104.193 163.21C102.533 163.21 101.233 162.76 100.293 161.86C99.3731 160.94 98.9131 159.65 98.9131 157.99V140.74H102.663V157.72C102.663 159.32 103.413 160.12 104.913 160.12C105.413 160.12 105.863 160.02 106.263 159.82L106.443 162.82C105.743 163.08 104.993 163.21 104.193 163.21ZM117.642 142H126.822C129.062 142 131.052 142.44 132.792 143.32C134.532 144.18 135.882 145.41 136.842 147.01C137.802 148.59 138.282 150.42 138.282 152.5C138.282 154.58 137.802 156.42 136.842 158.02C135.882 159.6 134.532 160.83 132.792 161.71C131.052 162.57 129.062 163 126.822 163H117.642V142ZM126.642 159.7C128.182 159.7 129.532 159.41 130.692 158.83C131.872 158.23 132.772 157.39 133.392 156.31C134.032 155.21 134.352 153.94 134.352 152.5C134.352 151.06 134.032 149.8 133.392 148.72C132.772 147.62 131.872 146.78 130.692 146.2C129.532 145.6 128.182 145.3 126.642 145.3H121.542V159.7H126.642ZM149.267 163.21C147.647 163.21 146.187 162.86 144.887 162.16C143.587 161.46 142.567 160.49 141.827 159.25C141.107 157.99 140.747 156.57 140.747 154.99C140.747 153.41 141.107 152 141.827 150.76C142.567 149.52 143.587 148.55 144.887 147.85C146.187 147.15 147.647 146.8 149.267 146.8C150.907 146.8 152.377 147.15 153.677 147.85C154.977 148.55 155.987 149.52 156.707 150.76C157.447 152 157.817 153.41 157.817 154.99C157.817 156.57 157.447 157.99 156.707 159.25C155.987 160.49 154.977 161.46 153.677 162.16C152.377 162.86 150.907 163.21 149.267 163.21ZM149.267 160C150.647 160 151.787 159.54 152.687 158.62C153.587 157.7 154.037 156.49 154.037 154.99C154.037 153.49 153.587 152.28 152.687 151.36C151.787 150.44 150.647 149.98 149.267 149.98C147.887 149.98 146.747 150.44 145.847 151.36C144.967 152.28 144.527 153.49 144.527 154.99C144.527 156.49 144.967 157.7 145.847 158.62C146.747 159.54 147.887 160 149.267 160ZM170.493 146.8C172.513 146.8 174.133 147.39 175.353 148.57C176.573 149.75 177.183 151.5 177.183 153.82V163H173.433V154.3C173.433 152.9 173.103 151.85 172.443 151.15C171.783 150.43 170.843 150.07 169.623 150.07C168.243 150.07 167.153 150.49 166.353 151.33C165.553 152.15 165.153 153.34 165.153 154.9V163H161.403V146.98H164.973V149.05C165.593 148.31 166.373 147.75 167.313 147.37C168.253 146.99 169.313 146.8 170.493 146.8ZM189.707 160.03C191.447 160.03 192.897 159.45 194.057 158.29L196.037 160.6C195.337 161.46 194.437 162.11 193.337 162.55C192.237 162.99 190.997 163.21 189.617 163.21C187.857 163.21 186.307 162.86 184.967 162.16C183.627 161.46 182.587 160.49 181.847 159.25C181.127 157.99 180.767 156.57 180.767 154.99C180.767 153.43 181.117 152.03 181.817 150.79C182.537 149.53 183.517 148.55 184.757 147.85C186.017 147.15 187.437 146.8 189.017 146.8C190.517 146.8 191.877 147.13 193.097 147.79C194.337 148.43 195.317 149.36 196.037 150.58C196.757 151.78 197.117 153.19 197.117 154.81L184.847 157.21C185.227 158.13 185.837 158.83 186.677 159.31C187.517 159.79 188.527 160.03 189.707 160.03ZM189.017 149.8C187.637 149.8 186.517 150.25 185.657 151.15C184.817 152.05 184.397 153.26 184.397 154.78V154.81L193.457 153.07C193.197 152.09 192.667 151.3 191.867 150.7C191.087 150.1 190.137 149.8 189.017 149.8ZM201.95 158.23C202.65 158.23 203.23 158.46 203.69 158.92C204.15 159.38 204.38 159.98 204.38 160.72C204.38 161.04 204.33 161.38 204.23 161.74C204.15 162.08 203.97 162.6 203.69 163.3L202.16 167.53H199.73L200.93 162.94C200.49 162.76 200.14 162.48 199.88 162.1C199.64 161.7 199.52 161.24 199.52 160.72C199.52 159.98 199.75 159.38 200.21 158.92C200.67 158.46 201.25 158.23 201.95 158.23ZM236.555 146.8C238.575 146.8 240.175 147.39 241.355 148.57C242.535 149.73 243.125 151.48 243.125 153.82V163H239.375V154.3C239.375 152.9 239.065 151.85 238.445 151.15C237.825 150.43 236.935 150.07 235.775 150.07C234.515 150.07 233.505 150.49 232.745 151.33C231.985 152.15 231.605 153.33 231.605 154.87V163H227.855V154.3C227.855 152.9 227.545 151.85 226.925 151.15C226.305 150.43 225.415 150.07 224.255 150.07C222.975 150.07 221.955 150.48 221.195 151.3C220.455 152.12 220.085 153.31 220.085 154.87V163H216.335V146.98H219.905V149.02C220.505 148.3 221.255 147.75 222.155 147.37C223.055 146.99 224.055 146.8 225.155 146.8C226.355 146.8 227.415 147.03 228.335 147.49C229.275 147.93 230.015 148.59 230.555 149.47C231.215 148.63 232.065 147.98 233.105 147.52C234.145 147.04 235.295 146.8 236.555 146.8ZM263.724 146.98V163H260.154V160.93C259.534 161.69 258.764 162.26 257.844 162.64C256.944 163.02 255.944 163.21 254.844 163.21C253.284 163.21 251.884 162.87 250.644 162.19C249.424 161.51 248.464 160.55 247.764 159.31C247.084 158.07 246.744 156.63 246.744 154.99C246.744 153.35 247.084 151.92 247.764 150.7C248.464 149.46 249.424 148.5 250.644 147.82C251.884 147.14 253.284 146.8 254.844 146.8C255.884 146.8 256.834 146.98 257.694 147.34C258.574 147.7 259.334 148.23 259.974 148.93V146.98H263.724ZM255.264 160C256.644 160 257.784 159.54 258.684 158.62C259.584 157.7 260.034 156.49 260.034 154.99C260.034 153.49 259.584 152.28 258.684 151.36C257.784 150.44 256.644 149.98 255.264 149.98C253.884 149.98 252.744 150.44 251.844 151.36C250.964 152.28 250.524 153.49 250.524 154.99C250.524 156.49 250.964 157.7 251.844 158.62C252.744 159.54 253.884 160 255.264 160ZM272.2 149.32C273.28 147.64 275.18 146.8 277.9 146.8V150.37C277.58 150.31 277.29 150.28 277.03 150.28C275.57 150.28 274.43 150.71 273.61 151.57C272.79 152.41 272.38 153.63 272.38 155.23V163H268.63V146.98H272.2V149.32ZM290.171 146.8C292.191 146.8 293.811 147.39 295.031 148.57C296.251 149.75 296.861 151.5 296.861 153.82V163H293.111V154.3C293.111 152.9 292.781 151.85 292.121 151.15C291.461 150.43 290.521 150.07 289.301 150.07C287.921 150.07 286.831 150.49 286.031 151.33C285.231 152.15 284.831 153.34 284.831 154.9V163H281.081V146.98H284.651V149.05C285.271 148.31 286.051 147.75 286.991 147.37C287.931 146.99 288.991 146.8 290.171 146.8ZM301.618 146.98H305.368V163H301.618V146.98ZM303.508 144.34C302.828 144.34 302.258 144.13 301.798 143.71C301.338 143.27 301.108 142.73 301.108 142.09C301.108 141.45 301.338 140.92 301.798 140.5C302.258 140.06 302.828 139.84 303.508 139.84C304.188 139.84 304.758 140.05 305.218 140.47C305.678 140.87 305.908 141.38 305.908 142C305.908 142.66 305.678 143.22 305.218 143.68C304.778 144.12 304.208 144.34 303.508 144.34ZM317.91 160.03C319.65 160.03 321.1 159.45 322.26 158.29L324.24 160.6C323.54 161.46 322.64 162.11 321.54 162.55C320.44 162.99 319.2 163.21 317.82 163.21C316.06 163.21 314.51 162.86 313.17 162.16C311.83 161.46 310.79 160.49 310.05 159.25C309.33 157.99 308.97 156.57 308.97 154.99C308.97 153.43 309.32 152.03 310.02 150.79C310.74 149.53 311.72 148.55 312.96 147.85C314.22 147.15 315.64 146.8 317.22 146.8C318.72 146.8 320.08 147.13 321.3 147.79C322.54 148.43 323.52 149.36 324.24 150.58C324.96 151.78 325.32 153.19 325.32 154.81L313.05 157.21C313.43 158.13 314.04 158.83 314.88 159.31C315.72 159.79 316.73 160.03 317.91 160.03ZM317.22 149.8C315.84 149.8 314.72 150.25 313.86 151.15C313.02 152.05 312.6 153.26 312.6 154.78V154.81L321.66 153.07C321.4 152.09 320.87 151.3 320.07 150.7C319.29 150.1 318.34 149.8 317.22 149.8ZM330.123 163.21C329.443 163.21 328.863 162.98 328.383 162.52C327.903 162.04 327.663 161.44 327.663 160.72C327.663 159.98 327.893 159.38 328.353 158.92C328.833 158.46 329.423 158.23 330.123 158.23C330.823 158.23 331.403 158.46 331.863 158.92C332.343 159.38 332.583 159.98 332.583 160.72C332.583 161.44 332.343 162.04 331.863 162.52C331.383 162.98 330.803 163.21 330.123 163.21ZM345.127 146.8C346.687 146.8 348.077 147.14 349.297 147.82C350.537 148.5 351.507 149.46 352.207 150.7C352.907 151.94 353.257 153.37 353.257 154.99C353.257 156.61 352.907 158.05 352.207 159.31C351.507 160.55 350.537 161.51 349.297 162.19C348.077 162.87 346.687 163.21 345.127 163.21C344.027 163.21 343.017 163.02 342.097 162.64C341.197 162.26 340.437 161.69 339.817 160.93V163H336.247V140.74H339.997V148.93C340.637 148.23 341.387 147.7 342.247 147.34C343.127 146.98 344.087 146.8 345.127 146.8ZM344.707 160C346.087 160 347.217 159.54 348.097 158.62C348.997 157.7 349.447 156.49 349.447 154.99C349.447 153.49 348.997 152.28 348.097 151.36C347.217 150.44 346.087 149.98 344.707 149.98C343.807 149.98 342.997 150.19 342.277 150.61C341.557 151.01 340.987 151.59 340.567 152.35C340.147 153.11 339.937 153.99 339.937 154.99C339.937 155.99 340.147 156.87 340.567 157.63C340.987 158.39 341.557 158.98 342.277 159.4C342.997 159.8 343.807 160 344.707 160ZM364.434 160.03C366.174 160.03 367.624 159.45 368.784 158.29L370.764 160.6C370.064 161.46 369.164 162.11 368.064 162.55C366.964 162.99 365.724 163.21 364.344 163.21C362.584 163.21 361.034 162.86 359.694 162.16C358.354 161.46 357.314 160.49 356.574 159.25C355.854 157.99 355.494 156.57 355.494 154.99C355.494 153.43 355.844 152.03 356.544 150.79C357.264 149.53 358.244 148.55 359.484 147.85C360.744 147.15 362.164 146.8 363.744 146.8C365.244 146.8 366.604 147.13 367.824 147.79C369.064 148.43 370.044 149.36 370.764 150.58C371.484 151.78 371.844 153.19 371.844 154.81L359.574 157.21C359.954 158.13 360.564 158.83 361.404 159.31C362.244 159.79 363.254 160.03 364.434 160.03ZM363.744 149.8C362.364 149.8 361.244 150.25 360.384 151.15C359.544 152.05 359.124 153.26 359.124 154.78V154.81L368.184 153.07C367.924 152.09 367.394 151.3 366.594 150.7C365.814 150.1 364.864 149.8 363.744 149.8ZM382.796 163.21C381.136 163.21 379.646 162.86 378.326 162.16C377.006 161.46 375.976 160.49 375.236 159.25C374.496 157.99 374.126 156.57 374.126 154.99C374.126 153.41 374.496 152 375.236 150.76C375.976 149.52 376.996 148.55 378.296 147.85C379.616 147.15 381.116 146.8 382.796 146.8C384.376 146.8 385.756 147.12 386.936 147.76C388.136 148.4 389.036 149.32 389.636 150.52L386.756 152.2C386.296 151.46 385.716 150.91 385.016 150.55C384.336 150.17 383.586 149.98 382.766 149.98C381.366 149.98 380.206 150.44 379.286 151.36C378.366 152.26 377.906 153.47 377.906 154.99C377.906 156.51 378.356 157.73 379.256 158.65C380.176 159.55 381.346 160 382.766 160C383.586 160 384.336 159.82 385.016 159.46C385.716 159.08 386.296 158.52 386.756 157.78L389.636 159.46C389.016 160.66 388.106 161.59 386.906 162.25C385.726 162.89 384.356 163.21 382.796 163.21ZM399.271 156.13L396.481 158.77V163H392.731V140.74H396.481V154.18L404.251 146.98H408.751L402.061 153.7L409.381 163H404.821L399.271 156.13Z" fill="#463019"/>
<path d="M58.064 201.2V211.472C58.064 213.664 57.528 215.32 56.456 216.44C55.384 217.56 53.88 218.12 51.944 218.12C50.552 218.12 49.384 217.824 48.44 217.232C47.496 216.64 46.824 215.768 46.424 214.616C46.024 215.768 45.352 216.64 44.408 217.232C43.464 217.824 42.296 218.12 40.904 218.12C38.968 218.12 37.464 217.56 36.392 216.44C35.32 215.32 34.784 213.664 34.784 211.472V201.2H36.008V211.424C36.008 213.328 36.424 214.736 37.256 215.648C38.104 216.544 39.32 216.992 40.904 216.992C42.472 216.992 43.68 216.536 44.528 215.624C45.376 214.712 45.8 213.312 45.8 211.424V201.2H47.048V211.424C47.048 213.328 47.464 214.736 48.296 215.648C49.144 216.544 50.36 216.992 51.944 216.992C53.512 216.992 54.72 216.536 55.568 215.624C56.416 214.712 56.84 213.312 56.84 211.424V201.2H58.064ZM68.5316 217.016C69.3476 217.016 70.0996 216.872 70.7876 216.584C71.4916 216.28 72.0756 215.84 72.5396 215.264L73.2356 216.056C72.6916 216.728 72.0116 217.24 71.1956 217.592C70.3796 217.928 69.4836 218.096 68.5076 218.096C67.2596 218.096 66.1396 217.824 65.1476 217.28C64.1716 216.736 63.4036 215.984 62.8436 215.024C62.2996 214.064 62.0276 212.968 62.0276 211.736C62.0276 210.504 62.2836 209.408 62.7956 208.448C63.3236 207.488 64.0516 206.736 64.9796 206.192C65.9076 205.648 66.9556 205.376 68.1236 205.376C69.2116 205.376 70.1876 205.632 71.0516 206.144C71.9316 206.64 72.6276 207.336 73.1396 208.232C73.6676 209.112 73.9556 210.104 74.0036 211.208L63.4196 213.272C63.7236 214.424 64.3316 215.336 65.2436 216.008C66.1556 216.68 67.2516 217.016 68.5316 217.016ZM68.1236 206.432C67.1796 206.432 66.3316 206.656 65.5796 207.104C64.8276 207.536 64.2436 208.152 63.8276 208.952C63.4116 209.736 63.2036 210.632 63.2036 211.64C63.2036 211.816 63.2196 212.064 63.2516 212.384L72.8036 210.512C72.6916 209.76 72.4276 209.072 72.0116 208.448C71.5956 207.824 71.0516 207.336 70.3796 206.984C69.7076 206.616 68.9556 206.432 68.1236 206.432ZM80.9799 218.096C79.9239 218.096 79.1159 217.8 78.5559 217.208C77.9959 216.6 77.7159 215.768 77.7159 214.712V200.192H78.9159V214.568C78.9159 215.384 79.0999 216.008 79.4679 216.44C79.8359 216.856 80.3879 217.064 81.1239 217.064C81.5399 217.064 81.9399 216.984 82.3239 216.824L82.4199 217.832C81.9719 218.008 81.4919 218.096 80.9799 218.096ZM88.1283 218.096C87.0723 218.096 86.2643 217.8 85.7043 217.208C85.1443 216.6 84.8643 215.768 84.8643 214.712V200.192H86.0643V214.568C86.0643 215.384 86.2483 216.008 86.6163 216.44C86.9843 216.856 87.5363 217.064 88.2723 217.064C88.6883 217.064 89.0883 216.984 89.4723 216.824L89.5683 217.832C89.1203 218.008 88.6403 218.096 88.1283 218.096ZM92.0128 205.472H93.2128V218H92.0128V205.472ZM92.6128 202.424C92.3408 202.424 92.1088 202.336 91.9168 202.16C91.7248 201.968 91.6288 201.736 91.6288 201.464C91.6288 201.192 91.7248 200.96 91.9168 200.768C92.1088 200.576 92.3408 200.48 92.6128 200.48C92.8848 200.48 93.1168 200.576 93.3088 200.768C93.5008 200.944 93.5968 201.168 93.5968 201.44C93.5968 201.712 93.5008 201.944 93.3088 202.136C93.1168 202.328 92.8848 202.424 92.6128 202.424ZM103.407 217.016C104.223 217.016 104.975 216.872 105.663 216.584C106.367 216.28 106.951 215.84 107.415 215.264L108.111 216.056C107.567 216.728 106.887 217.24 106.071 217.592C105.255 217.928 104.359 218.096 103.383 218.096C102.135 218.096 101.015 217.824 100.023 217.28C99.0466 216.736 98.2786 215.984 97.7186 215.024C97.1746 214.064 96.9026 212.968 96.9026 211.736C96.9026 210.504 97.1586 209.408 97.6706 208.448C98.1986 207.488 98.9266 206.736 99.8546 206.192C100.783 205.648 101.831 205.376 102.999 205.376C104.087 205.376 105.063 205.632 105.927 206.144C106.807 206.64 107.503 207.336 108.015 208.232C108.543 209.112 108.831 210.104 108.879 211.208L98.2946 213.272C98.5986 214.424 99.2066 215.336 100.119 216.008C101.031 216.68 102.127 217.016 103.407 217.016ZM102.999 206.432C102.055 206.432 101.207 206.656 100.455 207.104C99.7026 207.536 99.1186 208.152 98.7026 208.952C98.2866 209.736 98.0786 210.632 98.0786 211.64C98.0786 211.816 98.0946 212.064 98.1266 212.384L107.679 210.512C107.567 209.76 107.303 209.072 106.887 208.448C106.471 207.824 105.927 207.336 105.255 206.984C104.583 206.616 103.831 206.432 102.999 206.432ZM138.291 205.472V212.384C138.291 214.272 137.851 215.696 136.971 216.656C136.091 217.616 134.795 218.096 133.083 218.096C131.899 218.096 130.923 217.856 130.155 217.376C129.387 216.88 128.819 216.112 128.451 215.072C128.099 216.112 127.539 216.88 126.771 217.376C126.003 217.856 125.019 218.096 123.819 218.096C122.107 218.096 120.811 217.616 119.931 216.656C119.051 215.696 118.611 214.272 118.611 212.384V205.472H119.811V212.312C119.811 213.912 120.139 215.096 120.795 215.864C121.451 216.632 122.459 217.016 123.819 217.016C125.179 217.016 126.187 216.624 126.843 215.84C127.515 215.056 127.851 213.848 127.851 212.216V205.472H129.051V212.216C129.051 213.864 129.379 215.08 130.035 215.864C130.691 216.632 131.707 217.016 133.083 217.016C134.443 217.016 135.451 216.632 136.107 215.864C136.763 215.096 137.091 213.912 137.091 212.312V205.472H138.291ZM154.36 205.472V218H153.184V215.048C152.688 216.024 151.992 216.776 151.096 217.304C150.2 217.832 149.184 218.096 148.048 218.096C146.88 218.096 145.824 217.824 144.88 217.28C143.936 216.736 143.192 215.984 142.648 215.024C142.12 214.064 141.856 212.968 141.856 211.736C141.856 210.504 142.12 209.408 142.648 208.448C143.192 207.472 143.936 206.72 144.88 206.192C145.824 205.648 146.88 205.376 148.048 205.376C149.168 205.376 150.168 205.64 151.048 206.168C151.944 206.696 152.648 207.432 153.16 208.376V205.472H154.36ZM148.12 217.016C149.08 217.016 149.936 216.792 150.688 216.344C151.456 215.896 152.056 215.272 152.488 214.472C152.936 213.672 153.16 212.76 153.16 211.736C153.16 210.712 152.936 209.8 152.488 209C152.056 208.2 151.456 207.576 150.688 207.128C149.936 206.68 149.08 206.456 148.12 206.456C147.16 206.456 146.296 206.68 145.528 207.128C144.776 207.576 144.176 208.2 143.728 209C143.296 209.8 143.08 210.712 143.08 211.736C143.08 212.76 143.296 213.672 143.728 214.472C144.176 215.272 144.776 215.896 145.528 216.344C146.296 216.792 147.16 217.016 148.12 217.016ZM162.587 218.096C161.579 218.096 160.619 217.944 159.707 217.64C158.795 217.336 158.083 216.952 157.571 216.488L158.123 215.528C158.635 215.96 159.291 216.32 160.091 216.608C160.907 216.896 161.755 217.04 162.635 217.04C163.899 217.04 164.827 216.832 165.419 216.416C166.027 216 166.331 215.424 166.331 214.688C166.331 214.16 166.163 213.744 165.827 213.44C165.507 213.136 165.107 212.912 164.627 212.768C164.147 212.624 163.483 212.472 162.635 212.312C161.643 212.136 160.843 211.944 160.235 211.736C159.627 211.528 159.107 211.192 158.675 210.728C158.243 210.264 158.027 209.624 158.027 208.808C158.027 207.816 158.435 207 159.251 206.36C160.083 205.704 161.259 205.376 162.779 205.376C163.579 205.376 164.371 205.488 165.155 205.712C165.939 205.936 166.579 206.232 167.075 206.6L166.523 207.56C166.011 207.192 165.427 206.912 164.771 206.72C164.115 206.528 163.443 206.432 162.755 206.432C161.587 206.432 160.707 206.648 160.115 207.08C159.523 207.512 159.227 208.08 159.227 208.784C159.227 209.344 159.395 209.784 159.731 210.104C160.067 210.408 160.475 210.64 160.955 210.8C161.451 210.944 162.139 211.104 163.019 211.28C163.995 211.456 164.779 211.648 165.371 211.856C165.979 212.048 166.491 212.368 166.907 212.816C167.323 213.264 167.531 213.88 167.531 214.664C167.531 215.704 167.099 216.536 166.235 217.16C165.371 217.784 164.155 218.096 162.587 218.096ZM183.332 205.376C184.5 205.376 185.556 205.648 186.5 206.192C187.444 206.736 188.18 207.488 188.708 208.448C189.252 209.408 189.524 210.504 189.524 211.736C189.524 212.968 189.252 214.072 188.708 215.048C188.18 216.008 187.444 216.76 186.5 217.304C185.556 217.832 184.5 218.096 183.332 218.096C182.228 218.096 181.228 217.84 180.332 217.328C179.436 216.8 178.74 216.072 178.244 215.144V222.656H177.044V205.472H178.196V208.424C178.692 207.464 179.388 206.72 180.284 206.192C181.196 205.648 182.212 205.376 183.332 205.376ZM183.26 217.016C184.22 217.016 185.084 216.792 185.852 216.344C186.62 215.896 187.22 215.272 187.652 214.472C188.1 213.672 188.324 212.76 188.324 211.736C188.324 210.712 188.1 209.8 187.652 209C187.22 208.2 186.62 207.576 185.852 207.128C185.084 206.68 184.22 206.456 183.26 206.456C182.3 206.456 181.436 206.68 180.668 207.128C179.916 207.576 179.316 208.2 178.868 209C178.436 209.8 178.22 210.712 178.22 211.736C178.22 212.76 178.436 213.672 178.868 214.472C179.316 215.272 179.916 215.896 180.668 216.344C181.436 216.792 182.3 217.016 183.26 217.016ZM196.503 218.096C195.447 218.096 194.639 217.8 194.079 217.208C193.519 216.6 193.239 215.768 193.239 214.712V200.192H194.439V214.568C194.439 215.384 194.623 216.008 194.991 216.44C195.359 216.856 195.911 217.064 196.647 217.064C197.063 217.064 197.463 216.984 197.847 216.824L197.943 217.832C197.495 218.008 197.015 218.096 196.503 218.096ZM211.289 205.472V218H210.113V215.048C209.617 216.024 208.921 216.776 208.025 217.304C207.129 217.832 206.113 218.096 204.977 218.096C203.809 218.096 202.753 217.824 201.809 217.28C200.865 216.736 200.121 215.984 199.577 215.024C199.049 214.064 198.785 212.968 198.785 211.736C198.785 210.504 199.049 209.408 199.577 208.448C200.121 207.472 200.865 206.72 201.809 206.192C202.753 205.648 203.809 205.376 204.977 205.376C206.097 205.376 207.097 205.64 207.977 206.168C208.873 206.696 209.577 207.432 210.089 208.376V205.472H211.289ZM205.049 217.016C206.009 217.016 206.865 216.792 207.617 216.344C208.385 215.896 208.985 215.272 209.417 214.472C209.865 213.672 210.089 212.76 210.089 211.736C210.089 210.712 209.865 209.8 209.417 209C208.985 208.2 208.385 207.576 207.617 207.128C206.865 206.68 206.009 206.456 205.049 206.456C204.089 206.456 203.225 206.68 202.457 207.128C201.705 207.576 201.105 208.2 200.657 209C200.225 209.8 200.009 210.712 200.009 211.736C200.009 212.76 200.225 213.672 200.657 214.472C201.105 215.272 201.705 215.896 202.457 216.344C203.225 216.792 204.089 217.016 205.049 217.016ZM222.469 205.376C224.037 205.376 225.277 205.832 226.189 206.744C227.101 207.656 227.557 208.968 227.557 210.68V218H226.357V210.776C226.357 209.368 225.997 208.296 225.277 207.56C224.573 206.824 223.581 206.456 222.301 206.456C220.829 206.456 219.669 206.896 218.821 207.776C217.973 208.656 217.549 209.84 217.549 211.328V218H216.349V205.472H217.501V208.184C217.933 207.304 218.573 206.616 219.421 206.12C220.285 205.624 221.301 205.376 222.469 205.376ZM238.329 217.208C238.025 217.496 237.641 217.72 237.177 217.88C236.729 218.024 236.257 218.096 235.761 218.096C234.673 218.096 233.833 217.8 233.241 217.208C232.649 216.6 232.353 215.76 232.353 214.688V202.736H233.553V205.472H237.537V206.504H233.553V214.568C233.553 215.384 233.745 216.008 234.129 216.44C234.529 216.856 235.113 217.064 235.881 217.064C236.665 217.064 237.313 216.832 237.825 216.368L238.329 217.208ZM246.352 217.016C247.168 217.016 247.92 216.872 248.608 216.584C249.312 216.28 249.896 215.84 250.36 215.264L251.056 216.056C250.512 216.728 249.832 217.24 249.016 217.592C248.2 217.928 247.304 218.096 246.328 218.096C245.08 218.096 243.96 217.824 242.968 217.28C241.992 216.736 241.224 215.984 240.664 215.024C240.12 214.064 239.848 212.968 239.848 211.736C239.848 210.504 240.104 209.408 240.616 208.448C241.144 207.488 241.872 206.736 242.8 206.192C243.728 205.648 244.776 205.376 245.944 205.376C247.032 205.376 248.008 205.632 248.872 206.144C249.752 206.64 250.448 207.336 250.96 208.232C251.488 209.112 251.776 210.104 251.824 211.208L241.24 213.272C241.544 214.424 242.152 215.336 243.064 216.008C243.976 216.68 245.072 217.016 246.352 217.016ZM245.944 206.432C245 206.432 244.152 206.656 243.4 207.104C242.648 207.536 242.064 208.152 241.648 208.952C241.232 209.736 241.024 210.632 241.024 211.64C241.024 211.816 241.04 212.064 241.072 212.384L250.624 210.512C250.512 209.76 250.248 209.072 249.832 208.448C249.416 207.824 248.872 207.336 248.2 206.984C247.528 206.616 246.776 206.432 245.944 206.432ZM266.672 200.192V218H265.496V215.048C265 216.024 264.304 216.776 263.408 217.304C262.512 217.832 261.496 218.096 260.36 218.096C259.192 218.096 258.136 217.824 257.192 217.28C256.248 216.736 255.504 215.984 254.96 215.024C254.432 214.064 254.168 212.968 254.168 211.736C254.168 210.504 254.432 209.408 254.96 208.448C255.504 207.472 256.248 206.72 257.192 206.192C258.136 205.648 259.192 205.376 260.36 205.376C261.48 205.376 262.48 205.64 263.36 206.168C264.256 206.696 264.96 207.432 265.472 208.376V200.192H266.672ZM260.432 217.016C261.392 217.016 262.248 216.792 263 216.344C263.768 215.896 264.368 215.272 264.8 214.472C265.248 213.672 265.472 212.76 265.472 211.736C265.472 210.712 265.248 209.8 264.8 209C264.368 208.2 263.768 207.576 263 207.128C262.248 206.68 261.392 206.456 260.432 206.456C259.472 206.456 258.608 206.68 257.84 207.128C257.088 207.576 256.488 208.2 256.04 209C255.608 209.8 255.392 210.712 255.392 211.736C255.392 212.76 255.608 213.672 256.04 214.472C256.488 215.272 257.088 215.896 257.84 216.344C258.608 216.792 259.472 217.016 260.432 217.016ZM282.792 218.096C281.608 218.096 280.536 217.824 279.576 217.28C278.632 216.736 277.888 215.984 277.344 215.024C276.8 214.048 276.528 212.952 276.528 211.736C276.528 210.52 276.8 209.432 277.344 208.472C277.888 207.496 278.632 206.736 279.576 206.192C280.536 205.648 281.608 205.376 282.792 205.376C283.976 205.376 285.04 205.648 285.984 206.192C286.944 206.736 287.696 207.496 288.24 208.472C288.784 209.432 289.056 210.52 289.056 211.736C289.056 212.952 288.784 214.048 288.24 215.024C287.696 215.984 286.944 216.736 285.984 217.28C285.04 217.824 283.976 218.096 282.792 218.096ZM282.792 217.016C283.752 217.016 284.608 216.792 285.36 216.344C286.128 215.896 286.728 215.272 287.16 214.472C287.608 213.672 287.832 212.76 287.832 211.736C287.832 210.712 287.608 209.8 287.16 209C286.728 208.2 286.128 207.576 285.36 207.128C284.608 206.68 283.752 206.456 282.792 206.456C281.832 206.456 280.968 206.68 280.2 207.128C279.448 207.576 278.848 208.2 278.4 209C277.968 209.8 277.752 210.712 277.752 211.736C277.752 212.76 277.968 213.672 278.4 214.472C278.848 215.272 279.448 215.896 280.2 216.344C280.968 216.792 281.832 217.016 282.792 217.016ZM298.898 205.376C300.466 205.376 301.706 205.832 302.618 206.744C303.53 207.656 303.986 208.968 303.986 210.68V218H302.786V210.776C302.786 209.368 302.426 208.296 301.706 207.56C301.002 206.824 300.01 206.456 298.73 206.456C297.258 206.456 296.098 206.896 295.25 207.776C294.402 208.656 293.978 209.84 293.978 211.328V218H292.778V205.472H293.93V208.184C294.362 207.304 295.002 206.616 295.85 206.12C296.714 205.624 297.73 205.376 298.898 205.376ZM42.056 247.12C40.408 247.12 38.92 246.752 37.592 246.016C36.264 245.264 35.216 244.24 34.448 242.944C33.696 241.648 33.32 240.2 33.32 238.6C33.32 237 33.696 235.552 34.448 234.256C35.216 232.96 36.264 231.944 37.592 231.208C38.92 230.456 40.408 230.08 42.056 230.08C43.704 230.08 45.192 230.448 46.52 231.184C47.848 231.92 48.888 232.936 49.64 234.232C50.408 235.528 50.792 236.984 50.792 238.6C50.792 240.216 50.408 241.672 49.64 242.968C48.888 244.264 47.848 245.28 46.52 246.016C45.192 246.752 43.704 247.12 42.056 247.12ZM42.056 245.992C43.464 245.992 44.736 245.672 45.872 245.032C47.008 244.392 47.904 243.512 48.56 242.392C49.216 241.256 49.544 239.992 49.544 238.6C49.544 237.208 49.216 235.952 48.56 234.832C47.904 233.696 47.008 232.808 45.872 232.168C44.736 231.528 43.464 231.208 42.056 231.208C40.648 231.208 39.368 231.528 38.216 232.168C37.08 232.808 36.184 233.696 35.528 234.832C34.872 235.952 34.544 237.208 34.544 238.6C34.544 239.992 34.872 241.256 35.528 242.392C36.184 243.512 37.08 244.392 38.216 245.032C39.368 245.672 40.648 245.992 42.056 245.992ZM59.6214 247.096C58.4054 247.096 57.3174 246.824 56.3574 246.28C55.3974 245.736 54.6454 244.984 54.1014 244.024C53.5574 243.048 53.2854 241.952 53.2854 240.736C53.2854 239.504 53.5574 238.408 54.1014 237.448C54.6454 236.472 55.3974 235.72 56.3574 235.192C57.3174 234.648 58.4054 234.376 59.6214 234.376C60.6294 234.376 61.5414 234.576 62.3574 234.976C63.1894 235.36 63.8614 235.928 64.3734 236.68L63.4854 237.328C63.0374 236.704 62.4774 236.24 61.8054 235.936C61.1494 235.616 60.4214 235.456 59.6214 235.456C58.6454 235.456 57.7654 235.68 56.9814 236.128C56.2134 236.56 55.6054 237.176 55.1574 237.976C54.7254 238.776 54.5094 239.696 54.5094 240.736C54.5094 241.776 54.7254 242.696 55.1574 243.496C55.6054 244.296 56.2134 244.92 56.9814 245.368C57.7654 245.8 58.6454 246.016 59.6214 246.016C60.4214 246.016 61.1494 245.864 61.8054 245.56C62.4774 245.24 63.0374 244.768 63.4854 244.144L64.3734 244.792C63.8614 245.544 63.1894 246.12 62.3574 246.52C61.5414 246.904 60.6294 247.096 59.6214 247.096ZM73.5869 246.208C73.2829 246.496 72.8989 246.72 72.4349 246.88C71.9869 247.024 71.5149 247.096 71.0189 247.096C69.9309 247.096 69.0909 246.8 68.4989 246.208C67.9069 245.6 67.6109 244.76 67.6109 243.688V231.736H68.8109V234.472H72.7949V235.504H68.8109V243.568C68.8109 244.384 69.0029 245.008 69.3869 245.44C69.7869 245.856 70.3709 246.064 71.1389 246.064C71.9229 246.064 72.5709 245.832 73.0829 245.368L73.5869 246.208ZM81.3697 247.096C80.1857 247.096 79.1137 246.824 78.1537 246.28C77.2097 245.736 76.4657 244.984 75.9217 244.024C75.3777 243.048 75.1057 241.952 75.1057 240.736C75.1057 239.52 75.3777 238.432 75.9217 237.472C76.4657 236.496 77.2097 235.736 78.1537 235.192C79.1137 234.648 80.1857 234.376 81.3697 234.376C82.5537 234.376 83.6177 234.648 84.5617 235.192C85.5217 235.736 86.2737 236.496 86.8177 237.472C87.3617 238.432 87.6337 239.52 87.6337 240.736C87.6337 241.952 87.3617 243.048 86.8177 244.024C86.2737 244.984 85.5217 245.736 84.5617 246.28C83.6177 246.824 82.5537 247.096 81.3697 247.096ZM81.3697 246.016C82.3297 246.016 83.1857 245.792 83.9377 245.344C84.7057 244.896 85.3057 244.272 85.7377 243.472C86.1857 242.672 86.4097 241.76 86.4097 240.736C86.4097 239.712 86.1857 238.8 85.7377 238C85.3057 237.2 84.7057 236.576 83.9377 236.128C83.1857 235.68 82.3297 235.456 81.3697 235.456C80.4097 235.456 79.5457 235.68 78.7777 236.128C78.0257 236.576 77.4257 237.2 76.9777 238C76.5457 238.8 76.3297 239.712 76.3297 240.736C76.3297 241.76 76.5457 242.672 76.9777 243.472C77.4257 244.272 78.0257 244.896 78.7777 245.344C79.5457 245.792 80.4097 246.016 81.3697 246.016ZM97.6445 234.376C98.8125 234.376 99.8685 234.648 100.812 235.192C101.757 235.72 102.493 236.472 103.021 237.448C103.565 238.408 103.837 239.504 103.837 240.736C103.837 241.968 103.565 243.064 103.021 244.024C102.493 244.984 101.757 245.736 100.812 246.28C99.8685 246.824 98.8125 247.096 97.6445 247.096C96.5245 247.096 95.5085 246.832 94.5965 246.304C93.7005 245.76 93.0045 245.008 92.5085 244.048V247H91.3565V229.192H92.5565V237.328C93.0525 236.4 93.7485 235.68 94.6445 235.168C95.5405 234.64 96.5405 234.376 97.6445 234.376ZM97.5725 246.016C98.5325 246.016 99.3965 245.792 100.165 245.344C100.933 244.896 101.533 244.272 101.965 243.472C102.413 242.672 102.637 241.76 102.637 240.736C102.637 239.712 102.413 238.8 101.965 238C101.533 237.2 100.933 236.576 100.165 236.128C99.3965 235.68 98.5325 235.456 97.5725 235.456C96.6125 235.456 95.7485 235.68 94.9805 236.128C94.2285 236.576 93.6285 237.2 93.1805 238C92.7485 238.8 92.5325 239.712 92.5325 240.736C92.5325 241.76 92.7485 242.672 93.1805 243.472C93.6285 244.272 94.2285 244.896 94.9805 245.344C95.7485 245.792 96.6125 246.016 97.5725 246.016ZM112.688 246.016C113.504 246.016 114.256 245.872 114.944 245.584C115.648 245.28 116.232 244.84 116.696 244.264L117.392 245.056C116.848 245.728 116.168 246.24 115.352 246.592C114.536 246.928 113.64 247.096 112.664 247.096C111.416 247.096 110.296 246.824 109.304 246.28C108.328 245.736 107.56 244.984 107 244.024C106.456 243.064 106.184 241.968 106.184 240.736C106.184 239.504 106.44 238.408 106.952 237.448C107.48 236.488 108.208 235.736 109.136 235.192C110.064 234.648 111.112 234.376 112.28 234.376C113.368 234.376 114.344 234.632 115.208 235.144C116.088 235.64 116.784 236.336 117.296 237.232C117.824 238.112 118.112 239.104 118.16 240.208L107.576 242.272C107.88 243.424 108.488 244.336 109.4 245.008C110.312 245.68 111.408 246.016 112.688 246.016ZM112.28 235.432C111.336 235.432 110.488 235.656 109.736 236.104C108.984 236.536 108.4 237.152 107.984 237.952C107.568 238.736 107.36 239.632 107.36 240.64C107.36 240.816 107.376 241.064 107.408 241.384L116.96 239.512C116.848 238.76 116.584 238.072 116.168 237.448C115.752 236.824 115.208 236.336 114.536 235.984C113.864 235.616 113.112 235.432 112.28 235.432ZM123.024 237.208C123.408 236.296 124.008 235.6 124.824 235.12C125.64 234.624 126.632 234.376 127.8 234.376V235.552L127.512 235.528C126.12 235.528 125.032 235.968 124.248 236.848C123.464 237.712 123.072 238.92 123.072 240.472V247H121.872V234.472H123.024V237.208ZM142.834 247.12C141.554 247.12 140.41 246.776 139.402 246.088C138.41 245.384 137.634 244.392 137.074 243.112C136.53 241.832 136.258 240.328 136.258 238.6C136.258 236.872 136.53 235.368 137.074 234.088C137.634 232.808 138.41 231.824 139.402 231.136C140.41 230.432 141.554 230.08 142.834 230.08C144.114 230.08 145.25 230.432 146.242 231.136C147.25 231.824 148.026 232.808 148.57 234.088C149.13 235.368 149.41 236.872 149.41 238.6C149.41 240.328 149.13 241.832 148.57 243.112C148.026 244.392 147.25 245.384 146.242 246.088C145.25 246.776 144.114 247.12 142.834 247.12ZM142.834 245.992C143.89 245.992 144.818 245.704 145.618 245.128C146.434 244.536 147.066 243.688 147.514 242.584C147.962 241.464 148.186 240.136 148.186 238.6C148.186 237.064 147.962 235.744 147.514 234.64C147.066 233.52 146.434 232.672 145.618 232.096C144.818 231.504 143.89 231.208 142.834 231.208C141.778 231.208 140.842 231.504 140.026 232.096C139.226 232.672 138.602 233.52 138.154 234.64C137.706 235.744 137.482 237.064 137.482 238.6C137.482 240.136 137.706 241.464 138.154 242.584C138.602 243.688 139.226 244.536 140.026 245.128C140.842 245.704 141.778 245.992 142.834 245.992ZM161.054 238.216C162.206 238.52 163.094 239.032 163.718 239.752C164.358 240.472 164.678 241.352 164.678 242.392C164.678 243.864 164.11 245.024 162.974 245.872C161.838 246.704 160.278 247.12 158.294 247.12C156.326 247.12 154.774 246.704 153.638 245.872C152.518 245.024 151.958 243.864 151.958 242.392C151.958 241.336 152.262 240.456 152.87 239.752C153.494 239.032 154.382 238.52 155.534 238.216C154.574 237.896 153.838 237.416 153.326 236.776C152.814 236.136 152.558 235.352 152.558 234.424C152.558 233.08 153.078 232.024 154.118 231.256C155.158 230.472 156.55 230.08 158.294 230.08C160.038 230.08 161.438 230.472 162.494 231.256C163.55 232.04 164.078 233.096 164.078 234.424C164.078 235.336 163.814 236.12 163.286 236.776C162.774 237.416 162.03 237.896 161.054 238.216ZM153.782 234.448C153.782 235.456 154.174 236.256 154.958 236.848C155.758 237.44 156.87 237.736 158.294 237.736C159.718 237.736 160.83 237.448 161.63 236.872C162.446 236.28 162.854 235.48 162.854 234.472C162.854 233.448 162.438 232.64 161.606 232.048C160.79 231.44 159.686 231.136 158.294 231.136C156.902 231.136 155.798 231.432 154.982 232.024C154.182 232.616 153.782 233.424 153.782 234.448ZM158.294 246.064C159.91 246.064 161.174 245.736 162.086 245.08C162.998 244.424 163.454 243.528 163.454 242.392C163.454 241.272 162.998 240.384 162.086 239.728C161.174 239.072 159.91 238.744 158.294 238.744C156.694 238.744 155.438 239.072 154.526 239.728C153.63 240.384 153.182 241.272 153.182 242.392C153.182 243.528 153.63 244.424 154.526 245.08C155.422 245.736 156.678 246.064 158.294 246.064ZM168.533 245.056C168.821 245.056 169.061 245.16 169.253 245.368C169.445 245.56 169.541 245.792 169.541 246.064C169.541 246.224 169.517 246.392 169.469 246.568C169.437 246.744 169.389 246.944 169.325 247.168L168.389 250.432H167.525L168.317 247.048C168.077 246.984 167.885 246.872 167.741 246.712C167.597 246.536 167.525 246.32 167.525 246.064C167.525 245.776 167.621 245.536 167.813 245.344C168.005 245.152 168.245 245.056 168.533 245.056ZM189.63 245.896V247H178.086V246.136L185.19 239.08C186.118 238.152 186.742 237.36 187.062 236.704C187.398 236.032 187.566 235.344 187.566 234.64C187.566 233.568 187.198 232.728 186.462 232.12C185.742 231.512 184.694 231.208 183.318 231.208C182.262 231.208 181.334 231.368 180.534 231.688C179.75 232.008 179.07 232.496 178.494 233.152L177.63 232.384C178.27 231.648 179.078 231.08 180.054 230.68C181.046 230.28 182.166 230.08 183.414 230.08C185.062 230.08 186.374 230.48 187.35 231.28C188.326 232.08 188.814 233.16 188.814 234.52C188.814 235.384 188.622 236.208 188.238 236.992C187.854 237.776 187.134 238.688 186.078 239.728L179.886 245.896H189.63ZM198.427 247.12C197.147 247.12 196.003 246.776 194.995 246.088C194.003 245.384 193.227 244.392 192.667 243.112C192.123 241.832 191.851 240.328 191.851 238.6C191.851 236.872 192.123 235.368 192.667 234.088C193.227 232.808 194.003 231.824 194.995 231.136C196.003 230.432 197.147 230.08 198.427 230.08C199.707 230.08 200.843 230.432 201.835 231.136C202.843 231.824 203.619 232.808 204.163 234.088C204.723 235.368 205.003 236.872 205.003 238.6C205.003 240.328 204.723 241.832 204.163 243.112C203.619 244.392 202.843 245.384 201.835 246.088C200.843 246.776 199.707 247.12 198.427 247.12ZM198.427 245.992C199.483 245.992 200.411 245.704 201.211 245.128C202.027 244.536 202.659 243.688 203.107 242.584C203.555 241.464 203.779 240.136 203.779 238.6C203.779 237.064 203.555 235.744 203.107 234.64C202.659 233.52 202.027 232.672 201.211 232.096C200.411 231.504 199.483 231.208 198.427 231.208C197.371 231.208 196.435 231.504 195.619 232.096C194.819 232.672 194.195 233.52 193.747 234.64C193.299 235.744 193.075 237.064 193.075 238.6C193.075 240.136 193.299 241.464 193.747 242.584C194.195 243.688 194.819 244.536 195.619 245.128C196.435 245.704 197.371 245.992 198.427 245.992ZM218.833 245.896V247H207.289V246.136L214.393 239.08C215.321 238.152 215.945 237.36 216.265 236.704C216.601 236.032 216.769 235.344 216.769 234.64C216.769 233.568 216.401 232.728 215.665 232.12C214.945 231.512 213.897 231.208 212.521 231.208C211.465 231.208 210.537 231.368 209.737 231.688C208.953 232.008 208.273 232.496 207.697 233.152L206.833 232.384C207.473 231.648 208.281 231.08 209.257 230.68C210.249 230.28 211.369 230.08 212.617 230.08C214.265 230.08 215.577 230.48 216.553 231.28C217.529 232.08 218.017 233.16 218.017 234.52C218.017 235.384 217.825 236.208 217.441 236.992C217.057 237.776 216.337 238.688 215.281 239.728L209.089 245.896H218.833ZM225.252 237.232C227.7 237.232 229.476 237.664 230.58 238.528C231.684 239.376 232.236 240.584 232.236 242.152C232.236 243.112 232.012 243.968 231.564 244.72C231.132 245.456 230.476 246.04 229.596 246.472C228.716 246.904 227.636 247.12 226.356 247.12C225.14 247.12 223.996 246.912 222.924 246.496C221.868 246.08 221.044 245.536 220.452 244.864L221.076 243.928C221.604 244.536 222.332 245.032 223.26 245.416C224.204 245.8 225.228 245.992 226.332 245.992C227.836 245.992 228.988 245.648 229.788 244.96C230.604 244.272 231.012 243.352 231.012 242.2C231.012 240.936 230.548 239.976 229.62 239.32C228.708 238.664 227.164 238.336 224.988 238.336H221.58L222.468 230.2H231.372V231.304H223.5L222.852 237.232H225.252Z" fill="#463019"/>
<rect width="144" height="5" rx="2.5" transform="matrix(-1 0 0 1 292 943)" fill="black"/>
<path d="M76.2666 26.7231C76.9085 26.7231 77.5173 26.8421 78.0928 27.0801C78.6683 27.3125 79.1774 27.6777 79.6201 28.1758C80.0684 28.6683 80.4198 29.3019 80.6743 30.0767C80.9289 30.8459 81.0562 31.7728 81.0562 32.8574V32.874C81.0562 34.2188 80.8625 35.3698 80.4751 36.3271C80.0877 37.2845 79.5316 38.0205 78.8066 38.5352C78.0872 39.0443 77.2267 39.2988 76.2251 39.2988C75.4891 39.2988 74.825 39.166 74.2329 38.9004C73.6463 38.6292 73.1593 38.2585 72.772 37.7881C72.3901 37.3122 72.1328 36.7699 72 36.1611L71.9834 36.0698H74.0835L74.1167 36.1528C74.2218 36.4295 74.3713 36.673 74.5649 36.8833C74.7642 37.0936 75.0021 37.2568 75.2788 37.373C75.561 37.4837 75.8765 37.5391 76.2251 37.5391C76.856 37.5391 77.3706 37.3537 77.769 36.9829C78.173 36.6066 78.4746 36.1058 78.6738 35.4805C78.8786 34.8496 78.9948 34.1523 79.0225 33.3887C79.028 33.3057 79.0308 33.2254 79.0308 33.1479C79.0308 33.0649 79.0308 32.9847 79.0308 32.9072L78.6572 30.9067C78.6572 30.453 78.5521 30.0407 78.3418 29.6699C78.1315 29.2992 77.8465 29.0059 77.4868 28.79C77.1326 28.5742 76.7314 28.4663 76.2832 28.4663C75.8516 28.4663 75.4559 28.5715 75.0962 28.7817C74.7365 28.992 74.4487 29.2798 74.2329 29.645C74.0171 30.0047 73.9092 30.4087 73.9092 30.8569V30.8735C73.9092 31.3384 74.0116 31.7507 74.2163 32.1104C74.4211 32.4645 74.7005 32.744 75.0547 32.9487C75.4089 33.1535 75.8128 33.2559 76.2666 33.2559C76.7204 33.2559 77.1271 33.1562 77.4868 32.957C77.8465 32.7578 78.1315 32.4811 78.3418 32.127C78.5521 31.7728 78.6572 31.3716 78.6572 30.9233V30.9067H79.1553V33.1147H78.8647C78.7209 33.4302 78.5078 33.7235 78.2256 33.9946C77.9434 34.2658 77.5947 34.4844 77.1797 34.6504C76.7702 34.8164 76.2887 34.8994 75.7354 34.8994C74.9717 34.8994 74.2965 34.7279 73.71 34.3848C73.1234 34.0417 72.6613 33.5713 72.3237 32.9736C71.9917 32.376 71.8257 31.7008 71.8257 30.9482V30.9316C71.8257 30.1182 72.0138 29.396 72.3901 28.7651C72.772 28.1287 73.2977 27.6307 73.9673 27.271C74.6424 26.9058 75.4089 26.7231 76.2666 26.7231ZM84.8247 37.3896C84.4484 37.3896 84.133 37.2651 83.8784 37.0161C83.6294 36.7616 83.5049 36.4517 83.5049 36.0864C83.5049 35.7157 83.6294 35.4058 83.8784 35.1567C84.133 34.9022 84.4484 34.7749 84.8247 34.7749C85.2065 34.7749 85.522 34.9022 85.771 35.1567C86.02 35.4058 86.1445 35.7157 86.1445 36.0864C86.1445 36.4517 86.02 36.7616 85.771 37.0161C85.522 37.2651 85.2065 37.3896 84.8247 37.3896ZM84.8247 31.2305C84.4484 31.2305 84.133 31.106 83.8784 30.8569C83.6294 30.6024 83.5049 30.2925 83.5049 29.9272C83.5049 29.5565 83.6294 29.2466 83.8784 28.9976C84.133 28.743 84.4484 28.6157 84.8247 28.6157C85.2065 28.6157 85.522 28.743 85.771 28.9976C86.02 29.2466 86.1445 29.5565 86.1445 29.9272C86.1445 30.2925 86.02 30.6024 85.771 30.8569C85.522 31.106 85.2065 31.2305 84.8247 31.2305ZM94.4038 39V36.7007H88.5435V34.9492C88.8589 34.4124 89.1743 33.8729 89.4897 33.3306C89.8107 32.7882 90.1344 32.2487 90.4609 31.7119C90.793 31.1696 91.1222 30.6356 91.4487 30.1099C91.7808 29.5786 92.11 29.0557 92.4365 28.541C92.7686 28.0208 93.1006 27.5145 93.4326 27.022H96.4458V34.9326H98.0645V36.7007H96.4458V39H94.4038ZM90.5356 34.9824H94.437V28.7319H94.3125C94.069 29.1082 93.8172 29.4956 93.5571 29.894C93.3026 30.2925 93.0452 30.6992 92.7852 31.1143C92.5251 31.5293 92.2677 31.9471 92.0132 32.3677C91.7586 32.7827 91.5068 33.2005 91.2578 33.6211C91.0088 34.0361 90.7681 34.4484 90.5356 34.8579V34.9824ZM103.02 39V29.1304H102.871L99.8906 31.2305V29.2217L103.02 27.022H105.153V39H103.02Z" fill="black"/>
<path fill-rule="evenodd" clip-rule="evenodd" d="M331.366 27.5329C331.366 26.8999 330.888 26.3867 330.299 26.3867H329.233C328.644 26.3867 328.166 26.8999 328.166 27.5329V37.4669C328.166 38.0999 328.644 38.6131 329.233 38.6131H330.299C330.888 38.6131 331.366 38.0999 331.366 37.4669V27.5329ZM323.932 28.832H324.999C325.588 28.832 326.065 29.3575 326.065 30.0057V37.4394C326.065 38.0876 325.588 38.6131 324.999 38.6131H323.932C323.343 38.6131 322.865 38.0876 322.865 37.4394V30.0057C322.865 29.3575 323.343 28.832 323.932 28.832ZM319.6 31.481H318.533C317.944 31.481 317.467 32.0132 317.467 32.6697V37.4244C317.467 38.0809 317.944 38.6131 318.533 38.6131H319.6C320.189 38.6131 320.667 38.0809 320.667 37.4244V32.6697C320.667 32.0132 320.189 31.481 319.6 31.481ZM314.299 33.9263H313.233C312.644 33.9263 312.166 34.4509 312.166 35.098V37.4414C312.166 38.0885 312.644 38.6131 313.233 38.6131H314.299C314.888 38.6131 315.366 38.0885 315.366 37.4414V35.098C315.366 34.4509 314.888 33.9263 314.299 33.9263Z" fill="black"/>
<path fill-rule="evenodd" clip-rule="evenodd" d="M346.937 28.8022C349.424 28.8023 351.816 29.7244 353.618 31.3779C353.754 31.5055 353.971 31.5039 354.105 31.3743L355.402 30.1108C355.47 30.045 355.507 29.956 355.507 29.8633C355.506 29.7706 355.468 29.682 355.399 29.617C350.668 25.2423 343.204 25.2423 338.473 29.617C338.405 29.6819 338.366 29.7705 338.365 29.8632C338.365 29.9559 338.402 30.045 338.47 30.1108L339.768 31.3743C339.901 31.5041 340.119 31.5057 340.254 31.3779C342.057 29.7243 344.449 28.8022 346.937 28.8022ZM346.933 33.0225C348.291 33.0224 349.599 33.5342 350.606 34.4583C350.742 34.5894 350.956 34.5866 351.089 34.4519L352.376 33.1326C352.444 33.0634 352.481 32.9695 352.48 32.8719C352.479 32.7744 352.44 32.6813 352.371 32.6135C349.307 29.7227 344.562 29.7227 341.498 32.6135C341.429 32.6813 341.39 32.7744 341.389 32.872C341.388 32.9696 341.426 33.0635 341.493 33.1326L342.78 34.4519C342.913 34.5866 343.127 34.5894 343.263 34.4583C344.269 33.5348 345.577 33.0231 346.933 33.0225ZM349.458 35.816C349.46 35.9214 349.422 36.023 349.355 36.0968L347.179 38.5515C347.115 38.6236 347.028 38.6642 346.937 38.6642C346.846 38.6642 346.759 38.6236 346.695 38.5515L344.518 36.0968C344.451 36.0229 344.414 35.9213 344.416 35.816C344.418 35.7106 344.459 35.6108 344.529 35.5402C345.919 34.2263 347.955 34.2263 349.345 35.5402C349.415 35.6109 349.456 35.7107 349.458 35.816Z" fill="black"/>
<rect opacity="0.35" x="363.006" y="26.5" width="24" height="12" rx="3.8" stroke="black"/>
<path opacity="0.4" d="M388.506 30.7812V34.8567C389.311 34.5116 389.834 33.7086 389.834 32.819C389.834 31.9294 389.311 31.1264 388.506 30.7812Z" fill="black"/>
<rect x="364.506" y="28" width="21" height="9" rx="2.5" fill="black"/>
<path d="M332 879.831L360.441 850L388.883 879.831" stroke="#F6DCB7" stroke-width="2" stroke-linecap="round" stroke-linejoin="round"/>
<path d="M340.752 878.678V904.5H380.132V878.678" stroke="#F6DCB7" stroke-width="2" stroke-linecap="round" stroke-linejoin="round"/>
<g clip-path="url(#clip1_1707_19022)">
<path d="M72.8206 844.464C72.8206 845.09 72.5723 845.689 72.1302 846.131C71.6882 846.573 71.0886 846.822 70.4634 846.822H44.5349C43.9097 846.822 43.3102 846.573 42.8681 846.131C42.4261 845.689 42.1777 845.09 42.1777 844.464V823.25L49.2492 816.179H70.4634C71.0886 816.179 71.6882 816.427 72.1302 816.869C72.5723 817.311 72.8206 817.911 72.8206 818.536V844.464Z" stroke="#F6DCB7" stroke-width="2" stroke-linecap="round" stroke-linejoin="round"/>
<path d="M65.75 835.036H49.25V846.821H65.75V835.036Z" stroke="#F6DCB7" stroke-width="2" stroke-linecap="round" stroke-linejoin="round"/>
<path d="M65.7483 816.179H51.6055V825.607H65.7483V816.179Z" stroke="#F6DCB7" stroke-width="2" stroke-linecap="round" stroke-linejoin="round"/>
</g>
</g>
<defs>
<clipPath id="clip0_1707_19022">
<rect width="440" height="956" fill="white"/>
</clipPath>
<clipPath id="clip1_1707_19022">
<rect width="33" height="33" fill="white" transform="translate(41 815)"/>
</clipPath>
</defs>
</svg>
