<svg width="621" height="100" viewBox="0 0 621 100" fill="none" xmlns="http://www.w3.org/2000/svg">
<g clip-path="url(#clip0_1868_5241)">
<path d="M221.04 5.6001L190.51 98.9301H167.31L146.78 35.7301L125.58 98.9301H102.51L71.84 5.6001H94.24L115.31 71.2001L137.31 5.6001H157.31L178.64 71.7301L200.38 5.6001H221.05H221.04Z" fill="#463019"/>
<path d="M296.11 68.9301H241.84C243.84 77.8601 251.44 83.3301 262.37 83.3301C269.97 83.3301 275.44 81.0601 280.37 76.4001L291.44 88.4001C284.77 96.0001 274.77 100 261.84 100C237.04 100 220.91 84.4001 220.91 63.0701C220.91 41.7401 237.31 26.1401 259.18 26.1401C281.05 26.1401 296.51 40.2701 296.51 63.3401C296.51 64.9401 296.24 67.2101 296.11 68.9401V68.9301ZM241.58 56.8001H276.91C275.44 47.7301 268.64 41.8701 259.31 41.8701C249.98 41.8701 243.04 47.6001 241.58 56.8001Z" fill="#463019"/>
<path d="M310.37 0H331.17V98.93H310.37V0Z" fill="#463019"/>
<path d="M350.51 0H371.31V98.93H350.51V0Z" fill="#463019"/>
<path d="M463.97 57.8699V98.9399H443.17V61.0699C443.17 49.4699 437.84 44.1399 428.64 44.1399C418.64 44.1399 411.44 50.2699 411.44 63.4699V98.9399H390.64V27.1999H410.51V35.5999C416.11 29.4699 424.51 26.1299 434.24 26.1299C451.17 26.1299 463.97 35.9999 463.97 57.8599V57.8699Z" fill="#463019"/>
<path d="M555.04 27.2002V98.9302H535.31V90.4002C529.84 96.6702 521.84 100 513.04 100C495.04 100 482.37 89.8702 482.37 67.7302V27.2002H503.17V64.6702C503.17 76.6702 508.5 82.0002 517.7 82.0002C526.9 82.0002 534.23 75.8702 534.23 62.6702V27.2002H555.03H555.04Z" fill="#463019"/>
<path d="M620.64 95.4701C616.37 98.5401 610.11 100 603.71 100C586.78 100 576.91 91.3301 576.91 74.2701V44.8001H565.84V28.8001H576.91V11.3301H597.71V28.8001H615.58V44.8001H597.71V74.0001C597.71 80.1301 601.04 83.4701 606.64 83.4701C609.71 83.4701 612.77 82.5401 615.04 80.8001L620.64 95.4701Z" fill="#463019"/>
<path d="M73.5933 68.2417L75.9904 65.8446L83.4079 73.2622L81.3078 75.3623C81.1452 75.5249 80.8765 75.5249 80.7138 75.3623L73.5933 68.2417Z" fill="#2A1A09"/>
<path d="M89.4181 67.2545L87.021 64.8574L80.1055 71.7729L82.5026 74.17L89.4181 67.2545Z" fill="#2A1A09"/>
<path d="M91.2801 68.1898C93.8868 68.1898 96.0001 67.1421 96.0001 65.8498C96.0001 64.5574 93.8868 63.5098 91.2801 63.5098C88.6733 63.5098 86.5601 64.5574 86.5601 65.8498C86.5601 67.1421 88.6733 68.1898 91.2801 68.1898Z" fill="#2A1A09"/>
<path d="M14.7876 65.3616L11.5907 64.2339L6.0154 80.0394L9.21234 81.1671L14.7876 65.3616Z" fill="#2A1A09"/>
<path d="M4.8937 83.6448C7.47606 83.2888 9.42638 81.9623 9.24987 80.6821C9.07336 79.4018 6.83686 78.6526 4.2545 79.0087C1.67215 79.3647 -0.278175 80.6912 -0.101667 81.9714C0.0748422 83.2516 2.31134 84.0008 4.8937 83.6448Z" fill="#2A1A09"/>
<path d="M41.93 95.66V77.71H38.54V96.14L36.75 96.39C36.01 96.49 35.46 97.13 35.46 97.87V99.05H41.92V95.66H41.93Z" fill="#2A1A09"/>
<path d="M50.72 96.14V77.71H47.33V99.05H53.79V97.87C53.79 97.12 53.24 96.49 52.5 96.39L50.71 96.14H50.72Z" fill="#2A1A09"/>
<path d="M80.93 52.8698L79.85 30.6098C79.58 25.0798 75.73 15.5998 75.71 15.5998C75.68 15.5998 75.58 15.5998 75.48 15.5998C75.41 15.5998 75.44 15.1198 75.39 15.1498L61.8 24.5898L48.67 21.2098C48.44 21.1498 48.2 21.2298 48.05 21.3998L39.55 31.2798C39.41 31.4398 39.2 31.5198 38.99 31.4898L30.7 30.3798C30.12 30.2998 29.37 29.8198 28.98 29.3798L24.61 26.3798L24.66 26.2398L24.15 26.1098C23.93 26.0598 23.69 26.1498 23.59 26.3698L18.99 36.1098L17.15 36.0798L15.02 34.7398L15.07 34.5498C15.07 34.5498 14.71 34.5098 14.61 34.5098C14.47 34.5098 14.33 34.5598 14.22 34.6598L12.68 35.9998L9.28003 35.4598C8.92003 35.4598 8.78003 36.3098 8.85003 36.6598L9.04003 37.5498L8.99003 37.4998C8.86003 37.3898 8.76003 37.2498 8.70003 37.0898L8.62003 36.8598C8.53003 36.5998 8.72003 52.6898 8.72003 52.6898C7.83003 71.0798 29.71 79.9898 39.45 84.6198L41.83 84.7998L47.09 84.6198H48.7C67.11 84.6198 81.81 71.2698 80.92 52.8798L80.93 52.8698Z" fill="#966A2A"/>
<path d="M79.65 48.5999L78.26 29.8099C77.88 24.7499 76.36 20.0199 73.95 15.8599C73.81 15.6199 73.87 15.3299 74.07 15.1499C74.14 15.0899 74.2 15.0199 74.25 14.9499C75.04 13.8399 73.77 11.5699 71.41 9.88989C70.44 9.19989 69.45 8.70989 68.55 8.45989C68.34 8.39989 68.2 8.20989 68.21 7.98989C68.26 6.96989 67.6 5.74989 66.42 4.90989C65.28 4.09989 63.98 3.84989 63.03 4.17989C62.81 4.25989 62.57 4.21989 62.37 4.09989C61.98 3.85989 61.59 3.63989 61.2 3.41989C61.15 3.38989 61.1 3.36989 61.04 3.34989C60.42 3.13989 60.34 3.18989 59.97 3.46989C58.48 4.60989 56.41 4.83989 54.66 3.87989C54.53 3.80989 54.4 3.72989 54.27 3.63989C53.76 3.29989 53.09 3.34989 52.61 3.71989C51.4 4.64989 50.46 5.96989 50.02 7.51989C49.88 7.99989 49.63 8.43989 49.28 8.78989C48.64 9.42989 48.21 10.5599 48.21 11.8399C48.21 12.8999 48.5 13.8599 48.97 14.5199C49.26 14.9299 49.33 15.4599 49.12 15.9199C48.82 16.5499 48.65 17.3399 48.65 18.1799C48.65 19.7199 49.23 21.0599 50.08 21.6699L50.11 22.7099C50.21 25.1499 48.26 27.1699 45.82 27.1699H44.41C41.97 27.1699 40.02 25.1399 40.12 22.7099V22.6899C40.12 22.4199 39.96 22.1599 39.7 22.0699C39.23 21.9099 38.41 21.3799 38.09 21.1399C38.03 21.0999 38.03 20.9999 38.09 20.9599C38.99 20.3799 39.58 18.2899 39.47 15.8399C39.41 14.5199 39.15 13.3299 38.79 12.4299C38.69 12.1899 38.71 11.9099 38.86 11.6899C39.14 11.2899 39.47 10.9399 39.83 10.6399C40.24 10.3099 40.48 9.82989 40.5 9.30989C40.65 3.78989 34.91 0.0798875 29.93 2.46989C27.56 3.60989 25.33 5.00989 23.31 6.63989C23.13 6.78989 23.05 7.02989 23.09 7.25989C23.09 7.28989 23.1 7.32989 23.11 7.35989C23.17 7.68989 22.93 8.01989 22.61 8.10989C21.8 8.32989 20.92 9.05989 20.31 10.1199C19.37 11.7499 19.81 13.1399 20.42 14.1199C20.53 14.2999 17.78 16.1599 16 16.0099C15.59 15.9699 15.2 16.1899 15 16.5499C14.14 18.1099 13.4 19.7599 12.81 21.4599C11.88 24.1099 11.28 26.9099 11.07 29.8299L9.68001 48.6199C9.24001 54.5399 10.42 60.1999 12.82 65.1799C17.57 74.9999 27.12 82.2199 38.59 83.7899C39.86 83.9599 40.98 82.9699 40.98 81.6899V80.8599C40.98 79.5199 42.07 78.4299 43.41 78.4299H45.91C47.25 78.4299 48.34 79.5199 48.34 80.8599V81.6899C48.34 82.9699 49.47 83.9599 50.73 83.7899C62.2 82.2299 71.75 75.0099 76.5 65.1799C78.91 60.1999 80.08 54.5499 79.64 48.6199L79.65 48.5999Z" fill="#E8BE6B"/>
<path d="M64.03 11.0297C66.08 10.1097 68.76 10.5697 69.7 12.8097C70.15 13.8297 70.16 14.9197 70.14 15.9897C70.14 16.6897 70.09 17.3897 70 18.0897C69.97 18.3897 69.89 18.7097 69.84 19.0097C69.82 19.0897 69.68 19.5597 69.66 19.6497C69.28 20.7797 68.52 21.8697 67.37 22.3097C67.27 22.3497 67.19 22.3797 67.07 22.4097V21.7497C68.65 22.0497 70.26 23.0197 70.63 24.6897C70.93 26.5397 70.36 28.4697 69.33 29.9897L69.27 29.9497C69.92 28.3497 70.3 26.5497 69.94 24.8597C69.92 24.7797 69.83 24.5597 69.81 24.4797C69.69 24.2397 69.55 23.9997 69.37 23.7997C68.88 23.2297 68.2 22.8397 67.5 22.5797C67.12 22.4197 65.79 22.1597 65.38 22.0497C65.5 22.0197 67.11 21.7397 67.15 21.6997C70.27 20.4497 70.44 15.7097 69.15 13.0797C68.22 11.0997 66.04 10.7497 64.05 11.1097L64.03 11.0397V11.0297Z" fill="#D3A759"/>
<path d="M34.3199 8.49979C32.5599 7.88979 31.0899 9.18979 30.3399 10.6598C29.8799 11.4898 29.5699 12.4098 29.2699 13.3098C28.9899 14.2198 28.7099 15.1898 28.5299 16.1298C28.2399 17.5898 27.9899 19.1398 28.4099 20.6098C28.8199 22.2598 30.3199 23.3498 32.0099 23.2698L33.3399 23.1798L32.1999 23.8998C31.0499 24.6498 29.9599 25.7698 29.6399 27.1298C29.5199 27.5898 29.5599 28.0698 29.5599 28.5398C29.6299 29.9698 29.8899 31.5198 31.0399 32.4698C31.4099 32.7798 31.8699 32.9898 32.3599 33.0598V33.1298C31.2899 33.1798 30.3099 32.4698 29.7699 31.5798C29.2899 30.7998 29.0499 29.8798 28.9299 28.9698C28.8599 28.3098 28.7899 27.6398 28.9299 26.9798C29.2599 25.3598 30.4999 24.1398 31.8799 23.3098L32.0699 23.9398C30.6499 23.9698 29.2199 23.2398 28.5599 21.9598C27.7199 20.3398 27.9799 18.4698 28.1599 16.7298C28.3899 14.5398 28.6699 12.3198 29.8299 10.3598C30.2899 9.57979 30.9099 8.84979 31.7299 8.41979C32.5599 7.98979 33.5899 7.96978 34.3599 8.43978L34.3299 8.49979H34.3199Z" fill="#D3A759"/>
<path d="M53.77 38.7401C56.96 39.2701 58.9 38.1001 59.48 34.8601C59.87 32.6101 59.53 29.8101 57.5 28.4501C57.25 28.2901 56.96 28.1401 56.68 28.0801L55.1 27.7801C55.52 27.6701 56.83 27.4101 57.22 27.2501C58.17 26.9001 59.1 26.2901 59.53 25.3501C60.13 23.7401 59.64 21.4401 58.99 19.8701L59.05 19.8301C60.09 21.3501 60.65 23.2801 60.35 25.1301C59.98 26.7901 58.37 27.7701 56.79 28.0701V27.4101C57.01 27.4601 57.17 27.5301 57.36 27.6201C58.38 28.1201 59.03 29.1201 59.39 30.1601C59.42 30.2501 59.55 30.7201 59.57 30.8001C59.61 31.1001 59.7 31.4201 59.73 31.7201C59.82 32.4201 59.87 33.1201 59.87 33.8201C59.9 35.0601 59.86 36.3901 59.16 37.4901C58.29 38.9901 56.37 39.4901 54.76 39.1001C54.41 39.0301 54.07 38.9201 53.75 38.7701L53.77 38.7001V38.7401Z" fill="#D3A759"/>
<path d="M19.25 49.73C18.22 47.76 16.5 43.53 17.45 41.4L17.55 41.21C18.13 40.33 18.73 39.48 19.28 38.59L19.37 38.77C19.15 38.74 18.94 38.67 18.74 38.57C17.11 37.7 18.7 35.66 19.45 34.69L19.58 35.07C18.92 34.99 18.29 34.84 17.67 34.62C14.44 33.47 13.62 30.92 15.61 28.12C15.98 27.58 16.44 27.05 16.97 26.66C18.09 25.79 19.64 25.83 20.66 26.83L20.61 26.88C19.37 26.06 18.09 26.27 17.06 27.31C15.88 28.65 14.59 30.83 15.76 32.52C16.77 33.84 18.51 34.37 20.08 34.71C19.7 35.08 19.31 35.48 19 35.91C18.66 36.38 18.29 36.9 18.26 37.49C18.23 38.18 18.97 38.52 19.57 38.54C19 39.55 18.46 40.58 17.94 41.61C17.68 42.38 17.79 43.2 17.89 44C18.03 44.95 18.26 45.9 18.5 46.85C18.75 47.8 19.03 48.74 19.31 49.69L19.24 49.72L19.25 49.73Z" fill="#D3A759"/>
<path d="M80.91 52.3698L79.83 30.1098C79.56 24.5798 75.71 15.1098 75.69 15.0998C75.69 15.0998 75.63 15.0898 75.57 15.0898C75.5 15.0898 75.44 15.0898 75.39 15.1498C74.33 16.9798 65.66 24.1898 64.95 24.5098C64.56 24.6898 64.27 24.7198 64.27 24.7198L48.65 20.6998C48.42 20.6398 48.18 20.7198 48.03 20.8898L39.53 30.7698C39.39 30.9298 39.18 31.0098 38.97 30.9798L30.68 29.8698C30.1 29.7898 29.35 29.3098 28.96 28.8698L24.59 25.8598L24.64 25.7198L24.13 25.5898C23.91 25.5398 23.67 25.6298 23.57 25.8498L18.78 35.7698C18.7 35.9398 18.4 36.1798 18.22 36.1098L17.57 35.8298L15 34.2098L15.11 34.0198C15.11 34.0198 14.84 33.9498 14.73 33.9498C14.59 33.9498 14.45 33.9998 14.34 34.0998L12.65 35.4698L10.32 37.4798C10.26 37.5298 10.18 37.5298 10.12 37.4798C9.88002 37.2698 9.41002 36.8798 9.30002 36.6098C9.08002 36.0698 9.30002 35.4498 9.30002 35.4498C8.94002 35.4498 8.76002 35.7698 8.84002 36.1298L9.03002 37.0198L8.98002 36.9698C8.85002 36.8598 8.75002 36.7198 8.69002 36.5598L8.61002 36.3298C8.52002 36.0698 8.71002 52.1598 8.71002 52.1598C7.82002 70.5498 21.07 86.1298 39.47 86.1298H48.72C67.13 86.1298 81.79 70.7398 80.9 52.3498L80.91 52.3698Z" fill="#966A2A"/>
<path d="M81.44 52.5001L80.36 30.2401C80.09 24.7101 78.44 19.5601 75.74 15.1101C75.74 15.1101 75.7 15.1001 75.69 15.1001C75.69 15.1001 75.67 15.2101 75.64 15.2701C73.87 18.3001 65.29 24.7401 65.29 24.7401C65.15 24.8601 64.96 24.9001 64.78 24.8501L49.19 20.8401C48.96 20.7801 48.72 20.8601 48.57 21.0301L40.15 30.8301C40.01 30.9901 39.8 31.0701 39.59 31.0401L31.01 29.8201C30.43 29.7401 29.89 29.4501 29.5 29.0101L24.83 25.8001C24.58 25.6301 24.24 25.7201 24.11 25.9901L19.41 35.9401C19.29 36.3001 18.85 36.4501 18.53 36.2401L15.37 34.1401C15.14 33.9901 14.83 34.0101 14.62 34.1901L10.42 37.8401C10.42 37.8401 10.39 37.8501 10.38 37.8401L9.50998 37.1301C9.37998 37.0201 9.27998 36.8801 9.21998 36.7201L9.13998 36.4901C9.04998 36.2301 9.06998 35.9401 9.20998 35.7001L9.31998 35.5101C9.31998 35.5101 9.31998 35.4601 9.28998 35.4601C8.92998 35.4601 8.63998 35.7301 8.61998 36.0901L7.81998 52.5101C6.92998 70.9001 21.59 86.2901 40 86.2901H49.25C67.66 86.2901 82.32 70.9001 81.43 52.5101L81.44 52.5001Z" fill="#B2853D"/>
<path d="M74.22 27.6299C74.97 29.9699 75.19 32.4899 74.78 34.9199C74.58 36.3299 74.34 37.8499 74.06 39.2299L73.4 39.0499C73.48 38.8899 73.53 38.7999 73.7 38.6999C74.52 38.3799 74.65 39.8199 74.75 40.3299C74.93 41.5799 75.01 42.8299 74.98 44.0899C74.96 44.7199 74.92 45.3399 74.8 45.9799L74.54 45.8599C74.68 45.6799 74.85 45.5399 75.1 45.5299C76.11 45.5899 76.27 48.2799 76.37 49.0599C76.47 50.3399 76.59 52.3999 75.72 53.4499C74.87 54.0199 74.01 54.7399 73.57 55.6899C73.5 55.8099 73.46 55.9599 73.42 56.0899L73.38 56.2999C73.38 56.3299 73.36 56.3699 73.36 56.3999C73.36 56.4999 73.34 56.6099 73.34 56.7099C73.39 58.3399 73.91 59.9299 74.45 61.4599C74.99 62.9499 74.97 64.6999 74.24 66.1199C73.96 66.7299 73.66 67.3499 73.4 67.9599L73.31 67.9399C73.58 66.6299 74.27 65.4199 74.22 64.0699C74.2 63.3499 74.08 62.6299 73.83 61.9599C73.73 61.7299 73.62 61.4999 73.53 61.2699C73.14 60.2999 72.8 59.3299 72.59 58.2999C72.22 56.6099 72.32 55.4399 73.53 54.1299C74.03 53.5899 74.58 53.1599 75.22 52.7799L75.17 52.8199L75.15 52.8299C75.32 52.6299 75.4 52.3599 75.48 52.0999C75.74 51.1299 75.76 50.0999 75.77 49.0799C75.75 48.4199 75.77 46.0699 75.1 45.8399C75.01 45.8299 74.87 45.9199 74.78 46.0299L74.36 46.5399L74.52 45.8999C74.78 44.7099 74.77 43.4499 74.61 42.2299C74.46 41.2699 74.3 40.2699 73.9 39.3899C73.87 39.3399 73.84 39.2899 73.82 39.2699C73.82 39.2699 73.81 39.2699 73.85 39.2899C73.89 39.3099 73.98 39.3099 74.02 39.2899C74.06 39.2699 74.06 39.2599 74.05 39.2699L74.04 39.2999L73.38 39.1199C73.49 38.1599 73.62 37.1999 73.78 36.2399C73.91 35.4499 74.15 34.1799 74.25 33.3899C74.46 31.4899 74.38 29.5599 74.13 27.6499L74.22 27.6299Z" fill="#9B6D2C"/>
<path d="M30.5199 32.6997C30.2499 34.5997 30.1399 36.5297 30.3699 38.4397C30.6499 40.3497 31.0399 42.2497 31.3199 44.1497L30.5599 44.3597C30.5599 44.3697 30.5599 44.3397 30.5599 44.3497C30.6199 44.4297 30.8099 44.4397 30.8799 44.3697C30.8799 44.3697 30.8399 44.4297 30.8199 44.4797C30.4599 45.3597 30.3299 46.3597 30.1799 47.2997C29.9699 48.7497 29.9599 50.2697 30.2999 51.7097L29.8499 51.0897C29.7699 50.9897 29.6399 50.8897 29.5499 50.8897C28.8499 51.0497 28.7599 53.4697 28.7199 54.1197C28.6999 54.8197 28.6999 55.5097 28.7899 56.1997C28.8799 56.8097 28.9799 57.4497 29.3299 57.9597C29.3499 57.9797 29.3799 58.0197 29.3699 58.0097L29.3399 57.9897C30.7199 58.7797 32.1099 60.0597 32.1599 61.7597C32.1499 63.3397 31.6799 64.8697 31.1599 66.3397C30.7899 67.2097 30.5699 68.1697 30.6099 69.1197C30.6199 69.7497 30.7799 70.3497 31.0199 70.9297C31.1999 71.4097 31.5299 72.2497 31.6799 72.7397L31.6999 72.8097V72.8497L31.7299 72.9097L31.5099 73.3897C31.5099 73.3897 31.5299 73.3797 31.5199 73.3897C31.4199 73.4597 31.4599 73.5797 31.5199 73.6897C31.8299 74.1997 32.1799 74.8097 32.1799 75.4397C31.9899 75.9497 31.8199 76.4797 31.6899 77.0097C31.5699 77.5197 31.4699 78.0397 31.4799 78.5397C31.4799 78.8697 31.5199 79.1797 31.7099 79.4297C32.1799 79.9697 32.8299 80.4197 33.5499 80.5197L33.5099 80.6697C33.4199 81.0697 33.2699 81.5697 33.5899 81.9097C33.6899 82.0197 33.7999 82.1197 33.9299 82.1997L33.8899 82.2797C33.7399 82.2097 33.6099 82.1197 33.4799 82.0197C33.1999 81.7997 33.1399 81.4297 33.1599 81.0897C33.1599 80.9297 33.1799 80.7697 33.2099 80.5997L33.3499 80.7797C32.5199 80.6897 31.8099 80.2597 31.2599 79.6697C30.4699 78.5497 31.0699 76.4497 31.4199 75.2297L31.3999 75.3697C31.3699 75.1997 31.3199 75.0397 31.2499 74.8797C30.9999 74.2997 30.3599 73.7597 30.6899 73.0497C30.7799 72.8597 30.9099 72.7097 31.0899 72.6097L30.8699 73.0897C30.8399 72.9897 30.7599 72.7697 30.7199 72.6697C30.6199 72.3897 30.2799 71.5597 30.1599 71.2697C29.4999 69.8097 29.5299 68.0697 30.0999 66.5897C30.6799 65.1897 31.1999 63.7297 31.3799 62.2197C31.4499 61.7297 31.4099 61.2397 31.2299 60.7797C30.8099 59.7897 29.9899 58.9997 29.1099 58.4097C29.0299 58.3597 28.9899 58.2797 28.9499 58.2397C28.5699 57.6497 28.4899 56.9097 28.4299 56.2297C28.3899 55.5197 28.3999 54.8097 28.4299 54.0997C28.5099 53.3097 28.5499 50.6497 29.5399 50.5597C29.7899 50.5597 29.9699 50.6997 30.1199 50.8797L29.8099 51.0197C29.3999 49.1497 29.4499 47.2197 29.7699 45.3397C29.8499 44.9397 29.9299 44.5197 30.0999 44.1297C30.1899 43.9697 30.2799 43.7597 30.5199 43.6697C30.8499 43.5297 31.1799 43.7697 31.2899 44.0797L30.5299 44.2897C30.2999 42.8497 30.0899 41.4097 29.8899 39.9697C29.6499 38.5197 29.6299 36.9997 29.8199 35.5497C29.9399 34.5797 30.1299 33.6097 30.4199 32.6797L30.5099 32.6997H30.5199Z" fill="#9B6D2C"/>
<path d="M67.24 27.6299C68.15 29.4599 68.8499 31.4299 69.1199 33.4599C69.2299 34.5499 69.42 35.6399 69.24 36.7399C69.18 37.1099 68.89 37.6699 68.74 38.0099C68.53 38.4799 68.32 38.9399 68.1 39.3999L67.88 39.0499C69.28 39.1799 68.72 42.4799 68.41 43.3799L68.3699 43.2999C67.8699 43.6799 68.3899 44.2999 68.5799 44.7099C68.8699 45.3299 68.94 46.0199 68.84 46.6799H68.79C68.75 45.9799 68.56 45.2599 68.14 44.6999C68.1 44.6499 68.03 44.5499 68 44.4999C67.62 44.0299 67.53 43.2499 68.1 42.8599L67.99 43.0099C68.06 42.7099 68.1099 42.3799 68.1499 42.0499C68.1799 41.4599 68.4399 39.8799 67.8999 39.5399L67.68 39.1899C68.03 38.5399 68.45 37.8399 68.82 37.1999C68.95 36.9899 69.0399 36.7599 69.0799 36.5199C69.3599 35.0099 68.7899 33.5099 68.3999 32.0699C68.0099 30.6499 67.56 29.0899 67.2 27.6599L67.25 27.6399L67.24 27.6299Z" fill="#9B6D2C"/>
<path d="M66.47 38.5598C66.54 39.2198 66.44 39.8998 66.16 40.4998C66.11 40.6298 65.98 40.7998 65.91 40.9298C65.69 41.2498 65.59 41.7698 65.95 42.0098L66.01 42.0498C66.12 42.4098 66.19 42.7698 66.25 43.1298C66.33 43.9198 66.67 46.0298 65.52 46.1798L65.74 45.8398C65.98 46.2898 66.21 46.7498 66.44 47.1998C66.58 47.4798 66.84 47.9798 66.94 48.2698C67.24 49.4298 66.96 50.6298 66.73 51.7698C66.26 53.7698 65.64 55.7098 64.98 57.6498V57.5698C65.3 58.4798 65.59 59.3998 65.83 60.3298C66.23 61.9698 66.6 63.6998 66.31 65.3998L66.21 66.1098C66.08 67.0598 65.93 68.0098 65.79 68.9598L65.59 68.6398C66.11 68.8098 66.59 69.1798 66.71 69.7298C66.79 70.2398 66.71 70.7998 66.32 71.1598C66.28 71.1898 66.27 71.2098 66.19 71.2398L66.28 71.1698C66.1 71.3998 65.92 71.6698 65.8 71.9298C65.73 72.1098 65.66 72.2798 65.71 72.4398C65.8 72.5898 65.99 72.6298 66.18 72.6998C66.42 72.7698 66.71 72.8998 66.78 73.1898C66.78 73.2398 66.8 73.2998 66.8 73.3498V73.4998C66.71 74.0498 66.44 74.5398 66.22 75.0198C65.81 75.8998 65.36 76.7698 64.88 77.6098L64.83 77.5898C65.21 76.7498 65.6 75.7698 65.95 74.9098C66.12 74.4698 66.32 74.0298 66.4 73.5698C66.43 73.4298 66.41 73.2898 66.37 73.2398C66.34 73.1898 66.22 73.1398 66.06 73.0998C65.8 73.0298 65.45 72.9198 65.31 72.6398C65.16 72.3498 65.26 71.9998 65.36 71.7398C65.5 71.4098 65.68 71.1298 65.89 70.8498L65.98 70.7798C66.18 70.5998 66.25 70.1198 66.19 69.8498C66.09 69.4198 65.59 69.2098 65.2 69.1098C65.35 68.0798 65.5 67.0498 65.67 66.0198L65.78 65.3098C66.08 63.6798 65.76 62.0198 65.44 60.4098C65.25 59.4798 65.02 58.5498 64.74 57.6298V57.5798V57.5398C65.63 55.3898 67.31 50.3998 66.46 48.2398C66.1 47.5298 65.68 46.7598 65.32 46.0398L65.54 45.6998C66.21 45.3598 65.86 42.8598 65.71 42.1998L65.79 42.2998C65.69 42.2298 65.63 42.1598 65.57 42.0798C65.22 41.5898 65.52 40.9798 65.84 40.5698C66.07 40.2498 66.22 39.8898 66.32 39.4998C66.39 39.1898 66.44 38.8698 66.44 38.5498H66.49L66.47 38.5598Z" fill="#9B6D2C"/>
<path d="M15.37 45.4497C15.37 46.0797 15.53 46.7297 15.85 47.2697C16.02 47.5597 16.26 47.7997 16.36 48.1397C16.49 48.5097 16.38 48.9797 16.03 49.2097L16.11 49.0997C15.96 49.7397 15.6 52.2397 16.26 52.5897L16.48 52.9297C16.25 53.3797 16 53.8297 15.76 54.2797C15.64 54.5097 15.32 55.0297 15.24 55.2697C14.9 56.3397 15.09 57.5197 15.28 58.6097C15.67 60.5997 16.39 62.5297 17.14 64.4097L17.16 64.4597V64.5197C17.07 65.0797 17.03 65.6497 17.01 66.2097C16.99 66.7697 17.01 67.3497 17.14 67.8497C17.3 68.3397 17.63 68.8397 17.92 69.2897C18.25 69.7797 18.6 70.2597 18.97 70.7097C19.34 72.3797 19.69 74.0797 20.19 75.7197L20.28 75.9797C20.32 76.0597 20.34 76.1397 20.39 76.1997C20.51 76.3997 20.78 76.5597 20.98 76.6997C21.71 77.1197 22.5 77.4297 23.3 77.7197L23.29 77.7697C22.54 77.5997 21.81 77.3897 21.1 77.0797C20.7 76.8797 20.25 76.6897 20.01 76.2697C19.85 75.9697 19.73 75.6297 19.62 75.3097C19.13 73.8597 18.77 72.3797 18.42 70.8997L18.48 71.0197C18.11 70.5597 17.77 70.0897 17.44 69.5997C17.12 69.0797 16.8 68.5997 16.63 67.9897C16.48 67.3697 16.5 66.7797 16.52 66.1897C16.56 65.5997 16.63 65.0297 16.74 64.4497V64.5597C16.08 62.6197 15.54 60.6497 15.11 58.6497C14.91 57.5097 14.62 56.3297 14.91 55.1697C14.99 54.8797 15.27 54.3697 15.39 54.0997C15.61 53.6397 15.83 53.1797 16.07 52.7297L16.29 53.0697C14.96 52.9397 15.52 49.8697 15.76 48.9997L15.78 48.9297L15.84 48.8897C16.2 48.6597 16.09 48.1497 15.88 47.8297C15.41 47.1397 15.23 46.2797 15.33 45.4497H15.38H15.37Z" fill="#9B6D2C"/>
<path d="M13.82 39.22C13.32 41.37 12.6 43.56 12.61 45.78C12.61 46.06 12.68 46.4 12.75 46.68C12.93 47.53 13.08 48.38 13.18 49.26V49.34C12.72 49.73 12.27 50.24 12.08 50.83C11.88 51.37 12.14 52.04 12.23 52.61L12.2 52.54C13.15 53.73 14.01 55.04 14.11 56.63C14.14 57.4 14.07 58.14 13.97 58.89C13.87 59.64 13.73 60.36 13.53 61.09L13.32 61.34C13.22 61.39 13.11 61.55 13.09 61.69C13.06 61.89 13.13 62.12 13.2 62.32C13.37 62.78 13.64 63.23 13.97 63.59C14.41 63.98 15.03 64.61 15.09 65.34C15.13 65.72 14.85 66 14.69 66.32C14.54 66.6 14.41 66.9 14.36 67.22H14.29C14.28 66.71 14.46 66.22 14.67 65.76C14.95 65.08 14.06 64.4 13.59 64.02C13.13 63.61 12.82 63.13 12.57 62.58C12.25 61.97 12.28 61.02 13.02 60.66L12.81 60.91C13.12 59.52 13.43 58.07 13.45 56.65C13.41 55.27 12.73 53.88 11.95 52.74L11.92 52.7V52.67C11.88 52.28 11.81 51.9 11.76 51.51C11.7 50.93 11.98 50.38 12.3 49.92C12.49 49.66 12.69 49.41 12.92 49.18L12.87 49.31C12.7 48.48 12.42 47.66 12.17 46.84C12.03 46.41 11.94 45.94 11.94 45.49C11.97 44.16 12.32 42.87 12.73 41.62C13.01 40.8 13.33 39.99 13.72 39.21L13.79 39.24L13.82 39.22Z" fill="#9B6D2C"/>
<path d="M54.06 27.3201C54.71 28.9501 55.22 30.6201 55.57 32.3401C55.7 33.1301 55.91 33.9401 55.64 34.7301C55.32 35.6701 54.88 36.5601 54.45 37.4501L54.38 37.2701C54.95 37.5401 55.65 37.9901 55.58 38.7101C55.47 39.3501 55.22 39.9201 54.89 40.4801L54.88 40.2701C56.24 41.7301 57.27 43.7201 56.95 45.7801C56.79 47.1201 55.86 48.5301 54.33 48.3101L54.57 47.6501C55.3 48.1501 56.27 48.8401 56.19 49.8501C56.17 50.0801 56.14 50.2901 56.04 50.5101C55.94 50.7301 55.79 50.8501 55.67 51.0201C55.47 51.3301 55.11 51.5101 54.82 51.6601C54.34 51.8901 53.85 52.0801 53.34 52.2301L53.31 52.1601C53.77 51.9101 54.23 51.6601 54.65 51.3701C54.9 51.1901 55.15 51.0301 55.29 50.7701C55.38 50.6101 55.53 50.4501 55.57 50.3001C55.63 50.1201 55.64 49.8701 55.62 49.6501C55.46 49.0201 54.74 48.5901 54.2 48.2501L52.88 47.4901L54.45 47.6001C54.74 47.6301 55.05 47.5401 55.29 47.3801C55.84 47.0101 56.08 46.3001 56.21 45.6501C56.56 43.8001 55.64 41.8401 54.53 40.3801C54.91 39.8801 55.24 39.2901 55.35 38.6701C55.41 38.0701 54.76 37.7001 54.27 37.5101L54.14 37.4601L54.19 37.3301C54.57 36.3501 54.88 35.3501 55.12 34.3301C55.18 33.7201 55.03 33.0501 54.95 32.4401C54.82 31.6901 54.61 30.6501 54.46 29.8901C54.29 29.0401 54.12 28.1901 53.97 27.3301L54.04 27.3101L54.06 27.3201Z" fill="#9B6D2C"/>
<path d="M38.1199 40.1101C38.0099 40.6101 38.0899 41.1301 38.1199 41.6401C38.2199 42.3801 38.2399 43.1601 38.4499 43.8801C38.5899 44.3401 38.8699 44.7301 39.1799 45.0901C39.5099 45.5101 39.8099 45.9601 40.0699 46.4401C40.2499 46.7801 40.5099 47.3401 40.3199 47.7501C40.0199 48.6301 39.3799 49.3601 39.0599 50.2201C38.9499 50.5901 38.8499 51.0501 39.0999 51.3701L39.2299 51.5301C39.7899 52.2601 40.0699 53.2601 39.8799 54.1901C39.8699 54.2601 39.8599 54.3801 39.8799 54.4001C40.0299 54.7201 40.3399 55.0401 40.5299 55.3901C40.6499 55.6001 40.6699 55.8901 40.4999 56.0801L40.4699 56.1101L40.4299 56.1601C39.3999 57.2701 38.3199 58.5601 38.1399 60.0801C38.0599 61.0801 38.3599 62.0801 38.7899 62.9901L38.7199 63.0401C37.9999 62.2301 37.4899 61.1601 37.4499 60.0501C37.3999 58.3101 38.6599 56.5301 39.7699 55.5401C39.7299 55.6201 39.6999 55.7301 39.7299 55.8101C39.7299 55.8101 39.7299 55.8001 39.7299 55.7901C39.5299 55.4101 39.2099 55.0401 39.0799 54.5901C39.0299 54.3201 39.0899 54.1001 39.1499 53.8501C39.2899 53.1501 39.1799 52.4301 38.8299 51.7901L38.7399 51.6301C38.6099 51.4301 38.5699 51.1501 38.5899 50.9301C38.6399 50.0801 39.1999 49.4401 39.5499 48.7101C39.7199 48.3101 39.9999 47.7801 39.9199 47.3501C39.7499 46.9501 39.3699 46.5201 39.0799 46.1701C38.9999 46.0901 38.5299 45.5101 38.4599 45.4301C38.0299 44.9301 37.7499 44.3001 37.6699 43.6501C37.6099 42.9701 37.6299 42.3101 37.6699 41.6301C37.7299 41.1001 37.7699 40.5301 38.0499 40.0601L38.1299 40.1001L38.1199 40.1101Z" fill="#9B6D2C"/>
<path d="M60.63 4.77002C61.31 4.92002 61.86 5.65002 61.63 6.35002C61.4 6.99002 60.88 7.43002 60.43 7.90002C60.12 8.20002 59.79 8.48002 59.39 8.70002L59.31 8.41002C59.85 8.33002 60.47 8.23002 60.95 8.59002C61.65 9.25002 60.99 10.25 60.37 10.68L60.35 10.65C60.55 10.41 60.72 10.14 60.84 9.87002C60.99 9.53002 61.02 9.17002 60.79 8.92002C60.66 8.78002 60.47 8.76002 60.27 8.72002C59.75 8.64002 58.93 8.75002 58.39 8.79002C59.02 8.52002 59.82 8.25002 60.36 7.81002C60.94 7.33002 61.48 6.50002 61.34 5.73002C61.25 5.37002 60.96 5.06002 60.62 4.81002V4.78002H60.63V4.77002Z" fill="#D3A759"/>
<path d="M25.4899 15.6098C24.7499 15.4598 23.4599 15.1598 22.9099 15.8098C22.4399 16.6098 23.2699 17.4498 23.9999 17.7198L25.6299 18.3998L23.8799 18.1498C22.8899 18.0398 21.6499 17.9798 20.9399 18.7498C20.5599 19.2398 20.4799 20.0598 20.6799 20.6398C20.9299 21.3798 21.5599 21.4698 22.2499 21.3598C22.6299 21.3298 22.9899 21.2898 23.3799 21.2698L24.4399 21.2198C23.3999 21.7198 22.2299 22.2498 21.3999 23.0598C21.1099 23.3498 20.8599 23.7098 21.0199 24.0998C21.0799 24.2998 21.1799 24.4798 21.3199 24.6298C21.4599 24.7798 21.6599 24.8798 21.8699 24.9098C21.1899 24.9098 20.6099 24.0998 20.8399 23.4598C21.0899 22.8198 21.6599 22.3998 22.1799 21.9998C22.5399 21.7498 22.8999 21.5098 23.2899 21.2998L23.3999 21.7098L22.2899 21.8398C21.6799 21.9598 20.9399 21.9198 20.5099 21.3898C19.8399 20.5498 19.8999 19.2598 20.5299 18.4198C21.3999 17.4698 22.7899 17.5498 23.9499 17.7098L23.8299 18.1398C23.5799 18.0298 23.3799 17.8998 23.1699 17.7398C22.5399 17.2798 22.1199 16.3198 22.6599 15.6298C23.3499 14.8898 24.6699 15.3198 25.4799 15.6298L25.4899 15.6098Z" fill="#D3A759"/>
<path d="M33.18 50.1801C32.5 50.0601 31.8 50.0301 31.09 50.1101C26.33 50.6201 22.95 55.5601 23.54 61.1501C24.12 66.6101 26.27 71.3201 32.76 70.4301" fill="white"/>
<path d="M32.76 70.4302C29.02 69.7002 26.15 65.4602 26.15 60.3402C26.15 55.2202 29.24 50.6702 33.18 50.1802C35.24 50.5402 37.11 51.7502 38.49 53.5202C38.06 53.3402 37.55 53.2302 37.01 53.2302C35.52 53.2302 34.31 54.0202 34.31 54.9902C34.31 55.9602 35.52 56.7502 37.01 56.7502C38.31 56.7502 39.39 56.1502 39.65 55.3602C40.24 56.5502 40.64 57.8802 40.79 59.3202C41.38 64.9102 40.15 69.1502 33.24 70.3602C33.08 70.3902 32.92 70.4102 32.76 70.4302Z" fill="#2B1907"/>
<path d="M34.3101 54.99C34.3101 55.96 35.5201 56.75 37.0101 56.75C38.3101 56.75 39.3901 56.15 39.6501 55.36C39.3201 54.7 38.9301 54.08 38.5001 53.52C38.0701 53.34 37.5601 53.23 37.0201 53.23C35.5301 53.23 34.3201 54.02 34.3201 54.99H34.3101Z" fill="white"/>
<path d="M56.77 70.4301C63.26 71.3201 65.41 66.6101 65.99 61.1501C66.58 55.5601 63.21 50.6201 58.44 50.1101C57.73 50.0301 57.03 50.0601 56.35 50.1801" fill="white"/>
<path d="M56.42 50.1802C58.39 50.4202 60.15 51.6302 61.41 53.4502C61.02 53.3102 60.57 53.2302 60.1 53.2302C58.61 53.2302 57.4 54.0202 57.4 54.9902C57.4 55.9602 58.61 56.7502 60.1 56.7502C61.22 56.7502 62.18 56.3002 62.59 55.6702C63.14 57.0702 63.45 58.6602 63.45 60.3402C63.45 65.4602 60.58 69.7002 56.84 70.4302C56.68 70.4102 56.52 70.3902 56.36 70.3602C49.46 69.1502 48.22 64.9102 48.81 59.3202C49.32 54.5602 52.53 50.8702 56.42 50.1902V50.1802Z" fill="#2B1907"/>
<path d="M23.04 66.5801H40.86C41.22 66.5801 41.5 66.8701 41.5 67.2201V71.7901H22.39V67.2201C22.39 66.8601 22.68 66.5801 23.03 66.5801H23.04Z" fill="#B2853D"/>
<path d="M48.4 66.5801H66.22C66.58 66.5801 66.86 66.8701 66.86 67.2201V71.7901H47.75V67.2201C47.75 66.8601 48.04 66.5801 48.39 66.5801H48.4Z" fill="#B2853D"/>
<path d="M48.8 70.7898C48.47 71.9298 46.79 72.8098 44.76 72.8098C42.73 72.8098 41.07 71.9498 40.73 70.8198C40.1 70.6698 39.71 70.5498 39.71 70.5498C39.71 72.9498 41.26 74.8998 44.76 74.8998C48.02 74.8998 49.81 72.9498 49.81 70.5498C49.81 70.5498 49.42 70.6598 48.8 70.7998V70.7898Z" fill="#2A1A09"/>
<path d="M44.77 72.7998C46.8 72.7998 48.48 71.9298 48.81 70.7798C47.81 70.9998 46.23 71.2898 44.77 71.2898C43.17 71.2898 41.68 71.0198 40.74 70.7998C41.08 71.9298 42.76 72.7898 44.77 72.7898V72.7998Z" fill="white"/>
<mask id="mask0_1868_5241" style="mask-type:luminance" maskUnits="userSpaceOnUse" x="22" y="66" width="46" height="6">
<path d="M61.8599 66.5498H53.0799C51.3299 66.5498 49.7899 67.4198 48.8499 68.7498H40.7299C39.7999 67.4198 38.2499 66.5498 36.4999 66.5498H27.7199C24.8699 66.5498 22.5599 68.8598 22.5599 71.7098V71.7598H41.6699V71.7098C41.6699 71.1598 41.5799 70.6398 41.4299 70.1398H48.1699C48.0099 70.6398 47.9299 71.1598 47.9299 71.7098V71.7598H67.0399V71.7098C67.0399 68.8598 64.7299 66.5498 61.8799 66.5498H61.8599Z" fill="white"/>
</mask>
<g mask="url(#mask0_1868_5241)">
<path d="M30.5199 32.6997C30.2499 34.5997 30.1399 36.5297 30.3699 38.4397C30.6499 40.3497 31.0399 42.2497 31.3199 44.1497L30.5599 44.3597C30.5599 44.3697 30.5599 44.3397 30.5599 44.3497C30.6199 44.4297 30.8099 44.4397 30.8799 44.3697C30.8799 44.3697 30.8399 44.4297 30.8199 44.4797C30.4599 45.3597 30.3299 46.3597 30.1799 47.2997C29.9699 48.7497 29.9599 50.2697 30.2999 51.7097L29.8499 51.0897C29.7699 50.9897 29.6399 50.8897 29.5499 50.8897C28.8499 51.0497 28.7599 53.4697 28.7199 54.1197C28.6999 54.8197 28.6999 55.5097 28.7899 56.1997C28.8799 56.8097 28.9799 57.4497 29.3299 57.9597C29.3499 57.9797 29.3799 58.0197 29.3699 58.0097L29.3399 57.9897C30.7199 58.7797 32.1099 60.0597 32.1599 61.7597C32.1499 63.3397 31.6799 64.8697 31.1599 66.3397C30.7899 67.2097 30.5699 68.1697 30.6099 69.1197C30.6199 69.7497 30.7799 70.3497 31.0199 70.9297C31.1999 71.4097 31.5299 72.2497 31.6799 72.7397L31.6999 72.8097V72.8497L31.7299 72.9097L31.5099 73.3897C31.5099 73.3897 31.5299 73.3797 31.5199 73.3897C31.4199 73.4597 31.4599 73.5797 31.5199 73.6897C31.8299 74.1997 32.1799 74.8097 32.1799 75.4397C31.9899 75.9497 31.8199 76.4797 31.6899 77.0097C31.5699 77.5197 31.4699 78.0397 31.4799 78.5397C31.4799 78.8697 31.5199 79.1797 31.7099 79.4297C32.1799 79.9697 32.8299 80.4197 33.5499 80.5197L33.5099 80.6697C33.4199 81.0697 33.2699 81.5697 33.5899 81.9097C33.6899 82.0197 33.7999 82.1197 33.9299 82.1997L33.8899 82.2797C33.7399 82.2097 33.6099 82.1197 33.4799 82.0197C33.1999 81.7997 33.1399 81.4297 33.1599 81.0897C33.1599 80.9297 33.1799 80.7697 33.2099 80.5997L33.3499 80.7797C32.5199 80.6897 31.8099 80.2597 31.2599 79.6697C30.4699 78.5497 31.0699 76.4497 31.4199 75.2297L31.3999 75.3697C31.3699 75.1997 31.3199 75.0397 31.2499 74.8797C30.9999 74.2997 30.3599 73.7597 30.6899 73.0497C30.7799 72.8597 30.9099 72.7097 31.0899 72.6097L30.8699 73.0897C30.8399 72.9897 30.7599 72.7697 30.7199 72.6697C30.6199 72.3897 30.2799 71.5597 30.1599 71.2697C29.4999 69.8097 29.5299 68.0697 30.0999 66.5897C30.6799 65.1897 31.1999 63.7297 31.3799 62.2197C31.4499 61.7297 31.4099 61.2397 31.2299 60.7797C30.8099 59.7897 29.9899 58.9997 29.1099 58.4097C29.0299 58.3597 28.9899 58.2797 28.9499 58.2397C28.5699 57.6497 28.4899 56.9097 28.4299 56.2297C28.3899 55.5197 28.3999 54.8097 28.4299 54.0997C28.5099 53.3097 28.5499 50.6497 29.5399 50.5597C29.7899 50.5597 29.9699 50.6997 30.1199 50.8797L29.8099 51.0197C29.3999 49.1497 29.4499 47.2197 29.7699 45.3397C29.8499 44.9397 29.9299 44.5197 30.0999 44.1297C30.1899 43.9697 30.2799 43.7597 30.5199 43.6697C30.8499 43.5297 31.1799 43.7697 31.2899 44.0797L30.5299 44.2897C30.2999 42.8497 30.0899 41.4097 29.8899 39.9697C29.6499 38.5197 29.6299 36.9997 29.8199 35.5497C29.9399 34.5797 30.1299 33.6097 30.4199 32.6797L30.5099 32.6997H30.5199Z" fill="#9B6D2C"/>
<path d="M66.47 38.5598C66.54 39.2198 66.44 39.8998 66.16 40.4998C66.11 40.6298 65.98 40.7998 65.91 40.9298C65.69 41.2498 65.59 41.7698 65.95 42.0098L66.01 42.0498C66.12 42.4098 66.19 42.7698 66.25 43.1298C66.33 43.9198 66.67 46.0298 65.52 46.1798L65.74 45.8398C65.98 46.2898 66.21 46.7498 66.44 47.1998C66.58 47.4798 66.84 47.9798 66.94 48.2698C67.24 49.4298 66.96 50.6298 66.73 51.7698C66.26 53.7698 65.64 55.7098 64.98 57.6498V57.5698C65.3 58.4798 65.59 59.3998 65.83 60.3298C66.23 61.9698 66.6 63.6998 66.31 65.3998L66.21 66.1098C66.08 67.0598 65.93 68.0098 65.79 68.9598L65.59 68.6398C66.11 68.8098 66.59 69.1798 66.71 69.7298C66.79 70.2398 66.71 70.7998 66.32 71.1598C66.28 71.1898 66.27 71.2098 66.19 71.2398L66.28 71.1698C66.1 71.3998 65.92 71.6698 65.8 71.9298C65.73 72.1098 65.66 72.2798 65.71 72.4398C65.8 72.5898 65.99 72.6298 66.18 72.6998C66.42 72.7698 66.71 72.8998 66.78 73.1898C66.78 73.2398 66.8 73.2998 66.8 73.3498V73.4998C66.71 74.0498 66.44 74.5398 66.22 75.0198C65.81 75.8998 65.36 76.7698 64.88 77.6098L64.83 77.5898C65.21 76.7498 65.6 75.7698 65.95 74.9098C66.12 74.4698 66.32 74.0298 66.4 73.5698C66.43 73.4298 66.41 73.2898 66.37 73.2398C66.34 73.1898 66.22 73.1398 66.06 73.0998C65.8 73.0298 65.45 72.9198 65.31 72.6398C65.16 72.3498 65.26 71.9998 65.36 71.7398C65.5 71.4098 65.68 71.1298 65.89 70.8498L65.98 70.7798C66.18 70.5998 66.25 70.1198 66.19 69.8498C66.09 69.4198 65.59 69.2098 65.2 69.1098C65.35 68.0798 65.5 67.0498 65.67 66.0198L65.78 65.3098C66.08 63.6798 65.76 62.0198 65.44 60.4098C65.25 59.4798 65.02 58.5498 64.74 57.6298V57.5798V57.5398C65.63 55.3898 67.31 50.3998 66.46 48.2398C66.1 47.5298 65.68 46.7598 65.32 46.0398L65.54 45.6998C66.21 45.3598 65.86 42.8598 65.71 42.1998L65.79 42.2998C65.69 42.2298 65.63 42.1598 65.57 42.0798C65.22 41.5898 65.52 40.9798 65.84 40.5698C66.07 40.2498 66.22 39.8898 66.32 39.4998C66.39 39.1898 66.44 38.8698 66.44 38.5498H66.49L66.47 38.5598Z" fill="#9B6D2C"/>
</g>
<mask id="mask1_1868_5241" style="mask-type:luminance" maskUnits="userSpaceOnUse" x="47" y="66" width="20" height="6">
<path d="M48.4 66.5801H66.22C66.58 66.5801 66.86 66.8701 66.86 67.2201V71.7901H47.75V67.2201C47.75 66.8601 48.04 66.5801 48.39 66.5801H48.4Z" fill="white"/>
</mask>
<g mask="url(#mask1_1868_5241)">
<path d="M66.47 38.5603C66.54 39.2203 66.44 39.9003 66.16 40.5003C66.11 40.6303 65.98 40.8003 65.91 40.9303C65.69 41.2503 65.59 41.7703 65.95 42.0103L66.01 42.0503C66.12 42.4103 66.19 42.7703 66.25 43.1303C66.33 43.9203 66.67 46.0303 65.52 46.1803L65.74 45.8403C65.98 46.2903 66.21 46.7503 66.44 47.2003C66.58 47.4803 66.84 47.9803 66.94 48.2703C67.24 49.4303 66.96 50.6303 66.73 51.7703C66.26 53.7703 65.64 55.7103 64.98 57.6503V57.5703C65.3 58.4803 65.59 59.4003 65.83 60.3303C66.23 61.9703 66.6 63.7003 66.31 65.4003L66.21 66.1103C66.08 67.0603 65.93 68.0103 65.79 68.9603L65.59 68.6403C66.11 68.8103 66.59 69.1803 66.71 69.7303C66.79 70.2403 66.71 70.8003 66.32 71.1603C66.28 71.1903 66.27 71.2103 66.19 71.2403L66.28 71.1703C66.1 71.4003 65.92 71.6703 65.8 71.9303C65.73 72.1103 65.66 72.2803 65.71 72.4403C65.8 72.5903 65.99 72.6303 66.18 72.7003C66.42 72.7703 66.71 72.9003 66.78 73.1903C66.78 73.2403 66.8 73.3003 66.8 73.3503V73.5003C66.71 74.0503 66.44 74.5403 66.22 75.0203C65.81 75.9003 65.36 76.7703 64.88 77.6103L64.83 77.5903C65.21 76.7503 65.6 75.7703 65.95 74.9103C66.12 74.4703 66.32 74.0303 66.4 73.5703C66.43 73.4303 66.41 73.2903 66.37 73.2403C66.34 73.1903 66.22 73.1403 66.06 73.1003C65.8 73.0303 65.45 72.9203 65.31 72.6403C65.16 72.3503 65.26 72.0003 65.36 71.7403C65.5 71.4103 65.68 71.1303 65.89 70.8503L65.98 70.7803C66.18 70.6003 66.25 70.1203 66.19 69.8503C66.09 69.4203 65.59 69.2103 65.2 69.1103C65.35 68.0803 65.5 67.0503 65.67 66.0203L65.78 65.3103C66.08 63.6803 65.76 62.0203 65.44 60.4103C65.25 59.4803 65.02 58.5503 64.74 57.6303V57.5803V57.5403C65.63 55.3903 67.31 50.4003 66.46 48.2403C66.1 47.5303 65.68 46.7603 65.32 46.0403L65.54 45.7003C66.21 45.3603 65.86 42.8603 65.71 42.2003L65.79 42.3003C65.69 42.2303 65.63 42.1603 65.57 42.0803C65.22 41.5903 65.52 40.9803 65.84 40.5703C66.07 40.2503 66.22 39.8903 66.32 39.5003C66.39 39.1903 66.44 38.8703 66.44 38.5503H66.49L66.47 38.5603Z" fill="#9B6D2C"/>
</g>
</g>
<defs>
<clipPath id="clip0_1868_5241">
<rect width="621" height="100" fill="white"/>
</clipPath>
</defs>
</svg>
