<?xml version="1.0" encoding="UTF-8"?>
<svg id="Layer_1" xmlns="http://www.w3.org/2000/svg" version="1.1" xmlns:xlink="http://www.w3.org/1999/xlink" viewBox="0 0 621 98.98">
  <!-- Generator: Adobe Illustrator 29.8.3, SVG Export Plug-In . SVG Version: 2.1.1 Build 3)  -->
  <defs>
    <style>
      .st0 {
        fill: #2a1a09;
      }

      .st1 {
        fill: #9b6d2c;
      }

      .st2 {
        mask: url(#mask-1);
      }

      .st3 {
        fill: #fff;
      }

      .st4 {
        mask: url(#mask);
      }

      .st5 {
        fill: none;
      }

      .st6 {
        fill: #2b1907;
      }

      .st7 {
        fill: #966a2a;
      }

      .st8 {
        fill: #b2853d;
      }

      .st9 {
        fill: #d3a759;
      }

      .st10 {
        fill: #e8be6b;
      }

      .st11 {
        fill: #463019;
      }

      .st12 {
        clip-path: url(#clippath);
      }
    </style>
    <clipPath id="clippath">
      <rect class="st5" width="621" height="150"/>
    </clipPath>
    <mask id="mask" x="22.56" y="32.68" width="44.51" height="49.6" maskUnits="userSpaceOnUse">
      <g id="mask0_825_9780">
        <path class="st3" d="M61.86,66.55h-8.78c-1.75,0-3.29.87-4.23,2.2h-8.12c-.93-1.33-2.48-2.2-4.23-2.2h-8.78c-2.85,0-5.16,2.31-5.16,5.16v.05h19.11v-.05c0-.55-.09-1.07-.24-1.57h6.74c-.16.5-.24,1.02-.24,1.57v.05h19.11v-.05c0-2.85-2.31-5.16-5.16-5.16h-.02Z"/>
      </g>
    </mask>
    <mask id="mask-1" x="47.75" y="38.55" width="19.32" height="39.06" maskUnits="userSpaceOnUse">
      <g id="mask1_825_9780">
        <path class="st3" d="M48.4,66.58h17.82c.36,0,.64.29.64.64v4.57h-19.11v-4.57c0-.36.29-.64.64-.64h.01Z"/>
      </g>
    </mask>
  </defs>
  <g class="st12">
    <g>
      <path class="st11" d="M221.04,5.6l-30.53,93.33h-23.2l-20.53-63.2-21.2,63.2h-23.07L71.84,5.6h22.4l21.07,65.6L137.31,5.6h20l21.33,66.13L200.38,5.6h20.67-.01Z"/>
      <path class="st11" d="M296.11,68.93h-54.27c2,8.93,9.6,14.4,20.53,14.4,7.6,0,13.07-2.27,18-6.93l11.07,12c-6.67,7.6-16.67,11.6-29.6,11.6-24.8,0-40.93-15.6-40.93-36.93s16.4-36.93,38.27-36.93,37.33,14.13,37.33,37.2c0,1.6-.27,3.87-.4,5.6h0ZM241.58,56.8h35.33c-1.47-9.07-8.27-14.93-17.6-14.93s-16.27,5.73-17.73,14.93Z"/>
      <path class="st11" d="M310.37,0h20.8v98.93h-20.8V0Z"/>
      <path class="st11" d="M350.51,0h20.8v98.93h-20.8V0Z"/>
      <path class="st11" d="M463.97,57.87v41.07h-20.8v-37.87c0-11.6-5.33-16.93-14.53-16.93-10,0-17.2,6.13-17.2,19.33v35.47h-20.8V27.2h19.87v8.4c5.6-6.13,14-9.47,23.73-9.47,16.93,0,29.73,9.87,29.73,31.73h0Z"/>
      <path class="st11" d="M555.04,27.2v71.73h-19.73v-8.53c-5.47,6.27-13.47,9.6-22.27,9.6-18,0-30.67-10.13-30.67-32.27V27.2h20.8v37.47c0,12,5.33,17.33,14.53,17.33s16.53-6.13,16.53-19.33V27.2h20.81Z"/>
      <path class="st11" d="M620.64,95.47c-4.27,3.07-10.53,4.53-16.93,4.53-16.93,0-26.8-8.67-26.8-25.73v-29.47h-11.07v-16h11.07V11.33h20.8v17.47h17.87v16h-17.87v29.2c0,6.13,3.33,9.47,8.93,9.47,3.07,0,6.13-.93,8.4-2.67l5.6,14.67Z"/>
      <path class="st0" d="M73.59,68.24l2.4-2.4,7.42,7.42-2.1,2.1c-.16.16-.43.16-.59,0l-7.12-7.12Z"/>
      <path class="st0" d="M89.42,67.25l-2.4-2.4-6.92,6.92,2.4,2.4,6.92-6.92Z"/>
      <path class="st0" d="M91.28,68.19c2.61,0,4.72-1.05,4.72-2.34s-2.11-2.34-4.72-2.34-4.72,1.05-4.72,2.34,2.11,2.34,4.72,2.34Z"/>
      <path class="st0" d="M14.79,65.36l-3.2-1.13-5.58,15.81,3.2,1.13,5.58-15.81Z"/>
      <path class="st0" d="M4.89,83.64c2.58-.36,4.53-1.68,4.36-2.96-.18-1.28-2.41-2.03-5-1.67-2.58.36-4.53,1.68-4.36,2.96.18,1.28,2.41,2.03,5,1.67Z"/>
      <path class="st0" d="M41.93,95.66v-17.95h-3.39v18.43l-1.79.25c-.74.1-1.29.74-1.29,1.48v1.18h6.46v-3.39h.01Z"/>
      <path class="st0" d="M50.72,96.14v-18.43h-3.39v21.34h6.46v-1.18c0-.75-.55-1.38-1.29-1.48l-1.79-.25h.01Z"/>
      <path class="st7" d="M80.93,52.87l-1.08-22.26c-.27-5.53-4.12-15.01-4.14-15.01h-.23c-.07,0-.04-.48-.09-.45l-13.59,9.44-13.13-3.38c-.23-.06-.47.02-.62.19l-8.5,9.88c-.14.16-.35.24-.56.21l-8.29-1.11c-.58-.08-1.33-.56-1.72-1l-4.37-3,.05-.14-.51-.13c-.22-.05-.46.04-.56.26l-4.6,9.74-1.84-.03-2.13-1.34.05-.19s-.36-.04-.46-.04c-.14,0-.28.05-.39.15l-1.54,1.34-3.4-.54c-.36,0-.5.85-.43,1.2l.19.89-.05-.05c-.13-.11-.23-.25-.29-.41l-.08-.23c-.09-.26.1,15.83.1,15.83-.89,18.39,20.99,27.3,30.73,31.93l2.38.18,5.26-.18h1.61c18.41,0,33.11-13.35,32.22-31.74h.01Z"/>
      <path class="st10" d="M79.65,48.6l-1.39-18.79c-.38-5.06-1.9-9.79-4.31-13.95-.14-.24-.08-.53.12-.71.07-.06.13-.13.18-.2.79-1.11-.48-3.38-2.84-5.06-.97-.69-1.96-1.18-2.86-1.43-.21-.06-.35-.25-.34-.47.05-1.02-.61-2.24-1.79-3.08-1.14-.81-2.44-1.06-3.39-.73-.22.08-.46.04-.66-.08-.39-.24-.78-.46-1.17-.68-.05-.03-.1-.05-.16-.07-.62-.21-.7-.16-1.07.12-1.49,1.14-3.56,1.37-5.31.41-.13-.07-.26-.15-.39-.24-.51-.34-1.18-.29-1.66.08-1.21.93-2.15,2.25-2.59,3.8-.14.48-.39.92-.74,1.27-.64.64-1.07,1.77-1.07,3.05,0,1.06.29,2.02.76,2.68.29.41.36.94.15,1.4-.3.63-.47,1.42-.47,2.26,0,1.54.58,2.88,1.43,3.49l.03,1.04c.1,2.44-1.85,4.46-4.29,4.46h-1.41c-2.44,0-4.39-2.03-4.29-4.46v-.02c0-.27-.16-.53-.42-.62-.47-.16-1.29-.69-1.61-.93-.06-.04-.06-.14,0-.18.9-.58,1.49-2.67,1.38-5.12-.06-1.32-.32-2.51-.68-3.41-.1-.24-.08-.52.07-.74.28-.4.61-.75.97-1.05.41-.33.65-.81.67-1.33.15-5.52-5.59-9.23-10.57-6.84-2.37,1.14-4.6,2.54-6.62,4.17-.18.15-.26.39-.22.62,0,.03.01.07.02.1.06.33-.18.66-.5.75-.81.22-1.69.95-2.3,2.01-.94,1.63-.5,3.02.11,4,.11.18-2.64,2.04-4.42,1.89-.41-.04-.8.18-1,.54-.86,1.56-1.6,3.21-2.19,4.91-.93,2.65-1.53,5.45-1.74,8.37l-1.39,18.79c-.44,5.92.74,11.58,3.14,16.56,4.75,9.82,14.3,17.04,25.77,18.61,1.27.17,2.39-.82,2.39-2.1v-.83c0-1.34,1.09-2.43,2.43-2.43h2.5c1.34,0,2.43,1.09,2.43,2.43v.83c0,1.28,1.13,2.27,2.39,2.1,11.47-1.56,21.02-8.78,25.77-18.61,2.41-4.98,3.58-10.63,3.14-16.56v-.02Z"/>
      <path class="st9" d="M64.03,11.03c2.05-.92,4.73-.46,5.67,1.78.45,1.02.46,2.11.44,3.18,0,.7-.05,1.4-.14,2.1-.03.3-.11.62-.16.92-.02.08-.16.55-.18.64-.38,1.13-1.14,2.22-2.29,2.66-.1.04-.18.07-.3.1v-.66c1.58.3,3.19,1.27,3.56,2.94.3,1.85-.27,3.78-1.3,5.3l-.06-.04c.65-1.6,1.03-3.4.67-5.09-.02-.08-.11-.3-.13-.38-.12-.24-.26-.48-.44-.68-.49-.57-1.17-.96-1.87-1.22-.38-.16-1.71-.42-2.12-.53.12-.03,1.73-.31,1.77-.35,3.12-1.25,3.29-5.99,2-8.62-.93-1.98-3.11-2.33-5.1-1.97l-.02-.07h0Z"/>
      <path class="st9" d="M34.32,8.5c-1.76-.61-3.23.69-3.98,2.16-.46.83-.77,1.75-1.07,2.65-.28.91-.56,1.88-.74,2.82-.29,1.46-.54,3.01-.12,4.48.41,1.65,1.91,2.74,3.6,2.66l1.33-.09-1.14.72c-1.15.75-2.24,1.87-2.56,3.23-.12.46-.08.94-.08,1.41.07,1.43.33,2.98,1.48,3.93.37.31.83.52,1.32.59v.07c-1.07.05-2.05-.66-2.59-1.55-.48-.78-.72-1.7-.84-2.61-.07-.66-.14-1.33,0-1.99.33-1.62,1.57-2.84,2.95-3.67l.19.63c-1.42.03-2.85-.7-3.51-1.98-.84-1.62-.58-3.49-.4-5.23.23-2.19.51-4.41,1.67-6.37.46-.78,1.08-1.51,1.9-1.94.83-.43,1.86-.45,2.63.02l-.03.06h0Z"/>
      <path class="st9" d="M53.77,38.74c3.19.53,5.13-.64,5.71-3.88.39-2.25.05-5.05-1.98-6.41-.25-.16-.54-.31-.82-.37l-1.58-.3c.42-.11,1.73-.37,2.12-.53.95-.35,1.88-.96,2.31-1.9.6-1.61.11-3.91-.54-5.48l.06-.04c1.04,1.52,1.6,3.45,1.3,5.3-.37,1.66-1.98,2.64-3.56,2.94v-.66c.22.05.38.12.57.21,1.02.5,1.67,1.5,2.03,2.54.03.09.16.56.18.64.04.3.13.62.16.92.09.7.14,1.4.14,2.1.03,1.24,0,2.57-.71,3.67-.87,1.5-2.79,2-4.4,1.61-.35-.07-.69-.18-1.01-.33l.02-.07v.04Z"/>
      <path class="st9" d="M19.25,49.73c-1.03-1.97-2.75-6.2-1.8-8.33l.1-.19c.58-.88,1.18-1.73,1.73-2.62l.09.18c-.22-.03-.43-.1-.63-.2-1.63-.87-.04-2.91.71-3.88l.13.38c-.66-.08-1.29-.23-1.91-.45-3.23-1.15-4.05-3.7-2.06-6.5.37-.54.83-1.07,1.36-1.46,1.12-.87,2.67-.83,3.69.17l-.05.05c-1.24-.82-2.52-.61-3.55.43-1.18,1.34-2.47,3.52-1.3,5.21,1.01,1.32,2.75,1.85,4.32,2.19-.38.37-.77.77-1.08,1.2-.34.47-.71.99-.74,1.58-.03.69.71,1.03,1.31,1.05-.57,1.01-1.11,2.04-1.63,3.07-.26.77-.15,1.59-.05,2.39.14.95.37,1.9.61,2.85.25.95.53,1.89.81,2.84l-.07.03h.01Z"/>
      <path class="st7" d="M80.91,52.37l-1.08-22.26c-.27-5.53-4.12-15-4.14-15.01,0,0-.06-.01-.12-.01-.07,0-.13,0-.18.06-1.06,1.83-9.73,9.04-10.44,9.36-.39.18-.68.21-.68.21l-15.62-4.02c-.23-.06-.47.02-.62.19l-8.5,9.88c-.14.16-.35.24-.56.21l-8.29-1.11c-.58-.08-1.33-.56-1.72-1l-4.37-3.01.05-.14-.51-.13c-.22-.05-.46.04-.56.26l-4.79,9.92c-.08.17-.38.41-.56.34l-.65-.28-2.57-1.62.11-.19s-.27-.07-.38-.07c-.14,0-.28.05-.39.15l-1.69,1.37-2.33,2.01c-.06.05-.14.05-.2,0-.24-.21-.71-.6-.82-.87-.22-.54,0-1.16,0-1.16-.36,0-.54.32-.46.68l.19.89-.05-.05c-.13-.11-.23-.25-.29-.41l-.08-.23c-.09-.26.1,15.83.1,15.83-.89,18.39,12.36,33.97,30.76,33.97h9.25c18.41,0,33.07-15.39,32.18-33.78v.02Z"/>
      <path class="st8" d="M81.44,52.5l-1.08-22.26c-.27-5.53-1.92-10.68-4.62-15.13,0,0-.04-.01-.05-.01,0,0-.02.11-.05.17-1.77,3.03-10.35,9.47-10.35,9.47-.14.12-.33.16-.51.11l-15.59-4.01c-.23-.06-.47.02-.62.19l-8.42,9.8c-.14.16-.35.24-.56.21l-8.58-1.22c-.58-.08-1.12-.37-1.51-.81l-4.67-3.21c-.25-.17-.59-.08-.72.19l-4.7,9.95c-.12.36-.56.51-.88.3l-3.16-2.1c-.23-.15-.54-.13-.75.05l-4.2,3.65s-.03.01-.04,0l-.87-.71c-.13-.11-.23-.25-.29-.41l-.08-.23c-.09-.26-.07-.55.07-.79l.11-.19s0-.05-.03-.05c-.36,0-.65.27-.67.63l-.8,16.42c-.89,18.39,13.77,33.78,32.18,33.78h9.25c18.41,0,33.07-15.39,32.18-33.78h.01Z"/>
      <path class="st1" d="M74.22,27.63c.75,2.34.97,4.86.56,7.29-.2,1.41-.44,2.93-.72,4.31l-.66-.18c.08-.16.13-.25.3-.35.82-.32.95,1.12,1.05,1.63.18,1.25.26,2.5.23,3.76-.02.63-.06,1.25-.18,1.89l-.26-.12c.14-.18.31-.32.56-.33,1.01.06,1.17,2.75,1.27,3.53.1,1.28.22,3.34-.65,4.39-.85.57-1.71,1.29-2.15,2.24-.07.12-.11.27-.15.4l-.04.21s-.02.07-.02.1c0,.1-.02.21-.02.31.05,1.63.57,3.22,1.11,4.75.54,1.49.52,3.24-.21,4.66-.28.61-.58,1.23-.84,1.84l-.09-.02c.27-1.31.96-2.52.91-3.87-.02-.72-.14-1.44-.39-2.11-.1-.23-.21-.46-.3-.69-.39-.97-.73-1.94-.94-2.97-.37-1.69-.27-2.86.94-4.17.5-.54,1.05-.97,1.69-1.35l-.05.04h-.02c.17-.19.25-.46.33-.72.26-.97.28-2,.29-3.02-.02-.66,0-3.01-.67-3.24-.09-.01-.23.08-.32.19l-.42.51.16-.64c.26-1.19.25-2.45.09-3.67-.15-.96-.31-1.96-.71-2.84-.03-.05-.06-.1-.08-.12,0,0-.01,0,.03.02.04.02.13.02.17,0s.04-.03.03-.02v.03s-.67-.18-.67-.18c.11-.96.24-1.92.4-2.88.13-.79.37-2.06.47-2.85.21-1.9.13-3.83-.12-5.74l.09-.02Z"/>
      <path class="st1" d="M30.52,32.7c-.27,1.9-.38,3.83-.15,5.74.28,1.91.67,3.81.95,5.71l-.76.21s0-.02,0,0c.06.08.25.09.32.02,0,0-.04.06-.06.11-.36.88-.49,1.88-.64,2.82-.21,1.45-.22,2.97.12,4.41l-.45-.62c-.08-.1-.21-.2-.3-.2-.7.16-.79,2.58-.83,3.23-.02.7-.02,1.39.07,2.08.09.61.19,1.25.54,1.76.02.02.05.06.04.05l-.03-.02c1.38.79,2.77,2.07,2.82,3.77-.01,1.58-.48,3.11-1,4.58-.37.87-.59,1.83-.55,2.78.01.63.17,1.23.41,1.81.18.48.51,1.32.66,1.81l.02.07v.04l.03.06-.22.48s.02-.01.01,0c-.1.07-.06.19,0,.3.31.51.66,1.12.66,1.75-.19.51-.36,1.04-.49,1.57-.12.51-.22,1.03-.21,1.53,0,.33.04.64.23.89.47.54,1.12.99,1.84,1.09l-.04.15c-.09.4-.24.9.08,1.24.1.11.21.21.34.29l-.04.08c-.15-.07-.28-.16-.41-.26-.28-.22-.34-.59-.32-.93,0-.16.02-.32.05-.49l.14.18c-.83-.09-1.54-.52-2.09-1.11-.79-1.12-.19-3.22.16-4.44l-.02.14c-.03-.17-.08-.33-.15-.49-.25-.58-.89-1.12-.56-1.83.09-.19.22-.34.4-.44l-.22.48c-.03-.1-.11-.32-.15-.42-.1-.28-.44-1.11-.56-1.4-.66-1.46-.63-3.2-.06-4.68.58-1.4,1.1-2.86,1.28-4.37.07-.49.03-.98-.15-1.44-.42-.99-1.24-1.78-2.12-2.37-.08-.05-.12-.13-.16-.17-.38-.59-.46-1.33-.52-2.01-.04-.71-.03-1.42,0-2.13.08-.79.12-3.45,1.11-3.54.25,0,.43.14.58.32l-.31.14c-.41-1.87-.36-3.8-.04-5.68.08-.4.16-.82.33-1.21.09-.16.18-.37.42-.46.33-.14.66.1.77.41l-.76.21c-.23-1.44-.44-2.88-.64-4.32-.24-1.45-.26-2.97-.07-4.42.12-.97.31-1.94.6-2.87l.09.02h.01Z"/>
      <path class="st1" d="M67.24,27.63c.91,1.83,1.61,3.8,1.88,5.83.11,1.09.3,2.18.12,3.28-.06.37-.35.93-.5,1.27-.21.47-.42.93-.64,1.39l-.22-.35c1.4.13.84,3.43.53,4.33l-.04-.08c-.5.38.02,1,.21,1.41.29.62.36,1.31.26,1.97h-.05c-.04-.7-.23-1.42-.65-1.98-.04-.05-.11-.15-.14-.2-.38-.47-.47-1.25.1-1.64l-.11.15c.07-.3.12-.63.16-.96.03-.59.29-2.17-.25-2.51l-.22-.35c.35-.65.77-1.35,1.14-1.99.13-.21.22-.44.26-.68.28-1.51-.29-3.01-.68-4.45-.39-1.42-.84-2.98-1.2-4.41l.05-.02h-.01Z"/>
      <path class="st1" d="M66.47,38.56c.07.66-.03,1.34-.31,1.94-.05.13-.18.3-.25.43-.22.32-.32.84.04,1.08l.06.04c.11.36.18.72.24,1.08.08.79.42,2.9-.73,3.05l.22-.34c.24.45.47.91.7,1.36.14.28.4.78.5,1.07.3,1.16.02,2.36-.21,3.5-.47,2-1.09,3.94-1.75,5.88v-.08c.32.91.61,1.83.85,2.76.4,1.64.77,3.37.48,5.07l-.1.71c-.13.95-.28,1.9-.42,2.85l-.2-.32c.52.17,1,.54,1.12,1.09.08.51,0,1.07-.39,1.43-.04.03-.05.05-.13.08l.09-.07c-.18.23-.36.5-.48.76-.07.18-.14.35-.09.51.09.15.28.19.47.26.24.07.53.2.6.49,0,.05.02.11.02.16v.15c-.09.55-.36,1.04-.58,1.52-.41.88-.86,1.75-1.34,2.59l-.05-.02c.38-.84.77-1.82,1.12-2.68.17-.44.37-.88.45-1.34.03-.14.01-.28-.03-.33-.03-.05-.15-.1-.31-.14-.26-.07-.61-.18-.75-.46-.15-.29-.05-.64.05-.9.14-.33.32-.61.53-.89l.09-.07c.2-.18.27-.66.21-.93-.1-.43-.6-.64-.99-.74.15-1.03.3-2.06.47-3.09l.11-.71c.3-1.63-.02-3.29-.34-4.9-.19-.93-.42-1.86-.7-2.78v-.09c.89-2.15,2.57-7.14,1.72-9.3-.36-.71-.78-1.48-1.14-2.2l.22-.34c.67-.34.32-2.84.17-3.5l.08.1c-.1-.07-.16-.14-.22-.22-.35-.49-.05-1.1.27-1.51.23-.32.38-.68.48-1.07.07-.31.12-.63.12-.95h.05-.02Z"/>
      <path class="st1" d="M15.37,45.45c0,.63.16,1.28.48,1.82.17.29.41.53.51.87.13.37.02.84-.33,1.07l.08-.11c-.15.64-.51,3.14.15,3.49l.22.34c-.23.45-.48.9-.72,1.35-.12.23-.44.75-.52.99-.34,1.07-.15,2.25.04,3.34.39,1.99,1.11,3.92,1.86,5.8l.02.05v.06c-.09.56-.13,1.13-.15,1.69-.02.56,0,1.14.13,1.64.16.49.49.99.78,1.44.33.49.68.97,1.05,1.42.37,1.67.72,3.37,1.22,5.01l.09.26c.04.08.06.16.11.22.12.2.39.36.59.5.73.42,1.52.73,2.32,1.02v.05c-.76-.17-1.49-.38-2.2-.69-.4-.2-.85-.39-1.09-.81-.16-.3-.28-.64-.39-.96-.49-1.45-.85-2.93-1.2-4.41l.06.12c-.37-.46-.71-.93-1.04-1.42-.32-.52-.64-1-.81-1.61-.15-.62-.13-1.21-.11-1.8.04-.59.11-1.16.22-1.74v.11c-.66-1.94-1.2-3.91-1.63-5.91-.2-1.14-.49-2.32-.2-3.48.08-.29.36-.8.48-1.07.22-.46.44-.92.68-1.37l.22.34c-1.33-.13-.77-3.2-.53-4.07l.02-.07.06-.04c.36-.23.25-.74.04-1.06-.47-.69-.65-1.55-.55-2.38h.05-.01Z"/>
      <path class="st1" d="M13.82,39.22c-.5,2.15-1.22,4.34-1.21,6.56,0,.28.07.62.14.9.18.85.33,1.7.43,2.58v.08c-.46.39-.91.9-1.1,1.49-.2.54.06,1.21.15,1.78l-.03-.07c.95,1.19,1.81,2.5,1.91,4.09.03.77-.04,1.51-.14,2.26-.1.75-.24,1.47-.44,2.2l-.21.25c-.1.05-.21.21-.23.35-.03.2.04.43.11.63.17.46.44.91.77,1.27.44.39,1.06,1.02,1.12,1.75.04.38-.24.66-.4.98-.15.28-.28.58-.33.9h-.07c-.01-.51.17-1,.38-1.46.28-.68-.61-1.36-1.08-1.74-.46-.41-.77-.89-1.02-1.44-.32-.61-.29-1.56.45-1.92l-.21.25c.31-1.39.62-2.84.64-4.26-.04-1.38-.72-2.77-1.5-3.91l-.03-.04v-.03c-.04-.39-.11-.77-.16-1.16-.06-.58.22-1.13.54-1.59.19-.26.39-.51.62-.74l-.05.13c-.17-.83-.45-1.65-.7-2.47-.14-.43-.23-.9-.23-1.35.03-1.33.38-2.62.79-3.87.28-.82.6-1.63.99-2.41l.07.03.03-.02Z"/>
      <path class="st1" d="M54.06,27.32c.65,1.63,1.16,3.3,1.51,5.02.13.79.34,1.6.07,2.39-.32.94-.76,1.83-1.19,2.72l-.07-.18c.57.27,1.27.72,1.2,1.44-.11.64-.36,1.21-.69,1.77v-.21c1.35,1.46,2.38,3.45,2.06,5.51-.16,1.34-1.09,2.75-2.62,2.53l.24-.66c.73.5,1.7,1.19,1.62,2.2-.02.23-.05.44-.15.66-.1.22-.25.34-.37.51-.2.31-.56.49-.85.64-.48.23-.97.42-1.48.57l-.03-.07c.46-.25.92-.5,1.34-.79.25-.18.5-.34.64-.6.09-.16.24-.32.28-.47.06-.18.07-.43.05-.65-.16-.63-.88-1.06-1.42-1.4l-1.32-.76,1.57.11c.29.03.6-.06.84-.22.55-.37.79-1.08.92-1.73.35-1.85-.57-3.81-1.68-5.27.38-.5.71-1.09.82-1.71.06-.6-.59-.97-1.08-1.16l-.13-.05.05-.13c.38-.98.69-1.98.93-3,.06-.61-.09-1.28-.17-1.89-.13-.75-.34-1.79-.49-2.55-.17-.85-.34-1.7-.49-2.56l.07-.02h.02Z"/>
      <path class="st1" d="M38.12,40.11c-.11.5-.03,1.02,0,1.53.1.74.12,1.52.33,2.24.14.46.42.85.73,1.21.33.42.63.87.89,1.35.18.34.44.9.25,1.31-.3.88-.94,1.61-1.26,2.47-.11.37-.21.83.04,1.15l.13.16c.56.73.84,1.73.65,2.66-.01.07-.02.19,0,.21.15.32.46.64.65.99.12.21.14.5-.03.69l-.03.03-.04.05c-1.03,1.11-2.11,2.4-2.29,3.92-.08,1,.22,2,.65,2.91l-.07.05c-.72-.81-1.23-1.88-1.27-2.99-.05-1.74,1.21-3.52,2.32-4.51-.04.08-.07.19-.04.27v-.02c-.2-.38-.52-.75-.65-1.2-.05-.27.01-.49.07-.74.14-.7.03-1.42-.32-2.06l-.09-.16c-.13-.2-.17-.48-.15-.7.05-.85.61-1.49.96-2.22.17-.4.45-.93.37-1.36-.17-.4-.55-.83-.84-1.18-.08-.08-.55-.66-.62-.74-.43-.5-.71-1.13-.79-1.78-.06-.68-.04-1.34,0-2.02.06-.53.1-1.1.38-1.57l.08.04h-.01Z"/>
      <path class="st9" d="M60.63,4.77c.68.15,1.23.88,1,1.58-.23.64-.75,1.08-1.2,1.55-.31.3-.64.58-1.04.8l-.08-.29c.54-.08,1.16-.18,1.64.18.7.66.04,1.66-.58,2.09l-.02-.03c.2-.24.37-.51.49-.78.15-.34.18-.7-.05-.95-.13-.14-.32-.16-.52-.2-.52-.08-1.34.03-1.88.07.63-.27,1.43-.54,1.97-.98.58-.48,1.12-1.31.98-2.08-.09-.36-.38-.67-.72-.92v-.03h.01Z"/>
      <path class="st9" d="M25.49,15.61c-.74-.15-2.03-.45-2.58.2-.47.8.36,1.64,1.09,1.91l1.63.68-1.75-.25c-.99-.11-2.23-.17-2.94.6-.38.49-.46,1.31-.26,1.89.25.74.88.83,1.57.72.38-.03.74-.07,1.13-.09l1.06-.05c-1.04.5-2.21,1.03-3.04,1.84-.29.29-.54.65-.38,1.04.06.2.16.38.3.53.14.15.34.25.55.28-.68,0-1.26-.81-1.03-1.45.25-.64.82-1.06,1.34-1.46.36-.25.72-.49,1.11-.7l.11.41-1.11.13c-.61.12-1.35.08-1.78-.45-.67-.84-.61-2.13.02-2.97.87-.95,2.26-.87,3.42-.71l-.12.43c-.25-.11-.45-.24-.66-.4-.63-.46-1.05-1.42-.51-2.11.69-.74,2.01-.31,2.82,0v-.02Z"/>
      <path class="st3" d="M33.18,50.18c-.68-.12-1.38-.15-2.09-.07-4.76.51-8.14,5.45-7.55,11.04.58,5.46,2.73,10.17,9.22,9.28"/>
      <path class="st6" d="M32.76,70.43c-3.74-.73-6.61-4.97-6.61-10.09s3.09-9.67,7.03-10.16c2.06.36,3.93,1.57,5.31,3.34-.43-.18-.94-.29-1.48-.29-1.49,0-2.7.79-2.7,1.76s1.21,1.76,2.7,1.76c1.3,0,2.38-.6,2.64-1.39.59,1.19.99,2.52,1.14,3.96.59,5.59-.64,9.83-7.55,11.04-.16.03-.32.05-.48.07Z"/>
      <path class="st3" d="M34.31,54.99c0,.97,1.21,1.76,2.7,1.76,1.3,0,2.38-.6,2.64-1.39-.33-.66-.72-1.28-1.15-1.84-.43-.18-.94-.29-1.48-.29-1.49,0-2.7.79-2.7,1.76h0Z"/>
      <path class="st3" d="M56.77,70.43c6.49.89,8.64-3.82,9.22-9.28.59-5.59-2.78-10.53-7.55-11.04-.71-.08-1.41-.05-2.09.07"/>
      <path class="st6" d="M56.42,50.18c1.97.24,3.73,1.45,4.99,3.27-.39-.14-.84-.22-1.31-.22-1.49,0-2.7.79-2.7,1.76s1.21,1.76,2.7,1.76c1.12,0,2.08-.45,2.49-1.08.55,1.4.86,2.99.86,4.67,0,5.12-2.87,9.36-6.61,10.09-.16-.02-.32-.04-.48-.07-6.9-1.21-8.14-5.45-7.55-11.04.51-4.76,3.72-8.45,7.61-9.13h0Z"/>
      <path class="st8" d="M23.04,66.58h17.82c.36,0,.64.29.64.64v4.57h-19.11v-4.57c0-.36.29-.64.64-.64h.01Z"/>
      <path class="st8" d="M48.4,66.58h17.82c.36,0,.64.29.64.64v4.57h-19.11v-4.57c0-.36.29-.64.64-.64h.01Z"/>
      <path class="st0" d="M48.8,70.79c-.33,1.14-2.01,2.02-4.04,2.02s-3.69-.86-4.03-1.99c-.63-.15-1.02-.27-1.02-.27,0,2.4,1.55,4.35,5.05,4.35,3.26,0,5.05-1.95,5.05-4.35,0,0-.39.11-1.01.25h0Z"/>
      <path class="st3" d="M44.77,72.8c2.03,0,3.71-.87,4.04-2.02-1,.22-2.58.51-4.04.51-1.6,0-3.09-.27-4.03-.49.34,1.13,2.02,1.99,4.03,1.99h0Z"/>
      <g class="st4">
        <g>
          <path class="st1" d="M30.52,32.7c-.27,1.9-.38,3.83-.15,5.74.28,1.91.67,3.81.95,5.71l-.76.21s0-.02,0,0c.06.08.25.09.32.02,0,0-.04.06-.06.11-.36.88-.49,1.88-.64,2.82-.21,1.45-.22,2.97.12,4.41l-.45-.62c-.08-.1-.21-.2-.3-.2-.7.16-.79,2.58-.83,3.23-.02.7-.02,1.39.07,2.08.09.61.19,1.25.54,1.76.02.02.05.06.04.05l-.03-.02c1.38.79,2.77,2.07,2.82,3.77-.01,1.58-.48,3.11-1,4.58-.37.87-.59,1.83-.55,2.78.01.63.17,1.23.41,1.81.18.48.51,1.32.66,1.81l.02.07v.04l.03.06-.22.48s.02-.01.01,0c-.1.07-.06.19,0,.3.31.51.66,1.12.66,1.75-.19.51-.36,1.04-.49,1.57-.12.51-.22,1.03-.21,1.53,0,.33.04.64.23.89.47.54,1.12.99,1.84,1.09l-.04.15c-.09.4-.24.9.08,1.24.1.11.21.21.34.29l-.04.08c-.15-.07-.28-.16-.41-.26-.28-.22-.34-.59-.32-.93,0-.16.02-.32.05-.49l.14.18c-.83-.09-1.54-.52-2.09-1.11-.79-1.12-.19-3.22.16-4.44l-.02.14c-.03-.17-.08-.33-.15-.49-.25-.58-.89-1.12-.56-1.83.09-.19.22-.34.4-.44l-.22.48c-.03-.1-.11-.32-.15-.42-.1-.28-.44-1.11-.56-1.4-.66-1.46-.63-3.2-.06-4.68.58-1.4,1.1-2.86,1.28-4.37.07-.49.03-.98-.15-1.44-.42-.99-1.24-1.78-2.12-2.37-.08-.05-.12-.13-.16-.17-.38-.59-.46-1.33-.52-2.01-.04-.71-.03-1.42,0-2.13.08-.79.12-3.45,1.11-3.54.25,0,.43.14.58.32l-.31.14c-.41-1.87-.36-3.8-.04-5.68.08-.4.16-.82.33-1.21.09-.16.18-.37.42-.46.33-.14.66.1.77.41l-.76.21c-.23-1.44-.44-2.88-.64-4.32-.24-1.45-.26-2.97-.07-4.42.12-.97.31-1.94.6-2.87l.09.02h.01Z"/>
          <path class="st1" d="M66.47,38.56c.07.66-.03,1.34-.31,1.94-.05.13-.18.3-.25.43-.22.32-.32.84.04,1.08l.06.04c.11.36.18.72.24,1.08.08.79.42,2.9-.73,3.05l.22-.34c.24.45.47.91.7,1.36.14.28.4.78.5,1.07.3,1.16.02,2.36-.21,3.5-.47,2-1.09,3.94-1.75,5.88v-.08c.32.91.61,1.83.85,2.76.4,1.64.77,3.37.48,5.07l-.1.71c-.13.95-.28,1.9-.42,2.85l-.2-.32c.52.17,1,.54,1.12,1.09.08.51,0,1.07-.39,1.43-.04.03-.05.05-.13.08l.09-.07c-.18.23-.36.5-.48.76-.07.18-.14.35-.09.51.09.15.28.19.47.26.24.07.53.2.6.49,0,.05.02.11.02.16v.15c-.09.55-.36,1.04-.58,1.52-.41.88-.86,1.75-1.34,2.59l-.05-.02c.38-.84.77-1.82,1.12-2.68.17-.44.37-.88.45-1.34.03-.14.01-.28-.03-.33-.03-.05-.15-.1-.31-.14-.26-.07-.61-.18-.75-.46-.15-.29-.05-.64.05-.9.14-.33.32-.61.53-.89l.09-.07c.2-.18.27-.66.21-.93-.1-.43-.6-.64-.99-.74.15-1.03.3-2.06.47-3.09l.11-.71c.3-1.63-.02-3.29-.34-4.9-.19-.93-.42-1.86-.7-2.78v-.09c.89-2.15,2.57-7.14,1.72-9.3-.36-.71-.78-1.48-1.14-2.2l.22-.34c.67-.34.32-2.84.17-3.5l.08.1c-.1-.07-.16-.14-.22-.22-.35-.49-.05-1.1.27-1.51.23-.32.38-.68.48-1.07.07-.31.12-.63.12-.95h.05-.02Z"/>
        </g>
      </g>
      <g class="st2">
        <path class="st1" d="M66.47,38.56c.07.66-.03,1.34-.31,1.94-.05.13-.18.3-.25.43-.22.32-.32.84.04,1.08l.06.04c.11.36.18.72.24,1.08.08.79.42,2.9-.73,3.05l.22-.34c.24.45.47.91.7,1.36.14.28.4.78.5,1.07.3,1.16.02,2.36-.21,3.5-.47,2-1.09,3.94-1.75,5.88v-.08c.32.91.61,1.83.85,2.76.4,1.64.77,3.37.48,5.07l-.1.71c-.13.95-.28,1.9-.42,2.85l-.2-.32c.52.17,1,.54,1.12,1.09.08.51,0,1.07-.39,1.43-.04.03-.05.05-.13.08l.09-.07c-.18.23-.36.5-.48.76-.07.18-.14.35-.09.51.09.15.28.19.47.26.24.07.53.2.6.49,0,.05.02.11.02.16v.15c-.09.55-.36,1.04-.58,1.52-.41.88-.86,1.75-1.34,2.59l-.05-.02c.38-.84.77-1.82,1.12-2.68.17-.44.37-.88.45-1.34.03-.14.01-.28-.03-.33-.03-.05-.15-.1-.31-.14-.26-.07-.61-.18-.75-.46-.15-.29-.05-.64.05-.9.14-.33.32-.61.53-.89l.09-.07c.2-.18.27-.66.21-.93-.1-.43-.6-.64-.99-.74.15-1.03.3-2.06.47-3.09l.11-.71c.3-1.63-.02-3.29-.34-4.9-.19-.93-.42-1.86-.7-2.78v-.09c.89-2.15,2.57-7.14,1.72-9.3-.36-.71-.78-1.48-1.14-2.2l.22-.34c.67-.34.32-2.84.17-3.5l.08.1c-.1-.07-.16-.14-.22-.22-.35-.49-.05-1.1.27-1.51.23-.32.38-.68.48-1.07.07-.31.12-.63.12-.95h.05-.02Z"/>
      </g>
    </g>
  </g>
</svg>