<?xml version="1.0" encoding="UTF-8"?>
<svg id="Layer_1" xmlns="http://www.w3.org/2000/svg" version="1.1" xmlns:xlink="http://www.w3.org/1999/xlink" viewBox="0 0 666 666">
  <!-- Generator: Adobe Illustrator 29.8.1, SVG Export Plug-In . SVG Version: 2.1.1 Build 2)  -->
  <defs>
    <style>
      .st0, .st1, .st2 {
        fill: #2a1a09;
      }

      .st3 {
        fill: #eac57d;
      }

      .st1 {
        display: none;
      }

      .st4 {
        fill: #9b6d2c;
      }

      .st5 {
        fill: #e8daca;
        mix-blend-mode: multiply;
      }

      .st5, .st6 {
        isolation: isolate;
      }

      .st7 {
        fill: url(#linear-gradient1);
      }

      .st7, .st8, .st2, .st9, .st10 {
        opacity: .55;
      }

      .st11 {
        fill: #5d8e57;
      }

      .st12, .st13, .st14, .st15 {
        fill: none;
      }

      .st16 {
        fill: url(#radial-gradient);
      }

      .st17 {
        fill: #2b1907;
      }

      .st18 {
        fill: #507a4b;
      }

      .st19 {
        fill: #966a2a;
      }

      .st20 {
        fill: #b2853d;
      }

      .st9 {
        fill: url(#linear-gradient);
      }

      .st21 {
        fill: #d3a759;
      }

      .st22 {
        fill: #e8be6b;
      }

      .st23 {
        fill: #cca662;
      }

      .st13 {
        stroke-dasharray: 2.81 2.81;
      }

      .st13, .st14, .st15 {
        stroke: #d4e2e8;
        stroke-miterlimit: 10;
        stroke-width: 2px;
      }

      .st15 {
        stroke-dasharray: 3.03 3.03;
      }

      .st10 {
        fill: url(#radial-gradient1);
      }

      .st24 {
        clip-path: url(#clippath);
      }
    </style>
    <radialGradient id="radial-gradient" cx="333" cy="550.3" fx="333" fy="550.3" r="271.87" gradientUnits="userSpaceOnUse">
      <stop offset="0" stop-color="#5d8e57"/>
      <stop offset="1" stop-color="#4d8046"/>
    </radialGradient>
    <linearGradient id="linear-gradient" x1="311.79" y1="561.15" x2="311.79" y2="587.87" gradientUnits="userSpaceOnUse">
      <stop offset="0" stop-color="#2a1a09"/>
      <stop offset="1" stop-color="#000" stop-opacity="0"/>
    </linearGradient>
    <linearGradient id="linear-gradient1" x1="354.22" x2="354.22" xlink:href="#linear-gradient"/>
    <clipPath id="clippath">
      <path class="st12" d="M561.54,523.17c0-19.57-51.16-35.43-114.27-35.43s-114.27,15.86-114.27,35.43h-.12c0-19.57-51.16-35.43-114.27-35.43s-114.27,15.86-114.27,35.43v89.7h457.32v-89.7h-.12Z"/>
    </clipPath>
    <radialGradient id="radial-gradient1" cx="333" cy="503.36" fx="333" fy="503.36" r="186.54" gradientTransform="translate(0 413.14) scale(1 .18)" gradientUnits="userSpaceOnUse">
      <stop offset="0" stop-color="#2a1a09"/>
      <stop offset=".4" stop-color="#271808" stop-opacity=".94"/>
      <stop offset=".65" stop-color="#1f1306" stop-opacity=".74"/>
      <stop offset=".85" stop-color="#100a03" stop-opacity=".4"/>
      <stop offset="1" stop-color="#000" stop-opacity="0"/>
    </radialGradient>
  </defs>
  <g class="st6">
    <g id="Layer_19">
      <g>
        <g>
          <g>
            <path class="st18" d="M132.11,303.37h158.44c23.43,0,42.46,19.03,42.46,42.46v211.02H89.65v-211.02c0-23.43,19.03-42.46,42.46-42.46Z"/>
            <path class="st18" d="M375.47,303.37h158.44c23.43,0,42.46,19.03,42.46,42.46v211.02h-243.36v-211.02c0-23.43,19.03-42.46,42.46-42.46Z"/>
            <path class="st16" d="M561.54,523.17c0-19.57-51.16-35.43-114.27-35.43s-114.27,15.86-114.27,35.43h-.12c0-19.57-51.16-35.43-114.27-35.43s-114.27,15.86-114.27,35.43v89.7h457.32v-89.7h-.12Z"/>
            <path class="st11" d="M32.72,419.7h40.82c17,0,30.8,13.8,30.8,30.8v173.93H1.91v-173.93c0-17,13.8-30.8,30.8-30.8h0Z"/>
            <path class="st11" d="M592.47,419.7h40.82c17,0,30.8,13.8,30.8,30.8v173.93h-102.44v-173.93c0-17,13.8-30.8,30.8-30.8h0Z"/>
          </g>
          <circle class="st9" cx="311.79" cy="574.51" r="13.36"/>
          <circle class="st7" cx="354.22" cy="574.51" r="13.36"/>
          <g class="st24">
            <g class="st8">
              <path class="st10" d="M333,530.36c76.97,0,139.36-12.09,139.36-27s-62.4-27-139.36-27-139.36,12.09-139.36,27,62.4,27,139.36,27Z"/>
              <polygon class="st1" points="523.36 446.95 490.44 535.77 179.69 535.77 146.78 446.95 523.36 446.95"/>
              <polygon class="st2" points="341.43 493.83 368.94 493.83 366.79 577.04 343.59 577.04 341.43 493.83"/>
              <polygon class="st2" points="297.51 493.83 325.02 493.83 322.86 577.04 299.66 577.04 297.51 493.83"/>
            </g>
          </g>
        </g>
        <g>
          <g>
            <g>
              <g>
                <path class="st0" d="M541.9,453.86l-36.89,28.71,11.57,14.86,46.52-36.21c2.89-2.25,3.41-6.42,1.16-9.31l-47.27-60.72-5.78,23.26h0l30.69,39.41h0Z"/>
                <ellipse class="st0" cx="498.02" cy="490.52" rx="22.76" ry="12.19"/>
                <rect class="st0" x="496.52" y="468.28" width="7.44" height="22.91" rx="2.51" ry="2.51" transform="translate(-149.81 720.18) rotate(-64.1)"/>
              </g>
              <g>
                <path class="st0" d="M124.11,453.86l36.89,28.71-11.57,14.86-46.52-36.21c-2.89-2.25-3.41-6.42-1.16-9.31l47.27-60.72,5.78,23.26h0l-30.69,39.41h0Z"/>
                <ellipse class="st0" cx="167.99" cy="490.52" rx="22.76" ry="12.19"/>
                <rect class="st0" x="154.32" y="475.95" width="22.91" height="7.44" rx="2.51" ry="2.51" transform="translate(-192.87 120.59) rotate(-25.9)"/>
              </g>
            </g>
            <g>
              <g>
                <path class="st19" d="M523.17,296.97l-376.56,3.66c-.09,0-.17-.06-.19-.15l-12.74-58.86c-.43-1.99,1.1-3.85,3.13-3.81l191.24,3.06s.08,0,.11-.03l177.65-116.21,17.55,172.15c0,.11-.08.21-.19.21h0Z"/>
                <path id="Walnut" class="st3" d="M527.68,310.83l-7.75-104.56c-4.02-54.32-31.79-101.71-72.87-132.68-7.5-5.65-15.43-10.75-23.76-15.25-1.45.18-2.53.29-3.98.47-8.32,7.06-20.45,8.68-30.61,3.14h0c-1.5-.82-2.89-1.76-4.17-2.81-1.15-.94-2.76-1.1-4.02-.3-11.62,7.31-19.67,20.34-19.24,35.95l2,71.92c.54,13.55-10.3,24.84-23.86,24.84h-7.82c-13.56,0-24.4-11.28-23.86-24.84v-.16c.05-1.57-.96-2.94-2.46-3.45-3.16-1.07-6.21-2.76-9-5.14-9.81-8.37-12.07-22.67-5.9-33.99,4.15-7.6,8.83-16.17,8.83-16.17,2.21-4.06,5.32-7.32,8.92-9.69.96-.63,1.55-1.68,1.58-2.83l.09-3.11c.86-30.71-31.08-51.34-58.79-38.08-13.21,6.32-25.56,14.12-36.84,23.21-1.02.82-1.47,2.14-1.22,3.43,1.18,6.01.34,12.43-2.81,18.22l-9.03,16.56c-5.74,10.53-17.44,15.73-28.62,13.73-1.49-.27-3.01.38-3.74,1.71-5.12,9.13-9.48,18.73-12.99,28.75-5.16,14.73-8.48,30.34-9.69,46.56l-7.75,104.56c-2.44,32.96,4.1,64.4,17.5,92.12,26.43,54.66,79.57,94.82,143.37,103.51,7.05.96,13.32-4.54,13.32-11.66v-4.63c0-7.47,6.05-13.52,13.52-13.52h13.91c7.47,0,13.52,6.05,13.52,13.52v4.63c0,7.12,6.27,12.62,13.32,11.66,63.81-8.69,116.95-48.85,143.37-103.51,13.4-27.72,19.93-59.16,17.5-92.12h.03Z"/>
                <path class="st20" d="M537.77,332.67l-6.01-123.86c-1.49-30.78-10.69-59.44-25.68-84.15-.06-.1-.21-.12-.29-.04.02-.04-.11.59-.29.89-9.87,16.84-57.59,52.68-57.59,52.68-.8.64-1.86.87-2.85.62l-86.72-22.31c-1.26-.32-2.6.1-3.45,1.08l-46.84,54.52c-.77.89-1.93,1.33-3.09,1.16l-47.75-6.77c-3.24-.46-6.21-2.05-8.38-4.5l-.03-.03-26-17.88c-1.38-.94-3.27-.43-3.99,1.08l-26.13,55.37c-.69,2.01-3.11,2.83-4.88,1.65l-17.56-11.71c-1.29-.86-2.98-.75-4.15.27l-23.36,20.32c-.07.06-.18.06-.25,0l-4.83-3.97c-.74-.61-1.3-1.41-1.62-2.31l-.45-1.26c-.51-1.44-.38-3.04.36-4.37l.61-1.08c.07-.13-.02-.28-.16-.29h0c-1.99-.03-3.64,1.51-3.73,3.5l-4.43,91.37c-4.96,102.3,76.64,187.95,179.05,187.95h51.43c102.41,0,184.01-85.65,179.05-187.94v.02Z"/>
              </g>
              <path class="st19" d="M534.94,334.73l-6.01-123.86c-1.49-30.78-22.94-83.49-23.02-83.49-.15,0-.74-.03-1.25,0-.4.03-.25-2.66-.51-2.53l-75.58,52.5-73.06-18.79c-1.26-.32-2.6.1-3.45,1.08l-47.3,54.98c-.77.89-1.93,1.33-3.09,1.16l-46.1-6.19c-3.24-.46-7.4-3.1-9.57-5.54,0,0-.02-.02-.03-.03l-24.31-16.71.29-.81-2.84-.75h0c-1.22-.3-2.56.25-3.14,1.46l-25.57,54.17-10.23-.17-11.85-7.46.29-1.04s-2-.2-2.58-.22c-.77-.02-1.53.29-2.14.84l-8.56,7.47-18.91-3.03c-2.02-.03-2.8,4.7-2.37,6.68l1.07,4.93-.28-.26c-.74-.61-1.3-1.41-1.62-2.31l-.45-1.26c-.51-1.44.54,88.07.54,88.07-4.96,102.3,116.78,151.86,170.96,177.65l13.22,1.02,29.26-1.02h8.96c102.41,0,184.2-74.28,179.25-176.57h-.03Z"/>
              <path class="st22" d="M527.83,310.96l-7.75-104.56c-2.08-28.17-10.57-54.47-23.97-77.59-.77-1.33-.46-2.97.69-3.97.38-.33.73-.72,1.02-1.13,4.41-6.17-2.66-18.78-15.79-28.17-5.38-3.84-10.93-6.55-15.92-7.97-1.16-.33-1.93-1.41-1.87-2.61.29-5.7-3.38-12.44-9.94-17.13-6.32-4.51-13.57-5.88-18.84-4.07-1.22.42-2.57.2-3.67-.47-2.14-1.31-4.32-2.58-6.53-3.8-.28-.16-.58-.29-.87-.39-3.46-1.18-3.89-.86-5.98.7-8.27,6.35-19.82,7.62-29.57,2.3h0c-.75-.4-1.46-.85-2.16-1.31-2.82-1.9-6.56-1.63-9.25.44-6.76,5.2-11.95,12.49-14.43,21.12-.77,2.66-2.17,5.13-4.14,7.08-3.59,3.55-5.98,9.83-5.98,16.98,0,5.92,1.63,11.23,4.23,14.91,1.61,2.28,2,5.24.82,7.76-1.65,3.53-2.61,7.87-2.61,12.57,0,8.59,3.24,16,7.94,19.43l.16,5.78c.54,13.55-10.3,24.84-23.86,24.84h-7.82c-13.56,0-24.4-11.28-23.86-24.84v-.13c.05-1.53-.88-2.95-2.34-3.43-2.62-.87-7.19-3.85-8.97-5.15-.34-.25-.33-.76.02-.98,5.01-3.22,8.31-14.84,7.67-28.5-.34-7.32-1.76-13.95-3.81-18.95-.56-1.36-.46-2.92.37-4.13,1.53-2.24,3.36-4.2,5.41-5.83,2.27-1.81,3.64-4.51,3.72-7.42h0c.86-30.71-31.09-51.33-58.8-38.08-13.21,6.32-25.56,14.12-36.83,23.21-1.02.82-1.46,2.14-1.22,3.42.04.2.07.38.11.58.31,1.84-.98,3.67-2.78,4.16-4.53,1.24-9.42,5.3-12.81,11.18-5.23,9.06-2.79,16.78.62,22.24.62.99-14.7,11.36-24.57,10.5-2.28-.2-4.45.98-5.55,2.99-4.79,8.71-8.89,17.84-12.21,27.33-5.16,14.73-8.48,30.34-9.69,46.56l-7.75,104.56c-2.44,32.96,4.1,64.4,17.5,92.12,26.43,54.66,79.57,94.82,143.37,103.51,7.05.96,13.32-4.54,13.32-11.66v-4.63c0-7.47,6.05-13.52,13.52-13.52h13.91c7.47,0,13.52,6.05,13.52,13.52v4.63c0,7.12,6.27,12.62,13.32,11.66,63.81-8.69,116.95-48.85,143.37-103.51,13.4-27.72,19.93-59.16,17.5-92.12l.05-.02Z"/>
              <path class="st21" d="M440.93,101.96c11.43-5.13,26.32-2.56,31.56,9.91,2.5,5.68,2.58,11.72,2.47,17.68,0,3.91-.27,7.81-.76,11.7-.16,1.66-.64,3.43-.88,5.09-.13.43-.87,3.09-1.01,3.59-2.13,6.31-6.34,12.34-12.76,14.81-.53.21-.98.37-1.68.53v-3.67c8.77,1.66,17.73,7.09,19.8,16.35,1.67,10.29-1.48,21.01-7.25,29.47l-.33-.21c3.64-8.9,5.72-18.89,3.75-28.34-.12-.45-.59-1.66-.74-2.13-.66-1.33-1.45-2.68-2.46-3.76-2.71-3.17-6.51-5.35-10.42-6.8-2.11-.87-9.5-2.36-11.79-2.94.64-.16,9.62-1.7,9.87-1.96,17.37-6.97,18.31-33.32,11.11-47.98-5.15-11.04-17.31-12.97-28.35-10.99l-.13-.37h0v.03Z"/>
              <path class="st21" d="M275.62,87.85c-9.79-3.37-17.97,3.81-22.11,12.01-2.57,4.64-4.26,9.73-5.94,14.75-1.54,5.03-3.12,10.49-4.13,15.67-1.6,8.15-2.98,16.77-.65,24.9,2.3,9.16,10.64,15.26,20,14.81l7.41-.49-6.35,4c-6.39,4.16-12.43,10.38-14.24,17.98-.66,2.55-.42,5.21-.43,7.82.37,7.94,1.85,16.56,8.21,21.86,2.05,1.73,4.64,2.91,7.31,3.27v.39c-5.95.28-11.41-3.7-14.42-8.63-2.68-4.36-4.03-9.46-4.65-14.51-.4-3.66-.79-7.42-.03-11.07,1.82-9.03,8.74-15.82,16.38-20.39l1.05,3.51c-7.89.2-15.87-3.89-19.5-11.01-4.69-9-3.23-19.42-2.25-29.09,1.31-12.17,2.82-24.51,9.29-35.43,2.58-4.36,6-8.4,10.57-10.79,4.59-2.42,10.36-2.48,14.64.09l-.19.34h.02Z"/>
              <path class="st21" d="M383.83,256.08c17.73,2.96,28.56-3.55,31.76-21.56,2.19-12.5.29-28.12-11.03-35.68-1.38-.89-3.01-1.7-4.58-2.04l-8.78-1.64c2.34-.6,9.65-2.05,11.79-2.94,5.31-1.96,10.43-5.34,12.88-10.58,3.36-8.97.63-21.75-3.02-30.46l.33-.21c5.77,8.45,8.91,19.19,7.25,29.47-2.07,9.26-11.03,14.68-19.8,16.35v-3.67c1.23.29,2.09.69,3.16,1.2,5.65,2.8,9.29,8.34,11.27,14.15.14.51.88,3.14,1.01,3.59.25,1.66.73,3.43.88,5.09.49,3.88.77,7.78.76,11.7.16,6.92-.07,14.31-3.93,20.43-4.85,8.33-15.51,11.12-24.46,8.96-1.95-.41-3.83-.99-5.63-1.81l.13-.37h0v.02Z"/>
              <path class="st23" d="M494.42,171.86c5.43,11.55,13.68,31.38,11.22,44.13-.22,1.11-.72,2.36-1.25,3.37-2.85,5.09-5.75,10.14-8.67,15.19l-1.67-3.32c4.45.35,9.11,3.73,8.97,8.57-.05,4.1-2.24,7.61-4.31,10.75-1.38,2.01-2.82,3.82-4.47,5.67l-1.81-4.09c.46,0,.73.02,1.07.05,17.24,1.98,22.36,20.09,21.5,34.9-.29,7.98-1.59,16.32-6.81,22.76-9.24,11.24-25.97,9.17-37.85,3.95,16.96,4.99,36.51,3.59,39.63-17.35,1.14-8.12,1.13-17.09-1.29-24.96-2.16-7.54-8.15-14.02-16.16-14.51l-5.37-.21c3.83-4.28,18.62-18.98,6.47-21.17l-3.39-.51c3.6-5.89,7.24-11.81,10.93-17.64l.38-.72c.14-.24.21-.53.32-.79,3.41-11.21-3.83-32.76-7.45-44.09h0Z"/>
              <path class="st21" d="M191.78,317.21c-5.73-10.95-15.32-34.49-10.04-46.33l.58-1.05c3.2-4.88,6.58-9.65,9.65-14.61l.5.99c-1.25-.2-2.38-.54-3.48-1.09-9.05-4.84-.21-16.19,3.97-21.57l.75,2.14c-3.67-.44-7.17-1.27-10.62-2.52-17.97-6.41-22.52-20.59-11.48-36.14,2.04-3.01,4.6-5.97,7.56-8.11,6.24-4.84,14.88-4.63,20.5.94l-.27.29c-6.9-4.54-14.04-3.37-19.77,2.37-6.57,7.47-13.75,19.56-7.22,28.96,5.64,7.35,15.31,10.27,24.02,12.2-2.1,2.06-4.26,4.27-6.03,6.66-1.92,2.63-3.93,5.51-4.1,8.82-.18,3.86,3.95,5.75,7.28,5.86-3.16,5.61-6.2,11.33-9.07,17.1-1.44,4.27-.81,8.87-.29,13.33.76,5.3,2.03,10.58,3.4,15.84,1.4,5.26,2.95,10.51,4.51,15.78l-.36.16h0v-.02Z"/>
              <path class="st19" d="M534.83,331.93l-6.01-123.86c-1.49-30.78-22.95-83.46-23.02-83.49-.04,0-.31-.06-.67-.06-.37.04-.72.03-.98.33-5.89,10.18-54.16,50.3-58.08,52.09-2.16.98-3.78,1.16-3.78,1.16l-86.89-22.35c-1.26-.32-2.6.1-3.45,1.08l-47.3,54.98c-.77.89-1.93,1.33-3.09,1.16l-46.1-6.19c-3.24-.46-7.42-3.11-9.59-5.56l-24.33-16.72.29-.81-2.84-.75h0c-1.22-.3-2.56.25-3.14,1.46l-26.65,55.16c-.47.97-2.09,2.26-3.12,1.92l-3.59-1.53-14.3-9,.61-1.03s-1.49-.37-2.08-.38c-.77-.02-1.53.29-2.14.84l-9.39,7.64-12.94,11.18c-.32.28-.81.29-1.12,0-1.32-1.18-3.96-3.35-4.59-4.86-1.25-3.02-.06-6.44-.06-6.44-2.02-.03-3.01,1.8-2.58,3.77l1.07,4.93-.28-.26c-.74-.61-1.3-1.41-1.62-2.31l-.45-1.26c-.51-1.44.54,88.07.54,88.07-4.96,102.3,68.73,189.02,171.15,189.02h51.43c102.41,0,184.01-85.65,179.05-187.94h0Z"/>
              <path class="st20" d="M537.77,332.67l-6.01-123.86c-1.49-30.78-10.69-59.44-25.68-84.15-.04-.04-.25-.07-.29-.07-.02.02-.11.61-.29.92-9.87,16.84-57.59,52.68-57.59,52.68-.8.64-1.86.87-2.85.62l-86.72-22.31c-1.26-.32-2.6.1-3.45,1.08l-46.84,54.52c-.77.89-1.93,1.33-3.09,1.16l-47.75-6.77c-3.24-.46-6.21-2.05-8.38-4.5l-.03-.03-26-17.88c-1.38-.94-3.27-.43-3.99,1.08l-26.13,55.37c-.69,2.01-3.11,2.83-4.88,1.65l-17.56-11.71c-1.29-.86-2.98-.75-4.15.27l-23.36,20.32c-.07.06-.18.06-.25,0l-4.83-3.97c-.74-.61-1.3-1.41-1.62-2.31l-.45-1.26c-.51-1.44-.38-3.04.36-4.37l.61-1.08c.07-.13-.02-.28-.16-.29h0c-1.99-.03-3.64,1.51-3.73,3.5l-4.43,91.37c-4.96,102.3,76.64,187.95,179.05,187.95h51.43c102.41,0,184.01-85.65,179.05-187.94v.02Z"/>
              <path class="st4" d="M497.6,194.3c4.17,13.02,5.38,27.05,3.12,40.55-1.1,7.84-2.44,16.29-4.02,23.98l-3.65-1.01c.45-.89.71-1.37,1.69-1.96,4.58-1.8,5.27,6.22,5.85,9.04,1.01,6.94,1.47,13.93,1.3,20.93-.09,3.51-.33,6.96-.98,10.49l-1.47-.69c.8-1,1.74-1.8,3.13-1.83,5.61.3,6.49,15.27,7.07,19.62.53,7.18,1.21,18.54-3.6,24.41-4.71,3.18-9.53,7.18-11.96,12.46-.36.67-.6,1.52-.86,2.24l-.25,1.14c-.04.19-.1.38-.12.57-.03.53-.1,1.18-.13,1.73.29,9.06,3.15,17.92,6.15,26.45,3,8.31,2.88,18.05-1.17,25.95-1.57,3.4-3.24,6.83-4.67,10.24l-.48-.11c1.48-7.27,5.33-14,5.05-21.52-.09-4-.81-8.03-2.18-11.77-.57-1.28-1.16-2.56-1.65-3.84-2.16-5.38-4.03-10.78-5.25-16.5-2.05-9.41-1.48-15.9,5.25-23.21,2.8-3.01,5.83-5.41,9.41-7.5l-.3.21s-.1.08-.1.08c.94-1.14,1.41-2.61,1.85-4.08,1.47-5.42,1.58-11.14,1.62-16.82-.12-3.69,0-16.77-3.73-18.01-.5-.07-1.28.45-1.76,1.03l-2.35,2.86.87-3.55c1.44-6.64,1.37-13.66.51-20.39-.84-5.34-1.71-10.93-3.95-15.82-.16-.3-.36-.58-.46-.67-.03-.03-.07-.02.15.11.2.13.74.11.93-.02.21-.11.21-.15.19-.1,0,.02-.08.18-.06.16l-3.65-1.01c.62-5.36,1.36-10.69,2.22-16.01.71-4.39,2.05-11.44,2.6-15.83,1.19-10.56.7-21.33-.66-31.91l.48-.12h0l.02.02Z"/>
              <path class="st4" d="M254.53,222.5c-1.52,10.59-2.09,21.32-.85,31.93,1.58,10.61,3.75,21.17,5.31,31.79l-4.21,1.17c.03.06-.05-.09-.05-.08.32.45,1.37.49,1.79.12.03-.02.04-.03.03-.03-.05.04-.22.3-.35.6-1.99,4.9-2.72,10.46-3.56,15.71-1.15,8.09-1.22,16.54.65,24.52l-2.52-3.44c-.42-.58-1.16-1.13-1.65-1.1-3.9.9-4.41,14.34-4.63,17.96-.12,3.87-.1,7.75.4,11.56.49,3.39,1.07,6.93,3.03,9.77.09.12.29.32.25.28l-.18-.12c7.66,4.41,15.43,11.53,15.71,20.96-.07,8.78-2.68,17.31-5.56,25.5-2.07,4.87-3.3,10.18-3.09,15.48.08,3.5.94,6.85,2.26,10.06,1.02,2.69,2.81,7.35,3.69,10.08l.12.38.06.21.09.33-1.24,2.69s.1-.06.07-.04c-.56.37-.31,1.03-.03,1.66,1.75,2.85,3.7,6.2,3.69,9.74-1.08,2.81-2.01,5.79-2.73,8.76-.66,2.84-1.21,5.74-1.2,8.52.05,1.85.24,3.55,1.3,4.92,2.62,3.01,6.25,5.48,10.23,6.04l-.24.84c-.52,2.24-1.35,5.03.45,6.88.53.62,1.2,1.18,1.9,1.61l-.22.44c-.83-.38-1.57-.86-2.26-1.47-1.58-1.21-1.9-3.3-1.78-5.15.03-.91.13-1.78.29-2.7l.76,1.03c-4.59-.47-8.55-2.9-11.62-6.15-4.38-6.2-1.03-17.92.91-24.69l-.13.78c-.15-.94-.43-1.83-.83-2.71-1.41-3.2-4.97-6.23-3.13-10.19.5-1.05,1.24-1.89,2.24-2.48l-1.24,2.69c-.2-.55-.62-1.79-.84-2.34-.57-1.58-2.45-6.15-3.1-7.8-3.69-8.12-3.5-17.79-.36-26.03,3.2-7.8,6.09-15.91,7.1-24.3.37-2.7.18-5.46-.82-8.02-2.33-5.49-6.89-9.9-11.79-13.19-.42-.26-.7-.71-.88-.94-2.08-3.31-2.56-7.37-2.87-11.16-.25-3.97-.2-7.91.05-11.83.45-4.41.65-19.22,6.16-19.67,1.41,0,2.39.77,3.23,1.76l-1.71.8c-2.26-10.42-2.01-21.14-.21-31.59.43-2.21.87-4.57,1.86-6.74.48-.89,1.01-2.05,2.31-2.58,1.85-.79,3.7.58,4.3,2.26l-4.21,1.17c-1.3-8-2.46-16.02-3.57-24.05-1.31-8.07-1.44-16.5-.39-24.57.7-5.42,1.72-10.76,3.35-15.96l.48.12h-.03Z"/>
              <path class="st4" d="M458.81,194.31c5.09,10.2,8.97,21.12,10.47,32.45.64,6.06,1.65,12.15.69,18.24-.35,2.03-1.97,5.16-2.78,7.08-1.14,2.6-2.35,5.17-3.59,7.73l-1.25-1.96c7.79.74,4.66,19.07,2.93,24.09l-.25-.46c-2.77,2.1.09,5.54,1.19,7.85,1.58,3.42,2.01,7.27,1.44,10.95l-.29-.03c-.23-3.91-1.31-7.88-3.62-11.04-.21-.27-.61-.83-.8-1.1-2.09-2.61-2.59-6.97.56-9.11l-.63.83c.39-1.66.69-3.52.88-5.32.18-3.28,1.61-12.08-1.37-13.95,0,0-.12-.02.04-.02l-1.25-1.96c1.95-3.61,4.26-7.53,6.35-11.09.72-1.16,1.21-2.43,1.46-3.76,1.55-8.37-1.59-16.76-3.8-24.75-2.16-7.92-4.67-16.6-6.69-24.56l.28-.11h.02Z"/>
              <path class="st4" d="M454.49,255.09c.41,3.67-.15,7.43-1.75,10.79-.29.74-.97,1.69-1.38,2.4-1.2,1.8-1.79,4.67.24,6.02l.32.2c.61,2.02,1.01,4.01,1.31,6.03.44,4.39,2.35,16.11-4.08,16.95l1.21-1.91c1.33,2.51,2.59,5.04,3.89,7.57.98,2.03,2.63,4.87,3.08,7.08,1.1,6.2-.2,12.35-1.46,18.34-2.61,11.11-6.04,21.92-9.76,32.69v-.47c1.79,5.07,3.38,10.18,4.76,15.38,2.22,9.12,4.27,18.76,2.67,28.2l-.55,3.97c-.72,5.3-1.53,10.58-2.33,15.86l-1.12-1.76c2.86.96,5.57,2.99,6.23,6.07.45,2.83,0,5.94-2.17,7.95-.21.16-.3.27-.7.47l.49-.39c-1.03,1.28-2.01,2.76-2.67,4.22-.4.99-.79,1.95-.48,2.84.51.82,1.55,1.07,2.59,1.44,1.32.36,2.97,1.12,3.31,2.7.05.29.11.62.12.9l-.04.82c-.47,3.04-1.97,5.76-3.19,8.48-2.3,4.89-4.77,9.72-7.43,14.43l-.27-.14c2.1-4.7,4.3-10.11,6.24-14.92.94-2.45,2.06-4.89,2.48-7.44.15-.8.08-1.56-.16-1.83-.19-.28-.86-.54-1.73-.77-1.43-.39-3.39-.98-4.18-2.58-.82-1.61-.3-3.54.28-4.98.78-1.85,1.76-3.4,2.93-4.96l.49-.39c1.12-1.02,1.47-3.68,1.15-5.2-.54-2.39-3.32-3.58-5.48-4.12.86-5.73,1.68-11.46,2.6-17.17l.63-3.95c1.69-9.08-.1-18.28-1.89-27.27-1.08-5.19-2.36-10.37-3.9-15.44l-.08-.26.09-.22c4.92-11.98,14.28-39.73,9.54-51.76-2.02-3.93-4.36-8.27-6.33-12.22l1.21-1.91c-.15,0-.04,0-.02,0,3.73-1.87,1.76-15.79.91-19.45l.43.56c-.56-.39-.88-.76-1.22-1.23-1.95-2.72-.29-6.12,1.51-8.38,1.28-1.78,2.12-3.8,2.65-5.95.41-1.72.66-3.51.66-5.29l.29-.03h.04Z"/>
              <path class="st4" d="M170.22,293.44c.06,3.49.87,7.12,2.66,10.11.94,1.62,2.28,2.96,2.82,4.83.72,2.08.09,4.66-1.83,5.98l.46-.61c-.83,3.57-2.83,17.49.84,19.41,0,0,.12,0-.03,0l1.22,1.92c-1.31,2.52-2.65,5.01-4.03,7.5-.7,1.29-2.44,4.2-2.92,5.49-1.87,5.95-.85,12.5.23,18.57,2.15,11.1,6.15,21.8,10.36,32.25l.11.27-.05.34c-.43,3.11-.69,6.28-.79,9.42-.09,3.12-.04,6.31.72,9.1.86,2.75,2.72,5.52,4.34,8,1.81,2.71,3.79,5.38,5.83,7.92,2.08,9.32,4.02,18.75,6.8,27.87l.51,1.44c.2.42.34.87.62,1.23.67,1.1,2.18,2.02,3.31,2.77,4.05,2.36,8.46,4.08,12.92,5.66l-.08.29c-4.16-.94-8.25-2.1-12.17-3.84-2.24-1.12-4.74-2.18-6.06-4.51-.91-1.66-1.57-3.55-2.17-5.32-2.7-8.08-4.72-16.29-6.67-24.55l.31.66c-2.05-2.56-3.95-5.16-5.76-7.87-1.79-2.9-3.54-5.56-4.53-8.95-.83-3.44-.75-6.73-.59-10,.21-3.26.62-6.46,1.2-9.68l.06.61c-3.73-10.78-6.72-21.75-9.12-32.9-1.12-6.33-2.72-12.92-1.13-19.34.46-1.6,2-4.45,2.66-5.97,1.22-2.57,2.47-5.11,3.75-7.64l1.22,1.91c-7.42-.7-4.3-17.81-2.96-22.66l.12-.4.34-.21c2.01-1.31,1.38-4.14.23-5.91-2.59-3.85-3.63-8.65-3.06-13.22l.29.03h0Z"/>
              <path class="st4" d="M161.59,258.75c-2.8,11.96-6.78,24.17-6.71,36.48,0,1.58.39,3.44.76,5.01,1,4.74,1.81,9.47,2.4,14.34l.05.44c-2.61,2.18-5.09,5-6.2,8.28-1.14,3.01.31,6.75.85,9.92l-.18-.38c5.28,6.6,10.08,13.94,10.63,22.73.14,4.29-.23,8.42-.76,12.56-.56,4.15-1.34,8.19-2.43,12.26l-1.16,1.37c-.58.26-1.2,1.16-1.27,1.98-.15,1.11.22,2.4.62,3.49.94,2.56,2.43,5.09,4.27,7.08,2.46,2.18,5.9,5.65,6.24,9.75.24,2.12-1.33,3.7-2.22,5.44-.83,1.57-1.53,3.25-1.83,4.99h-.39c-.06-2.86.94-5.57,2.1-8.13,1.57-3.77-3.37-7.6-6.03-9.7-2.54-2.31-4.29-4.95-5.65-8.03-1.78-3.42-1.62-8.68,2.48-10.65l-1.16,1.37c1.73-7.71,3.45-15.79,3.56-23.68-.25-7.68-4.01-15.4-8.32-21.77l-.16-.22-.02-.17c-.23-2.18-.6-4.3-.85-6.47-.34-3.2,1.25-6.31,3.03-8.85,1.03-1.45,2.14-2.81,3.45-4.1l-.27.71c-.96-4.6-2.51-9.19-3.87-13.75-.8-2.37-1.28-5-1.25-7.5.17-7.41,2.09-14.55,4.4-21.53,1.56-4.58,3.34-9.07,5.5-13.4l.36.14h0Z"/>
              <path class="st4" d="M385.44,192.59c3.64,9.04,6.48,18.37,8.42,27.92.75,4.37,1.9,8.9.38,13.31-1.78,5.25-4.25,10.19-6.61,15.14l-.41-.99c3.16,1.47,7.08,4.01,6.69,7.99-.62,3.58-2.01,6.75-3.85,9.87l-.07-1.15c7.56,8.14,13.31,19.2,11.52,30.63-.87,7.43-6.04,15.32-14.57,14.07l1.36-3.66c4.08,2.79,9.48,6.61,9.03,12.25-.09,1.27-.26,2.46-.83,3.7-.54,1.21-1.38,1.91-2.03,2.82-1.13,1.71-3.12,2.72-4.73,3.58-2.66,1.29-5.4,2.34-8.22,3.19l-.15-.36c2.55-1.39,5.1-2.77,7.44-4.4,1.42-1.01,2.8-1.91,3.55-3.31.48-.87,1.32-1.78,1.56-2.6.33-.99.37-2.42.28-3.65-.86-3.5-4.88-5.92-7.89-7.79l-7.37-4.26,8.73.6c1.6.15,3.34-.31,4.68-1.23,3.08-2.07,4.41-6,5.11-9.64,1.94-10.3-3.19-21.2-9.36-29.3,2.09-2.76,3.94-6.07,4.56-9.5.35-3.34-3.3-5.41-6-6.45l-.71-.26.29-.74c2.13-5.45,3.86-11.03,5.17-16.68.34-3.37-.47-7.13-.95-10.54-.71-4.2-1.88-9.95-2.7-14.16-.93-4.74-1.9-9.48-2.71-14.27l.37-.11h0Z"/>
              <path class="st4" d="M296.76,263.72c-.6,2.77-.17,5.7.04,8.52.55,4.13.66,8.47,1.81,12.47.77,2.56,2.34,4.71,4.04,6.71,1.86,2.36,3.53,4.84,4.94,7.51,1.02,1.9,2.44,5.03,1.41,7.29-1.65,4.92-5.22,8.96-7.02,13.76-.59,2.04-1.17,4.62.2,6.38l.72.89c3.14,4.07,4.67,9.64,3.61,14.8-.06.37-.14,1.04-.04,1.16.86,1.78,2.56,3.59,3.63,5.53.69,1.15.79,2.8-.16,3.85l-.15.19-.23.26c-5.73,6.19-11.73,13.33-12.74,21.83-.47,5.56,1.23,11.13,3.6,16.18l-.4.29c-4.01-4.51-6.85-10.49-7.06-16.62-.29-9.68,6.74-19.61,12.92-25.11-.24.42-.39,1.04-.22,1.49,0,0-.03-.07-.05-.11-1.1-2.12-2.9-4.16-3.61-6.7-.3-1.52.06-2.73.39-4.12.77-3.87.15-7.88-1.76-11.45l-.52-.9c-.74-1.1-.92-2.64-.82-3.87.29-4.72,3.37-8.29,5.33-12.33.96-2.22,2.53-5.17,2.05-7.55-.95-2.25-3.07-4.6-4.7-6.6-.42-.45-3.06-3.69-3.44-4.12-2.4-2.77-3.96-6.26-4.39-9.9-.32-3.78-.25-7.44.05-11.23.31-2.98.55-6.1,2.14-8.75l.44.22h0l-.03.02Z"/>
              <path class="st21" d="M422.02,67.12c3.77.86,6.84,4.9,5.56,8.81-1.28,3.55-4.15,6.01-6.67,8.63-1.75,1.64-3.55,3.25-5.78,4.42l-.46-1.61c2.98-.43,6.47-1.02,9.1.98,3.87,3.7.25,9.22-3.23,11.66l-.13-.15c1.1-1.36,2.07-2.83,2.73-4.36.83-1.91,1.02-3.87-.29-5.3-.72-.81-1.78-.89-2.9-1.09-2.91-.44-7.46.18-10.44.38,3.51-1.49,7.94-3.01,10.96-5.46,3.24-2.67,6.25-7.29,5.48-11.6-.49-2-2.1-3.74-3.99-5.14l.08-.18h-.02Z"/>
              <path class="st21" d="M226.49,127.4c-4.13-.86-11.29-2.49-14.35,1.1-2.61,4.47,2,9.1,6.07,10.61l9.05,3.75-9.73-1.37c-5.48-.63-12.41-.92-16.37,3.31-2.1,2.71-2.55,7.27-1.44,10.54,1.38,4.12,4.9,4.6,8.73,4,2.1-.18,4.14-.38,6.31-.49l5.9-.29c-5.78,2.79-12.3,5.7-16.93,10.21-1.59,1.6-3.02,3.59-2.1,5.79.31,1.1.87,2.12,1.68,2.95.81.82,1.89,1.42,3.08,1.56-3.77.02-7.02-4.49-5.76-8.07,1.42-3.54,4.59-5.92,7.48-8.14,1.99-1.42,4.02-2.7,6.19-3.89l.61,2.27-6.17.75c-3.38.68-7.53.46-9.92-2.52-3.74-4.65-3.38-11.86.13-16.51,4.85-5.28,12.58-4.87,19.04-3.94l-.69,2.39c-1.38-.61-2.53-1.34-3.66-2.22-3.51-2.56-5.85-7.9-2.85-11.76,3.86-4.12,11.2-1.74,15.71-.05h0Z"/>
              <path id="lowerlip" class="st5" d="M333.01,466.1c-6.77,0-12.38-3.08-13.43-7.11-.12.44-.19.89-.19,1.36,0,4.68,6.09,8.46,13.62,8.46s13.62-3.79,13.62-8.46c0-.46-.08-.91-.19-1.36-1.05,4.03-6.65,7.11-13.43,7.11h-.02Z"/>
              <circle id="mouth" class="st0" cx="333.01" cy="446.95" r="9.98"/>
              <path class="st17" d="M308.08,402.55c-.37,0-.71.22-.86.56-5.59,12.37-17.17,21.2-38.32,24.91-.91.16-1.8.29-2.68.4-24.84,3.42-38.23-7.95-45.23-25.27-.15-.35-.49-.59-.87-.59h0c-.64,0-1.1.63-.9,1.24,6.4,20.05,19.88,33.97,47.01,30.23.88-.12,1.77-.25,2.68-.4,23.86-4.18,35.55-14.87,40.19-29.84.19-.61-.28-1.22-.91-1.22h-.1v-.02Z"/>
              <path class="st17" d="M445.9,402.55c-.38,0-.73.24-.87.59-7,17.32-20.39,28.7-45.23,25.27v-.07c-.75-.11-1.49-.21-2.26-.34-21.15-3.71-32.73-12.53-38.32-24.91-.16-.33-.48-.56-.86-.56h-.1c-.64,0-1.1.62-.91,1.22,4.64,14.97,16.33,25.66,40.19,29.84.77.14,1.51.24,2.26.34v.07c27.14,3.74,40.62-10.18,47.02-30.23.2-.61-.27-1.24-.9-1.24h0v.02Z"/>
            </g>
          </g>
          <g>
            <path class="st0" d="M321.22,574.68v-68.49c0-5.2-4.22-9.42-9.42-9.42h0c-5.2,0-9.42,4.22-9.42,9.42v68.49h18.84,0Z"/>
            <path class="st0" d="M363.64,574.68v-68.49c0-5.2-4.22-9.42-9.42-9.42h0c-5.2,0-9.42,4.22-9.42,9.42v68.49h18.84,0Z"/>
            <path class="st0" d="M311.79,559.87h0c6.5,0,11.77,5.28,11.77,11.77v2.05c0,.53-.43.97-.97.97h-21.61c-.53,0-.97-.43-.97-.97v-2.05c0-6.5,5.28-11.77,11.77-11.77h0Z"/>
            <path class="st0" d="M354.22,559.87h0c6.5,0,11.77,5.28,11.77,11.77v2.05c0,.53-.43.97-.97.97h-21.61c-.53,0-.97-.43-.97-.97v-2.05c0-6.5,5.28-11.77,11.77-11.77h0Z"/>
          </g>
        </g>
        <g>
          <line class="st14" x1="341.89" y1="458.93" x2="342.4" y2="460.32"/>
          <line class="st13" x1="343.36" y1="462.9" x2="352.49" y2="487.49"/>
          <line class="st14" x1="352.97" y1="488.79" x2="353.48" y2="490.18"/>
        </g>
        <g>
          <line class="st14" x1="325.19" y1="458.93" x2="324.67" y2="460.32"/>
          <line class="st13" x1="323.71" y1="462.9" x2="314.58" y2="487.49"/>
          <line class="st14" x1="314.1" y1="488.79" x2="313.59" y2="490.18"/>
        </g>
        <g>
          <line class="st14" x1="333.54" y1="462.37" x2="333.54" y2="463.84"/>
          <line class="st15" x1="333.54" y1="466.82" x2="333.54" y2="489.17"/>
          <line class="st14" x1="333.54" y1="490.67" x2="333.54" y2="492.14"/>
        </g>
      </g>
    </g>
  </g>
</svg>