<?xml version="1.0" encoding="UTF-8"?>
<svg xmlns="http://www.w3.org/2000/svg" version="1.1" xmlns:xlink="http://www.w3.org/1999/xlink" viewBox="0 0 666 666">
  <!-- Generator: Adobe Illustrator 29.8.1, SVG Export Plug-In . SVG Version: 2.1.1 Build 2)  -->
  <defs>
    <style>
      .st0, .st1 {
        fill: #2a1a09;
      }

      .st2 {
        fill: #eac57d;
      }

      .st3 {
        fill: #9b6d2c;
      }

      .st4 {
        fill: url(#linear-gradient1);
      }

      .st4, .st5, .st6, .st7, .st8 {
        isolation: isolate;
      }

      .st4, .st5, .st7, .st8 {
        opacity: .58;
      }

      .st9 {
        mask: url(#mask-1);
      }

      .st5 {
        fill: url(#linear-gradient);
      }

      .st10 {
        fill: #fff;
      }

      .st11 {
        mask: url(#mask);
      }

      .st12 {
        fill: #e6e8f4;
      }

      .st13 {
        mask: url(#mask-2);
      }

      .st1 {
        opacity: .55;
      }

      .st14 {
        fill: #2b1907;
      }

      .st15 {
        fill: #966a2a;
      }

      .st16 {
        fill: #b2853d;
      }

      .st17 {
        fill: #d3a759;
      }

      .st18 {
        fill: #e8be6b;
      }

      .st19 {
        mix-blend-mode: multiply;
      }

      .st7 {
        fill: url(#linear-gradient2);
      }

      .st20 {
        fill: #cca662;
      }

      .st21 {
        fill: #515151;
      }

      .st22 {
        fill: #e8daca;
      }

      .st23 {
        fill: #b73232;
      }

      .st8 {
        fill: url(#linear-gradient3);
      }

      .st24 {
        mask: url(#mask-4);
      }

      .st25 {
        mask: url(#mask-3);
      }
    </style>
    <mask id="mask" x="213.28" y="331.23" width="96.87" height="114.11" maskUnits="userSpaceOnUse">
      <g id="mask0_1431_23048">
        <path class="st10" d="M309.41,382.78c-2.8-26.34-20.54-46.81-42-50.82v-.09c-3.8-.67-7.7-.83-11.66-.41-26.56,2.82-45.4,30.37-42.09,61.54,3.24,30.42,15.22,56.71,51.39,51.73v-.07c.75-.11,1.49-.21,2.26-.34,38.5-6.73,45.4-30.37,42.09-61.54h0Z"/>
      </g>
    </mask>
    <linearGradient id="linear-gradient" x1="492.55" y1="231.13" x2="498.91" y2="282.98" gradientTransform="translate(0 668) scale(1 -1)" gradientUnits="userSpaceOnUse">
      <stop offset="0" stop-color="#44caff"/>
      <stop offset=".38" stop-color="#44caff" stop-opacity=".58"/>
      <stop offset=".68" stop-color="#44caff" stop-opacity=".27"/>
      <stop offset=".89" stop-color="#44caff" stop-opacity=".07"/>
      <stop offset="1" stop-color="#44caff" stop-opacity="0"/>
    </linearGradient>
    <linearGradient id="linear-gradient1" x1="485.03" y1="334.08" x2="475.01" y2="385.36" gradientTransform="translate(0 668) scale(1 -1)" gradientUnits="userSpaceOnUse">
      <stop offset="0" stop-color="#44caff"/>
      <stop offset=".38" stop-color="#44caff" stop-opacity=".58"/>
      <stop offset=".68" stop-color="#44caff" stop-opacity=".27"/>
      <stop offset=".89" stop-color="#44caff" stop-opacity=".07"/>
      <stop offset="1" stop-color="#44caff" stop-opacity="0"/>
    </linearGradient>
    <linearGradient id="linear-gradient2" x1="168.4" y1="290.82" x2="174.76" y2="342.68" gradientTransform="translate(0 668) scale(1 -1)" gradientUnits="userSpaceOnUse">
      <stop offset="0" stop-color="#44caff"/>
      <stop offset=".38" stop-color="#44caff" stop-opacity=".58"/>
      <stop offset=".68" stop-color="#44caff" stop-opacity=".27"/>
      <stop offset=".89" stop-color="#44caff" stop-opacity=".07"/>
      <stop offset="1" stop-color="#44caff" stop-opacity="0"/>
    </linearGradient>
    <linearGradient id="linear-gradient3" x1="201.32" y1="202.32" x2="186.85" y2="252.52" gradientTransform="translate(0 668) scale(1 -1)" gradientUnits="userSpaceOnUse">
      <stop offset="0" stop-color="#44caff"/>
      <stop offset=".38" stop-color="#44caff" stop-opacity=".58"/>
      <stop offset=".68" stop-color="#44caff" stop-opacity=".27"/>
      <stop offset=".89" stop-color="#44caff" stop-opacity=".07"/>
      <stop offset="1" stop-color="#44caff" stop-opacity="0"/>
    </linearGradient>
    <mask id="mask-1" x="112.28" y="211.15" width="441.44" height="91.07" maskUnits="userSpaceOnUse">
      <g id="mask1_1431_23048">
        <path class="st10" d="M531.2,298.65H134.79c-8.52,0-15.19-7.31-14.42-15.8l5.06-54.99c.69-7.48,6.98-13.18,14.49-13.14l389.88,2.12c7.81.04,14.18,6.27,14.4,14.06l1.47,52.87c.23,8.15-6.32,14.87-14.48,14.87Z"/>
      </g>
    </mask>
    <mask id="mask-2" x="546.1" y="408.08" width="35.97" height="24.12" maskUnits="userSpaceOnUse">
      <g id="mask2_1431_23048">
        <path class="st10" d="M575.53,408.7h-21.94c-1.84,0-3.32,1.49-3.32,3.32v16.25c0,1.83,1.49,3.32,3.32,3.32h21.94c1.84,0,3.32-1.49,3.32-3.32v-16.25c0-1.83-1.49-3.32-3.32-3.32Z"/>
      </g>
    </mask>
    <mask id="mask-3" x="82.93" y="408.08" width="35.97" height="24.12" maskUnits="userSpaceOnUse">
      <g id="mask3_1431_23048">
        <path class="st10" d="M112.37,408.7h-21.94c-1.84,0-3.32,1.49-3.32,3.32v16.25c0,1.83,1.49,3.32,3.32,3.32h21.94c1.84,0,3.32-1.49,3.32-3.32v-16.25c0-1.83-1.49-3.32-3.32-3.32Z"/>
      </g>
    </mask>
    <mask id="mask-4" x="208.03" y="204.9" width="248.72" height="305.63" maskUnits="userSpaceOnUse">
      <g id="mask4_1431_23048">
        <path class="st10" d="M337.61,341.87h20.29c5.25,5.76,12.82,9.38,21.24,9.38h48.87c15.87,0,28.74-12.87,28.74-28.73v-.3h-106.35v.3c0,2.91.43,5.72,1.25,8.37h-37.28c.81-2.65,1.25-5.47,1.25-8.37v-.3h-106.35v.3c0,15.86,12.87,28.73,28.74,28.73h48.87c8.42,0,15.99-3.62,21.24-9.38h23.64v101.56h-19.48c1.35-3.32,2.08-6.95,2.08-10.75v-.29h-106.35v.29c0,15.86,12.87,28.73,28.74,28.73h48.87c9.91,0,18.65-5.01,23.82-12.65v5.12h49.06c5.11,4.68,11.92,7.53,19.39,7.53h48.87c15.87,0,28.74-12.87,28.74-28.73v-.29h-106.35v.29c0,3.8.75,7.43,2.08,10.75h-13.62v-101.56h-.03Z"/>
      </g>
    </mask>
  </defs>
  <g class="st6">
    <g id="Layer_1">
      <g>
        <path class="st1" d="M329,631.36c76.97,0,139.36-12.09,139.36-27s-62.4-27-139.36-27-139.36,12.09-139.36,27,62.4,27,139.36,27Z"/>
        <path class="st0" d="M303.8,485.55l-34.56,96.52h-.02l-1.78,4.97-13.96,1.47c-4.51.47-7.94,4.28-7.94,8.82v6.34h35.98l6.35-17.73,33.67-94.03-17.74-6.35h0Z"/>
        <path class="st0" d="M350.63,485.55l34.56,96.52h.02l1.78,4.97,13.96,1.47c4.51.47,7.94,4.28,7.94,8.82v6.34h-35.98l-6.35-17.73-33.67-94.03,17.74-6.35h0Z"/>
        <path class="st0" d="M555.16,449.52v-46.75h18.85v58.95c0,3.67-2.97,6.63-6.64,6.63h-76.98l14.81-18.84v-.02l49.96.02Z"/>
        <path class="st0" d="M110.84,449.52v-46.75h-18.85v58.95c0,3.67,2.97,6.63,6.64,6.63h76.98l-14.81-18.84v-.02l-49.96.02Z"/>
        <path class="st15" d="M522,309.28l-376.74,3.66c-.09,0-.17-.06-.19-.15l-12.74-58.86c-.43-1.99,1.1-3.85,3.13-3.81l191.33,3.06s.08,0,.11-.03l177.73-116.21,17.56,172.15c0,.11-.08.21-.19.21h0Z"/>
        <path class="st2" d="M526.5,323.14l-7.75-104.56c-4.02-54.32-31.8-101.71-72.91-132.68-7.5-5.65-15.44-10.75-23.77-15.25-1.46.18-2.53.29-3.98.47-8.33,7.06-20.46,8.68-30.62,3.14-1.51-.82-2.89-1.76-4.17-2.81-1.15-.94-2.76-1.1-4.02-.3-11.62,7.31-19.68,20.34-19.24,35.95l2,71.92c.54,13.55-10.31,24.84-23.88,24.84h-7.83c-13.57,0-24.42-11.28-23.88-24.84v-.16c.05-1.57-.96-2.94-2.46-3.45-3.16-1.07-6.22-2.76-9.01-5.14-9.81-8.37-12.08-22.66-5.9-33.99,4.15-7.6,8.83-16.17,8.83-16.17,2.21-4.06,5.32-7.32,8.93-9.69.96-.63,1.55-1.68,1.58-2.83l.09-3.11c.85-30.71-31.09-51.34-58.81-38.08-13.22,6.32-25.58,14.12-36.86,23.21-1.02.82-1.48,2.14-1.22,3.43,1.18,6.01.34,12.43-2.81,18.22l-9.04,16.56c-5.74,10.53-17.44,15.73-28.63,13.73-1.49-.27-3.01.38-3.75,1.71-5.12,9.13-9.49,18.73-13,28.75-5.16,14.73-8.49,30.34-9.7,46.56l-7.75,104.56c-2.44,32.96,4.1,64.4,17.5,92.12,26.44,54.66,79.61,94.82,143.44,103.51,7.05.96,13.32-4.54,13.32-11.66v-4.63c0-7.47,6.06-13.53,13.53-13.53h13.91c7.47,0,13.53,6.05,13.53,13.53v4.63c0,7.12,6.27,12.62,13.32,11.66,63.84-8.69,117.01-48.85,143.44-103.51,13.4-27.72,19.94-59.16,17.5-92.12h.03Z"/>
        <path class="st16" d="M536.61,344.98l-6.01-123.86c-1.5-30.78-10.7-59.44-25.69-84.15-.06-.1-.21-.12-.3-.04.02-.04-.11.59-.28.89-9.87,16.84-57.61,52.68-57.61,52.68-.8.64-1.86.87-2.85.62l-86.76-22.31c-1.26-.32-2.61.1-3.45,1.08l-46.87,54.52c-.77.89-1.93,1.33-3.09,1.16l-47.77-6.77c-3.25-.46-6.22-2.05-8.39-4.5,0,0-.02-.02-.03-.03l-26.01-17.88c-1.38-.94-3.27-.43-3.99,1.08l-26.15,55.37c-.69,2.02-3.11,2.83-4.88,1.65l-17.57-11.71c-1.29-.85-2.98-.75-4.15.27l-23.37,20.32c-.07.06-.18.06-.25,0l-4.83-3.97c-.74-.61-1.3-1.41-1.62-2.31l-.45-1.26c-.51-1.45-.38-3.04.36-4.37l.61-1.08c.07-.13-.02-.27-.16-.28-1.99-.03-3.64,1.51-3.74,3.5l-4.43,91.37c-4.97,102.3,76.67,187.95,179.13,187.95h51.46c102.45,0,184.09-85.65,179.13-187.94v.02Z"/>
        <path class="st15" d="M533.77,347.05l-6.01-123.86c-1.49-30.78-22.95-83.49-23.03-83.49-.15,0-.74-.03-1.25,0-.4.03-.25-2.66-.51-2.53l-75.62,52.5-73.09-18.79c-1.26-.32-2.61.1-3.45,1.08l-47.32,54.98c-.77.89-1.93,1.33-3.09,1.16l-46.12-6.19c-3.24-.46-7.4-3.1-9.58-5.54,0,0-.02-.02-.03-.03l-24.32-16.71.29-.81-2.84-.75c-1.22-.3-2.56.25-3.14,1.47l-25.59,54.17-10.24-.17-11.86-7.46.28-1.04s-2-.2-2.59-.22c-.77-.02-1.53.29-2.14.83l-8.56,7.47-18.92-3.03c-2.03-.03-2.8,4.7-2.37,6.68l1.07,4.93-.28-.26c-.74-.61-1.3-1.41-1.62-2.31l-.45-1.26c-.51-1.44.54,88.07.54,88.07-4.97,102.3,116.83,151.86,171.04,177.65l13.23,1.02,29.27-1.02h8.97c102.45,0,184.29-74.28,179.33-176.57h-.03Z"/>
        <path class="st18" d="M526.65,323.27l-7.75-104.56c-2.08-28.17-10.57-54.47-23.98-77.59-.77-1.33-.46-2.97.69-3.97.38-.33.73-.72,1.02-1.13,4.42-6.17-2.66-18.78-15.8-28.17-5.38-3.84-10.93-6.55-15.93-7.97-1.16-.33-1.93-1.41-1.87-2.61.3-5.7-3.38-12.44-9.94-17.13-6.32-4.51-13.58-5.88-18.85-4.07-1.22.42-2.57.2-3.67-.47-2.14-1.31-4.33-2.58-6.53-3.8-.28-.16-.58-.29-.87-.39-3.46-1.18-3.89-.86-5.98.7-8.27,6.35-19.83,7.62-29.58,2.3-.75-.4-1.47-.85-2.16-1.31-2.82-1.9-6.56-1.63-9.25.44-6.77,5.2-11.96,12.49-14.44,21.12-.77,2.66-2.17,5.13-4.14,7.08-3.59,3.55-5.98,9.83-5.98,16.98,0,5.92,1.63,11.23,4.23,14.91,1.61,2.28,2,5.24.82,7.76-1.65,3.53-2.62,7.87-2.62,12.57,0,8.59,3.25,16,7.95,19.43l.16,5.78c.54,13.55-10.31,24.84-23.88,24.84h-7.83c-13.57,0-24.42-11.28-23.88-24.84v-.13c.05-1.53-.88-2.95-2.34-3.43-2.63-.87-7.2-3.85-8.98-5.15-.34-.25-.33-.76.02-.98,5.02-3.22,8.31-14.84,7.67-28.5-.34-7.32-1.76-13.95-3.82-18.95-.56-1.36-.46-2.92.37-4.13,1.53-2.24,3.36-4.2,5.41-5.83,2.27-1.81,3.64-4.51,3.72-7.42.85-30.71-31.1-51.33-58.82-38.08-13.22,6.32-25.58,14.12-36.85,23.21-1.02.82-1.47,2.14-1.22,3.42.04.2.07.38.11.58.31,1.84-.98,3.67-2.78,4.16-4.53,1.24-9.42,5.3-12.81,11.18-5.23,9.06-2.79,16.78.62,22.24.62.99-14.71,11.36-24.58,10.5-2.28-.2-4.45.98-5.56,2.99-4.79,8.71-8.89,17.84-12.21,27.33-5.16,14.73-8.49,30.34-9.7,46.56l-7.75,104.56c-2.44,32.96,4.1,64.4,17.5,92.12,26.44,54.66,79.61,94.82,143.44,103.51,7.05.96,13.32-4.54,13.32-11.66v-4.63c0-7.47,6.06-13.52,13.53-13.52h13.91c7.47,0,13.53,6.05,13.53,13.52v4.63c0,7.12,6.27,12.62,13.32,11.66,63.84-8.69,117.01-48.85,143.44-103.51,13.4-27.72,19.94-59.16,17.5-92.12l.05-.02Z"/>
        <path class="st17" d="M439.71,114.27c11.44-5.13,26.33-2.56,31.58,9.91,2.5,5.68,2.59,11.72,2.47,17.69,0,3.91-.27,7.81-.76,11.7-.16,1.66-.64,3.43-.88,5.09-.13.43-.88,3.09-1.01,3.59-2.13,6.31-6.34,12.34-12.76,14.81-.53.21-.98.37-1.68.53v-3.67c8.77,1.66,17.74,7.09,19.8,16.35,1.67,10.29-1.48,21.01-7.26,29.47l-.33-.21c3.64-8.91,5.72-18.89,3.76-28.34-.12-.45-.59-1.66-.74-2.13-.66-1.33-1.46-2.68-2.46-3.76-2.7-3.17-6.51-5.35-10.42-6.8-2.11-.87-9.51-2.36-11.8-2.94.64-.16,9.63-1.7,9.87-1.96,17.38-6.97,18.32-33.32,11.11-47.98-5.15-11.04-17.32-12.97-28.36-10.99l-.13-.37v.02Z"/>
        <path class="st17" d="M274.32,100.17c-9.79-3.37-17.98,3.81-22.13,12.01-2.57,4.64-4.26,9.73-5.94,14.75-1.94,6.23-3.71,12.79-4.82,19.22-1.18,7.03-1.99,14.41.03,21.35,2.3,9.16,10.65,15.26,20.01,14.81l7.41-.49-6.35,4c-6.39,4.16-12.44,10.38-14.24,17.98-.66,2.55-.42,5.21-.43,7.82.37,7.94,1.85,16.56,8.21,21.86,2.06,1.73,4.64,2.91,7.32,3.27v.39c-2.9.15-5.77-.79-8.28-2.33-8.95-5.76-10.93-17.39-11.28-27.28-.12-10.92,7.89-19.75,16.84-24.99l1.05,3.51c-7.9.2-15.88-3.89-19.51-11.01-4.69-9-3.24-19.42-2.25-29.09,1.31-12.17,2.82-24.51,9.29-35.43,2.58-4.36,6-8.4,10.57-10.79,4.59-2.42,10.36-2.48,14.65.09l-.19.34h.02Z"/>
        <path class="st17" d="M382.59,268.4c17.74,2.96,28.58-3.55,31.77-21.57,2.19-12.5.29-28.12-11.03-35.68-1.38-.89-3.01-1.7-4.58-2.04l-8.78-1.64c2.34-.6,9.66-2.05,11.8-2.94,5.31-1.96,10.43-5.34,12.88-10.58,3.36-8.97.63-21.75-3.02-30.46l.33-.21c5.77,8.45,8.92,19.19,7.26,29.47-2.08,9.26-11.03,14.68-19.8,16.34v-3.67c1.23.29,2.09.69,3.17,1.19,5.65,2.8,9.29,8.34,11.28,14.15.15.51.88,3.14,1.01,3.59.25,1.66.73,3.43.88,5.09.49,3.88.76,7.78.76,11.7.16,6.92-.07,14.31-3.93,20.43-4.85,8.32-15.52,11.12-24.47,8.96-1.95-.41-3.84-.99-5.64-1.81l.13-.37v.03Z"/>
        <path class="st20" d="M493.22,184.17c5.43,11.55,13.69,31.38,11.23,44.13-.22,1.11-.72,2.36-1.25,3.37-2.84,5.09-5.75,10.14-8.67,15.19l-1.67-3.32c4.45.35,9.12,3.73,8.98,8.57-.05,4.1-2.24,7.61-4.31,10.75-1.38,2.01-2.82,3.82-4.47,5.67l-1.81-4.09c.46,0,.73.02,1.07.05,17.25,1.98,22.37,20.09,21.51,34.9-.29,7.98-1.59,16.32-6.81,22.76-9.24,11.24-25.98,9.17-37.87,3.95,16.97,4.99,36.53,3.59,39.65-17.35,1.14-8.12,1.13-17.09-1.29-24.96-2.16-7.54-8.15-14.02-16.17-14.51l-5.37-.21c3.84-4.28,18.62-18.98,6.47-21.17l-3.39-.51c3.6-5.89,7.25-11.81,10.92-17.64l.38-.72c.14-.24.21-.53.32-.8,3.41-11.22-3.84-32.75-7.45-44.09h0Z"/>
        <path class="st17" d="M190.45,329.52c-5.73-10.95-15.33-34.49-10.04-46.33l.58-1.05c3.21-4.87,6.58-9.65,9.66-14.61l.5.99c-1.25-.2-2.38-.54-3.48-1.09-9.06-4.84-.21-16.19,3.97-21.57l.75,2.14c-3.67-.44-7.17-1.27-10.62-2.52-17.98-6.41-22.53-20.59-11.49-36.14,2.05-3.01,4.6-5.97,7.56-8.11,6.24-4.84,14.89-4.63,20.51.94l-.27.29c-6.9-4.54-14.04-3.37-19.77,2.37-6.57,7.47-13.76,19.56-7.23,28.96,5.64,7.35,15.32,10.27,24.03,12.2-2.1,2.06-4.26,4.27-6.03,6.66-1.92,2.63-3.93,5.51-4.1,8.82-.18,3.86,3.96,5.75,7.29,5.86-3.17,5.61-6.21,11.33-9.08,17.1-1.44,4.27-.81,8.87-.29,13.33.76,5.3,2.04,10.58,3.4,15.84,1.4,5.26,2.95,10.51,4.51,15.77l-.36.16v-.02Z"/>
        <path class="st15" d="M533.66,344.24l-6.01-123.86c-1.5-30.78-22.96-83.46-23.03-83.49-.04,0-.31-.06-.67-.06-.37.04-.72.03-.98.33-5.89,10.18-54.18,50.3-58.11,52.09-2.16.98-3.79,1.16-3.79,1.16l-86.93-22.35c-1.26-.32-2.61.1-3.45,1.08l-47.32,54.98c-.77.89-1.93,1.33-3.09,1.16l-46.12-6.19c-3.25-.46-7.42-3.11-9.6-5.56l-24.34-16.72.29-.81-2.84-.75c-1.22-.3-2.56.25-3.14,1.46l-26.66,55.16c-.47.97-2.09,2.26-3.12,1.92l-3.59-1.53-14.31-9,.61-1.03s-1.5-.37-2.09-.38c-.77-.02-1.53.29-2.14.83l-9.39,7.64-12.95,11.18c-.32.27-.81.28-1.12,0-1.32-1.18-3.96-3.35-4.59-4.86-1.25-3.02-.06-6.44-.06-6.44-2.03-.03-3.01,1.8-2.58,3.77l1.07,4.93-.28-.26c-.74-.61-1.3-1.41-1.62-2.31l-.45-1.26c-.51-1.45.54,88.07.54,88.07-4.97,102.3,68.76,189.02,171.23,189.02h51.46c102.45,0,184.09-85.65,179.13-187.94Z"/>
        <path class="st16" d="M536.61,344.98l-6.01-123.86c-1.5-30.78-10.7-59.44-25.69-84.15-.04-.04-.25-.07-.3-.07-.02.02-.11.61-.28.92-9.87,16.84-57.61,52.68-57.61,52.68-.8.64-1.86.87-2.85.62l-86.76-22.31c-1.26-.32-2.61.1-3.45,1.08l-46.87,54.52c-.77.89-1.93,1.33-3.09,1.16l-47.77-6.77c-3.25-.46-6.22-2.05-8.39-4.5,0,0-.02-.02-.03-.03l-26.01-17.88c-1.38-.94-3.27-.43-3.99,1.08l-26.15,55.37c-.69,2.02-3.11,2.83-4.88,1.65l-17.57-11.71c-1.29-.85-2.98-.75-4.15.27l-23.37,20.32c-.07.06-.18.06-.25,0l-4.83-3.97c-.74-.61-1.3-1.41-1.62-2.31l-.45-1.26c-.51-1.45-.38-3.04.36-4.37l.61-1.08c.07-.13-.02-.27-.16-.28-1.99-.03-3.64,1.51-3.74,3.5l-4.43,91.37c-4.97,102.3,76.67,187.95,179.13,187.95h51.46c102.45,0,184.09-85.65,179.13-187.94v.02Z"/>
        <path class="st3" d="M496.42,206.61c4.17,13.02,5.38,27.05,3.12,40.55-1.1,7.84-2.44,16.29-4.02,23.98l-3.65-1.01c.45-.89.71-1.37,1.69-1.96,4.58-1.8,5.27,6.22,5.85,9.04,1.01,6.94,1.48,13.93,1.3,20.93-.09,3.51-.33,6.96-.98,10.49l-1.48-.69c.8-1,1.74-1.8,3.13-1.83,5.62.3,6.49,15.27,7.07,19.62.53,7.18,1.21,18.54-3.6,24.41-4.71,3.19-9.53,7.19-11.97,12.46-.36.67-.6,1.52-.86,2.24l-.25,1.14c-.04.19-.1.38-.12.57-.03.53-.1,1.18-.13,1.73.29,9.06,3.15,17.92,6.16,26.45,3,8.3,2.88,18.05-1.17,25.95-1.57,3.4-3.25,6.83-4.67,10.24l-.48-.11c1.48-7.27,5.33-14,5.05-21.52-.09-4-.81-8.03-2.18-11.77-.57-1.28-1.16-2.55-1.65-3.84-2.16-5.38-4.03-10.78-5.25-16.5-2.07-9.41-1.49-15.9,5.25-23.21,2.81-3.01,5.83-5.41,9.41-7.5l-.3.21s-.1.08-.1.08c.94-1.14,1.41-2.61,1.85-4.08,1.48-5.42,1.58-11.14,1.62-16.82-.12-3.69,0-16.77-3.73-18.01-.5-.07-1.28.45-1.76,1.03l-2.35,2.86.88-3.55c1.45-6.64,1.37-13.66.51-20.39-.84-5.34-1.71-10.93-3.95-15.82-.16-.3-.36-.58-.46-.67-.03-.03-.07-.02.15.11.2.13.74.11.93-.02.21-.11.2-.15.19-.1,0,.02-.08.18-.06.16l-3.65-1.01c.62-5.36,1.36-10.69,2.22-16.01.71-4.39,2.06-11.44,2.61-15.83,1.19-10.56.7-21.33-.66-31.91l.47-.12.02.02Z"/>
        <path class="st3" d="M253.22,234.81c-1.52,10.59-2.09,21.32-.84,31.93,1.58,10.61,3.76,21.17,5.31,31.79l-4.21,1.17c.03.06-.05-.09-.05-.08.33.45,1.37.5,1.79.12.03-.02.04-.03.03-.03-.05.04-.22.3-.35.6-1.99,4.9-2.72,10.46-3.56,15.71-1.15,8.09-1.22,16.54.65,24.52l-2.52-3.44c-.42-.58-1.16-1.13-1.65-1.1-3.9.9-4.41,14.34-4.63,17.96-.12,3.87-.1,7.75.4,11.56.5,3.39,1.07,6.93,3.03,9.77.09.12.3.32.25.27l-.18-.12c7.66,4.41,15.44,11.53,15.71,20.97-.07,8.78-2.68,17.31-5.57,25.5-2.08,4.87-3.3,10.18-3.09,15.48.08,3.5.94,6.85,2.26,10.06,1.02,2.69,2.81,7.35,3.69,10.08l.12.38.06.21.09.33-1.24,2.69s.1-.06.07-.04c-.56.37-.31,1.03-.03,1.66,1.75,2.85,3.7,6.2,3.69,9.74-1.08,2.81-2.01,5.79-2.73,8.76-.66,2.84-1.21,5.74-1.2,8.52.05,1.85.24,3.55,1.3,4.92,2.63,3.01,6.25,5.48,10.24,6.04l-.24.84c-.52,2.23-1.35,5.03.45,6.88.53.62,1.2,1.18,1.9,1.61l-.22.44c-.83-.38-1.57-.86-2.26-1.47-1.58-1.21-1.9-3.3-1.78-5.15.03-.91.13-1.78.28-2.7l.76,1.03c-4.59-.47-8.55-2.9-11.62-6.15-4.39-6.2-1.03-17.92.91-24.69l-.13.78c-.15-.94-.43-1.83-.83-2.71-1.41-3.2-4.98-6.23-3.13-10.19.5-1.05,1.24-1.89,2.24-2.48l-1.24,2.69c-.2-.55-.62-1.79-.84-2.34-.57-1.58-2.45-6.15-3.1-7.8-3.7-8.12-3.5-17.79-.36-26.03,3.21-7.8,6.1-15.91,7.1-24.3.37-2.7.18-5.47-.82-8.02-2.33-5.49-6.89-9.9-11.8-13.19-.42-.26-.7-.71-.88-.94-2.08-3.31-2.56-7.37-2.87-11.16-.25-3.97-.2-7.91.05-11.83.45-4.41.65-19.22,6.17-19.67,1.41,0,2.39.77,3.24,1.76l-1.71.8c-2.26-10.42-2.01-21.14-.21-31.59.43-2.21.87-4.57,1.86-6.74.48-.89,1.01-2.05,2.31-2.59,1.85-.79,3.7.58,4.3,2.26l-4.21,1.17c-1.3-8-2.46-16.02-3.57-24.05-1.31-8.07-1.44-16.5-.39-24.57.7-5.42,1.72-10.76,3.35-15.96l.48.12h-.03Z"/>
        <path class="st3" d="M457.6,206.62c5.09,10.2,8.98,21.12,10.47,32.45.64,6.06,1.65,12.15.69,18.24-.35,2.03-1.97,5.16-2.78,7.08-1.14,2.6-2.35,5.17-3.59,7.73l-1.25-1.96c7.8.74,4.66,19.07,2.93,24.09l-.25-.46c-2.76,2.1.09,5.55,1.19,7.85,1.59,3.42,2.02,7.27,1.45,10.95l-.29-.03c-.23-3.91-1.31-7.88-3.62-11.04-.21-.26-.61-.82-.8-1.1-2.09-2.61-2.6-6.98.56-9.11l-.63.82c.39-1.66.69-3.52.88-5.32.18-3.27,1.61-12.08-1.37-13.95,0,0-.12-.02.04-.02l-1.25-1.96c1.95-3.61,4.26-7.53,6.36-11.09.72-1.16,1.2-2.43,1.47-3.76,1.55-8.38-1.59-16.76-3.81-24.75-2.16-7.92-4.67-16.6-6.7-24.56l.27-.11h0Z"/>
        <path class="st3" d="M453.29,267.4c.41,3.67-.15,7.43-1.75,10.79-.29.74-.97,1.69-1.37,2.4-1.2,1.8-1.79,4.67.24,6.02l.32.2c.62,2.02,1.01,4.01,1.31,6.03.44,4.39,2.35,16.11-4.08,16.96l1.21-1.91c1.33,2.51,2.6,5.04,3.89,7.57.98,2.03,2.64,4.86,3.08,7.08,1.1,6.2-.19,12.35-1.47,18.34-2.63,11.11-6.05,21.92-9.76,32.69v-.47c1.79,5.07,3.38,10.18,4.76,15.38,2.22,9.13,4.26,18.76,2.67,28.2l-.55,3.97c-.72,5.3-1.53,10.58-2.33,15.86l-1.12-1.76c2.87.96,5.58,2.99,6.24,6.07.45,2.83,0,5.94-2.17,7.95-.21.16-.3.26-.71.47l.5-.39c-1.03,1.28-2.03,2.76-2.67,4.22-.39.99-.79,1.95-.47,2.84.51.82,1.54,1.07,2.6,1.44,1.32.36,2.97,1.12,3.31,2.7.05.29.11.62.12.9l-.04.82c-.47,3.04-1.97,5.76-3.2,8.48-2.31,4.89-4.77,9.72-7.43,14.43l-.27-.14c2.1-4.7,4.3-10.11,6.24-14.92.94-2.45,2.06-4.89,2.48-7.44.15-.8.08-1.56-.16-1.83-.19-.27-.85-.54-1.73-.77-1.43-.39-3.39-.98-4.18-2.58-.82-1.61-.3-3.54.28-4.98.78-1.85,1.76-3.4,2.93-4.96l.5-.39c1.12-1.02,1.48-3.68,1.15-5.19-.54-2.39-3.32-3.58-5.49-4.12.86-5.73,1.68-11.46,2.61-17.17l.63-3.95c1.68-9.08-.1-18.28-1.89-27.27-1.08-5.19-2.36-10.37-3.9-15.44l-.08-.26.09-.22c4.93-11.98,14.29-39.73,9.55-51.76-2.03-3.93-4.37-8.27-6.33-12.22l1.21-1.91c-.15,0-.03,0-.02,0,3.73-1.87,1.76-15.79.91-19.45l.43.56c-.56-.39-.88-.76-1.22-1.23-1.95-2.71-.29-6.12,1.51-8.38,1.28-1.78,2.12-3.8,2.65-5.95.41-1.72.66-3.51.66-5.29l.29-.03h0Z"/>
        <path class="st3" d="M168.89,305.75c.06,3.49.87,7.12,2.66,10.11.94,1.62,2.28,2.96,2.82,4.83.72,2.08.09,4.66-1.83,5.98l.46-.61c-.83,3.57-2.83,17.49.84,19.41,0,0,.12,0-.03,0l1.22,1.92c-1.31,2.52-2.66,5.01-4.03,7.5-.7,1.29-2.44,4.2-2.92,5.49-1.87,5.95-.85,12.5.23,18.57,2.15,11.1,6.16,21.8,10.36,32.25l.11.27-.05.34c-.43,3.11-.69,6.28-.79,9.42-.09,3.12-.04,6.31.72,9.1.86,2.75,2.71,5.52,4.35,8,1.81,2.71,3.8,5.38,5.83,7.92,2.08,9.32,4.02,18.75,6.8,27.87l.51,1.44c.2.42.34.87.62,1.23.67,1.1,2.18,2.02,3.31,2.77,4.05,2.36,8.47,4.08,12.93,5.66l-.08.28c-4.16-.94-8.25-2.1-12.17-3.84-2.24-1.12-4.74-2.18-6.07-4.51-.91-1.66-1.57-3.55-2.17-5.32-2.7-8.08-4.72-16.29-6.68-24.55l.31.66c-2.06-2.56-3.95-5.16-5.76-7.87-1.79-2.9-3.54-5.56-4.53-8.95-.83-3.44-.75-6.73-.59-10,.21-3.26.62-6.46,1.2-9.68l.06.61c-3.73-10.78-6.73-21.75-9.13-32.9-1.12-6.33-2.72-12.92-1.13-19.34.46-1.6,2-4.45,2.66-5.97,1.22-2.57,2.47-5.11,3.76-7.64l1.22,1.91c-7.42-.7-4.3-17.81-2.96-22.66l.12-.4.34-.21c2.01-1.31,1.38-4.14.23-5.91-2.6-3.85-3.63-8.65-3.06-13.22l.29.03Z"/>
        <path class="st3" d="M160.24,271.06c-2.8,11.96-6.79,24.17-6.72,36.48,0,1.58.39,3.44.76,5.01,1,4.74,1.81,9.47,2.4,14.34l.05.44c-2.62,2.18-5.09,5-6.2,8.28-1.14,3.01.31,6.75.85,9.92l-.18-.38c5.28,6.61,10.09,13.94,10.64,22.73.14,4.28-.23,8.42-.76,12.56-.56,4.15-1.34,8.19-2.43,12.26l-1.16,1.37c-.58.26-1.2,1.16-1.27,1.98-.15,1.11.22,2.4.62,3.49.94,2.56,2.43,5.09,4.27,7.08,2.46,2.18,5.9,5.65,6.24,9.75.24,2.12-1.33,3.7-2.22,5.44-.83,1.56-1.53,3.25-1.83,4.99h-.39c-.06-2.86.94-5.57,2.1-8.13,1.57-3.77-3.37-7.6-6.03-9.7-2.54-2.3-4.29-4.95-5.65-8.03-1.77-3.46-1.64-8.63,2.48-10.65l-1.16,1.37c1.73-7.71,3.45-15.79,3.56-23.68-.25-7.68-4.01-15.4-8.32-21.77l-.16-.22-.02-.17c-.23-2.18-.6-4.3-.85-6.47-.34-3.2,1.24-6.31,3.03-8.85,1.03-1.46,2.14-2.81,3.45-4.1l-.27.71c-.96-4.6-2.51-9.19-3.87-13.75-.8-2.37-1.28-5-1.25-7.5.17-7.41,2.09-14.55,4.41-21.52,1.56-4.58,3.34-9.07,5.51-13.4l.36.14h0Z"/>
        <path class="st3" d="M384.2,204.9c3.64,9.04,6.48,18.37,8.43,27.92.75,4.37,1.9,8.91.38,13.31-1.78,5.25-4.25,10.19-6.62,15.14l-.41-.99c3.16,1.47,7.08,4.01,6.7,7.99-.62,3.58-2.02,6.75-3.85,9.87l-.07-1.15c7.56,8.14,13.31,19.2,11.52,30.63-.87,7.43-6.05,15.32-14.57,14.06l1.36-3.66c4.08,2.78,9.48,6.61,9.04,12.25-.09,1.27-.26,2.46-.83,3.7-.54,1.21-1.37,1.92-2.04,2.82-1.13,1.71-3.12,2.72-4.73,3.58-2.66,1.29-5.4,2.34-8.22,3.19l-.15-.36c2.55-1.39,5.1-2.77,7.44-4.4,1.42-1.01,2.8-1.91,3.55-3.31.48-.87,1.32-1.78,1.56-2.6.33-.99.37-2.42.28-3.65-.87-3.5-4.89-5.92-7.9-7.79l-7.37-4.26,8.73.6c1.6.15,3.34-.31,4.68-1.23,3.08-2.07,4.42-6,5.11-9.64,1.93-10.3-3.2-21.2-9.36-29.3,2.08-2.76,3.94-6.07,4.56-9.5.35-3.34-3.3-5.41-6-6.45l-.71-.26.3-.74c2.13-5.46,3.86-11.03,5.17-16.68.34-3.37-.47-7.13-.95-10.54-.71-4.2-1.88-9.95-2.7-14.16-.93-4.74-1.9-9.47-2.71-14.27l.37-.11h0Z"/>
        <path class="st3" d="M295.48,276.03c-.6,2.77-.17,5.7.04,8.52.55,4.13.66,8.47,1.81,12.47.77,2.56,2.34,4.71,4.04,6.71,1.86,2.36,3.53,4.84,4.95,7.51,1.02,1.9,2.44,5.03,1.41,7.29-1.65,4.92-5.22,8.96-7.02,13.76-.59,2.04-1.17,4.62.2,6.38l.72.89c3.14,4.07,4.67,9.64,3.61,14.8-.06.37-.14,1.04-.04,1.16.86,1.78,2.56,3.59,3.63,5.53.69,1.15.79,2.8-.16,3.85l-.15.19-.23.26c-5.73,6.19-11.73,13.33-12.74,21.83-.47,5.56,1.23,11.13,3.6,16.18l-.4.28c-4.01-4.51-6.85-10.49-7.06-16.62-.29-9.68,6.75-19.61,12.93-25.11-.24.42-.39,1.04-.22,1.49,0,0-.03-.07-.05-.11-1.09-2.12-2.9-4.16-3.61-6.7-.3-1.52.06-2.73.39-4.12.77-3.87.15-7.88-1.76-11.45l-.52-.9c-.74-1.1-.92-2.64-.82-3.87.29-4.72,3.37-8.29,5.33-12.32.96-2.22,2.53-5.17,2.06-7.55-.95-2.25-3.07-4.6-4.7-6.6-.42-.45-3.06-3.69-3.44-4.12-2.4-2.77-3.96-6.26-4.4-9.9-.32-3.78-.25-7.44.05-11.23.31-2.98.55-6.1,2.14-8.75l.44.22-.03.02Z"/>
        <path class="st17" d="M420.79,79.44c3.78.86,6.84,4.9,5.57,8.81-1.28,3.55-4.15,6.01-6.68,8.63-1.75,1.64-3.55,3.25-5.78,4.42l-.46-1.61c2.98-.43,6.47-1.02,9.11.98,3.87,3.7.25,9.22-3.24,11.65l-.13-.15c1.1-1.36,2.07-2.83,2.73-4.36.83-1.91,1.02-3.87-.3-5.3-.72-.81-1.79-.89-2.9-1.09-2.91-.44-7.46.18-10.44.38,3.51-1.49,7.95-3.01,10.96-5.45,3.24-2.67,6.25-7.29,5.48-11.6-.49-2-2.1-3.74-3.99-5.14l.08-.18h0Z"/>
        <path class="st17" d="M225.18,139.72c-4.13-.86-11.3-2.49-14.36,1.1-2.62,4.47,2,9.1,6.08,10.61l9.05,3.75-9.73-1.37c-5.49-.63-12.41-.92-16.38,3.31-2.1,2.71-2.55,7.27-1.44,10.54,1.38,4.12,4.91,4.6,8.73,4,2.1-.18,4.14-.38,6.31-.49l5.9-.29c-5.78,2.79-12.3,5.7-16.93,10.21-1.59,1.6-3.02,3.59-2.1,5.79.31,1.1.87,2.12,1.68,2.95.81.82,1.89,1.42,3.08,1.56-3.77.02-7.02-4.49-5.76-8.07,1.42-3.54,4.59-5.92,7.48-8.14,1.99-1.42,4.02-2.7,6.19-3.89l.61,2.27-6.18.75c-3.38.68-7.53.46-9.92-2.52-3.75-4.65-3.38-11.86.13-16.51,4.85-5.28,12.59-4.87,19.05-3.94l-.69,2.39c-1.38-.61-2.53-1.34-3.66-2.22-3.51-2.56-5.85-7.9-2.85-11.76,3.86-4.13,11.2-1.74,15.71-.05h0Z"/>
        <path class="st21" d="M119.27,385.92h-35.74v13.82h35.74v-13.82Z"/>
        <path class="st21" d="M133.86,377.46h-9.87c-2.82,0-5.11,2.29-5.11,5.11v20.53c0,2.82,2.29,5.11,5.11,5.11h9.87c2.82,0,5.11-2.29,5.11-5.11v-20.53c0-2.82-2.29-5.11-5.11-5.11Z"/>
        <path class="st21" d="M78.82,377.46h-9.87c-2.82,0-5.11,2.29-5.11,5.11v20.53c0,2.82,2.29,5.11,5.11,5.11h9.87c2.82,0,5.11-2.29,5.11-5.11v-20.53c0-2.82-2.29-5.11-5.11-5.11Z"/>
        <path class="st21" d="M582.47,385.92h-35.74v13.82h35.74v-13.82Z"/>
        <path class="st21" d="M597.05,377.46h-9.87c-2.82,0-5.11,2.29-5.11,5.11v20.53c0,2.82,2.29,5.11,5.11,5.11h9.87c2.82,0,5.11-2.29,5.11-5.11v-20.53c0-2.82-2.29-5.11-5.11-5.11Z"/>
        <path class="st21" d="M542.02,377.46h-9.87c-2.82,0-5.11,2.29-5.11,5.11v20.53c0,2.82,2.29,5.11,5.11,5.11h9.87c2.82,0,5.11-2.29,5.11-5.11v-20.53c0-2.82-2.29-5.11-5.11-5.11Z"/>
        <path class="st0" d="M578.91,385.01c-.1-3.12-2.65-5.62-5.8-5.62h-17.03c-3.15,0-5.7,2.5-5.8,5.62v11.45c0,5.42,4.4,9.81,9.81,9.81h9.04c5.42,0,9.81-4.39,9.81-9.81v-11.45h-.03Z"/>
        <path class="st0" d="M87.09,385.01c.1-3.12,2.66-5.62,5.8-5.62h17.03c3.15,0,5.7,2.5,5.8,5.62v11.45c0,5.42-4.4,9.81-9.81,9.81h-9.04c-5.42,0-9.81-4.39-9.81-9.81v-11.45h.03Z"/>
        <path class="st10" d="M398.43,444.8c36.16,4.98,48.15-21.31,51.38-51.72,3.31-31.16-15.53-58.71-42.08-61.53-3.96-.42-7.87-.26-11.66.41"/>
        <path class="st14" d="M396.5,331.97c10.99,1.35,20.8,8.1,27.85,18.21,1.27,1.78,5.31,8.68,6.57,12.37,3.06,7.79,4.79,16.64,4.79,26.02,0,28.53-16,52.16-36.86,56.23-.88-.12-1.77-.25-2.69-.4-38.5-6.73-45.39-30.37-42.08-61.53,2.82-26.52,20.77-47.09,42.41-50.9h0Z"/>
        <path class="st10" d="M423.13,374.05c8.33,0,15.08-4.41,15.08-9.84s-6.75-9.84-15.08-9.84-15.07,4.4-15.07,9.84,6.75,9.84,15.07,9.84Z"/>
        <g class="st11">
          <g>
            <path class="st10" d="M265.06,444.72c-36.17,4.98-48.15-21.31-51.39-51.73-3.31-31.17,15.53-58.72,42.09-61.54,3.96-.42,7.87-.26,11.66.41"/>
            <path class="st14" d="M266.99,331.87c-10.99,1.35-20.8,8.1-27.86,18.21-1.27,1.78-5.31,8.68-6.57,12.38-3.06,7.79-4.79,16.64-4.79,26.02,0,28.54,16,52.16,36.86,56.24.88-.12,1.78-.25,2.69-.4,38.5-6.73,45.4-30.37,42.09-61.54-2.82-26.52-20.77-47.1-42.42-50.91h0Z"/>
            <path class="st10" d="M295.07,373.96c8.32,0,15.07-4.4,15.07-9.84s-6.75-9.84-15.07-9.84-15.07,4.41-15.07,9.84,6.75,9.84,15.07,9.84Z"/>
          </g>
        </g>
        <path class="st16" d="M428.01,351.24h-48.87c-15.86,0-28.74-12.88-28.74-28.73v-.3h106.35v.3c0,15.85-12.88,28.73-28.74,28.73h0Z"/>
        <path class="st16" d="M286.86,351.24h-48.87c-15.86,0-28.74-12.88-28.74-28.73v-.3h106.35v.3c0,15.85-12.88,28.73-28.74,28.73h0Z"/>
        <path class="st16" d="M426.74,461.4h-48.87c-15.86,0-28.74-12.88-28.74-28.73v-.29h106.35v.29c0,15.85-12.88,28.73-28.74,28.73h0Z"/>
        <path class="st16" d="M285.61,461.4h-48.87c-15.86,0-28.74-12.88-28.74-28.73v-.29h106.35v.29c0,15.85-12.88,28.73-28.74,28.73h0Z"/>
        <g class="st19">
          <path class="st22" d="M331.74,478.41c-6.77,0-12.39-3.08-13.43-7.11-.12.44-.19.89-.19,1.36,0,4.68,6.1,8.46,13.63,8.46s13.63-3.79,13.63-8.46c0-.46-.08-.91-.19-1.36-1.05,4.03-6.66,7.11-13.43,7.11h-.02Z"/>
        </g>
        <path class="st0" d="M331.74,469.24c5.51,0,9.98-4.47,9.98-9.98s-4.47-9.98-9.98-9.98-9.98,4.47-9.98,9.98,4.47,9.98,9.98,9.98Z"/>
        <path class="st5" d="M505.66,419.06l-6.63-34.9-14.83,32.16s0,.03-.02.04l-.03.06c-.78,1.63-1.33,3.46-1.56,5.42-.98,7.97,3.43,15.08,9.85,15.86,6.42.79,12.42-5.03,13.4-13.01.24-1.96.15-3.86-.21-5.63h.02Z"/>
        <path class="st4" d="M491.96,312.9l-17.13-31.13-4.12,35.17v.12c-.24,1.79-.19,3.7.2,5.63,1.54,7.88,7.95,13.27,14.29,12.03,6.35-1.24,10.25-8.64,8.7-16.52-.38-1.94-1.05-3.72-1.95-5.29h0Z"/>
        <path class="st7" d="M181.51,359.38l-6.63-34.9-14.83,32.16s0,.03-.02.04l-.03.06c-.78,1.63-1.33,3.46-1.56,5.42-.98,7.97,3.43,15.08,9.85,15.86,6.42.79,12.42-5.03,13.4-13.01.24-1.96.15-3.86-.21-5.63h.02Z"/>
        <path class="st8" d="M206.39,444.16l-19.79-29.52-1.02,35.39v.12c-.08,1.81.14,3.7.69,5.59,2.22,7.72,9.08,12.52,15.29,10.73,6.22-1.79,9.45-9.5,7.23-17.22-.55-1.9-1.38-3.61-2.4-5.1Z"/>
        <g class="st9">
          <g>
            <path class="st12" d="M553.72,211.15H112.28v91.07h441.44v-91.07Z"/>
            <path class="st23" d="M553.72,241.75H112.28v29.87h441.44v-29.87Z"/>
          </g>
        </g>
        <g class="st13">
          <g>
            <path class="st12" d="M581.06,408.08h-33.98v24.12h33.98v-24.12Z"/>
            <path class="st23" d="M582.07,415.75h-35.97v8.79h35.97v-8.79Z"/>
          </g>
        </g>
        <g class="st25">
          <g>
            <path class="st12" d="M117.91,408.08h-33.97v24.12h33.97v-24.12Z"/>
            <path class="st23" d="M118.9,415.75h-35.97v8.79h35.97v-8.79Z"/>
          </g>
        </g>
        <g class="st24">
          <g>
            <path class="st3" d="M253.22,234.81c-1.52,10.59-2.09,21.32-.84,31.93,1.58,10.61,3.76,21.17,5.31,31.79l-4.21,1.17c.03.06-.05-.09-.05-.08.33.45,1.37.5,1.79.12.03-.02.04-.03.03-.03-.05.04-.22.3-.35.6-1.99,4.9-2.72,10.46-3.56,15.71-1.15,8.09-1.22,16.54.65,24.52l-2.52-3.44c-.42-.58-1.16-1.13-1.65-1.1-3.9.9-4.41,14.34-4.63,17.96-.12,3.87-.1,7.75.4,11.56.5,3.39,1.07,6.93,3.03,9.77.09.12.3.32.25.27l-.18-.12c7.66,4.41,15.44,11.53,15.71,20.97-.07,8.78-2.68,17.31-5.57,25.5-2.08,4.87-3.3,10.18-3.09,15.48.08,3.5.94,6.85,2.26,10.06,1.02,2.69,2.81,7.35,3.69,10.08l.12.38.06.21.09.33-1.24,2.69s.1-.06.07-.04c-.56.37-.31,1.03-.03,1.66,1.75,2.85,3.7,6.2,3.69,9.74-1.08,2.81-2.01,5.79-2.73,8.76-.66,2.84-1.21,5.74-1.2,8.52.05,1.85.24,3.55,1.3,4.92,2.63,3.01,6.25,5.48,10.24,6.04l-.24.84c-.52,2.23-1.35,5.03.45,6.88.53.62,1.2,1.18,1.9,1.61l-.22.44c-.83-.38-1.57-.86-2.26-1.47-1.58-1.21-1.9-3.3-1.78-5.15.03-.91.13-1.78.28-2.7l.76,1.03c-4.59-.47-8.55-2.9-11.62-6.15-4.39-6.2-1.03-17.92.91-24.69l-.13.78c-.15-.94-.43-1.83-.83-2.71-1.41-3.2-4.98-6.23-3.13-10.19.5-1.05,1.24-1.89,2.24-2.48l-1.24,2.69c-.2-.55-.62-1.79-.84-2.34-.57-1.58-2.45-6.15-3.1-7.8-3.7-8.12-3.5-17.79-.36-26.03,3.21-7.8,6.1-15.91,7.1-24.3.37-2.7.18-5.47-.82-8.02-2.33-5.49-6.89-9.9-11.8-13.19-.42-.26-.7-.71-.88-.94-2.08-3.31-2.56-7.37-2.87-11.16-.25-3.97-.2-7.91.05-11.83.45-4.41.65-19.22,6.17-19.67,1.41,0,2.39.77,3.24,1.76l-1.71.8c-2.26-10.42-2.01-21.14-.21-31.59.43-2.21.87-4.57,1.86-6.74.48-.89,1.01-2.05,2.31-2.59,1.85-.79,3.7.58,4.3,2.26l-4.21,1.17c-1.3-8-2.46-16.02-3.57-24.05-1.31-8.07-1.44-16.5-.39-24.57.7-5.42,1.72-10.76,3.35-15.96l.48.12h-.03Z"/>
            <path class="st3" d="M453.29,267.4c.41,3.67-.15,7.43-1.75,10.79-.29.74-.97,1.69-1.37,2.4-1.2,1.8-1.79,4.67.24,6.02l.32.2c.62,2.02,1.01,4.01,1.31,6.03.44,4.39,2.35,16.11-4.08,16.96l1.21-1.91c1.33,2.51,2.6,5.04,3.89,7.57.98,2.03,2.64,4.86,3.08,7.08,1.1,6.2-.19,12.35-1.47,18.34-2.63,11.11-6.05,21.92-9.76,32.69v-.47c1.79,5.07,3.38,10.18,4.76,15.38,2.22,9.13,4.26,18.76,2.67,28.2l-.55,3.97c-.72,5.3-1.53,10.58-2.33,15.86l-1.12-1.76c2.87.96,5.58,2.99,6.24,6.07.45,2.83,0,5.94-2.17,7.95-.21.16-.3.26-.71.47l.5-.39c-1.03,1.28-2.03,2.76-2.67,4.22-.39.99-.79,1.95-.47,2.84.51.82,1.54,1.07,2.6,1.44,1.32.36,2.97,1.12,3.31,2.7.05.29.11.62.12.9l-.04.82c-.47,3.04-1.97,5.76-3.2,8.48-2.31,4.89-4.77,9.72-7.43,14.43l-.27-.14c2.1-4.7,4.3-10.11,6.24-14.92.94-2.45,2.06-4.89,2.48-7.44.15-.8.08-1.56-.16-1.83-.19-.27-.85-.54-1.73-.77-1.43-.39-3.39-.98-4.18-2.58-.82-1.61-.3-3.54.28-4.98.78-1.85,1.76-3.4,2.93-4.96l.5-.39c1.12-1.02,1.48-3.68,1.15-5.19-.54-2.39-3.32-3.58-5.49-4.12.86-5.73,1.68-11.46,2.61-17.17l.63-3.95c1.68-9.08-.1-18.28-1.89-27.27-1.08-5.19-2.36-10.37-3.9-15.44l-.08-.26.09-.22c4.93-11.98,14.29-39.73,9.55-51.76-2.03-3.93-4.37-8.27-6.33-12.22l1.21-1.91c-.15,0-.03,0-.02,0,3.73-1.87,1.76-15.79.91-19.45l.43.56c-.56-.39-.88-.76-1.22-1.23-1.95-2.71-.29-6.12,1.51-8.38,1.28-1.78,2.12-3.8,2.65-5.95.41-1.72.66-3.51.66-5.29l.29-.03h0Z"/>
            <path class="st3" d="M384.2,204.9c3.64,9.04,6.48,18.37,8.43,27.92.75,4.37,1.9,8.91.38,13.31-1.78,5.25-4.25,10.19-6.62,15.14l-.41-.99c3.16,1.47,7.08,4.01,6.7,7.99-.62,3.58-2.02,6.75-3.85,9.87l-.07-1.15c7.56,8.14,13.31,19.2,11.52,30.63-.87,7.43-6.05,15.32-14.57,14.06l1.36-3.66c4.08,2.78,9.48,6.61,9.04,12.25-.09,1.27-.26,2.46-.83,3.7-.54,1.21-1.37,1.92-2.04,2.82-1.13,1.71-3.12,2.72-4.73,3.58-2.66,1.29-5.4,2.34-8.22,3.19l-.15-.36c2.55-1.39,5.1-2.77,7.44-4.4,1.42-1.01,2.8-1.91,3.55-3.31.48-.87,1.32-1.78,1.56-2.6.33-.99.37-2.42.28-3.65-.87-3.5-4.89-5.92-7.9-7.79l-7.37-4.26,8.73.6c1.6.15,3.34-.31,4.68-1.23,3.08-2.07,4.42-6,5.11-9.64,1.93-10.3-3.2-21.2-9.36-29.3,2.08-2.76,3.94-6.07,4.56-9.5.35-3.34-3.3-5.41-6-6.45l-.71-.26.3-.74c2.13-5.46,3.86-11.03,5.17-16.68.34-3.37-.47-7.13-.95-10.54-.71-4.2-1.88-9.95-2.7-14.16-.93-4.74-1.9-9.47-2.71-14.27l.37-.11h0Z"/>
            <path class="st3" d="M295.48,276.03c-.6,2.77-.17,5.7.04,8.52.55,4.13.66,8.47,1.81,12.47.77,2.56,2.34,4.71,4.04,6.71,1.86,2.36,3.53,4.84,4.95,7.51,1.02,1.9,2.44,5.03,1.41,7.29-1.65,4.92-5.22,8.96-7.02,13.76-.59,2.04-1.17,4.62.2,6.38l.72.89c3.14,4.07,4.67,9.64,3.61,14.8-.06.37-.14,1.04-.04,1.16.86,1.78,2.56,3.59,3.63,5.53.69,1.15.79,2.8-.16,3.85l-.15.19-.23.26c-5.73,6.19-11.73,13.33-12.74,21.83-.47,5.56,1.23,11.13,3.6,16.18l-.4.28c-4.01-4.51-6.85-10.49-7.06-16.62-.29-9.68,6.75-19.61,12.93-25.11-.24.42-.39,1.04-.22,1.49,0,0-.03-.07-.05-.11-1.09-2.12-2.9-4.16-3.61-6.7-.3-1.52.06-2.73.39-4.12.77-3.87.15-7.88-1.76-11.45l-.52-.9c-.74-1.1-.92-2.64-.82-3.87.29-4.72,3.37-8.29,5.33-12.32.96-2.22,2.53-5.17,2.06-7.55-.95-2.25-3.07-4.6-4.7-6.6-.42-.45-3.06-3.69-3.44-4.12-2.4-2.77-3.96-6.26-4.4-9.9-.32-3.78-.25-7.44.05-11.23.31-2.98.55-6.1,2.14-8.75l.44.22-.03.02Z"/>
          </g>
        </g>
      </g>
    </g>
  </g>
</svg>